<svg width="16" height="16" viewBox="0 0 16 16" fill="none" xmlns="http://www.w3.org/2000/svg">
<g clip-path="url(#clip0_6094_59114)">
<path d="M8.90086 12.9007L16.6414 5.11518C16.8135 4.94097 16.9304 4.71976 16.9771 4.47936C17.0239 4.23896 16.9986 3.99009 16.9043 3.76404C16.81 3.538 16.6511 3.34487 16.4473 3.20893C16.2436 3.07299 16.0042 3.00031 15.7593 3.00003L0.24225 3.00003C-0.00299835 2.99836 -0.243092 3.07041 -0.446909 3.20682C-0.650724 3.34323 -0.808865 3.53772 -0.900827 3.76508C-0.968844 3.91477 -1.00266 4.07772 -0.999836 4.24211C-1.00366 4.57796 -0.874191 4.90162 -0.639811 5.14218L7.10073 12.9007C7.21536 13.0251 7.35453 13.1243 7.50944 13.1922C7.66435 13.2601 7.83165 13.2952 8.00079 13.2952C8.16993 13.2952 8.33723 13.2601 8.49215 13.1922C8.64706 13.1243 8.78622 13.0251 8.90086 12.9007Z" fill="#BDBDBD"/>
</g>
<defs>
<clipPath id="clip0_6094_59114">
<rect width="16" height="16" fill="white"/>
</clipPath>
</defs>
</svg>
