<svg width="16" height="16" viewBox="0 0 16 16" fill="none" xmlns="http://www.w3.org/2000/svg">
<path fill-rule="evenodd" clip-rule="evenodd" d="M4.23998 1.5432C4.13354 1.43675 3.98917 1.37695 3.83864 1.37695C3.6881 1.37695 3.54374 1.43675 3.43729 1.5432C3.33085 1.64964 3.27105 1.79401 3.27105 1.94454L3.27105 13.0609L1.97016 11.7593C1.86358 11.6527 1.71903 11.5928 1.5683 11.5928C1.41758 11.5928 1.27303 11.6527 1.16645 11.7593C1.05987 11.8658 1 12.0104 1 12.1611C1 12.3118 1.05987 12.4564 1.16645 12.563L3.4368 14.8333C3.48953 14.8862 3.55216 14.9281 3.62112 14.9567C3.69007 14.9853 3.764 15.0001 3.83866 15.0001C3.91331 15.0001 3.98724 14.9853 4.05619 14.9567C4.12515 14.9281 4.18778 14.8862 4.24051 14.8333L6.51086 12.563C6.56372 12.5102 6.60565 12.4476 6.63427 12.3787C6.66288 12.3097 6.67761 12.2358 6.67761 12.1611C6.67761 12.0865 6.66288 12.0125 6.63427 11.9436C6.60565 11.8746 6.56372 11.812 6.51086 11.7593C6.45814 11.7064 6.3955 11.6645 6.32655 11.6359C6.25759 11.6072 6.18366 11.5925 6.10901 11.5925C6.03435 11.5925 5.96043 11.6072 5.89147 11.6359C5.82251 11.6645 5.75988 11.7064 5.70715 11.7593L4.40623 13.061L4.40623 1.94454C4.40623 1.79401 4.34643 1.64964 4.23998 1.5432Z" fill="white"/>
<path d="M10.2683 7.05276L10.7428 5.49643L12.7646 5.49643L13.2391 7.05276H14.5116L12.491 1L11.0891 1L9.0571 7.05276H10.2683ZM11.7849 2.15674L12.5251 4.60532H10.9914L11.7316 2.15674H11.7849ZM9.54522 14.999H14.011L14.011 14.0148H11.0085V13.9524L13.9225 9.73064L13.9225 8.94623H9.62582V9.93043H12.4717V9.99286L9.54522 14.2146V14.999Z" fill="white"/>
</svg>
