<svg width="16" height="16" viewBox="0 0 16 16" fill="none" xmlns="http://www.w3.org/2000/svg">
<g clip-path="url(#clip0_5679_55343)">
<path d="M14.2456 14.5011C11.7973 16.4997 4.15267 16.4997 1.75435 14.5011C-0.693937 12.5025 -0.444117 3.95845 1.75435 1.71003C3.95281 -0.538393 12.0471 -0.538393 14.2456 1.71003C16.444 3.95845 16.6939 12.5025 14.2456 14.5011Z" fill="#069550"/>
<g opacity="0.2">
<path opacity="0.2" d="M8.04997 11.0035C5.85151 12.7523 3.40322 13.6517 1.10484 13.7016C-0.593981 10.8037 -0.244211 3.75862 1.75439 1.71007C3.55313 -0.138625 9.19916 -0.488395 12.4469 0.660793C13.2463 3.95848 11.5975 8.15551 8.04997 11.0035Z" fill="white"/>
</g>
<path d="M6.85077 12.4525C6.501 12.4525 6.15127 12.3026 5.9514 12.0028L3.15338 8.40533C2.75366 7.90569 2.8536 7.20619 3.35325 6.80646C3.85289 6.40673 4.55239 6.50668 4.95212 7.00632L6.85077 9.45461L11.0478 4.00844C11.4476 3.5088 12.1471 3.40885 12.6467 3.80858C13.1463 4.20831 13.2463 4.90781 12.8466 5.40745L7.75014 12.0028C7.50032 12.2526 7.20054 12.4525 6.85077 12.4525Z" fill="white"/>
</g>
<defs>
<clipPath id="clip0_5679_55343">
<rect width="16" height="16" fill="white"/>
</clipPath>
</defs>
</svg>
