<svg width="16" height="16" viewBox="0 0 16 16" fill="none" xmlns="http://www.w3.org/2000/svg">
<g clip-path="url(#clip0_5679_55250)">
<path d="M14.2456 14.5011C11.7973 16.4997 4.15267 16.4997 1.75435 14.5011C-0.693937 12.5025 -0.444117 3.95845 1.75435 1.71003C3.95281 -0.538393 12.0471 -0.538393 14.2456 1.71003C16.444 3.95845 16.6939 12.5025 14.2456 14.5011Z" fill="white"/>
<g opacity="0.2">
<path opacity="0.2" d="M8.04997 11.0035C5.85151 12.7523 3.40322 13.6516 1.10484 13.7016C-0.593981 10.8036 -0.244211 3.75861 1.75439 1.71005C3.55313 -0.138641 9.19916 -0.48841 12.4469 0.660778C13.2463 3.95847 11.5975 8.15549 8.04997 11.0035Z" fill="#069550"/>
</g>
<path d="M6.85077 12.4525C6.501 12.4525 6.15127 12.3026 5.9514 12.0028L3.15338 8.40532C2.75366 7.90568 2.8536 7.20617 3.35325 6.80645C3.85289 6.40672 4.55239 6.50667 4.95212 7.00631L6.85077 9.45459L11.0478 4.00843C11.4476 3.50879 12.1471 3.40884 12.6467 3.80856C13.1463 4.20829 13.2463 4.9078 12.8466 5.40744L7.75014 12.0028C7.50032 12.2526 7.20054 12.4525 6.85077 12.4525Z" fill="#069550"/>
</g>
<defs>
<clipPath id="clip0_5679_55250">
<rect width="16" height="16" fill="white"/>
</clipPath>
</defs>
</svg>
