<svg width="16" height="16" viewBox="0 0 16 16" fill="none" xmlns="http://www.w3.org/2000/svg">
<path fill-rule="evenodd" clip-rule="evenodd" d="M8.63468 6.43269C8.60606 6.50165 8.56412 6.56429 8.51126 6.61702C8.45853 6.66988 8.39589 6.71182 8.32693 6.74043C8.25797 6.76905 8.18404 6.78378 8.10938 6.78378C8.03471 6.78378 7.96079 6.76905 7.89182 6.74043C7.82286 6.71182 7.76022 6.66988 7.7075 6.61702L6.4065 5.31523V16.4325C6.4065 16.583 6.34669 16.7274 6.24024 16.8338C6.13379 16.9403 5.98941 17.0001 5.83887 17.0001C5.68832 17.0001 5.54395 16.9403 5.43749 16.8338C5.33104 16.7274 5.27124 16.583 5.27124 16.4325V5.31521L3.97023 6.61702C3.91745 6.66979 3.8548 6.71166 3.78584 6.74022C3.71689 6.76878 3.64298 6.78348 3.56835 6.78348C3.49371 6.78348 3.4198 6.76878 3.35085 6.74022C3.28189 6.71166 3.21924 6.66979 3.16646 6.61702C3.11369 6.56424 3.07182 6.50159 3.04326 6.43263C3.0147 6.36368 3 6.28977 3 6.21514C3 6.1405 3.0147 6.06659 3.04326 5.99764C3.07182 5.92868 3.11369 5.86603 3.16646 5.81325L5.43698 3.54274C5.48971 3.48988 5.55235 3.44794 5.62131 3.41932C5.69027 3.39071 5.7642 3.37598 5.83886 3.37598C5.91352 3.37598 5.98745 3.39071 6.05642 3.41932C6.12538 3.44794 6.18802 3.48988 6.24074 3.54274L8.51126 5.81325C8.56412 5.86598 8.60606 5.92862 8.63468 5.99758C8.66329 6.06654 8.67802 6.14047 8.67802 6.21514C8.67802 6.2898 8.66329 6.36373 8.63468 6.43269Z" fill="white"/>
<path d="M11.5458 9.05319H16.0119V8.06893H13.0092V8.00649L15.9234 3.78446V3H11.6264V3.98427H14.4725V4.04671L11.5458 8.26873V9.05319ZM12.269 17L12.7435 15.4436H14.7654L15.24 17H16.5126L14.4918 10.9468H13.0898L11.0577 17H12.269ZM13.7857 12.1036L14.5259 14.5524H12.9922L13.7323 12.1048H13.7857V12.1036Z" fill="white"/>
</svg>
