<svg width="100" height="100" viewBox="0 0 100 100" fill="none" xmlns="http://www.w3.org/2000/svg">
<path d="M49.9999 100C76.4276 100 97.8514 78.5761 97.8514 52.1484C97.8514 25.7207 76.4276 4.29688 49.9999 4.29688C23.5722 4.29688 2.14832 25.7207 2.14832 52.1484C2.14832 78.5761 23.5722 100 49.9999 100Z" fill="#FFB900"/>
<path d="M90.8162 77.1347C75.026 102.882 38.2817 107.537 16.6151 86.4296C11.1153 64.7003 5.61566 42.9712 0.115072 21.2421C-0.441568 19.039 1.06429 16.7597 3.47835 16.1483C24.5451 10.8155 45.6125 5.48427 66.6795 0.152243C69.0955 -0.459086 71.5037 0.829977 72.0623 3.0331C78.3125 27.7339 84.5648 52.4341 90.8162 77.1347Z" fill="#E3F2FD"/>
<path d="M61.4001 18.7445L16.9679 29.9902C16.1837 30.1886 15.3869 29.7138 15.1884 28.9295C14.99 28.1451 15.4648 27.3484 16.2492 27.15L60.6814 15.9043C61.4655 15.7058 62.2624 16.1806 62.4609 16.965C62.6593 17.7494 62.1843 18.5461 61.4001 18.7445Z" fill="#42A5F5"/>
<path d="M64.1318 29.5371L19.6996 40.7828C18.9154 40.9812 18.1185 40.5064 17.9201 39.722C17.7217 38.9377 18.1965 38.141 18.9808 37.9426L63.413 26.6968C64.1972 26.4984 64.9941 26.9732 65.1925 27.7576C65.391 28.542 64.916 29.3386 64.1318 29.5371Z" fill="#42A5F5"/>
<path d="M66.9951 40.8504L22.5629 52.0961C21.7787 52.2945 20.9818 51.8197 20.7834 51.0353C20.585 50.2509 21.0598 49.4543 21.8441 49.2558L66.2763 38.0101C67.0607 37.8117 67.8574 38.2865 68.0558 39.0709C68.2542 39.8552 67.7793 40.6517 66.9951 40.8504Z" fill="#42A5F5"/>
<path d="M69.379 50.2701L24.9468 61.5158C24.1626 61.7142 23.3657 61.2394 23.1673 60.4551C22.9689 59.6707 23.4437 58.874 24.228 58.6756L68.6602 47.4299C69.4444 47.2314 70.2413 47.7062 70.4397 48.4906C70.6382 49.275 70.1634 50.0717 69.379 50.2701Z" fill="#42A5F5"/>
<path d="M47.4834 78.5781C49.2933 85.7295 44.9476 93.0207 37.7961 94.8307C30.6447 96.6406 23.3535 92.2949 21.5435 85.1434C19.7336 77.9918 24.0795 70.7008 31.2308 68.8908C38.3822 67.0809 45.6734 71.4266 47.4834 78.5781Z" fill="#4DC27E"/>
<path d="M33.7052 89.016C33.3418 89.108 32.9433 89.0613 32.5959 88.8543L25.9525 84.8945C25.2576 84.4803 25.0301 83.5813 25.4441 82.8861C25.8584 82.1914 26.7576 81.9639 27.4523 82.3779L32.8375 85.5879L39.7242 74.0338C40.1384 73.3391 41.0377 73.1115 41.7324 73.5256C42.4273 73.9399 42.6549 74.8389 42.2408 75.534L34.6041 88.3463C34.397 88.6934 34.0687 88.924 33.7052 89.016Z" fill="white"/>
<path d="M73.2368 65.5121L52.9773 70.6398C52.1929 70.8383 51.3963 70.3635 51.1978 69.5791C50.9994 68.7947 51.4742 67.998 52.2586 67.7996L72.5181 62.6718C73.3023 62.4734 74.0991 62.9482 74.2976 63.7326C74.496 64.517 74.021 65.3136 73.2368 65.5121Z" fill="#42A5F5"/>
<path d="M75.5052 74.4744L55.2456 79.6019C54.4614 79.8003 53.6646 79.3255 53.4661 78.5412C53.2677 77.7568 53.7425 76.9601 54.5269 76.7617L74.7864 71.634C75.5706 71.4355 76.3675 71.9103 76.5659 72.6947C76.7643 73.4793 76.2893 74.2758 75.5052 74.4744Z" fill="#42A5F5"/>
<path d="M97.1973 16.3004C95.8024 17.6953 94.0842 18.5681 92.2848 18.923C89.0117 19.5638 85.9732 21.0361 83.3685 23.0967L76.8568 16.5849C77.1427 16.2217 77.4148 15.8502 77.6758 15.4705C79.3082 13.1144 80.4806 10.4586 81.0498 7.63006C81.4131 5.83065 82.2969 4.11522 83.7027 2.72596C87.4842 -1.01115 93.7721 -0.888298 97.4098 2.9869C98.0368 3.65526 98.5493 4.39139 98.9496 5.17029C100.794 8.76814 100.209 13.2883 97.1973 16.3004Z" fill="#A54B0E"/>
<path d="M96.2651 13.4348C93.8438 15.8561 90.6778 15.9348 87.6707 17.1602C85.1883 18.1717 82.5639 20.3586 80.1189 17.9137L77.6758 15.4705C79.3076 13.115 80.484 10.4426 81.0498 7.63007C81.6244 4.783 83.5213 2.28769 86.1258 0.99726C90.7557 -1.29649 96.5799 0.561517 98.9498 5.17031C99.4096 8.0914 98.5147 11.185 96.2651 13.4348Z" fill="#BF6015"/>
<path d="M84.2953 28.65L84.2815 28.6638L71.2994 15.6818L71.3133 15.6679C71.6668 15.3144 72.0826 15.059 72.5231 14.9029C72.878 14.7744 73.2537 14.7109 73.6266 14.7109C74.4635 14.7109 75.3004 15.0285 75.9399 15.6679L84.2953 24.0234C85.2192 24.9472 85.4762 26.2869 85.0618 27.4416C84.9043 27.8806 84.6489 28.2965 84.2953 28.65Z" fill="#6D2929"/>
<path d="M85.0618 27.4416L72.5231 14.9029C72.878 14.7744 73.2537 14.7109 73.6266 14.7109C74.4635 14.7109 75.3004 15.0285 75.9399 15.6679L84.2954 24.0234C85.2192 24.9472 85.476 26.2869 85.0618 27.4416Z" fill="#844242"/>
<path d="M81.2224 38.2138L80.1521 39.2841C79.9215 39.5148 79.6605 39.6957 79.3814 39.8256C78.3691 40.3021 77.1234 40.1224 76.2851 39.2841L60.6791 23.6781C59.8408 22.8398 59.6613 21.5941 60.1377 20.5818C60.2675 20.3029 60.4484 20.0418 60.6791 19.8111L61.7494 18.7408L81.2224 38.2138Z" fill="#4D5961"/>
<path d="M81.2225 38.2138L80.1522 39.2841C79.9215 39.5148 79.6605 39.6957 79.3814 39.8256L60.1377 20.5818C60.2676 20.3029 60.4484 20.0418 60.6791 19.8111L61.7494 18.7408L81.2225 38.2138Z" fill="#454545"/>
<path d="M85.1516 40.4996C84.3727 41.1459 83.591 41.1459 82.8121 40.4996L59.4637 17.1511C58.6336 16.3211 58.867 15.4883 59.5051 14.7758C60.3254 13.8642 61.8143 13.1515 62.5945 12.9045C65.3305 12.0357 68.3992 12.7816 70.4293 14.8117L85.1516 29.534C85.769 30.1513 86.2606 30.8474 86.6252 31.5904C88.0518 34.4863 87.5615 38.0896 85.1516 40.4996Z" fill="#D88521"/>
<path d="M84.3575 37.2887C83.5786 37.9349 82.7969 37.9349 82.018 37.2887L59.5051 14.7758C60.3254 13.8642 61.8143 13.1515 62.5946 12.9045C65.3305 12.0357 68.3993 12.7816 70.4293 14.8117L85.1516 29.534C85.769 30.1513 86.2606 30.8474 86.6252 31.5904C86.6819 33.6467 85.9264 35.7197 84.3575 37.2887Z" fill="#FEA832"/>
</svg>
