<svg width="238" height="42" viewBox="0 0 238 42" fill="none" xmlns="http://www.w3.org/2000/svg">
<path d="M21 42C32.598 42 42 32.598 42 21C42 9.40202 32.598 0 21 0C9.40202 0 0 9.40202 0 21C0 32.598 9.40202 42 21 42Z" fill="white"/>
<path d="M10.7707 19.5142C10.4764 19.8078 10.2758 20.1822 10.1944 20.59C10.113 20.9978 10.1545 21.4205 10.3136 21.8046C10.4728 22.1888 10.7423 22.517 11.0882 22.7478C11.4341 22.9786 11.8407 23.1015 12.2565 23.101H14.5182V27.4814H12.2565C10.5375 27.4814 8.88882 26.7985 7.67327 25.5829C6.45773 24.3674 5.77484 22.7188 5.77484 20.9997C5.77484 19.2807 6.45773 17.632 7.67327 16.4165C8.88882 15.201 10.5375 14.5181 12.2565 14.5181H14.5182V18.8985H12.2565C11.9805 18.8979 11.707 18.952 11.452 19.0577C11.197 19.1634 10.9655 19.3185 10.7707 19.5142Z" fill="#00AFEF"/>
<path d="M36.2253 20.9997C36.2233 22.7182 35.5398 24.3657 34.3247 25.5808C33.1096 26.7959 31.4621 27.4794 29.7436 27.4814H27.4819V23.101H29.7436C30.3009 23.101 30.8354 22.8796 31.2294 22.4855C31.6235 22.0915 31.8449 21.557 31.8449 20.9997C31.8449 20.4424 31.6235 19.908 31.2294 19.5139C30.8354 19.1198 30.3009 18.8985 29.7436 18.8985H27.4819V14.5181H29.7436C31.4621 14.52 33.1096 15.2035 34.3247 16.4186C35.5398 17.6338 36.2233 19.2813 36.2253 20.9997Z" fill="#FEC32B"/>
<path d="M27.4814 12.2565V14.5184H23.101V12.2565C23.101 11.6992 22.8796 11.1647 22.4855 10.7706C22.0915 10.3766 21.557 10.1552 20.9997 10.1552C20.4424 10.1552 19.908 10.3766 19.5139 10.7706C19.1198 11.1647 18.8985 11.6992 18.8985 12.2565V14.5184H14.5181V12.2565C14.5181 10.5374 15.201 8.88879 16.4165 7.67324C17.632 6.4577 19.2807 5.77481 20.9997 5.77481C22.7188 5.77481 24.3674 6.4577 25.5829 7.67324C26.7985 8.88879 27.4814 10.5374 27.4814 12.2565Z" fill="#FEC32B"/>
<path d="M27.4814 27.4819V29.7438C27.4814 31.4629 26.7985 33.1115 25.5829 34.3271C24.3674 35.5426 22.7188 36.2255 20.9997 36.2255C19.2807 36.2255 17.632 35.5426 16.4165 34.3271C15.201 33.1115 14.5181 31.4629 14.5181 29.7438V27.4819H18.8985V29.7438C18.8985 30.3011 19.1198 30.8356 19.5139 31.2297C19.908 31.6237 20.4424 31.8451 20.9997 31.8451C21.557 31.8451 22.0915 31.6237 22.4855 31.2297C22.8796 30.8356 23.101 30.3011 23.101 29.7438V27.4819H27.4814Z" fill="#00AFEF"/>
<path d="M27.4802 23.0999V27.4802H23.0999V24.4287C23.0999 24.0763 23.2399 23.7383 23.4891 23.4891C23.7383 23.2399 24.0763 23.0999 24.4287 23.0999H27.4802Z" fill="#008C50"/>
<path d="M18.8985 24.4287V27.4802H14.5181V23.0999H17.5696C17.922 23.0999 18.26 23.2399 18.5092 23.4891C18.7585 23.7383 18.8985 24.0763 18.8985 24.4287Z" fill="#0087CB"/>
<path d="M18.8985 14.5181V17.5696C18.8985 17.922 18.7585 18.26 18.5092 18.5092C18.26 18.7584 17.922 18.8985 17.5696 18.8985H14.5181V14.5181H18.8985Z" fill="#008C50"/>
<path d="M27.4802 14.5181V18.8985H24.4287C24.0763 18.8985 23.7383 18.7584 23.4891 18.5092C23.2399 18.26 23.0999 17.922 23.0999 17.5696V14.5181H27.4802Z" fill="#F4A60B"/>
<path d="M32.2576 23.7397C33.7709 23.7397 34.9977 22.513 34.9977 20.9997C34.9977 19.4864 33.7709 18.2596 32.2576 18.2596C30.7443 18.2596 29.5175 19.4864 29.5175 20.9997C29.5175 22.513 30.7443 23.7397 32.2576 23.7397Z" fill="#00A859"/>
<path d="M9.68503 23.7397C11.1983 23.7397 12.4251 22.513 12.4251 20.9997C12.4251 19.4864 11.1983 18.2596 9.68503 18.2596C8.17172 18.2596 6.94495 19.4864 6.94495 20.9997C6.94495 22.513 8.17172 23.7397 9.68503 23.7397Z" fill="#0087CB"/>
<path d="M20.9721 35.0269C22.4854 35.0269 23.7122 33.8001 23.7122 32.2868C23.7122 30.7735 22.4854 29.5468 20.9721 29.5468C19.4588 29.5468 18.2321 30.7735 18.2321 32.2868C18.2321 33.8001 19.4588 35.0269 20.9721 35.0269Z" fill="#0087CB"/>
<path d="M20.9721 12.4538C22.4854 12.4538 23.7122 11.227 23.7122 9.71371C23.7122 8.20041 22.4854 6.97363 20.9721 6.97363C19.4588 6.97363 18.2321 8.20041 18.2321 9.71371C18.2321 11.227 19.4588 12.4538 20.9721 12.4538Z" fill="#00A859"/>
<path d="M65.188 22.4321H61.3018V20.3916H65.188C65.8647 20.3916 66.4116 20.2822 66.8286 20.0635C67.2456 19.8447 67.5498 19.5439 67.7412 19.1611C67.9395 18.7715 68.0386 18.3271 68.0386 17.8281C68.0386 17.3564 67.9395 16.9155 67.7412 16.5054C67.5498 16.0884 67.2456 15.7534 66.8286 15.5005C66.4116 15.2476 65.8647 15.1211 65.188 15.1211H62.0913V28H59.5176V13.0703H65.188C66.3433 13.0703 67.3242 13.2754 68.1309 13.6855C68.9443 14.0889 69.563 14.6494 69.9868 15.3672C70.4106 16.0781 70.6226 16.8916 70.6226 17.8076C70.6226 18.7715 70.4106 19.5986 69.9868 20.2891C69.563 20.9795 68.9443 21.5093 68.1309 21.8784C67.3242 22.2476 66.3433 22.4321 65.188 22.4321ZM77.4312 28.2051C76.6108 28.2051 75.8691 28.0718 75.2061 27.8052C74.5498 27.5317 73.9893 27.1523 73.5244 26.667C73.0664 26.1816 72.7144 25.6108 72.4683 24.9546C72.2222 24.2983 72.0991 23.5908 72.0991 22.832V22.4219C72.0991 21.5537 72.2256 20.7676 72.4785 20.0635C72.7314 19.3594 73.0835 18.7578 73.5347 18.2588C73.9858 17.7529 74.519 17.3667 75.1343 17.1001C75.7495 16.8335 76.416 16.7002 77.1338 16.7002C77.9268 16.7002 78.6206 16.8335 79.2153 17.1001C79.8101 17.3667 80.3022 17.7427 80.6919 18.228C81.0884 18.7065 81.3823 19.2773 81.5737 19.9404C81.772 20.6035 81.8711 21.335 81.8711 22.1348V23.1909H73.2988V21.417H79.4307V21.2222C79.417 20.7778 79.3281 20.3608 79.1641 19.9712C79.0068 19.5815 78.7642 19.2671 78.436 19.0278C78.1079 18.7886 77.6704 18.6689 77.1235 18.6689C76.7134 18.6689 76.3477 18.7578 76.0264 18.9355C75.7119 19.1064 75.4487 19.356 75.2368 19.6841C75.0249 20.0122 74.8608 20.4087 74.7446 20.8735C74.6353 21.3315 74.5806 21.8477 74.5806 22.4219V22.832C74.5806 23.3174 74.6455 23.7686 74.7754 24.1855C74.9121 24.5957 75.1104 24.9546 75.3701 25.2622C75.6299 25.5698 75.9443 25.8125 76.3135 25.9902C76.6826 26.1611 77.103 26.2466 77.5747 26.2466C78.1694 26.2466 78.6992 26.127 79.1641 25.8877C79.6289 25.6484 80.0322 25.3101 80.374 24.8726L81.6763 26.1338C81.437 26.4824 81.126 26.8174 80.7432 27.1387C80.3604 27.4531 79.8921 27.7095 79.3384 27.9077C78.7915 28.106 78.1558 28.2051 77.4312 28.2051ZM86.2495 19.2739V28H83.7783V16.9053H86.106L86.2495 19.2739ZM85.8086 22.0425L85.0088 22.0322C85.0156 21.2461 85.125 20.5249 85.3369 19.8687C85.5557 19.2124 85.8564 18.6484 86.2393 18.1768C86.6289 17.7051 87.0938 17.3428 87.6338 17.0898C88.1738 16.8301 88.7754 16.7002 89.4385 16.7002C89.9717 16.7002 90.4536 16.7754 90.8843 16.9258C91.3218 17.0693 91.6943 17.3052 92.002 17.6333C92.3164 17.9614 92.5557 18.3887 92.7197 18.915C92.8838 19.4346 92.9658 20.0737 92.9658 20.8325V28H90.4844V20.8223C90.4844 20.2891 90.4058 19.8687 90.2485 19.561C90.0981 19.2466 89.876 19.0244 89.582 18.8945C89.2949 18.7578 88.936 18.6895 88.5054 18.6895C88.0815 18.6895 87.7021 18.7783 87.3672 18.9561C87.0322 19.1338 86.7485 19.3765 86.5161 19.6841C86.2905 19.9917 86.1162 20.3472 85.9932 20.7505C85.8701 21.1538 85.8086 21.5845 85.8086 22.0425ZM102.594 16.9053H104.84V27.6924C104.84 28.6904 104.628 29.5381 104.204 30.2354C103.78 30.9326 103.189 31.4624 102.43 31.8247C101.671 32.1938 100.793 32.3784 99.7949 32.3784C99.3711 32.3784 98.8994 32.3169 98.3799 32.1938C97.8672 32.0708 97.3682 31.8726 96.8828 31.5991C96.4043 31.3325 96.0044 30.9805 95.6831 30.543L96.8418 29.0869C97.2383 29.5586 97.6758 29.9038 98.1543 30.1226C98.6328 30.3413 99.1353 30.4507 99.6616 30.4507C100.229 30.4507 100.711 30.3447 101.107 30.1328C101.511 29.9277 101.822 29.6235 102.041 29.2202C102.259 28.8169 102.369 28.3247 102.369 27.7437V19.4175L102.594 16.9053ZM95.0576 22.5757V22.3604C95.0576 21.5195 95.1602 20.7539 95.3652 20.0635C95.5703 19.3662 95.8643 18.7681 96.2471 18.269C96.6299 17.7632 97.0947 17.377 97.6416 17.1104C98.1885 16.8369 98.8071 16.7002 99.4976 16.7002C100.215 16.7002 100.827 16.8301 101.333 17.0898C101.846 17.3496 102.273 17.7222 102.615 18.2075C102.957 18.686 103.223 19.2603 103.415 19.9302C103.613 20.5933 103.76 21.3315 103.855 22.145V22.832C103.767 23.625 103.616 24.3496 103.404 25.0059C103.192 25.6621 102.912 26.2295 102.563 26.708C102.215 27.1865 101.784 27.5557 101.271 27.8154C100.766 28.0752 100.167 28.2051 99.4771 28.2051C98.8003 28.2051 98.1885 28.0649 97.6416 27.7847C97.1016 27.5044 96.6367 27.1113 96.2471 26.6055C95.8643 26.0996 95.5703 25.5049 95.3652 24.8213C95.1602 24.1309 95.0576 23.3823 95.0576 22.5757ZM97.5288 22.3604V22.5757C97.5288 23.0815 97.5767 23.5532 97.6724 23.9907C97.7749 24.4282 97.9287 24.8145 98.1338 25.1494C98.3457 25.4775 98.6123 25.7373 98.9336 25.9287C99.2617 26.1133 99.6479 26.2056 100.092 26.2056C100.673 26.2056 101.148 26.0825 101.518 25.8364C101.894 25.5903 102.181 25.2588 102.379 24.8418C102.584 24.418 102.728 23.9463 102.81 23.4268V21.5708C102.769 21.1675 102.683 20.7915 102.553 20.4429C102.43 20.0942 102.263 19.79 102.051 19.5303C101.839 19.2637 101.572 19.0586 101.251 18.915C100.93 18.7646 100.55 18.6895 100.113 18.6895C99.6685 18.6895 99.2822 18.7852 98.9541 18.9766C98.626 19.168 98.356 19.4312 98.144 19.7661C97.939 20.1011 97.7852 20.4907 97.6826 20.9351C97.5801 21.3794 97.5288 21.8545 97.5288 22.3604ZM113.658 25.7749V20.4839C113.658 20.0874 113.586 19.7456 113.443 19.4585C113.299 19.1714 113.081 18.9492 112.787 18.792C112.5 18.6348 112.137 18.5562 111.7 18.5562C111.296 18.5562 110.948 18.6245 110.654 18.7612C110.36 18.8979 110.131 19.0825 109.967 19.3149C109.803 19.5474 109.721 19.8105 109.721 20.1045H107.26C107.26 19.667 107.366 19.2432 107.578 18.833C107.79 18.4229 108.097 18.0571 108.5 17.7358C108.904 17.4146 109.386 17.1616 109.946 16.9771C110.507 16.7925 111.136 16.7002 111.833 16.7002C112.667 16.7002 113.405 16.8403 114.048 17.1206C114.697 17.4009 115.207 17.8247 115.576 18.3921C115.952 18.9526 116.14 19.6567 116.14 20.5044V25.4365C116.14 25.9424 116.174 26.397 116.242 26.8003C116.317 27.1968 116.423 27.542 116.56 27.8359V28H114.027C113.911 27.7334 113.819 27.395 113.75 26.9849C113.689 26.5679 113.658 26.1646 113.658 25.7749ZM114.017 21.2529L114.038 22.7808H112.264C111.806 22.7808 111.402 22.8252 111.054 22.9141C110.705 22.9961 110.415 23.1191 110.182 23.2832C109.95 23.4473 109.775 23.6455 109.659 23.8779C109.543 24.1104 109.485 24.3735 109.485 24.6675C109.485 24.9614 109.553 25.2314 109.69 25.4775C109.827 25.7168 110.025 25.9048 110.285 26.0415C110.551 26.1782 110.873 26.2466 111.249 26.2466C111.754 26.2466 112.195 26.144 112.571 25.939C112.954 25.7271 113.255 25.4707 113.474 25.1699C113.692 24.8623 113.809 24.5718 113.822 24.2983L114.622 25.3955C114.54 25.6758 114.4 25.9766 114.202 26.2979C114.003 26.6191 113.744 26.9268 113.422 27.2207C113.108 27.5078 112.729 27.7437 112.284 27.9282C111.847 28.1128 111.341 28.2051 110.767 28.2051C110.042 28.2051 109.396 28.0615 108.829 27.7744C108.261 27.4805 107.817 27.0874 107.496 26.5952C107.174 26.0962 107.014 25.5322 107.014 24.9033C107.014 24.3154 107.123 23.7959 107.342 23.3447C107.567 22.8867 107.896 22.5039 108.326 22.1963C108.764 21.8887 109.297 21.6562 109.926 21.499C110.555 21.335 111.272 21.2529 112.079 21.2529H114.017ZM118.847 16.9053H121.328V28.9639C121.328 29.7227 121.198 30.3618 120.938 30.8813C120.679 31.4077 120.296 31.8042 119.79 32.0708C119.284 32.3442 118.666 32.481 117.934 32.481C117.715 32.481 117.49 32.4639 117.257 32.4297C117.018 32.4023 116.792 32.3613 116.581 32.3066L116.591 30.3789C116.734 30.4062 116.888 30.4268 117.052 30.4404C117.209 30.4609 117.36 30.4712 117.503 30.4712C117.797 30.4712 118.043 30.4199 118.242 30.3174C118.44 30.2148 118.59 30.0542 118.693 29.8354C118.795 29.6167 118.847 29.3262 118.847 28.9639V16.9053ZM118.631 13.9932C118.631 13.6172 118.758 13.3062 119.011 13.0601C119.264 12.8071 119.609 12.6807 120.046 12.6807C120.491 12.6807 120.836 12.8071 121.082 13.0601C121.335 13.3062 121.461 13.6172 121.461 13.9932C121.461 14.3623 121.335 14.6699 121.082 14.916C120.836 15.1621 120.491 15.2852 120.046 15.2852C119.609 15.2852 119.264 15.1621 119.011 14.916C118.758 14.6699 118.631 14.3623 118.631 13.9932ZM130.669 25.3853V16.9053H133.151V28H130.813L130.669 25.3853ZM131.018 23.0781L131.849 23.0576C131.849 23.8027 131.767 24.4897 131.603 25.1187C131.438 25.7407 131.186 26.2842 130.844 26.749C130.502 27.207 130.064 27.5659 129.531 27.8257C128.998 28.0786 128.359 28.2051 127.614 28.2051C127.074 28.2051 126.578 28.1265 126.127 27.9692C125.676 27.812 125.286 27.5693 124.958 27.2412C124.637 26.9131 124.387 26.4858 124.209 25.9595C124.032 25.4331 123.943 24.8042 123.943 24.0728V16.9053H126.414V24.0933C126.414 24.4966 126.462 24.835 126.558 25.1084C126.653 25.375 126.783 25.5903 126.947 25.7544C127.111 25.9185 127.303 26.0347 127.521 26.103C127.74 26.1714 127.973 26.2056 128.219 26.2056C128.923 26.2056 129.477 26.0688 129.88 25.7954C130.29 25.5151 130.581 25.1392 130.751 24.6675C130.929 24.1958 131.018 23.666 131.018 23.0781ZM141.938 25.7749V20.4839C141.938 20.0874 141.867 19.7456 141.723 19.4585C141.58 19.1714 141.361 18.9492 141.067 18.792C140.78 18.6348 140.417 18.5562 139.98 18.5562C139.577 18.5562 139.228 18.6245 138.934 18.7612C138.64 18.8979 138.411 19.0825 138.247 19.3149C138.083 19.5474 138.001 19.8105 138.001 20.1045H135.54C135.54 19.667 135.646 19.2432 135.858 18.833C136.07 18.4229 136.377 18.0571 136.781 17.7358C137.184 17.4146 137.666 17.1616 138.227 16.9771C138.787 16.7925 139.416 16.7002 140.113 16.7002C140.947 16.7002 141.686 16.8403 142.328 17.1206C142.978 17.4009 143.487 17.8247 143.856 18.3921C144.232 18.9526 144.42 19.6567 144.42 20.5044V25.4365C144.42 25.9424 144.454 26.397 144.522 26.8003C144.598 27.1968 144.704 27.542 144.84 27.8359V28H142.308C142.191 27.7334 142.099 27.395 142.031 26.9849C141.969 26.5679 141.938 26.1646 141.938 25.7749ZM142.297 21.2529L142.318 22.7808H140.544C140.086 22.7808 139.683 22.8252 139.334 22.9141C138.985 22.9961 138.695 23.1191 138.462 23.2832C138.23 23.4473 138.056 23.6455 137.939 23.8779C137.823 24.1104 137.765 24.3735 137.765 24.6675C137.765 24.9614 137.833 25.2314 137.97 25.4775C138.107 25.7168 138.305 25.9048 138.565 26.0415C138.832 26.1782 139.153 26.2466 139.529 26.2466C140.035 26.2466 140.476 26.144 140.852 25.939C141.234 25.7271 141.535 25.4707 141.754 25.1699C141.973 24.8623 142.089 24.5718 142.103 24.2983L142.902 25.3955C142.82 25.6758 142.68 25.9766 142.482 26.2979C142.284 26.6191 142.024 26.9268 141.703 27.2207C141.388 27.5078 141.009 27.7437 140.564 27.9282C140.127 28.1128 139.621 28.2051 139.047 28.2051C138.322 28.2051 137.676 28.0615 137.109 27.7744C136.542 27.4805 136.097 27.0874 135.776 26.5952C135.455 26.0962 135.294 25.5322 135.294 24.9033C135.294 24.3154 135.403 23.7959 135.622 23.3447C135.848 22.8867 136.176 22.5039 136.606 22.1963C137.044 21.8887 137.577 21.6562 138.206 21.499C138.835 21.335 139.553 21.2529 140.359 21.2529H142.297ZM149.455 19.2739V28H146.983V16.9053H149.311L149.455 19.2739ZM149.014 22.0425L148.214 22.0322C148.221 21.2461 148.33 20.5249 148.542 19.8687C148.761 19.2124 149.062 18.6484 149.444 18.1768C149.834 17.7051 150.299 17.3428 150.839 17.0898C151.379 16.8301 151.98 16.7002 152.644 16.7002C153.177 16.7002 153.659 16.7754 154.089 16.9258C154.527 17.0693 154.899 17.3052 155.207 17.6333C155.521 17.9614 155.761 18.3887 155.925 18.915C156.089 19.4346 156.171 20.0737 156.171 20.8325V28H153.689V20.8223C153.689 20.2891 153.611 19.8687 153.454 19.561C153.303 19.2466 153.081 19.0244 152.787 18.8945C152.5 18.7578 152.141 18.6895 151.71 18.6895C151.287 18.6895 150.907 18.7783 150.572 18.9561C150.237 19.1338 149.954 19.3765 149.721 19.6841C149.496 19.9917 149.321 20.3472 149.198 20.7505C149.075 21.1538 149.014 21.5845 149.014 22.0425ZM173.521 25.9595V28H166.025V25.9595H173.521ZM166.743 13.0703V28H164.169V13.0703H166.743ZM174.792 22.5757V22.3398C174.792 21.54 174.908 20.7983 175.141 20.1147C175.373 19.4243 175.708 18.8262 176.146 18.3203C176.59 17.8076 177.13 17.4111 177.766 17.1309C178.408 16.8438 179.133 16.7002 179.939 16.7002C180.753 16.7002 181.478 16.8438 182.113 17.1309C182.756 17.4111 183.299 17.8076 183.744 18.3203C184.188 18.8262 184.526 19.4243 184.759 20.1147C184.991 20.7983 185.107 21.54 185.107 22.3398V22.5757C185.107 23.3755 184.991 24.1172 184.759 24.8008C184.526 25.4844 184.188 26.0825 183.744 26.5952C183.299 27.1011 182.759 27.4976 182.124 27.7847C181.488 28.0649 180.767 28.2051 179.96 28.2051C179.146 28.2051 178.418 28.0649 177.776 27.7847C177.14 27.4976 176.6 27.1011 176.156 26.5952C175.711 26.0825 175.373 25.4844 175.141 24.8008C174.908 24.1172 174.792 23.3755 174.792 22.5757ZM177.263 22.3398V22.5757C177.263 23.0747 177.314 23.5464 177.417 23.9907C177.52 24.4351 177.68 24.8247 177.899 25.1597C178.118 25.4946 178.398 25.7578 178.74 25.9492C179.082 26.1406 179.488 26.2363 179.96 26.2363C180.418 26.2363 180.814 26.1406 181.149 25.9492C181.491 25.7578 181.771 25.4946 181.99 25.1597C182.209 24.8247 182.37 24.4351 182.472 23.9907C182.582 23.5464 182.636 23.0747 182.636 22.5757V22.3398C182.636 21.8477 182.582 21.3828 182.472 20.9453C182.37 20.501 182.206 20.1079 181.98 19.7661C181.761 19.4243 181.481 19.1577 181.139 18.9663C180.804 18.7681 180.404 18.6689 179.939 18.6689C179.475 18.6689 179.071 18.7681 178.729 18.9663C178.395 19.1577 178.118 19.4243 177.899 19.7661C177.68 20.1079 177.52 20.501 177.417 20.9453C177.314 21.3828 177.263 21.8477 177.263 22.3398ZM194.285 16.9053H196.53V27.6924C196.53 28.6904 196.318 29.5381 195.895 30.2354C195.471 30.9326 194.879 31.4624 194.121 31.8247C193.362 32.1938 192.483 32.3784 191.485 32.3784C191.062 32.3784 190.59 32.3169 190.07 32.1938C189.558 32.0708 189.059 31.8726 188.573 31.5991C188.095 31.3325 187.695 30.9805 187.374 30.543L188.532 29.0869C188.929 29.5586 189.366 29.9038 189.845 30.1226C190.323 30.3413 190.826 30.4507 191.352 30.4507C191.919 30.4507 192.401 30.3447 192.798 30.1328C193.201 29.9277 193.512 29.6235 193.731 29.2202C193.95 28.8169 194.059 28.3247 194.059 27.7437V19.4175L194.285 16.9053ZM186.748 22.5757V22.3604C186.748 21.5195 186.851 20.7539 187.056 20.0635C187.261 19.3662 187.555 18.7681 187.938 18.269C188.32 17.7632 188.785 17.377 189.332 17.1104C189.879 16.8369 190.498 16.7002 191.188 16.7002C191.906 16.7002 192.518 16.8301 193.023 17.0898C193.536 17.3496 193.963 17.7222 194.305 18.2075C194.647 18.686 194.914 19.2603 195.105 19.9302C195.303 20.5933 195.45 21.3315 195.546 22.145V22.832C195.457 23.625 195.307 24.3496 195.095 25.0059C194.883 25.6621 194.603 26.2295 194.254 26.708C193.905 27.1865 193.475 27.5557 192.962 27.8154C192.456 28.0752 191.858 28.2051 191.167 28.2051C190.491 28.2051 189.879 28.0649 189.332 27.7847C188.792 27.5044 188.327 27.1113 187.938 26.6055C187.555 26.0996 187.261 25.5049 187.056 24.8213C186.851 24.1309 186.748 23.3823 186.748 22.5757ZM189.219 22.3604V22.5757C189.219 23.0815 189.267 23.5532 189.363 23.9907C189.465 24.4282 189.619 24.8145 189.824 25.1494C190.036 25.4775 190.303 25.7373 190.624 25.9287C190.952 26.1133 191.338 26.2056 191.783 26.2056C192.364 26.2056 192.839 26.0825 193.208 25.8364C193.584 25.5903 193.871 25.2588 194.069 24.8418C194.274 24.418 194.418 23.9463 194.5 23.4268V21.5708C194.459 21.1675 194.374 20.7915 194.244 20.4429C194.121 20.0942 193.953 19.79 193.741 19.5303C193.529 19.2637 193.263 19.0586 192.941 18.915C192.62 18.7646 192.241 18.6895 191.803 18.6895C191.359 18.6895 190.973 18.7852 190.645 18.9766C190.316 19.168 190.046 19.4312 189.834 19.7661C189.629 20.1011 189.476 20.4907 189.373 20.9351C189.271 21.3794 189.219 21.8545 189.219 22.3604ZM201.739 16.9053V28H199.258V16.9053H201.739ZM199.094 13.9932C199.094 13.6172 199.217 13.3062 199.463 13.0601C199.716 12.8071 200.064 12.6807 200.509 12.6807C200.946 12.6807 201.292 12.8071 201.544 13.0601C201.797 13.3062 201.924 13.6172 201.924 13.9932C201.924 14.3623 201.797 14.6699 201.544 14.916C201.292 15.1621 200.946 15.2852 200.509 15.2852C200.064 15.2852 199.716 15.1621 199.463 14.916C199.217 14.6699 199.094 14.3623 199.094 13.9932ZM210.67 24.9956C210.67 24.7495 210.609 24.5273 210.486 24.3291C210.363 24.124 210.127 23.9395 209.778 23.7754C209.437 23.6113 208.931 23.4609 208.261 23.3242C207.673 23.1943 207.133 23.0405 206.641 22.8628C206.155 22.6782 205.738 22.4561 205.39 22.1963C205.041 21.9365 204.771 21.6289 204.58 21.2734C204.388 20.918 204.292 20.5078 204.292 20.043C204.292 19.5918 204.392 19.1646 204.59 18.7612C204.788 18.3579 205.072 18.0024 205.441 17.6948C205.81 17.3872 206.258 17.1445 206.784 16.9668C207.317 16.7891 207.912 16.7002 208.568 16.7002C209.498 16.7002 210.294 16.8574 210.958 17.1719C211.627 17.4795 212.14 17.8999 212.496 18.4331C212.851 18.9595 213.029 19.5542 213.029 20.2173H210.558C210.558 19.9233 210.482 19.6499 210.332 19.397C210.188 19.1372 209.97 18.9287 209.676 18.7715C209.382 18.6074 209.013 18.5254 208.568 18.5254C208.145 18.5254 207.792 18.5938 207.512 18.7305C207.239 18.8604 207.034 19.0312 206.897 19.2432C206.767 19.4551 206.702 19.6875 206.702 19.9404C206.702 20.125 206.736 20.2925 206.805 20.4429C206.88 20.5864 207.003 20.7197 207.174 20.8428C207.345 20.959 207.577 21.0684 207.871 21.1709C208.172 21.2734 208.548 21.3726 208.999 21.4683C209.847 21.646 210.575 21.875 211.183 22.1553C211.798 22.4287 212.27 22.7842 212.598 23.2217C212.926 23.6523 213.09 24.1992 213.09 24.8623C213.09 25.3545 212.984 25.8057 212.772 26.2158C212.567 26.6191 212.267 26.9712 211.87 27.272C211.474 27.5659 210.999 27.7949 210.445 27.959C209.898 28.123 209.283 28.2051 208.599 28.2051C207.594 28.2051 206.743 28.0273 206.046 27.6719C205.349 27.3096 204.819 26.8481 204.457 26.2876C204.101 25.7202 203.923 25.1323 203.923 24.5239H206.312C206.34 24.9819 206.466 25.3477 206.692 25.6211C206.924 25.8877 207.211 26.0825 207.553 26.2056C207.902 26.3218 208.261 26.3799 208.63 26.3799C209.074 26.3799 209.447 26.3218 209.748 26.2056C210.048 26.0825 210.277 25.9185 210.435 25.7134C210.592 25.5015 210.67 25.2622 210.67 24.9956ZM220.34 16.9053V18.71H214.085V16.9053H220.34ZM215.89 14.188H218.361V24.9341C218.361 25.2759 218.409 25.5391 218.504 25.7236C218.607 25.9014 218.747 26.021 218.925 26.0825C219.103 26.144 219.311 26.1748 219.55 26.1748C219.721 26.1748 219.885 26.1646 220.042 26.144C220.2 26.1235 220.326 26.103 220.422 26.0825L220.432 27.9692C220.227 28.0308 219.988 28.0854 219.714 28.1333C219.448 28.1812 219.14 28.2051 218.792 28.2051C218.224 28.2051 217.722 28.106 217.284 27.9077C216.847 27.7026 216.505 27.3711 216.259 26.9131C216.013 26.4551 215.89 25.8467 215.89 25.0879V14.188ZM224.893 16.9053V28H222.411V16.9053H224.893ZM222.247 13.9932C222.247 13.6172 222.37 13.3062 222.616 13.0601C222.869 12.8071 223.218 12.6807 223.662 12.6807C224.1 12.6807 224.445 12.8071 224.698 13.0601C224.951 13.3062 225.077 13.6172 225.077 13.9932C225.077 14.3623 224.951 14.6699 224.698 14.916C224.445 15.1621 224.1 15.2852 223.662 15.2852C223.218 15.2852 222.869 15.1621 222.616 14.916C222.37 14.6699 222.247 14.3623 222.247 13.9932ZM230.091 12.25V28H227.61V12.25H230.091ZM236.982 16.9053L232.152 22.2578L229.507 24.9648L228.861 22.873L230.86 20.4019L233.998 16.9053H236.982ZM234.531 28L230.932 22.791L232.491 21.0581L237.392 28H234.531Z" fill="#424242"/>
</svg>
