<svg width="16" height="16" viewBox="0 0 16 16" fill="none" xmlns="http://www.w3.org/2000/svg">
<path fill-rule="evenodd" clip-rule="evenodd" d="M4.17021 1.5432C4.06377 1.43675 3.9194 1.37695 3.76887 1.37695C3.61834 1.37695 3.47397 1.43675 3.36752 1.5432C3.26108 1.64964 3.20128 1.79401 3.20128 1.94454L3.20128 13.0609L1.90039 11.7593C1.79382 11.6527 1.64927 11.5928 1.49854 11.5928C1.34782 11.5928 1.20327 11.6527 1.09669 11.7593C0.990112 11.8658 0.930237 12.0104 0.930237 12.1611C0.930237 12.3118 0.990112 12.4564 1.09669 12.563L3.36704 14.8333C3.41976 14.8862 3.4824 14.9281 3.55135 14.9567C3.62031 14.9853 3.69424 15.0001 3.76889 15.0001C3.84355 15.0001 3.91747 14.9853 3.98643 14.9567C4.05539 14.9281 4.11802 14.8862 4.17074 14.8333L6.4411 12.563C6.49395 12.5102 6.53589 12.4476 6.5645 12.3787C6.59312 12.3097 6.60785 12.2358 6.60785 12.1611C6.60785 12.0865 6.59312 12.0125 6.5645 11.9436C6.53589 11.8746 6.49395 11.812 6.4411 11.7593C6.38837 11.7064 6.32574 11.6645 6.25678 11.6359C6.18783 11.6072 6.1139 11.5925 6.03924 11.5925C5.96459 11.5925 5.89066 11.6072 5.82171 11.6359C5.75275 11.6645 5.69012 11.7064 5.63739 11.7593L4.33646 13.061L4.33646 1.94454C4.33646 1.79401 4.27666 1.64964 4.17021 1.5432Z" fill="white"/>
<path d="M10.1986 7.05276L10.6731 5.49643L12.6948 5.49643L13.1693 7.05276H14.4419L12.4212 1L11.0193 1L8.98734 7.05276H10.1986ZM11.7152 2.15674L12.4553 4.60532H10.9217L11.6618 2.15674H11.7152ZM9.47546 14.999H13.9412L13.9412 14.0148H10.9387V13.9524L13.8527 9.73064L13.8527 8.94623H9.55606V9.93043H12.4019V9.99286L9.47546 14.2146V14.999Z" fill="white"/>
<path fill-rule="evenodd" clip-rule="evenodd" d="M6.4415 4.61702C6.49436 4.56429 6.5363 4.50165 6.56491 4.43269C6.59353 4.36373 6.60826 4.2898 6.60826 4.21514C6.60826 4.14047 6.59353 4.06654 6.56491 3.99758C6.5363 3.92862 6.49436 3.86598 6.4415 3.81325L4.17098 1.54274C4.11825 1.48988 4.05561 1.44794 3.98665 1.41932C3.91769 1.39071 3.84376 1.37598 3.7691 1.37598C3.69444 1.37598 3.62051 1.39071 3.55154 1.41932C3.48258 1.44794 3.41994 1.48988 3.36722 1.54274L1.0967 3.81325C1.04393 3.86603 1.00206 3.92868 0.973499 3.99764C0.944937 4.06659 0.930237 4.1405 0.930237 4.21514C0.930237 4.28977 0.944937 4.36368 0.973499 4.43263C1.00206 4.50159 1.04393 4.56424 1.0967 4.61702C1.14948 4.66979 1.21213 4.71166 1.28109 4.74022C1.35004 4.76878 1.42395 4.78348 1.49858 4.78348C1.57322 4.78348 1.64712 4.76878 1.71608 4.74022C1.78503 4.71166 1.84769 4.66979 1.90046 4.61702L3.7691 2.74725L5.63773 4.61702C5.69046 4.66988 5.7531 4.71182 5.82206 4.74043C5.89102 4.76905 5.96495 4.78378 6.03961 4.78378C6.11428 4.78378 6.18821 4.76905 6.25717 4.74043C6.32613 4.71182 6.38877 4.66988 6.4415 4.61702Z" fill="white"/>
</svg>
