<svg width="139" height="128" viewBox="0 0 139 128" fill="none" xmlns="http://www.w3.org/2000/svg">
<path d="M33.095 15.3256C25.4971 15.3165 18.1288 17.9191 12.2343 22.6941C4.75787 28.7606 0 37.9775 0 48.2876C0 66.4875 33.095 106.946 33.095 106.946C33.095 106.946 48.1263 88.5661 57.9029 71.0177C62.6607 62.5305 66.1896 54.2238 66.1896 48.288C66.1902 30.0886 51.3679 15.3256 33.095 15.3256ZM33.095 63.336C29.1105 63.3621 25.2674 61.8666 22.3561 59.157C19.4448 56.4475 17.6865 52.7299 17.4429 48.7687C17.1994 44.8076 18.489 40.9041 21.0466 37.861C23.6042 34.8178 27.2353 32.8664 31.1933 32.408C35.1512 31.9497 39.135 33.0192 42.3255 35.3967C45.5159 37.7741 47.6704 41.2788 48.3459 45.1899C49.0214 49.101 48.1665 53.1212 45.9571 56.4238C43.7476 59.7264 40.3516 62.0603 36.4673 62.9454C35.3627 63.2082 34.2307 63.3392 33.095 63.3356V63.336Z" fill="#EEEEEE"/>
<path d="M130.899 60.5892C128.751 60.5893 126.691 61.4393 125.171 62.9523C123.652 64.4653 122.799 66.5174 122.799 68.6572C122.799 73.1129 130.899 83.0194 130.899 83.0194C130.899 83.0194 139 73.1129 139 68.6572C139 66.5174 138.146 64.4653 136.627 62.9523C135.108 61.4392 133.048 60.5892 130.899 60.5892ZM130.899 72.3464C130.15 72.3464 129.418 72.1252 128.796 71.7108C128.173 71.2965 127.688 70.7075 127.401 70.0184C127.115 69.3293 127.04 68.571 127.186 67.8395C127.332 67.1079 127.692 66.4359 128.222 65.9085C128.752 65.3811 129.426 65.022 130.161 64.8765C130.895 64.731 131.657 64.8057 132.348 65.0911C133.04 65.3766 133.632 65.86 134.048 66.4801C134.464 67.1003 134.686 67.8295 134.686 68.5753C134.686 69.5755 134.287 70.5347 133.577 71.2419C132.867 71.9491 131.904 72.3464 130.899 72.3464Z" fill="#616161"/>
<path d="M48.0858 101.99L48.6199 101.557L41.4658 92.2453L38.8839 92.1379L48.0858 101.99Z" fill="#757575"/>
<path d="M57.4332 101.99L57.875 101.557L51.9562 92.2453L49.82 92.1379L57.4332 101.99Z" fill="#757575"/>
<path d="M101.117 77.7209C101.117 75.9536 99.7123 74.521 97.9798 74.521C96.2473 74.521 94.8426 75.9532 94.8426 77.7209C94.8426 79.4885 96.247 80.9206 97.9798 80.9206C99.7126 80.9206 101.117 79.4879 101.117 77.7209Z" fill="#BDBDBD"/>
<path d="M61.3191 120.857H93.2188C93.3864 120.856 93.5468 120.789 93.6648 120.671C93.7829 120.552 93.8491 120.392 93.8489 120.225V117.223C93.8491 117.056 93.7829 116.895 93.6648 116.777C93.5468 116.658 93.3864 116.591 93.2188 116.59H65.0398C64.8722 116.591 64.7119 116.658 64.5938 116.777C64.4757 116.895 64.4095 117.056 64.4096 117.223L61.3191 120.857Z" fill="#BDBDBD"/>
<path d="M61.0386 118.505C61.0386 116.627 60.4795 114.791 59.4319 113.23C58.3844 111.668 56.8955 110.451 55.1535 109.733C53.4115 109.014 51.4947 108.826 49.6454 109.192C47.7961 109.559 46.0974 110.463 44.7642 111.791C43.4309 113.119 42.5229 114.811 42.1551 116.653C41.7872 118.494 41.976 120.404 42.6975 122.139C43.419 123.874 44.6409 125.356 46.2087 126.4C47.7764 127.443 49.6196 128 51.5051 128C54.0335 128 56.4584 127 58.2463 125.219C60.0341 123.438 61.0385 121.023 61.0386 118.505Z" fill="#131F2D"/>
<path d="M56.3645 118.505C56.3645 117.548 56.0795 116.612 55.5454 115.816C55.0114 115.02 54.2525 114.4 53.3645 114.034C52.4765 113.667 51.4994 113.572 50.5567 113.758C49.614 113.945 48.7481 114.406 48.0685 115.083C47.3889 115.76 46.926 116.622 46.7385 117.561C46.551 118.5 46.6473 119.473 47.0151 120.358C47.3829 121.242 48.0058 121.998 48.805 122.53C49.6041 123.062 50.5437 123.345 51.5049 123.345C52.143 123.345 52.775 123.22 53.3646 122.977C53.9542 122.734 54.4899 122.377 54.9412 121.928C55.3925 121.478 55.7504 120.945 55.9946 120.357C56.2388 119.77 56.3645 119.141 56.3645 118.505Z" fill="#616161"/>
<path d="M100.507 105.103C102.451 104.489 104.507 104.302 106.531 104.555C108.556 104.809 110.501 105.496 112.232 106.57C113.964 107.645 115.442 109.08 116.563 110.778C117.684 112.475 118.423 114.395 118.727 116.404C118.766 116.665 118.748 116.931 118.674 117.184C118.601 117.437 118.473 117.671 118.3 117.87C118.127 118.07 117.913 118.23 117.673 118.339C117.432 118.449 117.171 118.505 116.906 118.505H116.844C116.552 118.504 116.271 118.395 116.056 118.198C115.841 118.002 115.707 117.733 115.681 117.444C115.407 114.653 114.066 112.075 111.935 110.243C109.805 108.41 107.049 107.464 104.237 107.601C101.426 107.737 98.7745 108.946 96.8331 110.976C94.8916 113.006 93.8086 115.702 93.8084 118.505H90.6553C90.6587 115.519 91.6148 112.612 93.3856 110.203C95.1563 107.794 97.65 106.008 100.507 105.103Z" fill="#BDBDBD"/>
<path d="M85.8781 116.589L90.6546 118.505C93.9622 112.099 97.3403 108.955 100.23 107.404C105.427 104.614 109.045 106.977 107.827 104.779L98.9112 86.0422C98.0778 84.8879 96.9559 83.9706 95.6568 83.3813C94.3577 82.7919 92.9265 82.551 91.5051 82.6823C91.1065 82.7205 90.7216 82.8478 90.3792 83.0546C90.0367 83.2614 89.7456 83.5425 89.5273 83.8769C89.309 84.2113 89.1692 84.5905 89.1184 84.9861C89.0676 85.3818 89.107 85.7837 89.2337 86.1621C90.4008 89.6387 90.8497 93.1333 90.8497 96.4518C90.8496 107.496 85.8781 116.589 85.8781 116.589Z" fill="#BDBDBD"/>
<path d="M90.7479 84.8495L94.3459 83.4805C94.8356 83.4805 95.7693 83.9212 95.7693 83.4335L95.2362 74.6818C95.2355 74.4469 95.1415 74.2217 94.9747 74.0556C94.8079 73.8895 94.5818 73.7959 94.3459 73.7952H92.027C91.5374 73.7952 89.5746 74.7304 89.713 76.4814L89.0961 85.3032C89.0961 85.7909 90.2587 84.8495 90.7479 84.8495Z" fill="#BDBDBD"/>
<path d="M53.4268 92.5708H29.4642C29.1297 92.5708 28.8089 92.4384 28.5724 92.2029C28.3359 91.9673 28.203 91.6478 28.203 91.3147V90.4528C28.203 90.1196 28.3359 89.8001 28.5724 89.5645C28.809 89.3289 29.1298 89.1966 29.4643 89.1966H53.4268C53.7613 89.1966 54.0822 89.3289 54.3187 89.5645C54.5552 89.8001 54.6881 90.1196 54.6881 90.4528V91.3146C54.6881 91.6477 54.5552 91.9672 54.3187 92.2028C54.0822 92.4384 53.7613 92.5708 53.4268 92.5708V92.5708Z" fill="#757575"/>
<path d="M104.77 128C110.035 128 114.303 123.749 114.303 118.505C114.303 113.261 110.035 109.01 104.77 109.01C99.5048 109.01 95.2366 113.261 95.2366 118.505C95.2366 123.749 99.5048 128 104.77 128Z" fill="#131F2D"/>
<path d="M99.9105 118.505C99.9094 119.292 100.102 120.067 100.471 120.762C100.494 120.806 100.518 120.849 100.543 120.892C100.925 121.562 101.461 122.132 102.108 122.554C102.755 122.976 103.494 123.238 104.264 123.318C105.033 123.399 105.81 123.295 106.531 123.016C107.252 122.737 107.896 122.29 108.408 121.714C108.921 121.137 109.288 120.447 109.479 119.7C109.67 118.953 109.679 118.172 109.506 117.422C109.333 116.671 108.982 115.972 108.483 115.383C107.984 114.795 107.352 114.333 106.637 114.037C106.62 114.029 106.601 114.021 106.582 114.014C105.844 113.719 105.045 113.609 104.255 113.693C103.465 113.777 102.708 114.053 102.049 114.496C101.391 114.939 100.852 115.536 100.479 116.235C100.106 116.934 99.9108 117.714 99.9105 118.505Z" fill="#616161"/>
<path d="M69.8527 99.3803C69.8527 99.3803 67.3906 109.102 75.6938 118.065L55.2755 116.59L57.8751 96.967L69.8527 99.3803Z" fill="#BDBDBD"/>
<path d="M32.2874 119.601C32.2884 119.934 32.4216 120.253 32.6579 120.488C32.8942 120.724 33.2144 120.856 33.5486 120.857H64.1309C64.4651 120.856 64.7853 120.724 65.0216 120.488C65.258 120.253 65.3912 119.934 65.3921 119.601L64.9864 99.679L54.6883 99.051C40.9698 99.0511 32.2874 105.938 32.2874 119.601Z" fill="#BDBDBD"/>
<path d="M94.8426 77.5389C94.8416 78.1844 94.9686 78.8238 95.2162 79.4203C95.4638 80.0168 95.8272 80.5588 96.2855 81.0152C96.7438 81.4716 97.2881 81.8334 97.8871 82.0799C98.4861 82.3264 99.128 82.4527 99.7761 82.4516V72.6257C99.1283 72.6257 98.4868 72.7527 97.8882 72.9996C97.2896 73.2465 96.7458 73.6084 96.2877 74.0646C95.8295 74.5208 95.4661 75.0625 95.2182 75.6586C94.9702 76.2547 94.8426 76.8937 94.8426 77.5389Z" fill="#757575"/>
<path d="M87.0559 78.2023C87.0751 78.2023 87.2796 78.1623 87.299 78.1587L92.7258 76.659C92.9412 76.617 93.0903 76.3512 93.0586 76.0653C93.027 75.7794 92.8274 75.5812 92.6115 75.6232L87.1715 76.6811C86.9559 76.7231 86.7845 77.0487 86.7338 77.3298C86.6487 77.8011 86.8635 78.2023 87.0559 78.2023Z" fill="#131F2D"/>
<path d="M100.17 107.783C100.121 108.086 100.074 108.379 100.028 108.662C100.042 108.656 100.056 108.648 100.07 108.642C101.66 107.89 103.407 107.531 105.165 107.594C106.923 107.657 108.641 108.14 110.172 109.003C111.703 109.867 113.002 111.084 113.961 112.553C114.92 114.022 115.51 115.7 115.681 117.444C115.707 117.733 115.841 118.002 116.056 118.199C116.271 118.395 116.552 118.504 116.844 118.505H116.906C117.171 118.505 117.432 118.449 117.673 118.339C117.913 118.23 118.127 118.07 118.3 117.87C118.473 117.671 118.601 117.437 118.674 117.184C118.748 116.931 118.766 116.665 118.727 116.404C118.298 113.609 117.035 111.006 115.101 108.936C113.167 106.865 110.652 105.421 107.884 104.793C107.865 104.788 107.846 104.783 107.827 104.779L98.9116 86.0422C98.1037 84.9213 97.0226 84.0235 95.7701 83.4335C97.2899 85.9804 101.482 94.1257 100.507 105.103C100.44 105.857 100.348 106.624 100.231 107.405C100.21 107.53 100.191 107.657 100.17 107.783Z" fill="#BDBDBD"/>
<path d="M50.31 94.5537H69.8536C70.1023 94.5537 70.3408 94.6521 70.5167 94.8273C70.6926 95.0025 70.7914 95.24 70.7914 95.4878V98.4469C70.7914 98.6946 70.6926 98.9322 70.5167 99.1073C70.3408 99.2825 70.1023 99.3809 69.8536 99.3809H50.31C50.0612 99.3809 49.8227 99.2825 49.6468 99.1073C49.471 98.9322 49.3722 98.6946 49.3722 98.4469V95.4878C49.3722 95.24 49.471 95.0025 49.6468 94.8273C49.8227 94.6521 50.0612 94.5537 50.31 94.5537V94.5537Z" fill="#424242"/>
<path d="M34.71 120.857H64.1309C64.1309 120.857 65.9261 110.008 59.3044 106.344C57.7099 105.462 55.7066 105.158 53.5237 105.371C46.6447 106.042 37.9813 111.847 34.71 120.857Z" fill="#757575"/>
<path d="M94.9255 78.4424C95.1376 79.5692 95.7386 80.5867 96.6244 81.3188C97.5102 82.0509 98.6251 82.4516 99.7761 82.4516V79.7107C98.3267 79.7676 96.2383 79.6111 94.9255 78.4424Z" fill="#757575"/>
<path d="M100.17 107.783C100.121 108.086 100.073 108.379 100.028 108.662C100.042 108.656 100.056 108.648 100.07 108.642C101.831 107.02 105.551 105.584 107.884 104.793C107.865 104.788 107.846 104.783 107.827 104.779L98.9117 86.0422C98.1037 84.9213 97.0226 84.0235 95.7702 83.4335C97.2899 85.9804 101.483 94.1257 100.507 105.103C100.44 105.857 100.348 106.624 100.231 107.405C100.21 107.53 100.191 107.657 100.17 107.783Z" fill="#757575"/>
<path d="M52.7206 76.688H37.4895V89.1964H52.7206V76.688Z" fill="#212121"/>
<path d="M45.105 76.6883H29.8744V89.1967H45.105V76.6883Z" fill="#616161"/>
<path d="M52.7115 86.0246H50.2983L50.5108 85.3482L50.2983 84.8648H52.7115V86.0246Z" fill="#364154"/>
<path d="M29.874 79.4938H32.2873L32.0747 78.8173L32.2873 78.3339H29.874V79.4938Z" fill="#131F2D"/>
<path d="M29.874 87.1839H32.2873L32.0747 86.5074L32.2873 86.024H29.874V87.1839Z" fill="#131F2D"/>
<path d="M68.1533 65.3526C65.5201 66.4176 60.7065 64.1407 60.7065 64.1407C60.7065 64.1407 62.3044 62.7318 62.6088 60.064C62.6245 59.9294 62.636 59.7923 62.6445 59.6518C62.922 59.5534 63.4448 59.3679 64.0055 59.1699L66.3378 60.7515C66.3714 61.4645 66.3625 62.1788 66.3111 62.8907C66.2971 63.1282 66.2782 63.3833 66.2542 63.6561C67.4656 64.1969 68.1533 65.3526 68.1533 65.3526Z" fill="#FF7955"/>
<path d="M66.3382 60.7513C66.3718 61.4643 66.3629 62.1787 66.3115 62.8906C64.1893 62.5064 63.0214 60.7992 62.6091 60.0637C62.6249 59.929 62.6364 59.7919 62.6449 59.6514C62.9224 59.5531 63.4451 59.3675 64.0058 59.1695L66.3382 60.7513Z" fill="#EF6343"/>
<path d="M66.7687 61.8847C66.7687 61.8847 62.2336 61.7375 62.3692 58.9261C62.5047 56.1147 62.0106 54.2024 64.9116 54.1773C67.8127 54.1523 68.3234 55.2521 68.5072 56.2014C68.691 57.1508 67.9518 61.8505 66.7687 61.8847Z" fill="#F4A386"/>
<path d="M62.6091 60.064C62.6091 60.064 62.4321 59.1291 62.943 58.5121C62.943 58.5121 62.6133 57.5951 62.968 57.3895C63.3227 57.1839 63.5067 57.9673 63.6618 57.8199C63.817 57.6724 64.5034 56.9794 64.7146 56.0639C64.9257 55.1485 68.0702 55.8048 68.4407 55.9145C68.8112 56.0242 66.3543 51.4576 63.7005 52.5396C61.0466 53.6215 60.847 54.9783 61.1536 56.078C61.4602 57.1777 61.4325 59.8377 62.6091 60.064Z" fill="#131F2D"/>
<path d="M58.2711 86.8964C58.2711 86.8964 58.5856 92.4133 59.8466 93.9855C61.1076 95.5576 85.2819 94.9473 85.2819 94.9473C85.2819 94.9473 85.3872 91.4096 84.4411 90.4998C83.4951 89.5901 79.0808 86.9773 64.9864 85.4961L58.2711 86.8964Z" fill="#131F2D"/>
<path d="M57.9487 75.3491C58.3429 80.088 57.8236 87.2963 58.2715 88.5451C58.6571 89.6222 63.0537 88.9816 64.8078 88.6226C65.458 88.4886 66.2447 88.2988 67.0572 88.074C69.3231 87.447 71.7932 86.5509 72.0579 85.8852C72.0683 85.8605 72.0764 85.8349 72.0821 85.8087C72.1055 85.7172 72.1041 85.6211 72.078 85.5302C72.0129 85.2792 71.8091 85.0132 71.6913 84.5515C71.6449 84.3656 71.6175 84.1755 71.6092 83.9841C71.5684 83.1257 71.5703 82.1285 71.5408 81.0542C71.5377 80.9557 71.5346 80.8563 71.5315 80.7568C71.5293 80.6229 71.5273 80.4775 71.5115 80.3443L71.5103 80.2945C71.5103 80.2696 71.5093 80.2447 71.5083 80.2198C71.4708 78.8956 71.3928 77.5049 71.3034 76.1237C71.275 75.6933 71.2445 75.2652 71.2109 74.8423C71.2004 74.6929 71.1877 74.5434 71.1762 74.3964C71.1531 74.12 71.1301 73.8458 71.1047 73.5757C70.9072 71.4527 70.6402 69.5642 70.2881 68.3709C69.712 66.4248 68.4414 65.1562 67.2852 64.2266L66.4486 63.5849C65.4231 63.7613 64.3681 63.6358 63.4131 63.2238C62.3337 62.7642 61.9606 62.4354 61.7725 62.5601C59.2772 64.2807 57.4831 69.5549 57.9487 75.3491Z" fill="#BDBDBD"/>
<path d="M76.5845 113.1C76.5845 113.1 76.7982 116.534 77.4654 116.583C77.5541 116.59 80.849 116.59 80.849 116.59L85.055 116.565C85.055 116.565 85.0276 115.556 83.7981 115.343C82.5685 115.129 80.5108 114.269 79.7659 112.65C78.9824 110.948 76.5845 113.1 76.5845 113.1Z" fill="#212121"/>
<path d="M75.7056 113.323C75.7056 113.323 76.5191 113.946 78.1756 114.025C78.563 114.044 78.9513 114.028 79.336 113.979C79.8459 113.923 80.3455 113.796 80.8201 113.602L85.2827 94.9472C85.2827 94.9472 80.448 90.7401 77.9254 93.3561C77.5965 93.6973 77.3157 94.2888 77.0762 95.0603C75.476 100.204 75.7056 113.323 75.7056 113.323Z" fill="#131F2D"/>
<path d="M64.9865 71.747C64.9865 71.747 68.1166 83.1604 71.6912 84.5516C71.6449 84.3656 71.6174 84.1756 71.6092 83.9842C71.5683 83.1257 71.5703 82.1286 71.5408 81.0542C71.5377 80.9557 71.5345 80.8563 71.5314 80.7568C71.5293 80.6229 71.5273 80.4775 71.5114 80.3444L71.5103 80.2945C71.5103 80.2696 71.5093 80.2447 71.5083 80.2198C71.4708 78.8956 71.3928 77.5049 71.3034 76.1237C71.275 75.6933 71.2445 75.2653 71.2108 74.8423C69.6373 72.9484 67.5018 71.5877 64.9865 71.747Z" fill="#757575"/>
<path d="M83.7617 76.1436C83.7617 76.1436 85.1246 76.2481 85.4747 76.1436C85.8248 76.0391 87.4717 75.0619 88.0673 75.2712C88.6629 75.4806 90.1694 77.016 89.7841 77.7138C89.7841 77.7138 89.0838 77.7312 88.4351 77.0682C87.7864 76.4051 87.0863 76.8588 87.1565 76.9461C87.2266 77.0334 88.2425 77.4347 88.0673 77.609C87.8921 77.7834 86.5608 77.7486 86.2456 77.5394C85.9304 77.3302 83.5822 77.5916 83.5822 77.5916L83.7617 76.1436Z" fill="#FF7955"/>
<path d="M64.9866 65.7277C64.9866 65.7277 73.4628 72.9241 75.6939 73.6179C77.9249 74.3117 85.8078 75.8376 85.8078 75.8376C85.8078 75.8376 86.0249 77.6963 85.2856 78.3942C85.2856 78.3942 75.1575 77.8089 73.8959 77.5434C72.6344 77.2779 63.2369 72.4273 62.4703 72.0609C61.7037 71.6946 61.8231 65.1345 64.9866 65.7277Z" fill="#BDBDBD"/>
<path d="M60.4846 56.2646V56.3074C60.4819 56.3589 60.4927 56.4102 60.5159 56.4562C60.5391 56.5023 60.574 56.5416 60.6171 56.5702C60.6423 56.5848 60.6709 56.5928 60.7001 56.5932H71.4458C71.5647 56.5932 71.6614 56.4644 71.6614 56.3074V56.2646C71.6614 56.1075 71.5647 55.9781 71.4458 55.9781L69.0463 55.6714C68.8225 53.896 67.638 52.4473 66.0731 51.9478H66.0709C65.6824 51.8232 65.2767 51.7599 64.8685 51.7603C62.6634 51.7603 60.8566 53.5745 60.6686 55.887C60.6664 55.9141 60.6643 55.9403 60.6622 55.9675C60.6348 55.9875 60.6191 55.9999 60.6171 56.001C60.574 56.0298 60.5392 56.0692 60.5159 56.1154C60.4927 56.1616 60.482 56.213 60.4846 56.2646Z" fill="#BDBDBD"/>
<path d="M64.1159 55.8877C63.315 51.667 65.9815 51.9381 66.0709 51.9485C65.6823 51.8239 65.2766 51.7607 64.8685 51.7611C62.6634 51.7611 60.8566 53.5752 60.6685 55.8877H64.1159Z" fill="#757575"/>
<path d="M39.4612 10.0361C39.3828 10.0361 39.3065 10.0106 39.2441 9.96342C39.1817 9.91622 39.1365 9.84995 39.1155 9.77475C39.0945 9.69955 39.0988 9.61957 39.1278 9.54704C39.1568 9.47452 39.2088 9.41345 39.276 9.37319C39.2836 9.36858 39.4673 9.25874 39.8189 9.06347C39.9018 9.01907 39.9989 9.00892 40.0892 9.03521C40.1796 9.06151 40.2559 9.12213 40.3018 9.20399C40.3476 9.28586 40.3593 9.38239 40.3343 9.47276C40.3093 9.56313 40.2496 9.64009 40.1682 9.68701C39.8282 9.87581 39.6472 9.98403 39.6455 9.98503C39.5898 10.0184 39.5261 10.0361 39.4612 10.0361Z" fill="#364154"/>
<path d="M131.703 54.71H131.701C131.606 54.7095 131.515 54.6714 131.448 54.6041C131.382 54.5368 131.344 54.4459 131.345 54.3512C131.345 54.2765 131.346 54.1999 131.346 54.1216C131.346 53.7963 131.341 53.4615 131.334 53.1253C131.333 53.0314 131.369 52.941 131.435 52.8735C131.5 52.8061 131.59 52.767 131.684 52.7649C131.778 52.7627 131.869 52.7977 131.938 52.862C132.007 52.9264 132.047 53.0151 132.05 53.109C132.058 53.4498 132.062 53.7903 132.063 54.1211C132.063 54.201 132.063 54.2788 132.062 54.3546C132.062 54.4491 132.024 54.5395 131.957 54.6062C131.889 54.6728 131.798 54.7101 131.703 54.71ZM131.647 52.2382C131.555 52.2381 131.467 52.2028 131.4 52.1396C131.334 52.0764 131.294 51.9901 131.29 51.8986C131.27 51.4941 131.245 51.0816 131.215 50.6727C131.211 50.6254 131.216 50.5778 131.231 50.5326C131.245 50.4873 131.268 50.4454 131.299 50.4093C131.33 50.3731 131.368 50.3434 131.41 50.3219C131.452 50.3005 131.499 50.2876 131.546 50.2842C131.594 50.2808 131.642 50.2868 131.687 50.3019C131.732 50.3171 131.774 50.341 131.809 50.3724C131.845 50.4037 131.874 50.4419 131.895 50.4845C131.916 50.5272 131.928 50.5736 131.93 50.621C131.96 51.0358 131.986 51.454 132.005 51.8638C132.01 51.9584 131.976 52.0508 131.913 52.1209C131.849 52.1909 131.759 52.2328 131.665 52.2375C131.659 52.2381 131.653 52.2381 131.647 52.2381V52.2382ZM131.468 49.7718C131.379 49.7717 131.294 49.7385 131.228 49.6788C131.162 49.619 131.121 49.5369 131.112 49.4486C131.073 49.044 131.029 48.6331 130.981 48.2281C130.972 48.1348 130.999 48.0415 131.058 47.9683C131.117 47.8951 131.202 47.8479 131.296 47.8369C131.389 47.8259 131.484 47.852 131.558 47.9096C131.632 47.9672 131.681 48.0516 131.693 48.1446C131.742 48.5555 131.787 48.9716 131.826 49.3815C131.83 49.4282 131.825 49.4752 131.812 49.5201C131.798 49.5649 131.775 49.6066 131.745 49.6427C131.715 49.6789 131.678 49.7088 131.637 49.7308C131.595 49.7527 131.55 49.7663 131.503 49.7708C131.491 49.7713 131.48 49.7723 131.468 49.7723V49.7718ZM131.178 47.3169C131.092 47.3168 131.008 47.2856 130.943 47.2292C130.878 47.1727 130.836 47.0947 130.824 47.0096C130.767 46.6053 130.705 46.1967 130.639 45.7953C130.632 45.7491 130.634 45.7018 130.644 45.6561C130.655 45.6105 130.675 45.5675 130.702 45.5294C130.73 45.4914 130.765 45.4591 130.805 45.4345C130.845 45.4099 130.889 45.3933 130.936 45.3858C130.982 45.3783 131.03 45.38 131.076 45.3908C131.121 45.4015 131.165 45.4212 131.203 45.4486C131.241 45.476 131.273 45.5106 131.298 45.5505C131.323 45.5904 131.339 45.6347 131.347 45.681C131.413 46.0874 131.476 46.5011 131.534 46.9103C131.541 46.9609 131.537 47.0125 131.522 47.0615C131.508 47.1105 131.483 47.1558 131.449 47.1943C131.415 47.2329 131.374 47.2638 131.327 47.2849C131.28 47.3061 131.229 47.317 131.178 47.3169ZM130.781 44.8778C130.697 44.8776 130.616 44.8483 130.551 44.7949C130.487 44.7416 130.444 44.6675 130.429 44.5855C130.355 44.1861 130.275 43.7806 130.191 43.3806C130.173 43.2886 130.193 43.1934 130.245 43.1155C130.297 43.0377 130.378 42.9834 130.47 42.9644C130.563 42.9454 130.658 42.9632 130.737 43.014C130.816 43.0647 130.872 43.1444 130.893 43.2357C130.977 43.6409 131.058 44.0513 131.133 44.4562C131.141 44.5023 131.141 44.5496 131.131 44.5955C131.121 44.6413 131.102 44.6848 131.076 44.7234C131.049 44.762 131.015 44.795 130.975 44.8205C130.936 44.846 130.892 44.8634 130.845 44.8719C130.824 44.8759 130.802 44.878 130.781 44.878V44.8778ZM130.277 42.4585C130.196 42.4584 130.118 42.431 130.054 42.3807C129.991 42.3303 129.947 42.2601 129.928 42.1814C129.837 41.784 129.739 41.3825 129.639 40.9881C129.627 40.9424 129.624 40.8946 129.63 40.8476C129.636 40.8005 129.652 40.7552 129.676 40.7143C129.7 40.6733 129.732 40.6376 129.77 40.609C129.808 40.5805 129.851 40.5599 129.897 40.5482C129.943 40.5366 129.991 40.5342 130.039 40.5413C130.086 40.5484 130.131 40.5647 130.172 40.5894C130.212 40.614 130.248 40.6465 130.275 40.6849C130.303 40.7233 130.323 40.7668 130.334 40.813C130.436 41.2124 130.534 41.619 130.627 42.021C130.638 42.0667 130.639 42.114 130.631 42.1603C130.623 42.2065 130.607 42.2508 130.582 42.2905C130.557 42.3302 130.524 42.3647 130.486 42.3919C130.447 42.4191 130.404 42.4384 130.358 42.4489C130.332 42.4551 130.305 42.4583 130.277 42.4585ZM129.669 40.0636C129.591 40.0636 129.515 40.038 129.453 39.9907C129.39 39.9435 129.345 39.8772 129.324 39.802C129.215 39.4084 129.1 39.0117 128.983 38.6229C128.955 38.5323 128.965 38.4345 129.01 38.3511C129.055 38.2678 129.132 38.2056 129.223 38.1784C129.314 38.1512 129.412 38.1611 129.496 38.2059C129.579 38.2508 129.642 38.3269 129.669 38.4176C129.788 38.8111 129.904 39.213 130.015 39.6118C130.03 39.6648 130.032 39.7205 130.021 39.7744C130.011 39.8284 129.988 39.8793 129.955 39.923C129.921 39.9668 129.878 40.0023 129.829 40.0268C129.779 40.0512 129.725 40.064 129.669 40.0641V40.0636ZM128.956 37.698C128.88 37.6979 128.806 37.674 128.745 37.6297C128.684 37.5854 128.638 37.5229 128.615 37.4513C128.489 37.0641 128.356 36.673 128.221 36.2886C128.205 36.2444 128.199 36.1975 128.201 36.1507C128.204 36.1039 128.216 36.0581 128.236 36.0159C128.257 35.9736 128.285 35.9358 128.32 35.9045C128.355 35.8733 128.396 35.8493 128.441 35.8338C128.485 35.8183 128.532 35.8117 128.579 35.8143C128.626 35.8169 128.672 35.8287 128.715 35.8491C128.757 35.8694 128.795 35.8979 128.826 35.9328C128.858 35.9678 128.882 36.0085 128.898 36.0528C129.034 36.4422 129.169 36.8385 129.297 37.2305C129.314 37.2841 129.318 37.341 129.31 37.3967C129.301 37.4523 129.279 37.505 129.245 37.5506C129.212 37.5962 129.169 37.6333 129.118 37.6589C129.068 37.6845 129.012 37.6979 128.956 37.698ZM128.136 35.3669C128.063 35.3669 127.992 35.3448 127.932 35.3034C127.872 35.262 127.826 35.2034 127.801 35.1354C127.657 34.7545 127.507 34.3699 127.354 33.9923C127.336 33.9487 127.326 33.9018 127.326 33.8545C127.326 33.8071 127.335 33.7603 127.354 33.7166C127.372 33.6729 127.399 33.6333 127.433 33.6C127.467 33.5667 127.507 33.5405 127.551 33.5229C127.595 33.5052 127.642 33.4964 127.69 33.4971C127.737 33.4977 127.784 33.5078 127.828 33.5267C127.871 33.5456 127.911 33.5729 127.943 33.6071C127.976 33.6413 128.002 33.6816 128.019 33.7258C128.174 34.1084 128.326 34.4979 128.472 34.884C128.492 34.938 128.499 34.9961 128.492 35.0534C128.485 35.1106 128.464 35.1653 128.431 35.2128C128.398 35.2602 128.354 35.299 128.302 35.3258C128.251 35.3526 128.194 35.3666 128.136 35.3667V35.3669ZM127.211 33.0755C127.141 33.0755 127.072 33.055 127.014 33.0166C126.955 32.9782 126.909 32.9235 126.881 32.8593C126.719 32.4834 126.551 32.1063 126.382 31.7385C126.342 31.6524 126.339 31.5542 126.372 31.4654C126.405 31.3767 126.472 31.3047 126.559 31.2654C126.645 31.226 126.744 31.2224 126.833 31.2554C126.922 31.2884 126.994 31.3554 127.034 31.4414C127.205 31.8151 127.376 32.1968 127.54 32.5777C127.563 32.632 127.573 32.6912 127.568 32.7501C127.562 32.8089 127.543 32.8656 127.51 32.915C127.477 32.9643 127.433 33.0049 127.381 33.0329C127.329 33.061 127.27 33.0758 127.211 33.0759V33.0755ZM126.179 30.8304C126.112 30.8304 126.046 30.8116 125.989 30.7761C125.932 30.7405 125.886 30.6897 125.856 30.6295C125.678 30.2641 125.492 29.8953 125.305 29.5336C125.263 29.4496 125.256 29.3526 125.285 29.2635C125.314 29.1744 125.378 29.1004 125.461 29.0574C125.545 29.0144 125.642 29.0058 125.732 29.0336C125.822 29.0614 125.897 29.1233 125.942 29.2059C126.132 29.5729 126.32 29.947 126.501 30.3173C126.528 30.3717 126.54 30.4319 126.537 30.4923C126.533 30.5528 126.515 30.6114 126.483 30.6627C126.45 30.714 126.406 30.7563 126.353 30.7857C126.3 30.815 126.24 30.8305 126.179 30.8306V30.8304ZM125.041 28.6366C124.977 28.6367 124.914 28.6195 124.858 28.5868C124.803 28.5541 124.757 28.5072 124.726 28.451C124.53 28.0928 124.326 27.7334 124.123 27.3827C124.075 27.3008 124.062 27.2033 124.086 27.1119C124.111 27.0204 124.171 26.9423 124.253 26.8949C124.335 26.8474 124.433 26.8345 124.525 26.8589C124.617 26.8833 124.695 26.943 124.743 27.0249C124.95 27.3806 125.155 27.745 125.356 28.1084C125.385 28.1627 125.401 28.2239 125.399 28.2858C125.398 28.3477 125.381 28.4083 125.35 28.4617C125.318 28.515 125.273 28.5592 125.219 28.5899C125.165 28.6206 125.104 28.6368 125.041 28.6369L125.041 28.6366ZM123.799 26.5C123.737 26.5001 123.677 26.4844 123.623 26.4545C123.57 26.4247 123.525 26.3816 123.493 26.3294C123.28 25.9833 123.06 25.6342 122.837 25.2919C122.788 25.2124 122.771 25.1166 122.792 25.0253C122.813 24.9339 122.868 24.8543 122.947 24.8034C123.026 24.7526 123.122 24.7347 123.214 24.7536C123.306 24.7725 123.387 24.8266 123.439 24.9043C123.665 25.2516 123.888 25.6056 124.104 25.9566C124.137 26.0107 124.156 26.0726 124.157 26.136C124.158 26.1994 124.142 26.262 124.111 26.3173C124.08 26.3727 124.035 26.4187 123.98 26.4508C123.925 26.4829 123.862 26.4999 123.799 26.5ZM122.453 24.4266C122.395 24.4267 122.337 24.4125 122.286 24.3853C122.234 24.3581 122.19 24.3188 122.157 24.2707C121.926 23.9344 121.689 23.5961 121.451 23.2667C121.396 23.1898 121.373 23.0941 121.388 23.0007C121.404 22.9072 121.456 22.8237 121.533 22.7685C121.61 22.7132 121.706 22.6908 121.8 22.7061C121.894 22.7214 121.978 22.7732 122.033 22.8501C122.274 23.1841 122.515 23.5267 122.749 23.8683C122.786 23.9219 122.807 23.9845 122.811 24.0493C122.814 24.1142 122.8 24.1788 122.77 24.2362C122.739 24.2936 122.694 24.3417 122.638 24.3752C122.582 24.4088 122.518 24.4265 122.453 24.4266ZM121.007 22.4216C120.951 22.4217 120.897 22.4089 120.847 22.3843C120.797 22.3598 120.754 22.324 120.721 22.28C120.475 21.9562 120.221 21.6309 119.966 21.3119C119.908 21.2378 119.882 21.1438 119.893 21.0505C119.904 20.9572 119.952 20.872 120.026 20.8134C120.1 20.7549 120.194 20.7277 120.288 20.7377C120.381 20.7478 120.467 20.7943 120.527 20.8671C120.786 21.1909 121.043 21.5212 121.293 21.8492C121.333 21.9021 121.358 21.9653 121.364 22.0315C121.37 22.0977 121.358 22.1644 121.328 22.2239C121.298 22.2835 121.253 22.3336 121.196 22.3686C121.139 22.4036 121.074 22.4221 121.007 22.4221V22.4216ZM119.463 20.4905C119.41 20.4906 119.359 20.4792 119.311 20.4571C119.264 20.435 119.222 20.4028 119.188 20.3627C118.927 20.0514 118.657 19.7393 118.386 19.4329C118.354 19.398 118.328 19.357 118.312 19.3122C118.296 19.2674 118.288 19.2197 118.291 19.1721C118.293 19.1245 118.305 19.0778 118.326 19.0348C118.347 18.9919 118.376 18.9535 118.412 18.922C118.448 18.8905 118.49 18.8664 118.535 18.8513C118.581 18.8362 118.629 18.8303 118.676 18.834C118.724 18.8376 118.771 18.8508 118.813 18.8727C118.856 18.8945 118.893 18.9247 118.924 18.9613C119.198 19.2719 119.472 19.5892 119.737 19.9043C119.781 19.9564 119.809 20.0199 119.817 20.0872C119.826 20.1546 119.816 20.2231 119.787 20.2847C119.758 20.3463 119.712 20.3984 119.654 20.4348C119.597 20.4713 119.53 20.4906 119.462 20.4905H119.463ZM117.825 18.6379C117.775 18.6379 117.727 18.6278 117.681 18.608C117.636 18.5883 117.595 18.5594 117.562 18.5232C117.285 18.2256 117.001 17.9262 116.715 17.6338C116.65 17.5657 116.614 17.4746 116.616 17.3804C116.618 17.2862 116.657 17.1965 116.725 17.1309C116.792 17.0652 116.884 17.029 116.978 17.03C117.073 17.031 117.163 17.0692 117.23 17.1363C117.519 17.433 117.808 17.7366 118.088 18.0385C118.135 18.0895 118.167 18.153 118.178 18.2214C118.19 18.2898 118.181 18.3601 118.153 18.4236C118.125 18.4872 118.08 18.5413 118.021 18.5794C117.963 18.6174 117.895 18.6378 117.825 18.6379H117.825ZM116.098 16.8673C116.005 16.8674 115.914 16.8306 115.847 16.765C115.557 16.4812 115.258 16.196 114.959 15.9174C114.889 15.8528 114.848 15.7633 114.845 15.6687C114.842 15.574 114.877 15.482 114.942 15.4129C115.007 15.3437 115.096 15.3031 115.191 15.2999C115.286 15.2967 115.379 15.3312 115.448 15.3959C115.752 15.6783 116.055 15.9676 116.349 16.2552C116.4 16.3048 116.435 16.3684 116.449 16.4379C116.464 16.5073 116.457 16.5794 116.43 16.645C116.403 16.7107 116.357 16.7668 116.298 16.8064C116.239 16.8459 116.17 16.867 116.098 16.867V16.8673ZM114.288 15.1815C114.2 15.1816 114.115 15.1494 114.05 15.0911C113.744 14.8203 113.432 14.5496 113.121 14.2869C113.085 14.2565 113.056 14.2194 113.034 14.1777C113.013 14.136 113 14.0905 112.996 14.0437C112.992 13.997 112.998 13.9499 113.012 13.9053C113.026 13.8607 113.05 13.8193 113.08 13.7836C113.11 13.7478 113.148 13.7184 113.19 13.697C113.232 13.6756 113.277 13.6626 113.324 13.6588C113.371 13.655 113.418 13.6604 113.463 13.6748C113.508 13.6892 113.549 13.7122 113.585 13.7425C113.9 14.009 114.217 14.2835 114.527 14.5581C114.581 14.6062 114.619 14.6697 114.636 14.74C114.654 14.8103 114.649 14.8841 114.623 14.9517C114.597 15.0194 114.551 15.0775 114.491 15.1186C114.432 15.1596 114.361 15.1816 114.288 15.1815ZM112.4 13.5839C112.318 13.5839 112.238 13.5558 112.175 13.5043C111.859 13.2496 111.534 12.9937 111.209 12.7439C111.171 12.7155 111.139 12.6799 111.115 12.6391C111.091 12.5983 111.075 12.5531 111.069 12.5061C111.062 12.4592 111.065 12.4114 111.077 12.3656C111.09 12.3198 111.111 12.2769 111.14 12.2394C111.169 12.2019 111.205 12.1705 111.247 12.1471C111.288 12.1238 111.334 12.1088 111.381 12.1032C111.428 12.0975 111.476 12.1013 111.522 12.1143C111.568 12.1273 111.61 12.1493 111.648 12.1789C111.977 12.432 112.306 12.6913 112.626 12.9495C112.684 12.9959 112.725 13.059 112.745 13.13C112.766 13.2011 112.763 13.2766 112.738 13.3462C112.714 13.4157 112.668 13.4759 112.607 13.5185C112.547 13.5611 112.474 13.5839 112.4 13.5839H112.4ZM110.439 12.0752C110.362 12.0754 110.288 12.051 110.226 12.0057C109.897 11.7648 109.561 11.5238 109.227 11.2898C109.149 11.2353 109.096 11.1522 109.08 11.0589C109.063 10.9656 109.085 10.8696 109.14 10.7921C109.194 10.7147 109.278 10.662 109.372 10.6457C109.465 10.6295 109.562 10.651 109.639 10.7055C109.978 10.9421 110.319 11.1867 110.652 11.4308C110.713 11.4754 110.758 11.5379 110.781 11.6096C110.804 11.6812 110.804 11.7582 110.78 11.8296C110.757 11.9011 110.711 11.9633 110.65 12.0074C110.589 12.0515 110.515 12.0752 110.44 12.0752H110.439ZM108.411 10.6563C108.34 10.6563 108.271 10.6353 108.212 10.5959C107.873 10.3696 107.526 10.1437 107.182 9.92438C107.141 9.89956 107.106 9.86695 107.078 9.82843C107.05 9.78991 107.031 9.74626 107.02 9.70004C107.009 9.65381 107.008 9.60594 107.016 9.55921C107.024 9.51247 107.042 9.46782 107.067 9.42785C107.093 9.38789 107.126 9.35341 107.165 9.32644C107.205 9.29946 107.249 9.28053 107.295 9.27075C107.342 9.26096 107.39 9.26052 107.437 9.26945C107.484 9.27837 107.528 9.29649 107.568 9.32274C107.917 9.54492 108.268 9.77369 108.611 10.0027C108.675 10.0453 108.723 10.1073 108.749 10.1795C108.775 10.2516 108.777 10.3302 108.754 10.4034C108.732 10.4767 108.686 10.5409 108.625 10.5864C108.563 10.6319 108.488 10.6564 108.411 10.6563H108.411ZM106.323 9.32735C106.257 9.3274 106.193 9.30934 106.137 9.27517C105.788 9.06346 105.432 8.85175 105.078 8.64764C105.037 8.62445 105.001 8.59329 104.971 8.55598C104.942 8.51867 104.921 8.47594 104.908 8.43029C104.896 8.38463 104.892 8.33697 104.899 8.29005C104.905 8.24313 104.92 8.1979 104.944 8.15699C104.968 8.11608 105 8.08031 105.038 8.05174C105.076 8.02318 105.119 8.0024 105.165 7.99061C105.211 7.97883 105.259 7.97627 105.306 7.98308C105.353 7.9899 105.398 8.00595 105.439 8.03031C105.796 8.23742 106.156 8.45099 106.51 8.66545C106.576 8.70602 106.628 8.7672 106.657 8.83969C106.685 8.91217 106.689 8.99197 106.668 9.06695C106.647 9.14192 106.602 9.20795 106.54 9.25498C106.477 9.30201 106.401 9.32747 106.323 9.32748V9.32735ZM41.0844 9.1464C41.0041 9.14649 40.9262 9.11975 40.863 9.07046C40.7998 9.02117 40.755 8.95218 40.7359 8.87455C40.7167 8.79692 40.7243 8.71513 40.7574 8.64229C40.7904 8.56944 40.8471 8.50975 40.9182 8.47278C41.276 8.28685 41.6505 8.09731 42.0311 7.90951C42.1161 7.86921 42.2136 7.86381 42.3025 7.89449C42.3914 7.92516 42.4647 7.98944 42.5065 8.07345C42.5482 8.15746 42.5551 8.25446 42.5257 8.3435C42.4963 8.43255 42.4329 8.50649 42.3492 8.54938C41.9729 8.73494 41.6031 8.92211 41.2497 9.10568C41.1989 9.13257 41.1424 9.1468 41.0849 9.14715L41.0844 9.1464ZM104.18 8.08685C104.12 8.08683 104.06 8.0714 104.007 8.04202C103.647 7.84363 103.283 7.64724 102.923 7.45832C102.881 7.43688 102.843 7.40726 102.812 7.37117C102.781 7.33508 102.758 7.29326 102.744 7.24812C102.729 7.20299 102.724 7.15545 102.728 7.10828C102.733 7.06111 102.746 7.01524 102.768 6.97336C102.79 6.93147 102.821 6.89439 102.858 6.86429C102.894 6.83419 102.937 6.81167 102.982 6.79803C103.028 6.78439 103.075 6.77991 103.123 6.78485C103.17 6.78978 103.216 6.80404 103.258 6.8268C103.621 7.01796 103.991 7.21672 104.354 7.41747C104.424 7.45582 104.479 7.51611 104.51 7.58884C104.541 7.66157 104.548 7.74262 104.528 7.81926C104.508 7.8959 104.463 7.96377 104.4 8.01221C104.337 8.06064 104.26 8.0869 104.18 8.08685ZM43.3076 8.04874C43.2262 8.04876 43.1471 8.02116 43.0835 7.97049C43.0199 7.91981 42.9756 7.84908 42.9577 7.76993C42.9399 7.69079 42.9496 7.60795 42.9854 7.53506C43.0211 7.46217 43.0807 7.40357 43.1543 7.3689C43.5255 7.19455 43.9064 7.01933 44.2864 6.84871C44.3293 6.82944 44.3756 6.81877 44.4227 6.81732C44.4697 6.81586 44.5166 6.82366 44.5606 6.84025C44.6046 6.85683 44.645 6.8819 44.6793 6.914C44.7136 6.94611 44.7412 6.98463 44.7605 7.02736C44.7799 7.0701 44.7906 7.11621 44.792 7.16306C44.7935 7.20992 44.7857 7.2566 44.769 7.30045C44.7523 7.34429 44.7272 7.38444 44.6949 7.4186C44.6627 7.45276 44.624 7.48027 44.5811 7.49954C44.2049 7.66866 43.8278 7.84176 43.4603 8.01449C43.4127 8.03724 43.3607 8.0492 43.308 8.04949L43.3076 8.04874ZM45.5691 7.03278C45.4865 7.03282 45.4065 7.00451 45.3425 6.95262C45.2786 6.90073 45.2345 6.82844 45.2178 6.74795C45.2011 6.66746 45.2128 6.58371 45.2509 6.51081C45.2891 6.43792 45.3512 6.38035 45.427 6.34783C45.8061 6.18494 46.1926 6.02267 46.5753 5.86562C46.619 5.84644 46.6662 5.83616 46.714 5.83539C46.7617 5.83462 46.8092 5.84338 46.8536 5.86115C46.8979 5.87892 46.9382 5.90534 46.9722 5.93887C47.0061 5.97239 47.033 6.01233 47.0512 6.05635C47.0694 6.10037 47.0786 6.14757 47.0782 6.19518C47.0779 6.24278 47.0679 6.28984 47.049 6.33357C47.0301 6.37729 47.0026 6.41681 46.9682 6.44981C46.9337 6.4828 46.893 6.50859 46.8484 6.52567C46.4692 6.68121 46.0865 6.84186 45.7105 7.00326C45.6661 7.02279 45.6181 7.03309 45.5696 7.03353L45.5691 7.03278ZM101.988 6.93502C101.932 6.93514 101.877 6.92235 101.828 6.89766C101.46 6.71434 101.088 6.53314 100.721 6.35916C100.636 6.31774 100.571 6.2448 100.54 6.15614C100.509 6.06747 100.514 5.97022 100.555 5.88543C100.595 5.80064 100.668 5.73514 100.756 5.70311C100.845 5.67109 100.943 5.67511 101.028 5.71431C101.4 5.89041 101.777 6.07385 102.149 6.25941C102.221 6.29545 102.279 6.35469 102.313 6.42755C102.347 6.50042 102.356 6.58263 102.337 6.66088C102.318 6.73913 102.274 6.80883 102.21 6.85869C102.147 6.90856 102.069 6.93567 101.988 6.93564V6.93502ZM47.8624 6.09091C47.779 6.09091 47.6981 6.06191 47.6338 6.0089C47.5695 5.9559 47.5258 5.88221 47.5103 5.80055C47.4947 5.71889 47.5082 5.63437 47.5484 5.56156C47.5887 5.48876 47.6532 5.43223 47.7309 5.40173C48.1185 5.2498 48.509 5.09985 48.8937 4.95577C48.938 4.93855 48.9852 4.93025 49.0326 4.93135C49.0801 4.93245 49.1269 4.94293 49.1702 4.96218C49.2136 4.98143 49.2527 5.00906 49.2853 5.04349C49.3178 5.07791 49.3432 5.11843 49.3599 5.16269C49.3766 5.20695 49.3843 5.25408 49.3825 5.30133C49.3808 5.34859 49.3697 5.39503 49.3498 5.43796C49.3299 5.48089 49.3016 5.51946 49.2666 5.55142C49.2316 5.58338 49.1906 5.6081 49.146 5.62415C48.765 5.76674 48.3772 5.91544 47.9938 6.06588C47.9522 6.08257 47.9078 6.09131 47.8629 6.09166L47.8624 6.09091ZM99.7495 5.87484C99.6988 5.87486 99.6487 5.86412 99.6026 5.84333C99.2296 5.67621 98.8499 5.5107 98.474 5.35179C98.3865 5.31478 98.3173 5.24466 98.2817 5.15686C98.2461 5.06906 98.2469 4.97076 98.2841 4.8836C98.3213 4.79643 98.3917 4.72754 98.4798 4.69208C98.568 4.65661 98.6667 4.65748 98.7542 4.69449C99.1347 4.85552 99.5192 5.02302 99.8968 5.19263C99.9716 5.22618 100.033 5.28424 100.07 5.35714C100.107 5.43003 100.117 5.51335 100.1 5.59319C100.083 5.67304 100.039 5.7446 99.9748 5.79592C99.911 5.84724 99.8315 5.87523 99.7495 5.87522V5.87484ZM50.1839 5.22103C50.0994 5.22106 50.0177 5.19139 49.9531 5.13727C49.8884 5.08314 49.8451 5.00802 49.8306 4.92516C49.8161 4.8423 49.8315 4.75701 49.874 4.68432C49.9165 4.61164 49.9834 4.55623 50.0629 4.52786C50.4545 4.38801 50.8506 4.25015 51.2382 4.11789C51.2828 4.10273 51.3299 4.09646 51.3769 4.09943C51.4238 4.1024 51.4698 4.11456 51.5121 4.13521C51.5543 4.15587 51.5921 4.18461 51.6232 4.2198C51.6543 4.25499 51.6781 4.29594 51.6934 4.34031C51.7086 4.38468 51.7149 4.4316 51.7119 4.4784C51.7089 4.52519 51.6967 4.57094 51.676 4.61303C51.6552 4.65512 51.6264 4.69274 51.591 4.72372C51.5557 4.75471 51.5146 4.77846 51.4701 4.79362C51.0849 4.92463 50.6929 5.06125 50.3047 5.20011C50.2661 5.21412 50.2254 5.22146 50.1843 5.22178L50.1839 5.22103ZM97.4683 4.90969C97.4227 4.90987 97.3776 4.90142 97.3352 4.88478C96.9555 4.73347 96.5691 4.58428 96.1868 4.44118C96.0978 4.40791 96.0257 4.34079 95.9864 4.25458C95.9471 4.16838 95.9438 4.07015 95.9772 3.98152C96.0106 3.89289 96.078 3.82111 96.1645 3.78196C96.2511 3.74282 96.3497 3.73952 96.4387 3.7728C96.8263 3.91763 97.2171 4.0687 97.6016 4.22175C97.6789 4.25257 97.7431 4.30926 97.7831 4.38208C97.823 4.45491 97.8362 4.53931 97.8205 4.6208C97.8047 4.70228 97.761 4.77576 97.6967 4.82859C97.6325 4.88143 97.5517 4.91032 97.4684 4.91031L97.4683 4.90969ZM52.5309 4.42263C52.4455 4.4226 52.363 4.39224 52.2981 4.337C52.2332 4.28177 52.1902 4.20529 52.1769 4.12132C52.1636 4.03734 52.1808 3.95139 52.2254 3.87892C52.27 3.80645 52.3391 3.75221 52.4203 3.72597C52.8143 3.59857 53.2138 3.47279 53.6082 3.35237C53.6985 3.32633 53.7956 3.3367 53.8783 3.38123C53.961 3.42575 54.0229 3.50088 54.0505 3.59041C54.0782 3.67994 54.0694 3.7767 54.026 3.85983C53.9827 3.94296 53.9083 4.00581 53.8189 4.03482C53.4283 4.1545 53.0323 4.27904 52.6418 4.40544C52.6061 4.41703 52.5688 4.423 52.5313 4.42313L52.5309 4.42263ZM95.1479 4.0418C95.1074 4.04181 95.0672 4.03494 95.029 4.0215C94.6403 3.88551 94.2478 3.75287 93.8625 3.62722C93.8164 3.61373 93.7735 3.59115 93.7364 3.56082C93.6992 3.5305 93.6685 3.49304 93.6462 3.45067C93.6238 3.4083 93.6103 3.3619 93.6063 3.31421C93.6023 3.26652 93.608 3.21852 93.623 3.17307C93.638 3.12761 93.6621 3.08563 93.6937 3.0496C93.7253 3.01358 93.7639 2.98426 93.8071 2.96338C93.8504 2.9425 93.8974 2.93049 93.9454 2.92806C93.9934 2.92563 94.0413 2.93284 94.0865 2.94924C94.4763 3.07639 94.8742 3.21077 95.2673 3.34776C95.3471 3.37576 95.4144 3.43094 95.4573 3.50355C95.5001 3.57617 95.5159 3.66154 95.5017 3.74459C95.4875 3.82764 95.4443 3.90301 95.3797 3.9574C95.3151 4.01179 95.2333 4.04168 95.1487 4.0418H95.1479ZM54.9013 3.69634C54.815 3.69622 54.7317 3.66515 54.6666 3.60881C54.6015 3.55247 54.559 3.47465 54.5468 3.38962C54.5347 3.30458 54.5537 3.21803 54.6004 3.14584C54.6472 3.07365 54.7184 3.02065 54.8012 2.99657C55.2 2.881 55.6034 2.76755 55.9999 2.65908C56.0916 2.63404 56.1895 2.64631 56.2721 2.69318C56.3547 2.74006 56.4152 2.81769 56.4404 2.90902C56.4655 3.00034 56.4532 3.09788 56.4061 3.18016C56.3591 3.26244 56.2811 3.32272 56.1894 3.34776C55.7963 3.45511 55.3967 3.56756 55.0015 3.68201C54.9691 3.69164 54.9355 3.69663 54.9016 3.69683L54.9013 3.69634ZM92.7923 3.27291C92.7569 3.27292 92.7217 3.26767 92.6879 3.25734C92.2983 3.13941 91.9001 3.02347 91.5055 2.913C91.4151 2.88642 91.3389 2.82546 91.2933 2.74331C91.2477 2.66115 91.2364 2.56442 91.2619 2.47405C91.2874 2.38368 91.3476 2.30693 91.4294 2.26043C91.5113 2.21392 91.6083 2.2014 91.6993 2.22557C92.0995 2.33765 92.5021 2.45471 92.8965 2.57427C92.9787 2.59916 93.0492 2.65265 93.0951 2.72497C93.1411 2.7973 93.1594 2.88365 93.1468 2.96831C93.1342 3.05297 93.0914 3.13029 93.0263 3.1862C92.9613 3.24211 92.8782 3.27288 92.7923 3.27291ZM57.2928 3.0429C57.2055 3.04279 57.1214 3.01101 57.056 2.95353C56.9906 2.89604 56.9485 2.81679 56.9375 2.73061C56.9266 2.64443 56.9476 2.55723 56.9966 2.48536C57.0456 2.41348 57.1192 2.36185 57.2036 2.34014C57.6029 2.23777 58.0095 2.13702 58.4124 2.04038C58.4585 2.02844 58.5065 2.02578 58.5536 2.03253C58.6008 2.03929 58.6461 2.05533 58.6869 2.07972C58.7278 2.10412 58.7634 2.13638 58.7915 2.17461C58.8197 2.21285 58.84 2.2563 58.8511 2.30242C58.8623 2.34854 58.8641 2.39641 58.8564 2.44323C58.8488 2.49005 58.8318 2.53489 58.8066 2.57512C58.7814 2.61535 58.7483 2.65017 58.7094 2.67754C58.6705 2.70491 58.6266 2.72429 58.5801 2.73454C58.1808 2.83031 57.7778 2.93031 57.3823 3.03156C57.3532 3.03937 57.3233 3.04346 57.2931 3.04377L57.2928 3.0429ZM90.4059 2.60515C90.3756 2.60518 90.3455 2.60133 90.3161 2.59369C89.9186 2.49158 89.5159 2.39257 89.1202 2.29979C89.0286 2.27717 88.9496 2.21952 88.9005 2.13933C88.8513 2.05914 88.8359 1.96288 88.8575 1.87141C88.8791 1.77995 88.9361 1.70067 89.016 1.65075C89.0959 1.60083 89.1924 1.5843 89.2844 1.60475C89.6854 1.6989 90.093 1.79903 90.4952 1.9024C90.5797 1.92411 90.6533 1.97575 90.7023 2.04764C90.7512 2.11953 90.7722 2.20674 90.7613 2.29292C90.7503 2.37911 90.7082 2.45837 90.6428 2.51584C90.5774 2.57332 90.4932 2.60507 90.4059 2.60515ZM59.7036 2.4653C59.6154 2.46523 59.5303 2.43275 59.4646 2.37407C59.3989 2.31539 59.3572 2.23465 59.3476 2.14728C59.3379 2.05992 59.361 1.97209 59.4123 1.90059C59.4636 1.8291 59.5396 1.77897 59.6257 1.7598C60.0327 1.66914 60.4425 1.58134 60.8436 1.49827C60.9367 1.47912 61.0336 1.49758 61.113 1.54959C61.1925 1.6016 61.2479 1.68291 61.2671 1.77562C61.2864 1.86833 61.2678 1.96486 61.2156 2.04396C61.1634 2.12306 61.0818 2.17826 60.9887 2.19742C60.5914 2.27924 60.1854 2.36629 59.7823 2.45621C59.7566 2.46231 59.7304 2.46565 59.704 2.46617L59.7036 2.4653ZM87.9932 2.03889C87.968 2.03885 87.9428 2.03618 87.9181 2.03092C87.52 1.94623 87.1138 1.86441 86.7106 1.78757C86.6184 1.76863 86.5373 1.71428 86.485 1.63626C86.4326 1.55824 86.4132 1.46284 86.4309 1.37068C86.4487 1.27852 86.5021 1.19702 86.5797 1.14381C86.6573 1.09059 86.7528 1.06994 86.8456 1.08631C87.2536 1.16415 87.6648 1.24709 88.0678 1.33277C88.1546 1.35104 88.2315 1.40069 88.2836 1.47212C88.3357 1.54356 88.3594 1.63171 88.3501 1.71953C88.3407 1.80735 88.299 1.88861 88.2331 1.94759C88.1671 2.00658 88.0815 2.03911 87.9928 2.03889H87.9932ZM62.1319 1.96528C62.0428 1.96509 61.9569 1.93181 61.891 1.87195C61.8252 1.81209 61.7841 1.72993 61.7758 1.64152C61.7675 1.55311 61.7925 1.46479 61.8461 1.39379C61.8996 1.32279 61.9778 1.27422 62.0654 1.25755C62.4739 1.18021 62.8863 1.10586 63.2908 1.03612C63.3839 1.02137 63.479 1.04373 63.5557 1.09836C63.6324 1.15299 63.6843 1.2355 63.7004 1.32801C63.7164 1.42053 63.6952 1.51561 63.6414 1.59268C63.5875 1.66974 63.5054 1.72258 63.4127 1.73975C63.0116 1.80875 62.6032 1.88247 62.1986 1.95893C62.1767 1.96337 62.1546 1.96579 62.1323 1.96616L62.1319 1.96528ZM85.5587 1.57437C85.5384 1.57434 85.5182 1.57259 85.4983 1.56914C85.0936 1.50076 84.6843 1.43576 84.2814 1.37611C84.2343 1.36979 84.189 1.35421 84.148 1.33029C84.107 1.30638 84.0713 1.27459 84.0427 1.23678C84.0142 1.19897 83.9935 1.15589 83.9818 1.11004C83.9701 1.06419 83.9677 1.01649 83.9747 0.969703C83.9817 0.922919 83.998 0.877984 84.0225 0.837509C84.0471 0.797034 84.0795 0.761827 84.1178 0.73393C84.1562 0.706033 84.1997 0.686004 84.2459 0.675006C84.2921 0.664008 84.34 0.66226 84.3869 0.669864C84.7945 0.730264 85.2088 0.796016 85.6182 0.865382C85.7066 0.880445 85.7862 0.928014 85.8412 0.998686C85.8962 1.06936 85.9225 1.15799 85.915 1.24707C85.9075 1.33616 85.8668 1.4192 85.8008 1.4798C85.7348 1.5404 85.6484 1.57415 85.5587 1.57437ZM64.5752 1.54498C64.4849 1.54484 64.3981 1.51081 64.3319 1.44967C64.2657 1.38853 64.2252 1.30479 64.2183 1.21516C64.2114 1.12554 64.2387 1.03662 64.2947 0.966169C64.3508 0.89572 64.4315 0.848925 64.5207 0.835123C64.9318 0.771609 65.3459 0.710585 65.7533 0.655042C65.7999 0.648631 65.8474 0.651429 65.8929 0.663278C65.9384 0.675126 65.9812 0.695794 66.0187 0.724098C66.0562 0.752401 66.0878 0.787786 66.1116 0.828236C66.1354 0.868686 66.1509 0.913407 66.1574 0.959845C66.1638 1.00628 66.161 1.05353 66.1491 1.09888C66.1372 1.14424 66.1164 1.18682 66.088 1.22419C66.0596 1.26156 66.0241 1.29299 65.9835 1.31668C65.9429 1.34038 65.8979 1.35587 65.8513 1.36228C65.4484 1.41783 65.0378 1.47773 64.6307 1.54074C64.6125 1.54384 64.594 1.54555 64.5756 1.54585L64.5752 1.54498ZM83.1068 1.21085C83.0914 1.21087 83.076 1.20992 83.0607 1.20798C82.657 1.15655 82.2452 1.10836 81.8371 1.06502C81.7442 1.053 81.6597 1.00525 81.6017 0.931972C81.5437 0.858696 81.5168 0.765723 81.5268 0.67295C81.5368 0.580177 81.5828 0.494977 81.6551 0.435584C81.7273 0.37619 81.82 0.347323 81.9134 0.355161C82.326 0.399371 82.743 0.448064 83.1513 0.499995C83.2418 0.511234 83.3246 0.556451 83.3829 0.626428C83.4411 0.696404 83.4703 0.785867 83.4646 0.876571C83.4589 0.967275 83.4186 1.05239 83.3521 1.11455C83.2855 1.17671 83.1976 1.21124 83.1064 1.21109L83.1068 1.21085ZM67.0314 1.20736C66.9401 1.20739 66.8521 1.17265 66.7856 1.11023C66.7191 1.04782 66.679 0.962447 66.6736 0.871585C66.6682 0.780723 66.6978 0.691232 66.7565 0.621419C66.8151 0.551605 66.8983 0.506747 66.9891 0.496012C67.4026 0.446198 67.8192 0.400118 68.2276 0.358399C68.2751 0.352262 68.3233 0.355659 68.3694 0.36839C68.4155 0.381122 68.4586 0.402928 68.4962 0.432524C68.5337 0.46212 68.5649 0.498909 68.5879 0.54071C68.6109 0.582512 68.6253 0.628483 68.6302 0.675911C68.6351 0.723338 68.6304 0.771258 68.6164 0.816846C68.6023 0.862433 68.5793 0.904761 68.5486 0.941332C68.5179 0.977904 68.4801 1.00798 68.4376 1.02978C68.395 1.05158 68.3485 1.06466 68.3007 1.06825C67.8965 1.1096 67.4841 1.15543 67.0753 1.2045C67.0609 1.20662 67.0464 1.20786 67.0318 1.20823L67.0314 1.20736ZM69.4979 0.955174C69.4056 0.954771 69.3171 0.918983 69.2507 0.85525C69.1843 0.791518 69.1451 0.704745 69.1412 0.61297C69.1374 0.521195 69.1692 0.431478 69.2301 0.362473C69.291 0.293468 69.3762 0.250484 69.4681 0.242456C69.885 0.207337 70.3031 0.175828 70.7107 0.148928C70.7577 0.145829 70.8048 0.151975 70.8494 0.167011C70.894 0.182047 70.9351 0.205679 70.9705 0.236561C71.006 0.267443 71.0349 0.30497 71.0557 0.346997C71.0766 0.389024 71.0889 0.434729 71.092 0.481502C71.0952 0.528275 71.089 0.575199 71.0739 0.619598C71.0588 0.663997 71.0351 0.705 71.0041 0.740265C70.9731 0.77553 70.9354 0.804368 70.8932 0.825131C70.851 0.845894 70.8051 0.858175 70.7581 0.861274C70.3549 0.887925 69.9413 0.919182 69.5286 0.953927C69.5186 0.955671 69.5085 0.956048 69.4982 0.956048L69.4979 0.955174ZM80.6417 0.947828C80.6315 0.947828 80.621 0.947826 80.6105 0.946581C80.2047 0.911462 79.7913 0.87983 79.3817 0.852681C79.2869 0.846389 79.1984 0.802829 79.1358 0.731585C79.0732 0.66034 79.0416 0.567246 79.0479 0.472783C79.0542 0.378321 79.098 0.290227 79.1695 0.227881C79.241 0.165534 79.3345 0.134043 79.4294 0.140335C79.8437 0.167858 80.2619 0.199741 80.6722 0.235109C80.7642 0.24315 80.8494 0.286191 80.9103 0.355275C80.9712 0.424358 81.003 0.514161 80.999 0.605992C80.9951 0.697823 80.9558 0.784607 80.8892 0.84828C80.8227 0.911953 80.734 0.947609 80.6417 0.947828ZM71.9719 0.791162C71.8786 0.790686 71.7892 0.754011 71.7226 0.688927C71.656 0.623844 71.6176 0.535476 71.6153 0.442592C71.6131 0.349708 71.6473 0.259624 71.7107 0.191468C71.7741 0.123312 71.8617 0.0824527 71.9549 0.0775696C72.3711 0.0575193 72.7901 0.0413295 73.2003 0.0292495C73.2953 0.0264421 73.3875 0.0613389 73.4567 0.126266C73.5259 0.191193 73.5663 0.280831 73.5691 0.375459C73.572 0.470087 73.5369 0.561954 73.4717 0.630851C73.4065 0.699749 73.3165 0.740034 73.2215 0.742842C72.8159 0.755295 72.4013 0.77086 71.9894 0.790786C71.984 0.79228 71.9781 0.792283 71.9723 0.792283L71.9719 0.791162ZM78.1682 0.78369H78.1511C77.7424 0.764511 77.3281 0.749194 76.9194 0.73811C76.8255 0.733927 76.7371 0.69318 76.673 0.624649C76.609 0.556118 76.5746 0.465282 76.5771 0.371704C76.5797 0.278127 76.619 0.189292 76.6867 0.124331C76.7544 0.059371 76.845 0.0234824 76.9389 0.0243925C77.3523 0.0356007 77.7714 0.0511671 78.1847 0.0704701C78.2778 0.0753387 78.3654 0.116158 78.4288 0.184262C78.4922 0.252366 78.5265 0.342398 78.5243 0.435249C78.5222 0.528101 78.4838 0.616464 78.4173 0.681589C78.3508 0.746713 78.2615 0.78347 78.1682 0.784062V0.78369ZM74.4502 0.717808C74.3562 0.716641 74.2665 0.67878 74.2003 0.612369C74.1341 0.545959 74.0966 0.456311 74.0961 0.362724C74.0956 0.269136 74.1321 0.179092 74.1975 0.111972C74.263 0.0448523 74.3523 0.00602187 74.4463 0.00384296C74.8601 -0.000557308 75.2755 -0.00117801 75.6927 0.0019769C75.7866 0.00404593 75.8759 0.0427513 75.9415 0.109764C76.0071 0.176776 76.0436 0.26674 76.0432 0.360303C76.0429 0.453866 76.0057 0.543549 75.9396 0.610059C75.8735 0.676568 75.7839 0.714591 75.6899 0.715942H75.6871C75.2741 0.712704 74.8631 0.713324 74.4542 0.717808H74.4502Z" fill="#364154"/>
<path d="M131.641 56.5407C131.63 56.5407 131.62 56.5407 131.61 56.5394C131.515 56.5313 131.427 56.4861 131.366 56.4138C131.305 56.3414 131.275 56.2477 131.283 56.1534C131.283 56.1513 131.301 55.9417 131.317 55.558C131.321 55.4633 131.363 55.3742 131.433 55.3101C131.503 55.2461 131.595 55.2123 131.69 55.2163C131.785 55.2203 131.875 55.2617 131.939 55.3314C132.004 55.4012 132.038 55.4935 132.033 55.5881C132.016 55.9897 131.998 56.205 131.997 56.214C131.99 56.3031 131.949 56.386 131.883 56.4465C131.817 56.507 131.73 56.5406 131.641 56.5407Z" fill="#364154"/>
</svg>
