<svg width="139" height="128" viewBox="0 0 139 128" fill="none" xmlns="http://www.w3.org/2000/svg">
<path d="M101.668 3.11474e-05C93.0971 -0.0103564 84.7853 2.94031 78.1361 8.35375C69.7023 15.2315 64.3352 25.6809 64.3352 37.3696C64.3352 58.0032 101.668 103.872 101.668 103.872C101.668 103.872 118.624 83.0341 129.652 63.1392C135.019 53.5171 139 44.0996 139 37.3702C139.001 16.7371 122.281 3.11474e-05 101.668 3.11474e-05ZM101.668 54.4303C97.1732 54.4599 92.838 52.7644 89.5539 49.6925C86.2698 46.6207 84.2864 42.4059 84.0116 37.9151C83.7369 33.4243 85.1916 28.9988 88.0767 25.5488C90.9618 22.0987 95.0579 19.8863 99.5226 19.3667C103.987 18.847 108.481 20.0596 112.08 22.7549C115.679 25.4503 118.11 29.4236 118.872 33.8577C119.633 38.2918 118.669 42.8496 116.177 46.5938C113.684 50.338 109.854 52.984 105.472 53.9875C104.226 54.2854 102.949 54.4339 101.668 54.4299V54.4303Z" fill="#EEEEEE"/>
<path d="M97.0647 83.8059H56.9977V117.766H101.89L97.0647 83.8059Z" fill="#757575"/>
<path d="M95.3107 84.9685H49.9008V117.766H100.02L95.3107 84.9685Z" fill="#131F2D"/>
<path d="M75.7252 117.766H81.9004V111.499H75.7252V117.766Z" fill="#EEEEEE"/>
<path d="M81.6432 117.766H85.3806V111.499H81.6432V117.766Z" fill="#9E9E9E"/>
<path d="M75.3974 111.585H85.6376V103.625H75.3974V111.585Z" fill="#EEEEEE"/>
<path d="M85.3805 111.585H88.2077V105.404H85.3805V111.585Z" fill="#9E9E9E"/>
<path d="M32.3022 113.765H19.1159C18.7941 113.765 18.5332 114.026 18.5332 114.348V119.553C18.5332 119.875 18.7941 120.137 19.1159 120.137H32.3022C32.624 120.137 32.8849 119.875 32.8849 119.553V114.348C32.8849 114.026 32.624 113.765 32.3022 113.765Z" fill="#EEEEEE"/>
<path d="M69.2616 122.241C69.2616 121.102 69.599 119.989 70.2311 119.042C70.8633 118.095 71.7618 117.357 72.813 116.921C73.8642 116.485 75.021 116.371 76.137 116.593C77.2529 116.815 78.278 117.364 79.0826 118.169C79.8872 118.975 80.4351 120.001 80.6571 121.118C80.8791 122.235 80.7651 123.393 80.3297 124.445C79.8943 125.497 79.1569 126.397 78.2108 127.029C77.2647 127.662 76.1525 128 75.0146 128C73.4888 128 72.0255 127.393 70.9466 126.313C69.8677 125.233 69.2616 123.769 69.2616 122.241Z" fill="#131F2D"/>
<path d="M88.6071 122.241C88.6071 121.102 88.9445 119.989 89.5767 119.042C90.2088 118.095 91.1073 117.357 92.1585 116.921C93.2098 116.485 94.3665 116.371 95.4825 116.593C96.5984 116.815 97.6235 117.364 98.4281 118.169C99.2326 118.975 99.7806 120.001 100.003 121.118C100.225 122.235 100.111 123.393 99.6752 124.445C99.2397 125.497 98.5024 126.397 97.5563 127.029C96.6102 127.662 95.4979 128 94.3601 128C92.8343 128 91.371 127.393 90.2921 126.313C89.2132 125.233 88.6071 123.769 88.6071 122.241Z" fill="#131F2D"/>
<path d="M20.4932 122.241C20.4932 121.102 20.8306 119.989 21.4627 119.042C22.0949 118.095 22.9934 117.357 24.0446 116.921C25.0958 116.485 26.2526 116.371 27.3685 116.593C28.4845 116.815 29.5096 117.364 30.3142 118.169C31.1187 118.975 31.6667 120.001 31.8887 121.118C32.1106 122.235 31.9967 123.393 31.5613 124.445C31.1258 125.497 30.3885 126.397 29.4424 127.029C28.4963 127.662 27.384 128 26.2462 128C24.7204 128 23.2571 127.393 22.1782 126.313C21.0993 125.233 20.4932 123.769 20.4932 122.241Z" fill="#131F2D"/>
<path d="M23.3425 122.241C23.3425 121.666 23.5128 121.105 23.8319 120.627C24.1509 120.149 24.6044 119.776 25.135 119.556C25.6656 119.336 26.2494 119.279 26.8127 119.391C27.3759 119.503 27.8933 119.78 28.2994 120.186C28.7055 120.593 28.982 121.111 29.0941 121.674C29.2061 122.238 29.1486 122.823 28.9288 123.354C28.709 123.885 28.3369 124.339 27.8594 124.658C27.3819 124.977 26.8205 125.148 26.2462 125.148C25.4761 125.148 24.7376 124.842 24.193 124.297C23.6485 123.751 23.3426 123.012 23.3425 122.241Z" fill="#D36E2A"/>
<path d="M23.3425 122.241C23.3425 121.666 23.5128 121.105 23.8319 120.627C24.1509 120.149 24.6044 119.776 25.135 119.556C25.6656 119.336 26.2494 119.279 26.8127 119.391C27.3759 119.503 27.8933 119.78 28.2994 120.186C28.7055 120.593 28.982 121.111 29.0941 121.674C29.2061 122.238 29.1486 122.823 28.9288 123.354C28.709 123.885 28.3369 124.339 27.8594 124.658C27.3819 124.977 26.8205 125.148 26.2462 125.148C25.4761 125.148 24.7376 124.842 24.193 124.297C23.6485 123.751 23.3426 123.012 23.3425 122.241Z" fill="#9E9E9E"/>
<path d="M25.3459 122.241C25.3459 122.063 25.3987 121.889 25.4976 121.741C25.5965 121.593 25.7371 121.477 25.9016 121.409C26.0661 121.341 26.2471 121.323 26.4217 121.358C26.5963 121.392 26.7567 121.478 26.8826 121.604C27.0085 121.73 27.0943 121.891 27.129 122.066C27.1637 122.24 27.1459 122.421 27.0778 122.586C27.0096 122.751 26.8943 122.892 26.7462 122.991C26.5982 123.09 26.4242 123.142 26.2461 123.142C26.0074 123.142 25.7784 123.047 25.6096 122.878C25.4408 122.709 25.3459 122.48 25.3459 122.241Z" fill="#EEEEEE"/>
<path d="M24.3659 123.785C24.3659 123.716 24.3864 123.649 24.4247 123.591C24.4631 123.534 24.5175 123.489 24.5813 123.463C24.645 123.436 24.7152 123.43 24.7828 123.443C24.8505 123.456 24.9127 123.49 24.9615 123.538C25.0102 123.587 25.0435 123.649 25.0569 123.717C25.0704 123.785 25.0635 123.855 25.0371 123.919C25.0107 123.982 24.966 124.037 24.9086 124.075C24.8512 124.114 24.7838 124.134 24.7148 124.134C24.6223 124.134 24.5335 124.097 24.4681 124.032C24.4027 123.966 24.3659 123.878 24.3659 123.785Z" fill="#EEEEEE"/>
<path d="M23.9596 121.195C23.9597 121.126 23.9801 121.058 24.0185 121.001C24.0568 120.944 24.1113 120.899 24.175 120.873C24.2387 120.846 24.3088 120.839 24.3764 120.853C24.4441 120.866 24.5062 120.9 24.5549 120.948C24.6037 120.997 24.6369 121.059 24.6503 121.127C24.6638 121.195 24.6569 121.265 24.6305 121.328C24.6041 121.392 24.5594 121.447 24.502 121.485C24.4447 121.523 24.3773 121.544 24.3083 121.544C24.2625 121.544 24.2172 121.535 24.1749 121.517C24.1325 121.5 24.0941 121.474 24.0617 121.441C24.0293 121.409 24.0036 121.371 23.9861 121.328C23.9686 121.286 23.9596 121.241 23.9596 121.195Z" fill="#EEEEEE"/>
<path d="M27.7924 121.195C27.7924 121.126 27.8128 121.058 27.8512 121.001C27.8895 120.944 27.944 120.899 28.0077 120.872C28.0715 120.846 28.1416 120.839 28.2093 120.853C28.277 120.866 28.3391 120.899 28.3879 120.948C28.4367 120.997 28.4699 121.059 28.4834 121.127C28.4968 121.195 28.4899 121.265 28.4635 121.328C28.437 121.392 28.3923 121.447 28.3349 121.485C28.2775 121.523 28.2101 121.544 28.1411 121.544C28.0953 121.544 28.0499 121.535 28.0076 121.517C27.9653 121.5 27.9268 121.474 27.8944 121.442C27.8621 121.409 27.8364 121.371 27.8189 121.328C27.8013 121.286 27.7923 121.241 27.7924 121.195Z" fill="#EEEEEE"/>
<path d="M27.502 123.785C27.502 123.716 27.5224 123.649 27.5607 123.591C27.5991 123.534 27.6536 123.489 27.7173 123.463C27.781 123.436 27.8512 123.43 27.9189 123.443C27.9865 123.456 28.0487 123.49 28.0975 123.538C28.1462 123.587 28.1795 123.649 28.1929 123.717C28.2064 123.785 28.1995 123.855 28.1731 123.919C28.1467 123.982 28.102 124.037 28.0446 124.075C27.9872 124.114 27.9198 124.134 27.8508 124.134C27.7583 124.134 27.6695 124.097 27.6041 124.032C27.5387 123.966 27.502 123.878 27.502 123.785Z" fill="#EEEEEE"/>
<path d="M25.8977 120.02C25.8977 119.951 25.9182 119.884 25.9565 119.827C25.9948 119.769 26.0493 119.725 26.113 119.698C26.1767 119.672 26.2468 119.665 26.3145 119.678C26.3821 119.692 26.4442 119.725 26.493 119.774C26.5418 119.823 26.575 119.885 26.5884 119.952C26.6019 120.02 26.595 120.09 26.5686 120.154C26.5422 120.218 26.4975 120.272 26.4402 120.31C26.3828 120.349 26.3154 120.369 26.2465 120.369C26.154 120.369 26.0653 120.332 25.9999 120.267C25.9345 120.202 25.8977 120.113 25.8977 120.02Z" fill="#EEEEEE"/>
<path d="M72.0038 122.241C72.0038 121.666 72.1742 121.105 72.4932 120.627C72.8123 120.149 73.2658 119.776 73.7964 119.556C74.327 119.336 74.9108 119.279 75.474 119.391C76.0373 119.503 76.5547 119.78 76.9608 120.186C77.3668 120.593 77.6434 121.111 77.7554 121.674C77.8674 122.238 77.8099 122.823 77.5901 123.354C77.3703 123.885 76.9981 124.339 76.5206 124.658C76.0431 124.977 75.4817 125.148 74.9074 125.148C74.1373 125.148 73.3988 124.842 72.8543 124.297C72.3098 123.751 72.0038 123.012 72.0038 122.241Z" fill="#D36E2A"/>
<path d="M72.0038 122.241C72.0038 121.666 72.1742 121.105 72.4932 120.627C72.8123 120.149 73.2658 119.776 73.7964 119.556C74.327 119.336 74.9108 119.279 75.474 119.391C76.0373 119.503 76.5547 119.78 76.9608 120.186C77.3668 120.593 77.6434 121.111 77.7554 121.674C77.8674 122.238 77.8099 122.823 77.5901 123.354C77.3703 123.885 76.9981 124.339 76.5206 124.658C76.0431 124.977 75.4817 125.148 74.9074 125.148C74.1373 125.148 73.3988 124.842 72.8543 124.297C72.3098 123.751 72.0038 123.012 72.0038 122.241Z" fill="#9E9E9E"/>
<path d="M74.0073 122.241C74.0074 122.063 74.0602 121.889 74.1591 121.741C74.258 121.593 74.3986 121.477 74.563 121.409C74.7275 121.341 74.9084 121.323 75.083 121.358C75.2576 121.393 75.418 121.478 75.5438 121.604C75.6697 121.73 75.7554 121.891 75.7901 122.066C75.8248 122.241 75.807 122.422 75.7389 122.586C75.6707 122.751 75.5554 122.892 75.4074 122.991C75.2594 123.09 75.0854 123.142 74.9074 123.142C74.7892 123.142 74.6721 123.119 74.5629 123.074C74.4537 123.028 74.3545 122.962 74.2709 122.878C74.1873 122.795 74.121 122.695 74.0758 122.586C74.0306 122.477 74.0073 122.36 74.0073 122.241Z" fill="#EEEEEE"/>
<path d="M73.0273 123.785C73.0273 123.716 73.0478 123.649 73.0861 123.591C73.1245 123.534 73.1789 123.489 73.2427 123.463C73.3064 123.437 73.3765 123.43 73.4441 123.443C73.5118 123.457 73.5739 123.49 73.6227 123.539C73.6714 123.588 73.7046 123.65 73.718 123.717C73.7315 123.785 73.7246 123.855 73.6982 123.919C73.6718 123.983 73.6271 124.037 73.5697 124.075C73.5124 124.114 73.445 124.134 73.376 124.134C73.3302 124.134 73.2849 124.125 73.2426 124.107C73.2002 124.09 73.1618 124.064 73.1294 124.032C73.097 123.999 73.0713 123.961 73.0538 123.919C73.0363 123.876 73.0273 123.831 73.0273 123.785Z" fill="#EEEEEE"/>
<path d="M72.8969 121.195C72.8969 121.126 72.9173 121.058 72.9556 121.001C72.994 120.944 73.0485 120.899 73.1122 120.872C73.176 120.846 73.2461 120.839 73.3138 120.853C73.3815 120.866 73.4436 120.899 73.4924 120.948C73.5412 120.997 73.5744 121.059 73.5879 121.127C73.6013 121.195 73.5944 121.265 73.5679 121.328C73.5415 121.392 73.4968 121.447 73.4394 121.485C73.382 121.523 73.3145 121.544 73.2455 121.544C73.1997 121.544 73.1544 121.535 73.1121 121.517C73.0698 121.5 73.0313 121.474 72.9989 121.442C72.9666 121.409 72.9409 121.371 72.9234 121.328C72.9058 121.286 72.8968 121.241 72.8969 121.195Z" fill="#EEEEEE"/>
<path d="M76.1633 123.785C76.1633 123.716 76.1838 123.649 76.2221 123.591C76.2604 123.534 76.3149 123.489 76.3786 123.463C76.4424 123.437 76.5125 123.43 76.5801 123.443C76.6477 123.457 76.7098 123.49 76.7586 123.539C76.8073 123.588 76.8406 123.65 76.854 123.717C76.8674 123.785 76.8605 123.855 76.8341 123.919C76.8077 123.983 76.763 124.037 76.7057 124.075C76.6484 124.114 76.581 124.134 76.512 124.134C76.4662 124.134 76.4208 124.125 76.3785 124.107C76.3362 124.09 76.2977 124.064 76.2654 124.032C76.233 123.999 76.2073 123.961 76.1898 123.919C76.1723 123.876 76.1633 123.831 76.1633 123.785Z" fill="#EEEEEE"/>
<path d="M71.8914 120.02C71.8914 119.951 71.9119 119.884 71.9502 119.827C71.9885 119.769 72.043 119.725 72.1067 119.698C72.1704 119.672 72.2406 119.665 72.3082 119.678C72.3758 119.692 72.438 119.725 72.4867 119.774C72.5355 119.823 72.5687 119.885 72.5822 119.952C72.5956 120.02 72.5887 120.09 72.5623 120.154C72.5359 120.218 72.4912 120.272 72.4339 120.31C72.3766 120.349 72.3091 120.369 72.2402 120.369C72.1477 120.369 72.059 120.332 71.9936 120.267C71.9282 120.202 71.8914 120.113 71.8914 120.02Z" fill="#EEEEEE"/>
<path d="M36.839 122.241C36.839 121.102 37.1764 119.989 37.8085 119.042C38.4407 118.095 39.3392 117.357 40.3904 116.921C41.4416 116.485 42.5984 116.371 43.7143 116.593C44.8303 116.815 45.8554 117.364 46.66 118.169C47.4645 118.975 48.0125 120.001 48.2345 121.118C48.4564 122.235 48.3425 123.393 47.9071 124.445C47.4716 125.497 46.7343 126.397 45.7882 127.029C44.8421 127.662 43.7298 128 42.592 128C41.0662 128 39.6029 127.393 38.524 126.313C37.4451 125.233 36.839 123.769 36.839 122.241Z" fill="#131F2D"/>
<path d="M26.1824 91.1466C26.1824 91.1466 29.3041 86.4335 32.9128 86.3945L32.591 91.4941L26.1824 91.1466Z" fill="#9E9E9E"/>
<path d="M44.5719 112.679H19.5873L21.6668 95.7863C21.8301 94.4594 22.4725 93.238 23.4731 92.3523C24.4736 91.4666 25.7632 90.9777 27.0989 90.9779H44.5719V112.679Z" fill="#EEEEEE"/>
<path d="M30.0481 102.353H23.0419L23.9699 95.6826C24.0623 95.0182 24.3917 94.4098 24.8972 93.9694C25.4027 93.5291 26.0502 93.2865 26.7203 93.2866H30.2654L30.0481 102.353Z" fill="#9E9E9E"/>
<path d="M29.5305 101.851H24.9182C24.7542 101.851 24.592 101.816 24.4427 101.748C24.2933 101.681 24.1601 101.582 24.052 101.458C23.944 101.335 23.8635 101.189 23.816 101.032C23.7686 100.875 23.7552 100.71 23.7768 100.547L24.389 95.9317C24.5506 94.7127 25.5434 93.8054 26.7156 93.8054H29.7146L29.5305 101.851Z" fill="#EAEAEA"/>
<path d="M78.5552 117.766H30.4995L32.6435 83.8055H75.7159L78.5552 117.766Z" fill="#757575"/>
<path d="M76.674 116.478H32.2633L34.2444 85.0945H74.0486L76.1761 110.534L76.674 116.478Z" fill="#BDBDBD"/>
<path d="M34.8322 112.679H19.5873C18.2448 112.769 18.115 113.433 18.115 113.433L16.8114 119.744C16.8186 119.855 16.8687 119.958 16.9511 120.031C17.0335 120.104 17.1415 120.142 17.2516 120.137H21.0847C21.3267 120.137 21.5013 119.959 21.6046 119.734C21.6046 119.734 22.1945 119.005 22.5901 118.744C23.5811 118.09 24.6569 117.661 26.2461 117.661C28.2002 117.661 29.9264 118.283 30.9662 119.234H34.8322C35.299 119.234 35.6808 118.99 35.6808 118.692V113.221C35.6808 112.923 35.299 112.679 34.8322 112.679Z" fill="#9E9E9E"/>
<path d="M82.7654 125.069H77.9346C77.832 124.516 77.6266 123.988 77.3292 123.512C75.8685 121.168 72.4529 120.452 70.5071 120.233C70.0346 120.177 69.5595 120.145 69.0837 120.137H77.3891C78.2508 120.241 79.0804 120.528 79.8223 120.979C80.5642 121.431 81.2014 122.035 81.6911 122.753C82.186 123.453 82.55 124.238 82.7654 125.069Z" fill="#757575"/>
<path d="M101.89 125.069H97.0585C96.9424 124.443 96.6946 123.849 96.3317 123.327C94.1251 120.141 88.2072 120.137 88.2072 120.137H96.513C98.0128 120.317 99.3915 121.051 100.379 122.195C101.095 123.025 101.612 124.008 101.89 125.069Z" fill="#757575"/>
<path d="M31.5876 117.766H102.437C102.608 117.766 102.773 117.834 102.894 117.956C103.015 118.077 103.084 118.242 103.084 118.413V120.412C103.084 120.584 103.015 120.749 102.894 120.87C102.773 120.992 102.608 121.06 102.437 121.06H31.5877C31.4162 121.06 31.2517 120.992 31.1304 120.87C31.0091 120.749 30.9409 120.584 30.9409 120.412V118.413C30.9409 118.242 31.009 118.077 31.1303 117.956C31.2516 117.834 31.4161 117.766 31.5876 117.766V117.766Z" fill="#757575"/>
<path d="M47.7215 118.594H34.6167C34.2724 118.594 33.9933 118.873 33.9933 119.218V125.265C33.9933 125.609 34.2724 125.889 34.6167 125.889H47.7215C48.0659 125.889 48.345 125.609 48.345 125.265V119.218C48.345 118.873 48.0659 118.594 47.7215 118.594Z" fill="#757575"/>
<path d="M20.0423 99.0836C20.0423 99.0836 19.4172 102.444 19.4482 102.991C19.4793 103.538 19.9964 103.806 20.3894 103.806L20.0423 99.0836Z" fill="#BDBDBD"/>
<path d="M21.9381 98.8034H20.4201C20.1972 98.8034 20.0165 98.9843 20.0165 99.2074V103.402C20.0165 103.625 20.1972 103.806 20.4201 103.806H21.9381C22.1609 103.806 22.3416 103.625 22.3416 103.402V99.2074C22.3416 98.9843 22.1609 98.8034 21.9381 98.8034Z" fill="#9E9E9E"/>
<path d="M21.8217 99.0836H20.6194C20.4291 99.0836 20.2749 99.238 20.2749 99.4284V103.218C20.2749 103.409 20.4291 103.563 20.6194 103.563H21.8217C22.0119 103.563 22.1661 103.409 22.1661 103.218V99.4284C22.1661 99.238 22.0119 99.0836 21.8217 99.0836Z" fill="#EAEAEA"/>
<path d="M21.1792 98.8946C21.1568 98.8928 21.1361 98.8822 21.1215 98.8651C21.107 98.848 21.0998 98.8258 21.1016 98.8034V97.3915C21.1016 97.3877 21.1019 97.3839 21.1023 97.3801C21.1032 97.3719 21.1989 96.5681 22.0441 96.5941C22.8169 96.6179 23.1499 96.5941 23.1533 96.5941C23.1643 96.5942 23.1751 96.5965 23.1852 96.6008C23.1953 96.6052 23.2044 96.6114 23.212 96.6193C23.2196 96.6272 23.2256 96.6365 23.2296 96.6467C23.2337 96.6569 23.2356 96.6678 23.2354 96.6788C23.2382 96.7012 23.2322 96.7237 23.2187 96.7418C23.2051 96.7598 23.1852 96.7719 23.1629 96.7755C23.1488 96.7766 22.8199 96.8001 22.04 96.7755C21.8542 96.7557 21.668 96.8097 21.5215 96.9259C21.375 97.042 21.2799 97.2111 21.2566 97.3967V98.8027C21.2576 98.8138 21.2564 98.8251 21.253 98.8357C21.2497 98.8464 21.2442 98.8562 21.237 98.8648C21.2298 98.8733 21.221 98.8804 21.2111 98.8855C21.2012 98.8906 21.1903 98.8937 21.1792 98.8946Z" fill="#BDBDBD"/>
<path d="M29.3994 104.527H27.9856C27.8902 104.527 27.7988 104.488 27.7314 104.421C27.664 104.353 27.6259 104.262 27.6256 104.166C27.6259 104.071 27.664 103.98 27.7314 103.912C27.7989 103.845 27.8902 103.807 27.9856 103.806H29.3994C29.4947 103.807 29.5861 103.845 29.6535 103.912C29.721 103.98 29.759 104.071 29.7593 104.166C29.759 104.262 29.721 104.353 29.6536 104.421C29.5861 104.488 29.4947 104.527 29.3994 104.527Z" fill="#9E9E9E"/>
<path d="M85.975 117.766H92.1501V111.585H85.975V117.766Z" fill="#EEEEEE"/>
<path d="M91.893 117.766H94.7202V111.585H91.893V117.766Z" fill="#9E9E9E"/>
<path d="M43.0599 98.8532C43.3006 98.8483 43.5404 98.8847 43.7688 98.961C43.9566 99.025 44.128 99.1297 44.2708 99.2675C44.4072 99.4033 44.5126 99.5671 44.5798 99.7475C44.6545 99.9497 44.6982 100.162 44.7094 100.377C44.7241 100.649 44.7241 100.922 44.7094 101.194C44.6981 101.41 44.6545 101.622 44.5798 101.824C44.513 102.004 44.4086 102.168 44.2736 102.304C44.1336 102.441 43.9651 102.546 43.7799 102.61C43.5572 102.686 43.3228 102.723 43.0875 102.718H41.6973C41.658 102.718 41.6204 102.702 41.5925 102.674C41.5647 102.646 41.5488 102.609 41.5484 102.569V99.0018C41.5489 98.9624 41.5647 98.9247 41.5926 98.8969C41.6204 98.869 41.658 98.8531 41.6973 98.8525L43.0599 98.8532ZM43.9646 100.378C43.9584 100.266 43.9352 100.155 43.8957 100.05C43.8582 99.9501 43.7998 99.8597 43.7246 99.7845C43.6439 99.7057 43.5469 99.6454 43.4406 99.6079C43.3093 99.5627 43.1711 99.5412 43.0324 99.5442H42.293V102.029H43.0599C43.1932 102.032 43.326 102.011 43.4516 101.966C43.5548 101.928 43.6488 101.869 43.7275 101.792C43.802 101.716 43.8594 101.626 43.8957 101.527C43.9351 101.42 43.9582 101.309 43.9646 101.195C43.9794 100.923 43.9794 100.65 43.9646 100.377V100.378Z" fill="white"/>
<path d="M48.0038 102.029C48.0432 102.029 48.0808 102.045 48.1086 102.073C48.1365 102.101 48.1523 102.138 48.1527 102.178V102.57C48.1523 102.609 48.1364 102.647 48.1086 102.675C48.0808 102.703 48.0432 102.718 48.0038 102.719H45.5817C45.5423 102.718 45.5047 102.703 45.4769 102.675C45.4491 102.647 45.4332 102.609 45.4327 102.57V99.0024C45.4332 98.9631 45.4491 98.9254 45.4769 98.8975C45.5047 98.8697 45.5423 98.8538 45.5817 98.8532H47.9595C47.9989 98.8538 48.0365 98.8697 48.0643 98.8976C48.0921 98.9254 48.108 98.963 48.1086 99.0024V99.3945C48.1081 99.4339 48.0922 99.4716 48.0643 99.4994C48.0365 99.5272 47.9989 99.543 47.9595 99.5435H46.1776V100.422H47.8382C47.8775 100.422 47.9152 100.438 47.943 100.466C47.9709 100.494 47.9867 100.531 47.9871 100.571V100.963C47.9867 101.002 47.9709 101.04 47.943 101.068C47.9152 101.096 47.8775 101.111 47.8382 101.112H46.1776V102.029H48.0038Z" fill="white"/>
<path d="M51.4014 102.029C51.4408 102.029 51.4785 102.045 51.5063 102.073C51.5341 102.101 51.55 102.138 51.5504 102.178V102.57C51.5499 102.609 51.5341 102.647 51.5062 102.675C51.4784 102.703 51.4408 102.718 51.4014 102.719H48.985C48.9456 102.718 48.908 102.703 48.8802 102.675C48.8524 102.647 48.8365 102.609 48.836 102.57V99.0024C48.8365 98.9631 48.8524 98.9254 48.8802 98.8975C48.908 98.8697 48.9456 98.8538 48.985 98.8532H49.4318C49.4712 98.8538 49.5088 98.8697 49.5366 98.8975C49.5644 98.9254 49.5803 98.9631 49.5808 99.0024V102.029H51.4014Z" fill="white"/>
<path d="M52.2289 102.719C52.1896 102.718 52.152 102.703 52.1241 102.675C52.0963 102.647 52.0804 102.609 52.0799 102.57V99.0024C52.0804 98.9631 52.0963 98.9255 52.1242 98.8976C52.152 98.8698 52.1896 98.8538 52.2289 98.8532H52.6763C52.7157 98.8538 52.7533 98.8697 52.7812 98.8975C52.809 98.9254 52.8249 98.9631 52.8254 99.0024V102.57C52.8249 102.609 52.8091 102.647 52.7812 102.675C52.7534 102.703 52.7157 102.718 52.6763 102.719H52.2289Z" fill="white"/>
<path d="M55.0865 101.625L56.0135 98.9913C56.027 98.9576 56.0466 98.9267 56.0714 98.9002C56.0874 98.8838 56.1068 98.8711 56.1282 98.863C56.1496 98.8548 56.1726 98.8515 56.1954 98.8532H56.6148C56.6541 98.8538 56.6917 98.8697 56.7195 98.8975C56.7473 98.9254 56.7632 98.9631 56.7637 99.0025V99.0217C56.7618 99.0341 56.758 99.0463 56.7526 99.0577L55.5168 102.531C55.501 102.583 55.4747 102.631 55.4397 102.672C55.4221 102.689 55.4012 102.702 55.3784 102.71C55.3556 102.718 55.3313 102.721 55.3072 102.719H54.8659C54.8417 102.721 54.8175 102.718 54.7947 102.71C54.7719 102.702 54.751 102.689 54.7334 102.672C54.6983 102.631 54.672 102.583 54.6563 102.531L53.4204 99.0577C53.415 99.0462 53.4113 99.0341 53.4094 99.0217V99.0025C53.4099 98.9631 53.4258 98.9254 53.4536 98.8975C53.4814 98.8697 53.519 98.8538 53.5583 98.8532H53.9777C54.0005 98.8515 54.0235 98.8549 54.0449 98.863C54.0664 98.8711 54.0858 98.8838 54.1018 98.9002C54.1264 98.9268 54.146 98.9577 54.1596 98.9913L55.0865 101.625Z" fill="white"/>
<path d="M59.9193 102.029C59.9587 102.029 59.9964 102.045 60.0242 102.073C60.0521 102.101 60.0679 102.138 60.0682 102.178V102.57C60.0678 102.609 60.052 102.647 60.0242 102.675C59.9963 102.703 59.9587 102.719 59.9193 102.719H57.4975C57.4581 102.718 57.4205 102.703 57.3927 102.675C57.3648 102.647 57.3489 102.609 57.3484 102.57V99.0024C57.349 98.963 57.3649 98.9254 57.3927 98.8976C57.4205 98.8697 57.4581 98.8538 57.4975 98.8532H59.8751C59.9145 98.8538 59.9521 98.8697 59.9799 98.8976C60.0077 98.9254 60.0236 98.963 60.0242 99.0024V99.3945C60.0237 99.4339 60.0078 99.4716 59.98 99.4994C59.9521 99.5272 59.9145 99.543 59.8751 99.5435H58.0933V100.422H59.7533C59.7926 100.422 59.8302 100.438 59.8581 100.466C59.8859 100.494 59.9018 100.531 59.9022 100.571V100.963C59.9018 101.002 59.8859 101.04 59.8581 101.068C59.8302 101.096 59.7926 101.111 59.7533 101.112H58.0927V102.029H59.9193Z" fill="white"/>
<path d="M62.3246 98.8532C62.7843 98.8532 63.1337 98.96 63.3729 99.1736C63.4941 99.2865 63.5891 99.4247 63.6511 99.5784C63.713 99.7321 63.7404 99.8976 63.7314 100.063C63.7387 100.305 63.6744 100.545 63.5466 100.751C63.4157 100.946 63.2251 101.095 63.0032 101.173L63.7648 102.537C63.775 102.556 63.7806 102.577 63.7813 102.598C63.781 102.63 63.7682 102.661 63.7455 102.683C63.7228 102.706 63.6921 102.719 63.66 102.719H63.1911C63.1618 102.722 63.1323 102.719 63.1044 102.709C63.0765 102.7 63.0506 102.686 63.0283 102.667C62.9985 102.639 62.9734 102.606 62.9538 102.57L62.2311 101.284H61.4976V102.57C61.4971 102.61 61.4813 102.647 61.4535 102.675C61.4256 102.703 61.388 102.719 61.3487 102.719H60.9018C60.8625 102.719 60.8248 102.703 60.797 102.675C60.7692 102.647 60.7533 102.61 60.7529 102.57V99.0029C60.7534 98.9635 60.7692 98.9258 60.7971 98.898C60.8249 98.8701 60.8625 98.8542 60.9018 98.8536L62.3246 98.8532ZM61.497 100.593H62.2971C62.4712 100.601 62.6445 100.563 62.7991 100.482C62.8655 100.436 62.9181 100.373 62.9512 100.299C62.9843 100.225 62.9965 100.143 62.9867 100.063C62.9969 99.983 62.9848 99.902 62.9517 99.8288C62.9186 99.7557 62.8657 99.6932 62.7991 99.6484C62.6433 99.5716 62.4706 99.5355 62.2971 99.5435H61.497V100.593Z" fill="white"/>
<path d="M67.2402 98.8533C67.2795 98.8538 67.3172 98.8696 67.345 98.8975C67.3728 98.9254 67.3887 98.9631 67.3891 99.0025C67.3894 99.0197 67.3856 99.0367 67.3781 99.0522L66.0707 101.355V102.57C66.0702 102.609 66.0544 102.647 66.0265 102.675C65.9986 102.703 65.961 102.719 65.9216 102.719H65.4798C65.4405 102.719 65.4029 102.703 65.3751 102.675C65.3472 102.647 65.3314 102.609 65.3309 102.57V101.355L64.0234 99.0522C64.0159 99.0367 64.0121 99.0197 64.0124 99.0025C64.0129 98.9631 64.0287 98.9255 64.0566 98.8976C64.0844 98.8697 64.122 98.8538 64.1613 98.8533H64.5752C64.605 98.851 64.635 98.8548 64.6634 98.8642C64.6918 98.8737 64.7181 98.8887 64.7406 98.9085C64.7672 98.9321 64.7896 98.9602 64.8068 98.9914L65.7006 100.554L66.5943 98.9914C66.6115 98.9601 66.6339 98.9321 66.6606 98.9085C66.6831 98.8887 66.7093 98.8736 66.7377 98.8642C66.7662 98.8547 66.7962 98.851 66.826 98.8533H67.2402Z" fill="white"/>
<path d="M7.70583 72.7042C6.69388 72.7041 5.69184 72.9036 4.75692 73.2913C3.822 73.6789 2.97249 74.2471 2.25694 74.9633C1.54138 75.6796 0.973779 76.5299 0.586531 77.4658C0.199283 78.4016 -1.85222e-05 79.4046 1.29112e-09 80.4176C1.29112e-09 84.6776 7.70583 94.1485 7.70583 94.1485C7.70583 94.1485 15.4117 84.6776 15.4117 80.4176C15.4117 79.4047 15.2124 78.4016 14.8251 77.4658C14.4378 76.53 13.8702 75.6796 13.1547 74.9634C12.4391 74.2471 11.5896 73.6789 10.6547 73.2913C9.71981 72.9037 8.71778 72.7042 7.70583 72.7042ZM7.70583 83.9447C6.99345 83.9447 6.29708 83.7332 5.70476 83.337C5.11243 82.9409 4.65078 82.3778 4.37816 81.719C4.10554 81.0602 4.03422 80.3353 4.1732 79.6359C4.31217 78.9365 4.65522 78.2941 5.15894 77.7898C5.66267 77.2856 6.30446 76.9422 7.00315 76.8031C7.70184 76.664 8.42605 76.7354 9.0842 77.0083C9.74235 77.2812 10.3049 77.7433 10.7007 78.3362C11.0964 78.9291 11.3077 79.6262 11.3077 80.3392C11.3077 81.2955 10.9282 82.2125 10.2527 82.8886C9.57726 83.5648 8.6611 83.9447 7.70583 83.9447Z" fill="#BDBDBD"/>
<path d="M70.6319 127.823H61.5224C61.6169 127.496 61.9243 126.933 62.9318 126.77C64.3378 126.541 66.7738 125.724 67.3168 123.925C67.3338 123.867 67.3499 123.807 67.3634 123.747C67.7949 121.824 70.932 124.336 70.932 124.336C70.932 124.336 70.9412 124.413 70.9549 124.544C71.0279 125.246 71.2124 127.499 70.6319 127.823Z" fill="#212121"/>
<path d="M63.3053 76.3795C63.3053 76.3795 63.7819 82.3304 64.3419 89.4838C65.1035 99.2011 66.0185 111.137 66.1091 113.398C66.2657 117.325 66.8939 123.605 66.8939 123.605C66.8939 123.605 68.3834 125.098 71.3652 124.469C71.3652 124.469 74.0218 115.503 74.7807 106.016C74.7924 105.861 74.8042 105.704 74.8159 105.548C75.5219 95.8904 76.6197 75.5551 76.6197 75.5551L63.3053 76.3795Z" fill="#364154"/>
<path d="M63.3053 76.3795C63.3053 76.3795 63.7819 82.3305 64.3419 89.4838L74.7803 106.017C74.792 105.862 74.8038 105.705 74.8155 105.548C75.5215 95.891 76.6193 75.5557 76.6193 75.5557L63.3053 76.3795Z" fill="#131F2D"/>
<path d="M65.4814 77.0862C65.4814 77.0862 74.0702 98.6382 79.7177 108.766C85.3652 118.895 87.1299 121.721 87.1299 121.721C87.1299 121.721 90.3654 120.426 90.6597 119.543C90.6597 119.543 88.5001 99.9894 84.7179 95.2228C82.5809 92.5295 80.0706 84.4469 79.953 81.6203C79.8354 78.7937 79.1883 73.1997 79.1883 73.1997L65.4814 77.0862Z" fill="#364154"/>
<path d="M76.7818 43.8729C76.7818 43.8729 70.9705 46.7232 67.6203 45.666C68.2557 44.916 69.0246 44.2906 69.8881 43.8215C69.7721 43.1378 69.682 42.5446 69.6304 42.0415C69.5503 41.4383 69.5032 40.8312 69.4893 40.2229L71.732 38.4298L73.8582 36.7142C73.689 41.5377 76.7818 43.8729 76.7818 43.8729Z" fill="#F4A386"/>
<path d="M79.8442 74.3036C79.8572 74.6647 79.0966 75.0776 78.7619 75.2323C76.2748 76.3415 73.9556 77.1152 71.327 77.3734C68.2215 77.6958 64.5493 76.9864 63.2865 77.0123C63.1569 77.0098 63.0328 76.9592 62.9385 76.8703C62.8484 76.8059 62.7833 73.001 62.8484 68.2154C62.8484 68.0218 62.8484 67.8284 62.8613 67.635V67.5704C62.887 65.7003 62.9515 63.7398 63.0416 61.7793C63.222 57.4712 63.557 53.318 64.124 51.0223C64.807 48.3137 66.3526 46.5207 67.7576 45.2181L68.9175 44.186C70.1348 44.4541 71.4071 44.2998 72.5252 43.7484C73.8652 43.0906 75.3321 42.3526 75.5635 42.533C77.3159 43.8358 78.4783 46.7921 79.1098 50.5326C79.4855 52.8781 79.6622 55.2512 79.638 57.6265C79.638 58.5554 79.6123 59.5097 79.5608 60.4513C79.2515 65.5589 79.5608 69.9956 79.7411 72.5624C79.7927 73.3106 79.8312 73.8909 79.8442 74.3036Z" fill="#BDBDBD"/>
<path d="M79.7412 72.5623C51.5866 72.5238 74.5484 51.5514 74.5484 51.5514L79.1098 50.5325C79.4855 52.8779 79.6622 55.2511 79.638 57.6264C79.638 58.5553 79.6124 59.5095 79.5609 60.4511C79.2516 65.5588 79.5609 69.9956 79.7412 72.5623Z" fill="#757575"/>
<path d="M45.1055 72.4256H62.6112V54.9027H45.1055V72.4256Z" fill="#EEEEEE"/>
<path d="M61.8825 72.4256H69.8971V54.9027H61.8825V72.4256Z" fill="#9E9E9E"/>
<path d="M59.9815 63.9224L58.939 63.5878C58.939 63.5878 58.2096 61.1725 55.7442 62.2536C55.7442 62.2536 54.7427 62.7848 55.1841 63.4136C55.6254 64.0423 55.5443 63.711 56.1469 64.6165C56.7495 65.5219 57.7028 65.9517 58.4629 65.6095L59.329 65.6345L59.9815 63.9224Z" fill="#F4A386"/>
<path d="M76.783 43.8665C76.783 43.8665 83.1584 54.0166 76.3673 65.7458C74.2472 69.4072 58.2338 65.9273 58.2338 65.9273C58.2338 65.9273 57.6096 64.7986 59.2808 63.6095C59.2808 63.6095 69.9424 61.8032 71.2137 61.5003C72.3412 61.232 71.5895 50.8593 72.878 47.8498C73.6264 46.0733 75.0227 44.649 76.783 43.8665Z" fill="#BDBDBD"/>
<path d="M73.8955 38.5587C73.8955 38.5587 72.4266 41.2802 69.6304 42.0411C69.5503 41.4379 69.5032 40.8308 69.4893 40.2225L71.732 38.4294L73.8955 38.5587Z" fill="#EF6343"/>
<path d="M68.4663 40.1441C68.4663 40.1441 74.0095 41.0659 74.5306 37.6013C75.0516 34.1366 76.1168 31.9222 72.5993 31.1872C69.0818 30.4522 68.1939 31.6704 67.7393 32.7846C67.2847 33.8989 67.0377 39.8153 68.4663 40.1441Z" fill="#F4A386"/>
<path d="M74.4939 37.8403C74.4939 37.8403 74.3821 33.1994 69.3315 32.4545C65.8717 31.9443 66.1594 29.4353 66.5549 28.977C66.5549 28.977 71.0262 29.0142 73.7143 29.692C77.7778 30.717 75.0945 37.1502 74.4939 37.8403Z" fill="#131F2D"/>
<path d="M90.6594 120.269L90.3913 119.923L87.338 121.635C87.3098 122.22 87.2937 122.896 87.3267 123.488C87.3499 123.89 87.3253 124.293 87.2534 124.688C87.1898 124.992 86.8667 126.286 85.9212 126.626C84.8478 127.011 84.7618 127.837 86.5934 127.823C86.9218 127.821 87.2432 127.819 87.55 127.818C88.1048 127.813 88.6425 127.626 89.0814 127.286C89.5202 126.946 89.8362 126.472 89.9812 125.936C90.1363 125.414 90.388 124.927 90.7232 124.498C91.2044 123.935 91.7714 123.438 91.9542 122.821C92.2679 121.761 90.6594 120.269 90.6594 120.269Z" fill="#212121"/>
<path d="M67.6053 24.5789C67.5927 24.5789 67.5802 24.5781 67.5677 24.5766C67.3849 24.5554 67.2025 24.5348 67.0205 24.5146C66.978 24.5106 66.9367 24.4982 66.899 24.478C66.8613 24.4578 66.828 24.4304 66.801 24.3972C66.774 24.3641 66.7539 24.3258 66.7418 24.2848C66.7297 24.2438 66.7259 24.2008 66.7306 24.1583C66.7353 24.1158 66.7484 24.0746 66.7691 24.0372C66.7898 23.9998 66.8177 23.9669 66.8513 23.9404C66.8848 23.9139 66.9233 23.8944 66.9645 23.8829C67.0056 23.8714 67.0487 23.8683 67.0911 23.8736C67.2741 23.8937 67.4575 23.9144 67.6411 23.9359C67.7226 23.9456 67.7974 23.986 67.8501 24.049C67.9028 24.1119 67.9296 24.1926 67.9249 24.2746C67.9202 24.3566 67.8844 24.4338 67.8249 24.4903C67.7654 24.5468 67.6865 24.5785 67.6045 24.5789H67.6053Z" fill="#364154"/>
<path d="M7.47155 66.3209C7.4574 66.3209 7.44327 66.32 7.42924 66.3181C7.38728 66.3127 7.3468 66.299 7.31011 66.2779C7.27343 66.2568 7.24125 66.2287 7.21543 66.1951C7.18961 66.1616 7.17066 66.1233 7.15964 66.0824C7.14863 66.0415 7.14576 65.9988 7.15122 65.9568C7.19791 65.5972 7.25138 65.2239 7.3102 64.8472C7.31673 64.8054 7.33142 64.7652 7.35345 64.7291C7.37548 64.6929 7.40441 64.6614 7.43859 64.6365C7.47277 64.6115 7.51152 64.5935 7.55264 64.5835C7.59377 64.5736 7.63646 64.5718 7.67827 64.5783C7.72007 64.5849 7.76017 64.5996 7.7963 64.6216C7.83242 64.6437 7.86386 64.6726 7.88881 64.7068C7.91375 64.7411 7.93172 64.7799 7.94168 64.821C7.95165 64.8622 7.95341 64.9049 7.94688 64.9468C7.88891 65.3179 7.8363 65.6859 7.79032 66.04C7.78023 66.1175 7.74235 66.1888 7.68371 66.2404C7.62507 66.2921 7.54968 66.3207 7.47155 66.3209ZM7.81289 64.1235C7.79369 64.1234 7.77453 64.1217 7.75563 64.1184C7.67155 64.1032 7.59692 64.0553 7.54815 63.9851C7.49938 63.9149 7.48046 63.8281 7.49553 63.744C7.56041 63.3815 7.63066 63.0122 7.70428 62.6462C7.72112 62.5624 7.77054 62.4886 7.84168 62.4412C7.91283 62.3939 7.99985 62.3767 8.08363 62.3936C8.16741 62.4104 8.24107 62.4599 8.2884 62.5311C8.33574 62.6023 8.35288 62.6894 8.33605 62.7733C8.26326 63.1349 8.19387 63.4997 8.12969 63.8576C8.11639 63.9321 8.07738 63.9995 8.01948 64.0481C7.96157 64.0967 7.88846 64.1234 7.81289 64.1235ZM8.25015 61.9463C8.22643 61.9463 8.20278 61.9437 8.17962 61.9386C8.09623 61.92 8.02364 61.869 7.97781 61.7968C7.93197 61.7246 7.91664 61.6372 7.93518 61.5537C8.01515 61.1942 8.10035 60.8284 8.18907 60.4665C8.19909 60.4254 8.21711 60.3866 8.2421 60.3524C8.2671 60.3183 8.29856 60.2893 8.33472 60.2673C8.37088 60.2453 8.41102 60.2307 8.45284 60.2242C8.49465 60.2177 8.53733 60.2195 8.57844 60.2296C8.61955 60.2396 8.65829 60.2576 8.69244 60.2826C8.72659 60.3077 8.75548 60.3392 8.77746 60.3754C8.79945 60.4115 8.81409 60.4517 8.82056 60.4936C8.82704 60.5354 8.82521 60.5782 8.81519 60.6193C8.72816 60.9769 8.64396 61.3384 8.56498 61.6938C8.54907 61.7654 8.50925 61.8294 8.4521 61.8753C8.39494 61.9212 8.32386 61.9463 8.25058 61.9463H8.25015ZM8.775 59.7903C8.74711 59.7902 8.71932 59.7866 8.69234 59.7795C8.60973 59.7576 8.5392 59.7038 8.49624 59.6298C8.45329 59.5559 8.44142 59.4679 8.46327 59.3852C8.55791 59.0273 8.65735 58.6651 8.75947 58.3096C8.77109 58.2689 8.79062 58.2308 8.81693 58.1977C8.84324 58.1645 8.87583 58.1368 8.91281 58.1163C8.9498 58.0957 8.99046 58.0826 9.0325 58.0778C9.07453 58.0729 9.11712 58.0764 9.15781 58.0881C9.1985 58.0997 9.23648 58.1193 9.26962 58.1456C9.30276 58.1719 9.33041 58.2045 9.35096 58.2416C9.37151 58.2786 9.38456 58.3193 9.38939 58.3614C9.39422 58.4035 9.39074 58.4461 9.37911 58.4868C9.27869 58.8386 9.18037 59.1964 9.08672 59.5502C9.06852 59.619 9.02814 59.6798 8.97184 59.7232C8.91554 59.7666 8.84648 59.7902 8.77542 59.7903H8.775ZM9.38362 57.6573C9.33322 57.6573 9.28353 57.6455 9.23853 57.6227C9.19353 57.6 9.15447 57.567 9.12451 57.5264C9.09455 57.4859 9.07452 57.4388 9.06602 57.3891C9.05752 57.3394 9.0608 57.2883 9.07558 57.2401C9.18433 56.8857 9.29786 56.5281 9.4131 56.1771C9.44094 56.0973 9.49896 56.0316 9.57468 55.9942C9.65039 55.9567 9.73775 55.9505 9.81798 55.9769C9.89821 56.0033 9.96489 56.0601 10.0037 56.1352C10.0425 56.2103 10.0503 56.2976 10.0254 56.3784C9.9113 56.7256 9.79972 57.0791 9.69153 57.4293C9.67138 57.4952 9.63068 57.5528 9.5754 57.5939C9.52012 57.6349 9.45315 57.6571 9.38433 57.6573H9.38362ZM10.0756 55.5503C10.0241 55.5503 9.97343 55.538 9.92771 55.5143C9.88199 55.4907 9.84259 55.4564 9.81282 55.4144C9.78304 55.3723 9.76375 55.3238 9.75657 55.2728C9.74938 55.2218 9.75451 55.1698 9.77151 55.1211C9.89394 54.7718 10.0216 54.419 10.1508 54.0725C10.1807 53.9924 10.2412 53.9274 10.319 53.892C10.3968 53.8565 10.4854 53.8534 10.5655 53.8833C10.6455 53.9133 10.7104 53.9739 10.7459 54.0517C10.7813 54.1295 10.7844 54.2183 10.7545 54.2984C10.6267 54.6408 10.5006 54.9894 10.3797 55.3346C10.3576 55.3977 10.3164 55.4523 10.2619 55.491C10.2074 55.5296 10.1423 55.5504 10.0755 55.5503H10.0756ZM10.8505 53.4735C10.798 53.4734 10.7463 53.4604 10.6999 53.4358C10.6534 53.4111 10.6138 53.3755 10.5843 53.3319C10.5547 53.2884 10.5363 53.2383 10.5305 53.1861C10.5247 53.1338 10.5318 53.0809 10.5511 53.032C10.6875 52.6875 10.8294 52.3401 10.9724 51.9995C10.9884 51.9598 11.0121 51.9238 11.0422 51.8934C11.0722 51.8631 11.108 51.839 11.1474 51.8226C11.1869 51.8061 11.2292 51.7977 11.2719 51.7978C11.3146 51.7979 11.3568 51.8065 11.3962 51.8231C11.4355 51.8396 11.4712 51.8639 11.5011 51.8944C11.531 51.9249 11.5546 51.961 11.5705 52.0007C11.5863 52.0404 11.5941 52.0828 11.5935 52.1256C11.5928 52.1683 11.5836 52.2105 11.5665 52.2496C11.4255 52.5862 11.2844 52.9295 11.1501 53.2697C11.1264 53.3297 11.0852 53.3812 11.0319 53.4175C10.9786 53.4538 10.9157 53.4733 10.8513 53.4735H10.8505ZM11.7091 51.4299C11.6554 51.4298 11.6026 51.4163 11.5555 51.3907C11.5083 51.365 11.4683 51.3279 11.4391 51.2829C11.4099 51.2378 11.3924 51.1861 11.3882 51.1325C11.384 51.079 11.3932 51.0252 11.415 50.9761C11.5659 50.6373 11.7221 50.2957 11.8789 49.9621C11.9154 49.8847 11.981 49.825 12.0614 49.796C12.1418 49.7671 12.2304 49.7713 12.3077 49.8078C12.385 49.8442 12.4447 49.9099 12.4736 49.9904C12.5025 50.0709 12.4983 50.1596 12.4619 50.237C12.3067 50.5664 12.1527 50.9034 12.0036 51.2384C11.9783 51.2954 11.9371 51.3437 11.8849 51.3777C11.8327 51.4117 11.7718 51.4298 11.7095 51.4299H11.7091ZM12.6526 49.425C12.5978 49.4249 12.544 49.4107 12.4962 49.384C12.4483 49.3572 12.4081 49.3188 12.3793 49.2721C12.3504 49.2255 12.3339 49.1723 12.3313 49.1176C12.3287 49.0628 12.34 49.0083 12.3643 48.9591C12.5297 48.6262 12.7003 48.292 12.8712 47.966C12.9116 47.8914 12.9797 47.8356 13.0608 47.8109C13.1419 47.7862 13.2294 47.7945 13.3045 47.8339C13.3795 47.8733 13.436 47.9408 13.4617 48.0216C13.4875 48.1025 13.4803 48.1902 13.4419 48.2658C13.2726 48.5876 13.1047 48.9176 12.9413 49.2464C12.9146 49.3 12.8734 49.3451 12.8225 49.3766C12.7716 49.4081 12.7129 49.4247 12.653 49.4247L12.6526 49.425ZM13.6814 47.4625C13.6253 47.4625 13.5702 47.4479 13.5215 47.42C13.4728 47.3922 13.4322 47.3521 13.4037 47.3038C13.3752 47.2554 13.3598 47.2005 13.3591 47.1443C13.3583 47.0882 13.3722 47.0328 13.3993 46.9837C13.5794 46.658 13.7646 46.3317 13.9494 46.0139C13.9703 45.9766 13.9985 45.9438 14.0322 45.9174C14.0659 45.8911 14.1045 45.8718 14.1457 45.8605C14.187 45.8493 14.23 45.8463 14.2724 45.8519C14.3148 45.8575 14.3557 45.8715 14.3926 45.893C14.4296 45.9146 14.4618 45.9433 14.4876 45.9775C14.5133 46.0116 14.532 46.0506 14.5426 46.0921C14.5531 46.1335 14.5553 46.1767 14.549 46.219C14.5428 46.2613 14.5281 46.302 14.506 46.3386C14.3233 46.6521 14.1405 46.974 13.9628 47.2956C13.935 47.3459 13.8944 47.3879 13.845 47.4172C13.7956 47.4464 13.7393 47.462 13.6818 47.4622L13.6814 47.4625ZM14.7968 45.5485C14.7396 45.5485 14.6833 45.5331 14.6339 45.504C14.5846 45.475 14.5438 45.4333 14.5159 45.3832C14.4879 45.3332 14.4738 45.2765 14.475 45.2192C14.4762 45.1619 14.4926 45.1059 14.5226 45.0571C14.7176 44.7397 14.9176 44.4217 15.1169 44.1136C15.1397 44.0777 15.1694 44.0466 15.2042 44.0223C15.2391 43.9979 15.2784 43.9806 15.3199 43.9715C15.3615 43.9624 15.4044 43.9616 15.4462 43.9692C15.4881 43.9768 15.528 43.9926 15.5637 44.0157C15.5994 44.0388 15.6302 44.0688 15.6543 44.1039C15.6784 44.139 15.6953 44.1785 15.7041 44.2201C15.7128 44.2618 15.7132 44.3047 15.7053 44.3466C15.6974 44.3884 15.6813 44.4282 15.658 44.4638C15.4612 44.7683 15.264 45.0816 15.0716 45.3949C15.0428 45.4418 15.0024 45.4805 14.9544 45.5073C14.9063 45.5342 14.8523 45.5483 14.7973 45.5482L14.7968 45.5485ZM15.999 43.6879C15.9404 43.6879 15.883 43.6719 15.8328 43.6416C15.7827 43.6114 15.7417 43.568 15.7143 43.5161C15.687 43.4643 15.6743 43.4059 15.6776 43.3474C15.6809 43.2889 15.7001 43.2323 15.7331 43.1839C15.9427 42.8758 16.1576 42.5682 16.3712 42.2694C16.4216 42.2013 16.4967 42.1558 16.5803 42.1426C16.6639 42.1295 16.7493 42.1498 16.8181 42.1991C16.8869 42.2485 16.9335 42.3229 16.9479 42.4064C16.9623 42.4899 16.9433 42.5757 16.8951 42.6453C16.6842 42.9398 16.4719 43.2432 16.2656 43.547C16.2361 43.5904 16.1964 43.6259 16.15 43.6504C16.1037 43.6749 16.052 43.6877 15.9996 43.6877L15.999 43.6879ZM17.2885 41.8875C17.2286 41.8875 17.1699 41.8708 17.119 41.8392C17.068 41.8077 17.0269 41.7625 17.0002 41.7088C16.9735 41.6552 16.9623 41.5951 16.9678 41.5354C16.9733 41.4757 16.9954 41.4187 17.0315 41.3709C17.2541 41.0752 17.4829 40.7779 17.7133 40.4883C17.7665 40.4213 17.844 40.3782 17.9289 40.3684C17.9709 40.3635 18.0135 40.367 18.0542 40.3787C18.0949 40.3903 18.1329 40.4098 18.166 40.4361C18.1992 40.4625 18.2268 40.4951 18.2474 40.5321C18.2679 40.5691 18.281 40.6098 18.2858 40.6519C18.2907 40.694 18.2872 40.7366 18.2756 40.7773C18.264 40.8181 18.2445 40.8561 18.2181 40.8893C17.9916 41.1751 17.7655 41.4682 17.5459 41.7593C17.5159 41.7991 17.4771 41.8314 17.4325 41.8536C17.3879 41.8757 17.3387 41.8873 17.2889 41.8872L17.2885 41.8875ZM18.6641 40.1524C18.6029 40.1524 18.5429 40.1349 18.4913 40.102C18.4396 40.069 18.3984 40.0221 18.3725 39.9665C18.3465 39.911 18.3369 39.8492 18.3448 39.7884C18.3527 39.7276 18.3778 39.6703 18.417 39.6233C18.6534 39.3396 18.8974 39.0545 19.1422 38.7761C19.1701 38.7443 19.204 38.7183 19.242 38.6996C19.2799 38.681 19.3212 38.6699 19.3634 38.6672C19.4057 38.6645 19.448 38.6701 19.488 38.6838C19.5281 38.6974 19.5651 38.7189 19.5968 38.7468C19.6286 38.7748 19.6546 38.8087 19.6732 38.8467C19.6919 38.8847 19.7029 38.9261 19.7056 38.9683C19.7083 39.0106 19.7027 39.053 19.6891 39.0931C19.6754 39.1331 19.654 39.1701 19.6261 39.202C19.385 39.4766 19.1447 39.7575 18.9117 40.0369C18.8814 40.0731 18.8436 40.1021 18.8009 40.1221C18.7582 40.142 18.7117 40.1522 18.6646 40.1522L18.6641 40.1524ZM20.1251 38.4889C20.0625 38.4889 20.0012 38.4706 19.9488 38.4362C19.8964 38.4019 19.8552 38.353 19.8301 38.2955C19.805 38.238 19.7972 38.1745 19.8076 38.1127C19.818 38.0508 19.8462 37.9934 19.8887 37.9473C20.1407 37.6748 20.3989 37.4025 20.656 37.1382C20.7157 37.0769 20.7972 37.0419 20.8826 37.0407C20.9681 37.0396 21.0505 37.0725 21.1117 37.1322C21.1729 37.1919 21.208 37.2735 21.2091 37.359C21.2102 37.4445 21.1773 37.527 21.1177 37.5883C20.8638 37.8488 20.6099 38.1169 20.3617 38.3855C20.3315 38.4179 20.295 38.4438 20.2543 38.4615C20.2137 38.4791 20.1699 38.4882 20.1256 38.4881L20.1251 38.4889ZM21.6691 36.9027C21.605 36.9027 21.5424 36.8836 21.4892 36.8478C21.436 36.812 21.3947 36.7611 21.3706 36.7017C21.3465 36.6423 21.3406 36.577 21.3537 36.5142C21.3668 36.4514 21.3983 36.394 21.4442 36.3492C21.71 36.09 21.9821 35.8315 22.2526 35.581C22.3156 35.5248 22.3982 35.4957 22.4825 35.4998C22.5668 35.5039 22.6461 35.541 22.7034 35.603C22.7607 35.665 22.7913 35.7471 22.7888 35.8316C22.7863 35.916 22.7508 35.9961 22.6899 36.0546C22.4233 36.3014 22.1554 36.5559 21.8936 36.8112C21.8337 36.8696 21.7534 36.9024 21.6698 36.9024L21.6691 36.9027ZM23.2934 35.3993C23.2279 35.3992 23.1641 35.3792 23.1103 35.3419C23.0565 35.3046 23.0153 35.2517 22.9922 35.1904C22.9691 35.1291 22.9653 35.0622 22.9811 34.9987C22.9969 34.9351 23.0317 34.8778 23.0808 34.8346C23.3581 34.591 23.6434 34.3472 23.9283 34.11C23.9608 34.0829 23.9983 34.0625 24.0387 34.0499C24.0792 34.0373 24.1216 34.0329 24.1638 34.0367C24.2059 34.0406 24.2469 34.0527 24.2843 34.0724C24.3218 34.0922 24.355 34.1191 24.382 34.1516C24.4091 34.1842 24.4295 34.2218 24.442 34.2622C24.4546 34.3027 24.4591 34.3452 24.4552 34.3873C24.4513 34.4295 24.4392 34.4705 24.4195 34.508C24.3998 34.5455 24.3729 34.5787 24.3404 34.6058C24.0597 34.8395 23.7789 35.0797 23.5057 35.3195C23.4471 35.3709 23.3717 35.3992 23.2938 35.399L23.2934 35.3993ZM24.9942 33.9833C24.9272 33.9834 24.8619 33.9625 24.8073 33.9237C24.7527 33.8848 24.7116 33.8299 24.6896 33.7666C24.6677 33.7032 24.666 33.6346 24.6848 33.5703C24.7036 33.5059 24.742 33.449 24.7946 33.4076C25.0853 33.1783 25.3829 32.9498 25.6791 32.7287C25.7476 32.6776 25.8336 32.6558 25.9181 32.6681C26.0027 32.6804 26.0789 32.7259 26.13 32.7944C26.1811 32.863 26.2028 32.9491 26.1905 33.0337C26.1782 33.1184 26.1328 33.1946 26.0643 33.2458C25.7728 33.4635 25.4797 33.6884 25.1935 33.9141C25.1368 33.9588 25.0667 33.9831 24.9946 33.983L24.9942 33.9833ZM26.767 32.6595C26.6986 32.6596 26.6319 32.6379 26.5766 32.5975C26.5213 32.5571 26.4803 32.5 26.4595 32.4347C26.4388 32.3694 26.4394 32.2992 26.4612 32.2342C26.4831 32.1692 26.525 32.1129 26.581 32.0735C26.8835 31.8597 27.1927 31.6474 27.4998 31.4423C27.535 31.4186 27.5745 31.4021 27.6161 31.3937C27.6577 31.3853 27.7005 31.3852 27.7421 31.3935C27.7838 31.4017 27.8233 31.4181 27.8586 31.4416C27.8939 31.4652 27.9242 31.4955 27.9478 31.5309C27.9713 31.5662 27.9876 31.6058 27.9958 31.6475C28.004 31.6892 28.0039 31.732 27.9955 31.7737C27.9871 31.8153 27.9706 31.8548 27.9469 31.8901C27.9232 31.9253 27.8928 31.9555 27.8574 31.9789C27.5549 32.1808 27.2508 32.39 26.9525 32.6001C26.8984 32.6385 26.8338 32.6592 26.7675 32.6593L26.767 32.6595ZM28.6068 31.4312C28.5369 31.4313 28.4689 31.4086 28.413 31.3666C28.3572 31.3246 28.3165 31.2655 28.297 31.1984C28.2776 31.1312 28.2805 31.0595 28.3054 30.9941C28.3302 30.9288 28.3756 30.8732 28.4347 30.8359C28.745 30.6403 29.0643 30.4443 29.3849 30.2534C29.4584 30.2097 29.5462 30.197 29.629 30.218C29.7118 30.2391 29.7829 30.2923 29.8265 30.3658C29.8702 30.4393 29.8829 30.5272 29.8619 30.6101C29.8408 30.693 29.7877 30.7641 29.7143 30.8079C29.3985 30.9958 29.0836 31.1891 28.7784 31.3815C28.7271 31.4137 28.6677 31.4306 28.6072 31.4304L28.6068 31.4312ZM30.5077 30.3C30.4364 30.3 30.3671 30.2764 30.3106 30.2328C30.2541 30.1892 30.2137 30.1281 30.1957 30.059C30.1776 29.99 30.183 29.9169 30.2109 29.8512C30.2388 29.7855 30.2877 29.7309 30.3499 29.696C30.6716 29.5155 31.0009 29.3364 31.3286 29.1634C31.4042 29.1235 31.4925 29.1153 31.5741 29.1406C31.6558 29.1659 31.724 29.2226 31.7639 29.2983C31.8037 29.3739 31.8119 29.4623 31.7867 29.544C31.7614 29.6257 31.7048 29.6941 31.6292 29.734C31.3063 29.9044 30.9819 30.081 30.665 30.2588C30.617 30.2854 30.563 30.2993 30.5081 30.2991L30.5077 30.3ZM32.4638 29.2673C32.391 29.2674 32.3205 29.2428 32.2635 29.1976C32.2065 29.1525 32.1664 29.0893 32.1498 29.0185C32.1332 28.9476 32.141 28.8732 32.1719 28.8073C32.2029 28.7415 32.2552 28.688 32.3203 28.6557C32.6492 28.4925 32.9871 28.3301 33.3245 28.1731C33.3628 28.1553 33.4043 28.1451 33.4466 28.1433C33.4888 28.1415 33.5311 28.1481 33.5708 28.1626C33.6106 28.1771 33.647 28.1993 33.6782 28.2279C33.7094 28.2566 33.7346 28.2911 33.7525 28.3295C33.7703 28.3679 33.7804 28.4094 33.7822 28.4517C33.784 28.4941 33.7775 28.5363 33.763 28.5761C33.7485 28.6159 33.7263 28.6524 33.6977 28.6836C33.6691 28.7148 33.6346 28.7401 33.5963 28.7579C33.2637 28.9132 32.9308 29.0729 32.6067 29.2337C32.5623 29.2554 32.5136 29.2666 32.4642 29.2665L32.4638 29.2673ZM34.4688 28.3337C34.3947 28.3338 34.3228 28.3083 34.2653 28.2615C34.2077 28.2148 34.1681 28.1496 34.1529 28.077C34.1378 28.0044 34.1482 27.9288 34.1823 27.8629C34.2163 27.797 34.272 27.7449 34.34 27.7154C34.6785 27.5677 35.0241 27.422 35.3661 27.2825C35.4453 27.2502 35.534 27.2508 35.6127 27.284C35.6915 27.3172 35.7538 27.3803 35.7861 27.4596C35.8183 27.5388 35.8177 27.6276 35.7846 27.7064C35.7514 27.7852 35.6883 27.8476 35.6092 27.8799C35.2719 28.0174 34.9321 28.161 34.5973 28.3068C34.5568 28.3242 34.5132 28.333 34.4692 28.3328L34.4688 28.3337ZM36.5167 27.4987C36.4414 27.4986 36.3684 27.4722 36.3105 27.4239C36.2527 27.3756 36.2135 27.3086 36.1999 27.2344C36.1862 27.1602 36.199 27.0836 36.2359 27.0179C36.2729 26.9522 36.3316 26.9015 36.402 26.8746C36.7453 26.7439 37.097 26.6147 37.4473 26.4907C37.5275 26.4639 37.6149 26.4697 37.6909 26.5069C37.7668 26.544 37.8251 26.6095 37.8533 26.6892C37.8814 26.7689 37.8772 26.8566 37.8414 26.9332C37.8057 27.0098 37.7413 27.0694 37.6622 27.099C37.3166 27.2212 36.9697 27.3486 36.6312 27.4775C36.5947 27.4911 36.5561 27.4979 36.5171 27.4978L36.5167 27.4987ZM38.6014 26.7601C38.5247 26.7602 38.4505 26.7329 38.3921 26.6831C38.3338 26.6333 38.295 26.5643 38.2829 26.4885C38.2708 26.4127 38.2861 26.3351 38.3261 26.2696C38.3661 26.204 38.4281 26.155 38.501 26.1311C38.8536 26.0155 39.2102 25.9025 39.5621 25.7956C39.6026 25.7833 39.6451 25.7791 39.6872 25.7832C39.7293 25.7874 39.7702 25.7997 39.8075 25.8197C39.8449 25.8396 39.8779 25.8667 39.9048 25.8995C39.9316 25.9322 39.9518 25.9699 39.9641 26.0104C39.9764 26.0509 39.9806 26.0935 39.9765 26.1356C39.9724 26.1778 39.96 26.2187 39.9401 26.2561C39.9202 26.2934 39.8931 26.3265 39.8604 26.3534C39.8277 26.3803 39.79 26.4005 39.7496 26.4128C39.402 26.5185 39.0495 26.6299 38.7017 26.744C38.6694 26.7543 38.6357 26.7594 38.6018 26.7593L38.6014 26.7601ZM40.7172 26.1167C40.6393 26.1168 40.564 26.0885 40.5053 26.0373C40.4466 25.9861 40.4084 25.9153 40.3978 25.8381C40.3872 25.7608 40.4049 25.6823 40.4477 25.6172C40.4905 25.552 40.5554 25.5046 40.6304 25.4836C40.985 25.3848 41.3465 25.2869 41.7051 25.1946C41.7878 25.1733 41.8757 25.1858 41.9492 25.2293C42.0228 25.2728 42.0761 25.3438 42.0974 25.4266C42.1187 25.5095 42.1062 25.5974 42.0627 25.6711C42.0193 25.7447 41.9483 25.7981 41.8656 25.8194C41.5114 25.9106 41.1544 26.0066 40.8043 26.1047C40.776 26.1124 40.7468 26.1161 40.7174 26.1159L40.7172 26.1167ZM42.8589 25.5649C42.7799 25.5648 42.7037 25.5357 42.6447 25.483C42.5858 25.4304 42.5482 25.3579 42.5392 25.2794C42.5301 25.2008 42.5502 25.1217 42.5956 25.057C42.6409 24.9922 42.7085 24.9465 42.7854 24.9283C43.1435 24.8436 43.5087 24.7621 43.8708 24.6846C43.9121 24.6758 43.9548 24.6752 43.9965 24.6828C44.0381 24.6905 44.0778 24.7063 44.1133 24.7293C44.1488 24.7524 44.1794 24.7822 44.2034 24.8171C44.2275 24.8519 44.2444 24.8912 44.2532 24.9326C44.262 24.974 44.2627 25.0168 44.255 25.0585C44.2473 25.1001 44.2315 25.1399 44.2085 25.1754C44.1855 25.211 44.1558 25.2416 44.1209 25.2657C44.0861 25.2897 44.0468 25.3066 44.0055 25.3155C43.6476 25.392 43.2861 25.473 42.9335 25.5563C42.9091 25.5618 42.8841 25.5644 42.8591 25.5641L42.8589 25.5649ZM45.0213 25.1017C44.9411 25.1017 44.8638 25.0718 44.8045 25.0178C44.7452 24.9638 44.7082 24.8897 44.7006 24.8098C44.693 24.7299 44.7154 24.6501 44.7635 24.5859C44.8115 24.5216 44.8818 24.4777 44.9605 24.4625C45.3216 24.3919 45.6897 24.3252 46.0543 24.2621C46.0964 24.2539 46.1397 24.2542 46.1816 24.263C46.2235 24.2718 46.2633 24.2888 46.2986 24.3132C46.3339 24.3375 46.3639 24.3687 46.387 24.4048C46.4101 24.4409 46.4258 24.4813 46.4331 24.5236C46.4404 24.5658 46.4392 24.6091 46.4296 24.6509C46.42 24.6927 46.4022 24.7322 46.3772 24.767C46.3521 24.8018 46.3204 24.8312 46.2839 24.8536C46.2474 24.876 46.2067 24.8909 46.1644 24.8974C45.8037 24.9599 45.4398 25.0266 45.0828 25.0951C45.0626 25.0988 45.0421 25.1008 45.0216 25.1009L45.0213 25.1017ZM47.1998 24.7222C47.1186 24.7222 47.0403 24.6915 46.9807 24.6362C46.9212 24.5809 46.8847 24.5051 46.8785 24.4241C46.8724 24.343 46.8971 24.2626 46.9477 24.1989C46.9982 24.1353 47.071 24.0931 47.1513 24.0809C47.5148 24.0244 47.8848 23.9713 48.2515 23.9216C48.2938 23.9151 48.337 23.9171 48.3786 23.9274C48.4202 23.9378 48.4593 23.9563 48.4936 23.982C48.5279 24.0077 48.5568 24.0399 48.5785 24.0769C48.6002 24.1138 48.6144 24.1548 48.6201 24.1973C48.6259 24.2398 48.6231 24.283 48.6119 24.3244C48.6008 24.3658 48.5815 24.4046 48.5552 24.4384C48.5289 24.4723 48.4962 24.5006 48.4588 24.5216C48.4215 24.5426 48.3804 24.556 48.3378 24.5609C47.9752 24.6101 47.6088 24.663 47.2492 24.7184C47.2328 24.7209 47.2163 24.7222 47.1998 24.7222ZM49.3914 24.4257C49.3092 24.4257 49.23 24.3942 49.1702 24.3377C49.1104 24.2812 49.0744 24.2039 49.0697 24.1217C49.065 24.0395 49.0919 23.9586 49.1448 23.8956C49.1978 23.8326 49.2728 23.7923 49.3545 23.7829C49.7198 23.7405 50.0915 23.6998 50.4595 23.663C50.5016 23.6588 50.5441 23.6629 50.5846 23.6752C50.6251 23.6874 50.6628 23.7075 50.6955 23.7344C50.7283 23.7612 50.7554 23.7942 50.7754 23.8315C50.7954 23.8689 50.8078 23.9098 50.812 23.9519C50.8162 23.9941 50.8121 24.0366 50.7999 24.0772C50.7876 24.1177 50.7675 24.1554 50.7407 24.1882C50.7139 24.221 50.6809 24.2482 50.6436 24.2682C50.6063 24.2882 50.5655 24.3006 50.5234 24.3048C50.1592 24.3413 49.791 24.3812 49.4292 24.4236C49.4169 24.425 49.4045 24.4257 49.3921 24.4257H49.3914ZM65.9552 24.4013C65.9445 24.4013 65.9337 24.4008 65.9231 24.3997C65.5541 24.3633 65.1847 24.3291 64.825 24.2976C64.7407 24.289 64.6633 24.2475 64.6093 24.1822C64.5554 24.1169 64.5293 24.0329 64.5367 23.9484C64.5441 23.864 64.5844 23.7859 64.6489 23.7309C64.7134 23.676 64.7969 23.6487 64.8814 23.6549C65.2435 23.6866 65.6149 23.7212 65.987 23.7579C66.0692 23.766 66.1452 23.8054 66.1993 23.8681C66.2533 23.9307 66.2812 24.0118 66.2771 24.0944C66.2731 24.1771 66.2376 24.255 66.1777 24.3121C66.1179 24.3692 66.0384 24.4012 65.9558 24.4013H65.9552ZM63.7503 24.2092C63.7423 24.2092 63.7341 24.2092 63.7259 24.2084C63.3633 24.1812 62.9925 24.1556 62.6257 24.1326C62.5407 24.1269 62.4614 24.0877 62.4052 24.0236C62.3489 23.9595 62.3204 23.8758 62.3257 23.7906C62.331 23.7055 62.3698 23.626 62.4336 23.5694C62.4974 23.5129 62.581 23.4839 62.6661 23.4889C63.036 23.5121 63.409 23.5377 63.774 23.5651C63.8572 23.5712 63.9349 23.6093 63.9906 23.6715C64.0463 23.7337 64.0757 23.8152 64.0726 23.8986C64.0696 23.9821 64.0342 24.0611 63.9741 24.1191C63.914 24.177 63.8338 24.2093 63.7503 24.2092ZM51.5918 24.206C51.5085 24.2062 51.4283 24.1741 51.3681 24.1164C51.3079 24.0587 51.2724 23.9799 51.269 23.8966C51.2656 23.8132 51.2947 23.7318 51.35 23.6694C51.4053 23.6071 51.4826 23.5686 51.5657 23.562C51.9305 23.5318 52.3034 23.5041 52.6738 23.4796C52.7162 23.4765 52.7588 23.4818 52.7992 23.4952C52.8395 23.5086 52.8768 23.5299 52.9089 23.5578C52.941 23.5858 52.9672 23.6198 52.9861 23.6579C53.005 23.696 53.0161 23.7375 53.0189 23.78C53.0217 23.8225 53.0161 23.8651 53.0024 23.9053C52.9886 23.9456 52.9671 23.9828 52.9389 24.0147C52.9108 24.0466 52.8766 24.0726 52.8384 24.0912C52.8001 24.1098 52.7586 24.1207 52.7161 24.1231C52.3494 24.1474 51.9799 24.1749 51.6185 24.2049C51.6109 24.2057 51.602 24.2061 51.5929 24.2061L51.5918 24.206ZM61.5409 24.0712C61.5354 24.0712 61.5301 24.0712 61.5246 24.0712C61.1588 24.0529 60.7883 24.0369 60.4232 24.0236C60.3809 24.022 60.3394 24.0122 60.3009 23.9946C60.2624 23.9769 60.2278 23.9519 60.199 23.9209C60.1702 23.8899 60.1477 23.8535 60.133 23.8138C60.1182 23.7741 60.1114 23.7319 60.1129 23.6895C60.1145 23.6472 60.1243 23.6056 60.1419 23.5671C60.1595 23.5286 60.1845 23.4939 60.2155 23.465C60.2465 23.4362 60.2829 23.4137 60.3225 23.399C60.3622 23.3842 60.4044 23.3774 60.4467 23.3789C60.8147 23.3923 61.1882 23.4086 61.5567 23.4269C61.6412 23.4304 61.7209 23.4669 61.7786 23.5287C61.8364 23.5904 61.8676 23.6724 61.8655 23.757C61.8635 23.8416 61.8283 23.922 61.7675 23.9808C61.7068 24.0397 61.6254 24.0723 61.5409 24.0716V24.0712ZM53.799 24.0597C53.7145 24.0604 53.6331 24.0278 53.5723 23.969C53.5116 23.9101 53.4764 23.8297 53.4743 23.7452C53.4723 23.6606 53.5035 23.5786 53.5613 23.5168C53.619 23.4551 53.6987 23.4185 53.7832 23.4151C54.1523 23.3966 54.5258 23.3809 54.8929 23.368C54.9784 23.3651 55.0614 23.3962 55.1239 23.4546C55.1864 23.5129 55.2232 23.5937 55.2261 23.6792C55.2291 23.7647 55.198 23.8479 55.1397 23.9104C55.0814 23.973 55.0007 24.0097 54.9152 24.0127C54.5513 24.0253 54.1818 24.0409 53.8151 24.0593L53.799 24.0597ZM59.3281 23.9901H59.3205C58.9522 23.9815 58.5814 23.976 58.2183 23.9722C58.1339 23.9698 58.0538 23.9344 57.9953 23.8735C57.9367 23.8126 57.9043 23.7312 57.9051 23.6467C57.9059 23.5621 57.9398 23.4813 57.9995 23.4216C58.0592 23.3618 58.14 23.3279 58.2244 23.3271C58.5904 23.3305 58.9642 23.3366 59.3355 23.3453C59.4209 23.3463 59.5025 23.3812 59.5622 23.4424C59.6219 23.5035 59.6549 23.5859 59.654 23.6715C59.653 23.757 59.6181 23.8386 59.557 23.8984C59.4959 23.9582 59.4136 23.9912 59.3281 23.9903V23.9901ZM56.0088 23.9831C55.9665 23.9835 55.9245 23.9755 55.8853 23.9597C55.846 23.9439 55.8103 23.9205 55.7801 23.8909C55.7499 23.8612 55.7258 23.8259 55.7092 23.7869C55.6926 23.748 55.6839 23.7061 55.6835 23.6638C55.683 23.6214 55.691 23.5794 55.7068 23.5401C55.7226 23.5008 55.746 23.465 55.7756 23.4348C55.8052 23.4046 55.8405 23.3805 55.8794 23.3639C55.9183 23.3473 55.9602 23.3385 56.0025 23.3381C56.3664 23.3308 56.74 23.3262 57.1132 23.324H57.1149C57.1572 23.3239 57.1992 23.3321 57.2383 23.3482C57.2774 23.3644 57.313 23.388 57.343 23.4179C57.373 23.4478 57.3968 23.4833 57.4131 23.5224C57.4294 23.5615 57.4378 23.6034 57.4379 23.6458C57.438 23.6881 57.4298 23.7301 57.4137 23.7693C57.3976 23.8084 57.3739 23.844 57.3441 23.8741C57.3142 23.9041 57.2788 23.9279 57.2397 23.9442C57.2007 23.9605 57.1588 23.969 57.1165 23.9691C56.7463 23.9708 56.3759 23.9754 56.0154 23.9832L56.0088 23.9831Z" fill="#364154"/>
<path d="M7.30032 67.9664C7.29397 67.9664 7.28748 67.9664 7.28113 67.9664C7.23885 67.9639 7.19746 67.9531 7.15936 67.9346C7.12125 67.9162 7.08716 67.8904 7.05902 67.8587C7.03089 67.8271 7.00925 67.7902 6.99538 67.7502C6.98151 67.7102 6.97566 67.6678 6.97816 67.6255C6.97816 67.6175 6.99016 67.4233 7.02518 67.0628C7.02926 67.0206 7.04161 66.9797 7.06152 66.9423C7.08143 66.9049 7.1085 66.8718 7.14119 66.8449C7.17389 66.818 7.21157 66.7978 7.25207 66.7854C7.29258 66.7731 7.3351 66.7688 7.37725 66.7729C7.4194 66.777 7.46034 66.7893 7.49771 66.8092C7.53509 66.8292 7.56819 66.8562 7.5951 66.8889C7.62201 66.9216 7.64222 66.9593 7.65457 66.9998C7.66693 67.0403 7.67119 67.0829 7.6671 67.125C7.6335 67.4718 7.62205 67.6615 7.62205 67.6635C7.61699 67.7454 7.58091 67.8224 7.52113 67.8786C7.46136 67.9349 7.38241 67.9663 7.30032 67.9664Z" fill="#364154"/>
</svg>
