<svg width="72" height="72" viewBox="0 0 72 72" fill="none" xmlns="http://www.w3.org/2000/svg">
<path d="M36 59C48.7025 59 59 48.7025 59 36C59 23.2975 48.7025 13 36 13C23.2975 13 13 23.2975 13 36C13 48.7025 23.2975 59 36 59Z" fill="#9FD973"/>
<path d="M41.6311 48.0192C40.5078 49.2871 38.5814 50.098 35.8496 50.098C33.1383 50.098 31.2099 49.2963 30.0747 48.0436" stroke="black" stroke-width="2" stroke-miterlimit="10" stroke-linecap="round" stroke-linejoin="round"/>
<path d="M21.1089 27.2015C21.8296 25.8158 23.0367 24.7474 24.4996 24.2015C25.9048 23.5013 27.5201 23.3529 29.0298 23.7806" stroke="black" stroke-width="2" stroke-miterlimit="10" stroke-linecap="round" stroke-linejoin="round"/>
<path d="M50.7193 27.2015C49.1373 24.4291 45.9156 23.0316 42.8101 23.7709" stroke="black" stroke-width="2" stroke-miterlimit="10" stroke-linecap="round" stroke-linejoin="round"/>
<path d="M23.4844 34.2452C23.4844 34.2452 27.4166 32.0757 31.4844 34.2452" stroke="black" stroke-width="2" stroke-miterlimit="10" stroke-linecap="round" stroke-linejoin="round"/>
<path d="M40.7344 34.2452C40.7344 34.2452 44.6666 32.0757 48.7344 34.2452" stroke="black" stroke-width="2" stroke-miterlimit="10" stroke-linecap="round" stroke-linejoin="round"/>
<path d="M36.0001 59.0001C48.7027 59.0001 59.0002 48.7026 59.0002 36C59.0002 23.2974 48.7027 12.9999 36.0001 12.9999C23.2975 12.9999 13 23.2974 13 36C13 48.7026 23.2975 59.0001 36.0001 59.0001Z" stroke="black" stroke-width="2" stroke-miterlimit="10" stroke-linecap="round" stroke-linejoin="round"/>
</svg>
