<svg width="72" height="72" viewBox="0 0 72 72" fill="none" xmlns="http://www.w3.org/2000/svg">
<path d="M36 59C48.7025 59 59 48.7025 59 36C59 23.2975 48.7025 13 36 13C23.2975 13 13 23.2975 13 36C13 48.7025 23.2975 59 36 59Z" fill="#F5F5F5"/>
<path d="M50.5951 41.64C50.6071 43.1797 50.3113 44.7062 49.7251 46.13C37.2351 49.16 24.2951 46.47 22.2351 46C21.6763 44.6148 21.3943 43.1336 21.4051 41.64H21.5151C21.5151 41.64 36.3151 45.23 50.4051 41.71L50.5951 41.64Z" fill="white"/>
<path d="M49.7249 46.13C47.9349 50.4 43.3749 53.36 36.0349 53.36C28.6249 53.36 24.0049 50.33 22.2349 46C24.2949 46.47 37.2348 49.16 49.7249 46.13Z" fill="#BDBDBD"/>
<path d="M36 59C48.7025 59 59 48.7025 59 36C59 23.2975 48.7025 13 36 13C23.2975 13 13 23.2975 13 36C13 48.7025 23.2975 59 36 59Z" stroke="#757575" stroke-width="2" stroke-linecap="round" stroke-linejoin="round"/>
<path d="M28.5684 36.2218C30.2252 36.2218 31.5684 33.8024 31.5684 30.818C31.5684 27.8336 30.2252 25.4142 28.5684 25.4142C26.9115 25.4142 25.5684 27.8336 25.5684 30.818C25.5684 33.8024 26.9115 36.2218 28.5684 36.2218Z" fill="#757575"/>
<path d="M43.4316 36.2254C45.0885 36.2254 46.4316 33.806 46.4316 30.8216C46.4316 27.8372 45.0885 25.4178 43.4316 25.4178C41.7748 25.4178 40.4316 27.8372 40.4316 30.8216C40.4316 33.806 41.7748 36.2254 43.4316 36.2254Z" fill="#757575"/>
<path d="M50.5951 41.64C50.6071 43.1797 50.3113 44.7062 49.7251 46.13C37.2351 49.16 24.2951 46.47 22.2351 46C21.6763 44.6148 21.3943 43.1336 21.4051 41.64H21.5151C21.5151 41.64 36.3151 45.23 50.4051 41.71L50.5951 41.64Z" stroke="#757575" stroke-width="2" stroke-linecap="round" stroke-linejoin="round"/>
<path d="M49.7249 46.13C47.9349 50.4 43.3749 53.36 36.0349 53.36C28.6249 53.36 24.0049 50.33 22.2349 46C24.2949 46.47 37.2348 49.16 49.7249 46.13Z" stroke="#757575" stroke-width="2" stroke-linecap="round" stroke-linejoin="round"/>
</svg>
