<svg width="72" height="72" viewBox="0 0 72 72" fill="none" xmlns="http://www.w3.org/2000/svg">
<path d="M36 13.2002C23.4281 13.2002 13.2002 23.4281 13.2002 36C13.2002 48.5718 23.4281 58.7998 36 58.7998C48.5718 58.7998 58.7998 48.5718 58.7998 36C58.7998 23.4281 48.5718 13.2002 36 13.2002Z" fill="#F5F5F5"/>
<path d="M36 59C48.7025 59 59 48.7025 59 36C59 23.2975 48.7025 13 36 13C23.2975 13 13 23.2975 13 36C13 48.7025 23.2975 59 36 59Z" stroke="#757575" stroke-width="2" stroke-miterlimit="10"/>
<path d="M21.8799 23.92C26.9819 23.8587 29.1529 22.038 30.2629 20.574" stroke="#757575" stroke-width="2" stroke-miterlimit="10" stroke-linecap="round" stroke-linejoin="round"/>
<path d="M46.24 47.56C46.24 44.968 43.373 40.439 35.99 40.63C29.016 40.8112 25.77 45.148 25.77 47.741C25.77 50.334 30.041 46.13 35.82 46.249C42.137 46.379 46.25 50.152 46.25 47.56H46.24Z" fill="#757575" stroke="#757575" stroke-width="2" stroke-miterlimit="10"/>
<path d="M23.1602 28.47C28.3752 29.908 28.7632 29.3796 31.3642 29.677C32.4322 29.7991 29.3342 32.347 24.0822 34.074" stroke="#757575" stroke-width="2" stroke-miterlimit="10" stroke-linecap="round" stroke-linejoin="round"/>
<path d="M50.1198 23.92C45.0178 23.8587 42.8468 22.038 41.7368 20.574" stroke="#757575" stroke-width="2" stroke-miterlimit="10" stroke-linecap="round" stroke-linejoin="round"/>
<path d="M48.8401 28.47C43.6251 29.908 43.2371 29.3796 40.6361 29.677C39.5681 29.7991 42.6661 32.347 47.9181 34.074" stroke="#757575" stroke-width="2" stroke-miterlimit="10" stroke-linecap="round" stroke-linejoin="round"/>
</svg>
