<svg width="72" height="72" viewBox="0 0 72 72" fill="none" xmlns="http://www.w3.org/2000/svg">
<path d="M36 13.1161C23.3177 13.1161 13 23.4338 13 36.1161C13 48.7983 23.3177 59.1161 36 59.1161C48.6822 59.1161 59 48.7983 59 36.1161C59 23.4338 48.6822 13.1161 36 13.1161Z" fill="#FE8548"/>
<path d="M36 59C48.7025 59 59 48.7025 59 36C59 23.2975 48.7025 13 36 13C23.2975 13 13 23.2975 13 36C13 48.7025 23.2975 59 36 59Z" stroke="black" stroke-width="2" stroke-miterlimit="10"/>
<path d="M26.5 46C28.3768 43.4498 32.3239 41.8768 36.5 42.0076C40.3343 42.1277 43.7926 43.6662 45.5 46" stroke="black" stroke-width="2" stroke-miterlimit="10" stroke-linecap="round" stroke-linejoin="round"/>
<path d="M22.5 23.0774C22.9132 23.4214 24.7456 24.8689 27.4091 24.7138C29.5699 24.5879 31.0191 23.4805 31.5 23.0774" stroke="black" stroke-width="2" stroke-miterlimit="10" stroke-linecap="round" stroke-linejoin="round"/>
<path d="M40.5 23.0774C40.9132 23.4214 42.7456 24.8689 45.4091 24.7138C47.5699 24.5879 49.0191 23.4805 49.5 23.0774" stroke="black" stroke-width="2" stroke-miterlimit="10" stroke-linecap="round" stroke-linejoin="round"/>
<path d="M30 31C30 32.6568 28.6552 34 27 34C25.3447 34 24 32.6567 24 31C24 29.3448 25.3447 28 27 28C28.6552 28 30 29.3448 30 31Z" fill="black"/>
<path d="M48 31C48 32.6568 46.6553 34 45 34C43.3447 34 42 32.6567 42 31C42 29.3448 43.3447 28 45 28C46.6553 28 48 29.3448 48 31Z" fill="black"/>
</svg>
