<svg width="16" height="16" viewBox="0 0 16 16" fill="none" xmlns="http://www.w3.org/2000/svg">
<path d="M13.55 3.1H12.5V1.7C12.5 1.51435 12.4263 1.3363 12.295 1.20503C12.1637 1.07375 11.9857 1 11.8 1C11.6143 1 11.4363 1.07375 11.305 1.20503C11.1737 1.3363 11.1 1.51435 11.1 1.7V3.1H5.5V1.7C5.5 1.51435 5.42625 1.3363 5.29497 1.20503C5.1637 1.07375 4.98565 1 4.8 1C4.61435 1 4.4363 1.07375 4.30503 1.20503C4.17375 1.3363 4.1 1.51435 4.1 1.7V3.1H3.05C2.77152 3.1 2.50445 3.21062 2.30754 3.40754C2.11062 3.60445 2 3.87152 2 4.15V13.95C2 14.2285 2.11062 14.4955 2.30754 14.6925C2.50445 14.8894 2.77152 15 3.05 15H13.55C13.8285 15 14.0955 14.8894 14.2925 14.6925C14.4894 14.4955 14.6 14.2285 14.6 13.95V4.15C14.6 3.87152 14.4894 3.60445 14.2925 3.40754C14.0955 3.21062 13.8285 3.1 13.55 3.1ZM13.2 4.5V5.9H3.4V4.5H13.2ZM3.4 13.6V7.3H13.2V13.6H3.4Z" fill="#757575"/>
<path d="M9.0001 8.7002H7.6001V10.1002H9.0001V8.7002Z" fill="#757575"/>
<path d="M11.7999 8.7002H10.3999V10.1002H11.7999V8.7002Z" fill="#757575"/>
<path d="M6.20005 11.5H4.80005V12.9H6.20005V11.5Z" fill="#757575"/>
<path d="M9.0001 11.5H7.6001V12.9H9.0001V11.5Z" fill="#757575"/>
<path d="M11.7999 11.5H10.3999V12.9H11.7999V11.5Z" fill="#757575"/>
</svg>
