<svg width="320" height="187" viewBox="0 0 320 187" fill="none" xmlns="http://www.w3.org/2000/svg">
<path d="M291.696 186.602C291.696 186.602 305.652 123.212 278.137 81.8244C250.623 40.4365 201.622 32.7706 149.161 67.8729L141.563 70.9078C141.563 70.9078 85.5364 68.7166 63.4052 92.7176C41.274 116.719 32.8998 137.102 31.3052 186.1L291.696 186.602Z" fill="#D4EDE9"/>
<path d="M86.6441 186.601C85.3998 183.792 84.3301 180.908 83.4412 177.966C82.046 173.286 75.7651 165.119 66.8928 170.895C65.896 171.194 64.8982 170.565 63.6028 169.684C62.3073 168.803 56.7245 167.144 51.5406 170.413C48.3503 172.189 44.1632 172.189 43.4651 176.372C43.4651 176.372 39.7762 174.738 38.1815 173.563C36.5869 172.388 26.117 171.791 19.2402 173.782C12.3634 175.774 5.58289 177.113 6.87886 186.601H86.6441Z" fill="#FFB900"/>
<path d="M43.9031 174.945C43.9717 168.77 44.9069 162.636 46.6813 156.721C47.5526 153.666 48.0512 148.488 50.8426 144.604C53.634 140.72 56.1262 137.732 56.4254 136.536C56.4254 136.536 56.6249 149.647 56.0265 155.093C55.4281 160.538 52.2164 172.521 43.9031 174.945Z" fill="#16A75C"/>
<path d="M42.9305 176.105L43.2633 175.496C43.4749 175.107 43.7799 174.556 44.1316 173.889C44.4834 173.222 44.9007 172.445 45.3449 171.612C45.7968 170.782 46.239 169.878 46.6992 168.982C47.1595 168.085 47.6119 167.183 48.0404 166.342C48.2501 165.919 48.4296 165.501 48.6145 165.109C48.7994 164.717 48.9662 164.344 49.1238 164L50.178 161.708C50.178 161.708 49.8253 162.653 49.2975 164.071L48.8699 165.217C48.7157 165.623 48.5644 166.057 48.3858 166.496C48.021 167.371 47.6313 168.301 47.2421 169.233C46.853 170.165 46.4725 171.103 46.0819 171.966C45.699 172.833 45.342 173.643 45.036 174.337C44.73 175.03 44.4692 175.606 44.2873 176.007C44.1054 176.409 44.0003 176.639 44.0003 176.639C43.9678 176.711 43.9216 176.775 43.8642 176.829C43.8068 176.882 43.7394 176.924 43.6659 176.952C43.5923 176.98 43.514 176.992 43.4355 176.99C43.3569 176.987 43.2796 176.969 43.2081 176.937C43.1365 176.904 43.072 176.858 43.0183 176.801C42.9646 176.744 42.9227 176.676 42.895 176.603C42.8673 176.529 42.8544 176.451 42.857 176.373C42.8596 176.294 42.8776 176.217 42.9101 176.145C42.9159 176.132 42.9237 176.117 42.9305 176.105Z" fill="white"/>
<path d="M43.4656 176.373C43.4656 176.373 28.399 164.934 23.8607 152.549C19.7403 141.307 21.8662 137.069 21.8662 137.069C21.8662 137.069 27.05 143.541 31.7022 146.497C36.3543 149.452 47.785 164.389 43.4656 176.373Z" fill="#006430"/>
<path d="M42.8741 176.283C42.8741 176.283 42.878 176.257 42.8862 176.206C42.8945 176.156 42.9028 176.068 42.9159 175.96C42.9388 175.739 42.9646 175.407 42.9675 174.981C42.9736 173.794 42.8299 172.611 42.5399 171.46C42.1267 169.819 41.4357 168.26 40.4967 166.851C39.9575 166.051 39.3568 165.294 38.7001 164.587C38.038 163.835 37.3536 163.089 36.6628 162.339C35.2797 160.846 33.8792 159.359 32.6109 157.925C31.9756 157.209 31.3772 156.502 30.8202 155.823L30.0263 154.82L29.3112 153.863C28.8675 153.238 28.4662 152.662 28.1378 152.133C27.7929 151.616 27.5375 151.137 27.3074 150.755C27.088 150.366 26.9342 150.05 26.8209 149.841L26.6506 149.516L26.8326 149.835C26.9542 150.04 27.1186 150.349 27.3521 150.728C27.5954 151.102 27.8678 151.57 28.2302 152.073C28.5761 152.587 28.9964 153.146 29.4605 153.751L30.2063 154.677L31.0333 155.645C31.6117 156.3 32.232 156.981 32.8906 157.671C34.2041 159.052 35.6548 160.482 37.0948 161.928C37.8113 162.651 38.5333 163.382 39.2241 164.111C39.9302 164.819 40.5808 165.58 41.17 166.388C42.2204 167.846 43.0133 169.474 43.5143 171.199C43.8723 172.426 44.0735 173.694 44.1131 174.971C44.1267 175.437 44.1131 175.804 44.0961 176.06C44.0854 176.189 44.0766 176.288 44.0713 176.355L44.0582 176.464C44.0394 176.621 43.9589 176.765 43.8342 176.863C43.7096 176.961 43.551 177.006 43.3934 176.987C43.2358 176.968 43.0921 176.888 42.9939 176.763C42.8956 176.639 42.851 176.48 42.8697 176.323L42.8726 176.304L42.8741 176.283Z" fill="white"/>
<path d="M196.69 186.601C196.69 186.601 208.008 182.547 210.723 181.45C213.439 180.353 214.236 179.757 214.236 179.757C214.236 179.757 219.786 180.654 222.909 178.928C226.033 177.201 224.637 175.608 229.754 174.878C234.872 174.147 242.714 172.355 244.907 171.16C247.1 169.965 247.832 167.043 246.436 164.72C245.04 162.396 236.932 164.121 235.603 164.255C234.274 164.388 231.083 164.984 229.223 163.856C227.362 162.729 223.374 163.259 221.115 164.585C218.855 165.911 217.393 165.979 216.661 165.714C215.93 165.448 213.871 164.718 208.155 167.307C202.439 169.896 188.283 184.502 188.283 184.502V186.361L196.69 186.601Z" fill="#16A75C"/>
<path d="M186.81 179.993C186.81 179.993 186.921 166.712 190.111 164.223C193.3 161.733 196.191 161.832 198.385 158.646C200.578 155.459 204.566 147.691 211.444 146.695C213.837 145.998 219.617 140.221 226.598 139.923C233.578 139.625 237.265 138.23 236.268 143.309C235.271 148.388 229.389 150.778 223.906 153.566C218.423 156.355 214.635 156.953 215.133 160.438C215.631 163.924 211.046 166.61 207.158 168.704C203.269 170.798 205.363 173.355 202.073 175.262C198.783 177.169 191.008 184.01 189.912 186.365C189.911 186.365 181.417 188.493 186.81 179.993Z" fill="#006430"/>
<path d="M187.366 185.997C188.516 182.551 190.061 179.25 191.968 176.158C193.836 173.066 195.954 170.132 198.301 167.385C198.885 166.697 199.51 166.047 200.113 165.376L201.024 164.377L201.989 163.43L203.921 161.539L205.955 159.759L206.972 158.87C207.315 158.579 207.68 158.314 208.033 158.034L210.167 156.379C210.346 156.242 210.521 156.101 210.702 155.968L211.26 155.587L212.374 154.825L214.602 153.301L212.403 154.865L211.303 155.647L210.754 156.036C210.576 156.172 210.403 156.317 210.227 156.456L208.128 158.149C207.781 158.434 207.422 158.705 207.085 159.002L206.087 159.907L204.092 161.718L202.203 163.637L201.26 164.598L200.371 165.608C199.785 166.289 199.173 166.944 198.607 167.639C196.329 170.407 194.281 173.357 192.484 176.459C190.668 179.529 189.209 182.798 188.137 186.2L188.128 186.229C188.098 186.33 188.029 186.415 187.936 186.465C187.843 186.516 187.734 186.527 187.633 186.497C187.531 186.467 187.446 186.398 187.396 186.305C187.346 186.212 187.334 186.103 187.365 186.002L187.366 185.997Z" fill="white"/>
<path d="M189.618 185.797C192.203 183.769 194.931 181.931 197.782 180.299C200.609 178.648 203.524 177.153 206.514 175.82C209.498 174.483 212.551 173.304 215.66 172.289C217.202 171.747 218.783 171.328 220.35 170.874C221.131 170.634 221.931 170.467 222.724 170.271L225.105 169.7L222.736 170.319C221.948 170.531 221.153 170.714 220.378 170.97C218.821 171.456 217.252 171.905 215.725 172.476C212.647 173.55 209.629 174.787 206.683 176.181C203.737 177.567 200.869 179.112 198.091 180.81C195.309 182.479 192.652 184.346 190.14 186.399L190.125 186.412C190.044 186.48 189.939 186.512 189.834 186.503C189.728 186.493 189.631 186.442 189.563 186.361C189.496 186.28 189.463 186.175 189.472 186.07C189.482 185.965 189.533 185.868 189.614 185.8L189.618 185.797Z" fill="white"/>
<path d="M105.074 187C104.985 187 104.899 186.97 104.829 186.916C104.759 186.861 104.709 186.785 104.687 186.699C104.665 186.611 102.43 177.842 96.4129 166.836C90.8671 156.69 80.8764 142.512 64.7892 132.587C64.743 132.56 64.7026 132.524 64.6704 132.482C64.6383 132.439 64.615 132.391 64.6019 132.339C64.5889 132.287 64.5864 132.234 64.5945 132.181C64.6026 132.128 64.6213 132.078 64.6493 132.032C64.6773 131.987 64.7142 131.948 64.7577 131.917C64.8012 131.886 64.8504 131.864 64.9025 131.853C64.9546 131.841 65.0085 131.84 65.061 131.85C65.1134 131.859 65.1634 131.88 65.208 131.909C81.4524 141.931 91.5307 156.238 97.1251 166.477C103.186 177.567 105.439 186.417 105.461 186.505C105.474 186.556 105.476 186.609 105.469 186.661C105.461 186.712 105.443 186.762 105.416 186.807C105.389 186.852 105.353 186.891 105.311 186.922C105.268 186.953 105.22 186.975 105.169 186.988C105.138 186.996 105.106 187 105.074 187Z" fill="#212121"/>
<path d="M107.069 187C107.052 187 107.036 186.999 107.02 186.997C106.968 186.991 106.918 186.974 106.872 186.948C106.827 186.922 106.787 186.888 106.755 186.846C106.723 186.805 106.699 186.758 106.685 186.707C106.671 186.657 106.668 186.604 106.674 186.552C106.71 186.268 110.097 157.767 97.3338 129.775C97.3121 129.727 97.3001 129.676 97.2983 129.624C97.2966 129.571 97.3051 129.519 97.3235 129.47C97.3419 129.421 97.3697 129.376 97.4055 129.338C97.4412 129.3 97.4841 129.269 97.5318 129.248C97.5795 129.226 97.6309 129.214 97.6832 129.212C97.7356 129.21 97.7877 129.219 97.8367 129.237C97.8857 129.256 97.9306 129.283 97.9689 129.319C98.0071 129.355 98.038 129.398 98.0596 129.445C110.917 157.649 107.497 186.364 107.463 186.651C107.451 186.748 107.404 186.836 107.332 186.9C107.259 186.964 107.166 187 107.069 187Z" fill="#212121"/>
<path d="M104.895 185.942C104.895 185.942 97.4982 183.576 96.7665 181.52C96.0348 179.464 101.326 176.623 104.895 185.942Z" fill="#212121"/>
<path d="M105.34 185.942C105.34 185.942 104.875 178.332 107.135 177.468C109.395 176.605 110.657 183.196 105.34 185.942Z" fill="#212121"/>
<path d="M102.611 179.219C102.611 179.219 105.474 177.8 105.87 172.954C106.266 168.107 105.072 167.908 105.072 167.908C105.072 167.908 99.6158 170.083 102.611 179.219Z" fill="#212121"/>
<path d="M100.629 174.455C100.629 174.455 96.3682 175.676 93.1113 174.149C89.8543 172.622 91.7963 166.396 100.629 174.455Z" fill="#212121"/>
<path d="M98.3637 169.684C99.278 167.414 99.6863 164.973 99.5599 162.53C99.2943 158.679 95.6277 157.656 96.1317 165.503L98.3637 169.684Z" fill="#212121"/>
<path d="M94.7101 163.059C94.7101 163.059 92.5794 164.389 89.1896 163.659C85.7999 162.929 86.4654 160.054 87.3955 159.599C88.3256 159.144 93.6783 161.371 93.6783 161.371L94.7101 163.059Z" fill="#212121"/>
<path d="M92.5061 159.537C92.5061 159.537 94.0419 158.281 94.1747 153.7C94.3075 149.118 93.2061 148.721 91.6299 148.389C90.0537 148.056 90.5028 152.471 90.6769 156.837L92.5061 159.537Z" fill="#212121"/>
<path d="M89.2865 154.903C89.2865 154.903 85.6015 155.558 82.3445 154.429C79.0876 153.301 78.623 151.642 79.8192 150.38C81.0155 149.118 84.2651 151.129 89.2865 154.903Z" fill="#212121"/>
<path d="M86.3925 151.173C86.6016 149.134 86.7037 147.085 86.6985 145.035C86.6318 142.479 85.6672 141.45 85.0362 140.852C84.4053 140.255 81.5394 140.415 83.6702 147.986L86.3925 151.173Z" fill="#212121"/>
<path d="M79.2179 143.347C79.2179 143.347 79.4869 138.296 78.856 135.773C78.225 133.251 75.4327 132.752 75.402 135.076C75.3714 137.4 77.0448 140.627 77.8344 142.034L79.2179 143.347Z" fill="#212121"/>
<path d="M80.3704 144.485C80.3704 144.485 78.5218 147.525 74.3031 146.795C70.0844 146.064 69.917 142.413 71.0471 141.516C72.1772 140.62 77.254 142.856 79.2199 143.348L80.3704 144.485Z" fill="#212121"/>
<path d="M72.4686 137.456C72.4686 137.456 72.6087 134.279 71.9107 131.989C71.2126 129.699 70.1165 127.907 69.7512 127.674C69.3859 127.44 66.5609 127.408 67.2585 131.557C67.5724 132.778 68.1618 133.912 68.9816 134.87L72.4686 137.456Z" fill="#212121"/>
<path d="M72.2765 137.457C72.2765 137.457 71.1134 139.692 68.7539 139.856C66.3945 140.021 64.7649 138.628 64.6997 136.902C64.6345 135.176 66.4938 135.242 67.5241 135.441C68.5545 135.641 70.7169 136.157 70.7169 136.157L72.2765 137.457Z" fill="#212121"/>
<path d="M107.81 177.435C107.81 177.435 112.253 177.095 113.316 173.564C114.379 170.033 113.548 168.456 113.548 168.456C113.548 168.456 110.186 168.134 107.506 174.919L107.81 177.435Z" fill="#212121"/>
<path d="M107.072 166.54C107.072 166.54 109.109 167.111 110.681 165.02C112.252 162.929 112.918 162.145 112.318 159.599C111.718 157.053 106.995 162.603 106.815 163.875C106.636 165.148 106.815 164.055 106.815 164.055L107.072 166.54Z" fill="#212121"/>
<path d="M106.678 162.654C106.678 162.654 104.676 161.202 103.679 160.505C102.682 159.807 100.422 159.241 100.19 159.424C99.9573 159.608 98.6278 162.535 103.114 164.641C104.333 165.099 105.676 165.099 106.895 164.641L106.678 162.654Z" fill="#212121"/>
<path d="M105.872 157.451C105.872 157.451 103.911 157.315 101.12 155.093C98.6945 152.97 98.2951 148.322 103.911 152.405C107.801 155.592 105.872 157.451 105.872 157.451Z" fill="#212121"/>
<path d="M103.413 147.558C102.538 147.514 101.681 147.294 100.894 146.912C100.106 146.53 99.4031 145.993 98.8274 145.334C96.9331 143.11 97.2323 141.02 97.8306 140.638C98.429 140.255 102.096 141.65 102.821 142.712C103.547 143.774 104.111 147.06 103.413 147.558Z" fill="#212121"/>
<path d="M100.309 135.914C100.564 133.686 100.69 131.444 100.686 129.201C100.586 126.711 100.188 123.989 99.7559 123.524C99.3234 123.06 97.3969 123.059 97.8615 128.636C97.2818 127.155 96.6047 125.713 95.8344 124.321C95.037 123.093 92.5448 121.168 91.9134 121.002C91.2819 120.835 89.8216 121.831 90.9828 124.42C92.144 127.01 94.7948 128.489 96.6648 129.998C96.6648 129.998 93.9405 128.902 93.7411 131.292C93.5416 133.682 96.694 136.603 100.552 137.069L100.309 135.914Z" fill="#212121"/>
<path d="M74.6983 103.954H25.3352C25.3352 103.954 27.8542 96.9077 34.4021 97.9161C43.9725 76.7824 61.0984 86.3425 61.6019 95.4002C72.6833 91.8778 74.6983 103.954 74.6983 103.954Z" fill="#FFB900"/>
<path d="M255.526 65.7115H293.304C292.296 59.9247 286 59.9247 286 59.9247C283.985 44.83 264.595 49.1069 261.571 59.6735C255.526 60.1765 255.526 65.7115 255.526 65.7115Z" fill="#FFB900"/>
<path d="M264.592 165.343H320.002L310.935 161.821C304.387 137.668 288.772 141.693 286.253 156.286C275.674 146.725 264.592 155.783 264.592 165.343Z" fill="#FFB900"/>
<path d="M237.729 128.869C237.729 128.869 236.965 113.034 242.149 110.046C247.333 107.058 261.788 114.826 261.788 114.826C261.788 114.826 250.955 107.822 250.356 106.428C249.757 105.034 248.96 101.383 254.61 101.515C260.259 101.647 261.787 101.511 261.787 101.511C261.787 101.511 247.697 98.6598 245.969 97.4648C244.241 96.2697 243.71 93.4146 250.489 90.6926C250.489 90.6926 242.779 91.9562 241.716 88.2365C240.653 84.5168 242.514 72.501 242.514 72.501C242.514 72.501 235.203 86.5764 227.093 89.033C218.983 91.4896 211.608 86.3115 208.417 82.9913C208.417 82.9913 217.855 92.4193 216.459 97.5313C215.064 102.643 205.759 101.25 205.759 101.25C205.759 101.25 214.997 103.242 215.329 106.827C215.661 110.411 209.614 111.341 208.285 111.673C208.285 111.673 220.912 108.354 222.573 114.263C224.235 120.172 222.507 123.956 222.507 123.956C222.507 123.956 227.558 116.188 229.419 116.188C231.28 116.188 235.936 123.756 237.729 128.869Z" fill="#006430"/>
<path d="M228.625 112.137H234.008L234.274 108.552L228.359 109.216L228.625 112.137Z" fill="#FF9500"/>
<path d="M228.027 105.897C228.027 105.897 225.967 102.278 228.027 100.585C230.087 98.8922 231.981 99.7387 232.28 98.1457C232.579 96.5526 230.07 95.1579 228.359 96.3529C226.647 97.5479 225.899 98.1457 225.899 98.1457C225.899 98.1457 222.659 97.7452 222.211 95.9039C222.211 95.9039 223.009 91.0246 230.435 90.3277C237.862 89.6308 239.657 95.6555 239.508 97.7968C239.358 99.938 239.009 101.083 235.518 102.278C235.169 102.428 233.74 102.81 234.006 104.337C234.273 105.864 231.017 106.594 228.027 105.897Z" fill="#FF9500"/>
<path d="M269.564 96.0028C269.49 96.0027 269.416 95.9922 269.345 95.9717L264.46 94.5775C264.261 94.5154 264.095 94.3782 263.996 94.1953C263.897 94.0124 263.874 93.7981 263.931 93.5982C263.988 93.3984 264.121 93.2287 264.302 93.1254C264.482 93.0221 264.696 92.9934 264.898 93.0453L269.782 94.4395C269.967 94.4923 270.127 94.6101 270.232 94.7712C270.337 94.9323 270.38 95.1259 270.353 95.3163C270.327 95.5066 270.232 95.681 270.087 95.8071C269.942 95.9333 269.756 96.0028 269.563 96.0028H269.564Z" fill="#006430"/>
<path d="M261.788 91.5225C261.602 91.5226 261.421 91.4574 261.278 91.3384C261.134 91.2193 261.037 91.0539 261.004 90.8708C260.97 90.6877 261.001 90.4985 261.092 90.3361C261.184 90.1738 261.329 90.0485 261.503 89.982L270.874 86.3966C270.972 86.3592 271.076 86.3414 271.181 86.3443C271.285 86.3471 271.388 86.3705 271.484 86.4132C271.58 86.4558 271.666 86.5169 271.738 86.5928C271.81 86.6688 271.866 86.7582 271.904 86.8559C271.941 86.9536 271.959 87.0577 271.956 87.1623C271.953 87.2668 271.93 87.3698 271.887 87.4653C271.844 87.5609 271.783 87.6471 271.707 87.719C271.631 87.7909 271.542 87.8472 271.444 87.8846L262.073 91.47C261.982 91.5048 261.885 91.5226 261.788 91.5225Z" fill="#006430"/>
<path d="M261.29 88.4349C261.126 88.4343 260.967 88.3833 260.833 88.289C260.699 88.1947 260.598 88.0616 260.542 87.9077C260.487 87.7538 260.48 87.5867 260.523 87.4289C260.566 87.2711 260.657 87.1303 260.783 87.0257L264.172 84.2373C264.336 84.108 264.544 84.048 264.752 84.0702C264.959 84.0924 265.15 84.1951 265.283 84.3562C265.416 84.5172 265.48 84.7239 265.462 84.9317C265.444 85.1395 265.345 85.3319 265.186 85.4677L261.797 88.2561C261.654 88.3727 261.475 88.4359 261.29 88.4349Z" fill="#006430"/>
<path d="M226.448 78.2936C226.291 78.2935 226.139 78.2476 226.008 78.1615C225.878 78.0755 225.776 77.9531 225.714 77.8095C225.653 77.6659 225.635 77.5075 225.663 77.3539C225.691 77.2003 225.764 77.0583 225.872 76.9456L229.693 72.9607C229.839 72.8081 230.04 72.7198 230.252 72.7153C230.463 72.7107 230.668 72.7903 230.821 72.9364C230.973 73.0826 231.062 73.2834 231.066 73.4946C231.071 73.7059 230.991 73.9103 230.845 74.0629L227.024 78.0477C226.949 78.1254 226.86 78.1873 226.761 78.2296C226.662 78.2718 226.555 78.2936 226.448 78.2936Z" fill="#006430"/>
<path d="M223.207 79.0733C223.011 79.0731 222.823 79.0014 222.677 78.8718C222.532 78.7422 222.438 78.5637 222.416 78.3701L221.419 69.9058C221.407 69.8019 221.415 69.6966 221.443 69.5959C221.472 69.4953 221.52 69.4012 221.585 69.3191C221.65 69.237 221.73 69.1685 221.822 69.1174C221.913 69.0664 222.014 69.0338 222.118 69.0216C222.222 69.0093 222.327 69.0177 222.428 69.0462C222.529 69.0746 222.623 69.1227 222.705 69.1875C222.787 69.2523 222.856 69.3327 222.907 69.424C222.958 69.5153 222.991 69.6158 223.003 69.7196L224 78.184C224.012 78.2879 224.004 78.3933 223.975 78.494C223.947 78.5948 223.899 78.6889 223.834 78.7711C223.769 78.8532 223.688 78.9218 223.597 78.9728C223.505 79.0238 223.405 79.0563 223.3 79.0684C223.269 79.072 223.238 79.0736 223.207 79.0733Z" fill="#006430"/>
<path d="M219.188 78.7417C219.055 78.7419 218.925 78.709 218.808 78.6461C218.691 78.5831 218.592 78.4921 218.519 78.3812L216.26 74.9309C216.144 74.754 216.103 74.5385 216.147 74.3317C216.19 74.1248 216.314 73.9437 216.491 73.828C216.668 73.7123 216.883 73.6716 217.09 73.7149C217.297 73.7581 217.479 73.8817 217.595 74.0586L219.854 77.5089C219.933 77.629 219.978 77.7681 219.984 77.9115C219.99 78.055 219.957 78.1974 219.889 78.3237C219.821 78.45 219.719 78.5556 219.596 78.6292C219.473 78.7027 219.332 78.7416 219.188 78.7417Z" fill="#006430"/>
<path d="M201.775 118.115C201.59 118.115 201.411 118.05 201.268 117.933C201.125 117.816 201.028 117.652 200.992 117.471C200.956 117.29 200.985 117.102 201.073 116.94C201.16 116.777 201.302 116.65 201.473 116.58L206.358 114.588C206.553 114.508 206.773 114.509 206.968 114.591C207.163 114.673 207.317 114.828 207.397 115.024C207.477 115.22 207.476 115.439 207.394 115.634C207.312 115.828 207.156 115.983 206.96 116.063L202.076 118.055C201.98 118.094 201.878 118.115 201.775 118.115Z" fill="#006430"/>
<path d="M203.17 123.391C203.003 123.391 202.841 123.339 202.705 123.243C202.569 123.146 202.467 123.009 202.413 122.851C202.36 122.693 202.357 122.522 202.405 122.363C202.454 122.203 202.551 122.063 202.684 121.962L209.596 116.684C209.765 116.565 209.972 116.516 210.176 116.547C210.379 116.579 210.563 116.687 210.688 116.85C210.814 117.014 210.871 117.219 210.848 117.424C210.825 117.628 210.724 117.816 210.565 117.947L203.654 123.227C203.516 123.334 203.345 123.391 203.17 123.391Z" fill="#006430"/>
<path d="M212.042 125.682C211.937 125.682 211.833 125.661 211.737 125.621C211.64 125.581 211.552 125.522 211.478 125.448C211.404 125.374 211.345 125.286 211.305 125.19C211.265 125.093 211.245 124.989 211.245 124.885V121.3C211.25 121.092 211.336 120.894 211.485 120.749C211.634 120.604 211.834 120.523 212.042 120.523C212.25 120.523 212.45 120.604 212.599 120.749C212.748 120.894 212.835 121.092 212.84 121.3V124.885C212.84 125.096 212.756 125.299 212.606 125.448C212.456 125.598 212.254 125.682 212.042 125.682Z" fill="#006430"/>
<path d="M183.83 42.0266L189.679 37.6451C189.679 37.6451 187.219 26.0923 189.213 21.5105C191.207 16.9287 199.582 18.0601 213.537 17.8589C221.113 17.9916 231.467 18.0343 233.94 18.3395C236.632 18.6714 239.455 17.4609 239.589 27.7515C239.722 38.0421 241.583 42.8168 233.076 43.2139C225.07 43.5891 200.378 44.6815 193.997 41.4945C190.621 41.8706 187.227 42.0483 183.83 42.0266Z" fill="#FF9500"/>
<path d="M196.125 25.893C196.125 26.1284 196.172 26.3615 196.262 26.579C196.352 26.7965 196.484 26.9941 196.651 27.1606C196.817 27.3271 197.015 27.4592 197.233 27.5492C197.45 27.6393 197.684 27.6857 197.919 27.6857H230.353C230.829 27.6857 231.285 27.4968 231.622 27.1607C231.958 26.8245 232.147 26.3685 232.147 25.893C232.147 25.4177 231.958 24.9618 231.621 24.6257C231.285 24.2896 230.829 24.1008 230.353 24.1008H197.919C197.444 24.1008 196.987 24.2897 196.651 24.6258C196.314 24.9619 196.125 25.4177 196.125 25.893Z" fill="white"/>
<path d="M206.56 35.582C206.56 36.5724 207.13 37.3747 207.835 37.3747H230.873C231.577 37.3747 232.147 36.5724 232.147 35.582C232.147 34.5921 231.577 33.7898 230.873 33.7898H207.835C207.13 33.7898 206.56 34.5921 206.56 35.582Z" fill="white"/>
<path d="M160.403 77.1817C160.403 77.1817 171.668 83.4557 181.537 72.8993C184.727 69.4139 186.622 67.1229 183.232 64.3344C179.842 61.5458 177.849 60.1521 177.051 50.2925C176.253 40.433 171.568 24.8972 155.219 20.814C147.343 19.2209 139.068 23.4033 138.072 26.8887C138.072 26.8887 138.138 25.7267 137.308 25.4279C136.478 25.129 135.181 26.0596 135.314 27.8514C135.19 27.5408 135.006 27.2577 134.772 27.0185C134.538 26.7792 134.259 26.5884 133.951 26.4572C132.988 26.1252 130.927 28.0502 133.951 30.0753C133.951 30.0753 126.541 29.0129 123.152 40.831C119.762 52.649 118.1 60.9505 116.505 64.002C114.911 67.0535 110.856 81.5303 137.507 79.6048C153.059 79.0076 160.403 77.1817 160.403 77.1817Z" fill="#212121"/>
<path d="M139.866 73.3643C139.866 73.3643 137.775 73.2312 137.775 76.6836V83.4557C137.775 83.4557 119.299 82.925 115.843 88.1036C112.387 93.2822 105.209 125.816 104.146 134.844C103.083 143.872 98.0315 161.534 118.501 160.206C118.501 160.206 117.172 182.381 117.571 186.365H186.422C186.422 186.365 187.751 185.037 186.422 177.335C185.093 169.633 184.827 152.106 184.827 152.106C184.827 152.106 194.897 138.13 195.294 135.541C195.691 132.952 195.197 127.873 194.298 124.287C193.398 120.702 191.008 111.141 189.513 105.963C188.017 100.784 183.497 85.3811 177.118 83.8532C170.739 82.3253 161.765 83.2555 161.765 83.2555C161.765 83.2555 162.031 74.8237 159.838 73.7944C157.645 72.7651 139.866 73.3643 139.866 73.3643Z" fill="#069550"/>
<path d="M156.984 87.9699H156.96C156.854 87.9635 156.755 87.9155 156.685 87.8364C156.615 87.7573 156.579 87.6535 156.585 87.5481C156.589 87.4825 156.981 80.9566 157.046 78.7965C157.132 77.7217 156.84 76.6507 156.219 75.7685C156.153 75.6889 156.12 75.5865 156.128 75.4831C156.135 75.3797 156.183 75.2834 156.261 75.2147C156.339 75.146 156.44 75.1103 156.544 75.1152C156.648 75.12 156.746 75.1651 156.816 75.2408C156.861 75.2894 157.913 76.4979 157.842 78.8208C157.777 80.9925 157.385 87.5301 157.381 87.5962C157.375 87.6972 157.33 87.7921 157.256 87.8615C157.183 87.9309 157.085 87.9697 156.984 87.9699Z" fill="#212121"/>
<path d="M153.391 87.5713C153.286 87.5713 153.184 87.5294 153.109 87.4547C153.035 87.3801 152.992 87.2789 152.992 87.1733V80.4671C152.802 79.1519 152.518 77.8519 152.143 76.577C152.127 76.526 152.121 76.4723 152.127 76.4191C152.132 76.3659 152.148 76.3142 152.173 76.2673C152.199 76.2204 152.234 76.179 152.276 76.1458C152.318 76.1126 152.366 76.0882 152.418 76.0739C152.469 76.0597 152.523 76.056 152.576 76.063C152.629 76.0701 152.68 76.0877 152.726 76.1149C152.772 76.142 152.813 76.1782 152.844 76.2212C152.876 76.2642 152.899 76.3132 152.912 76.3652C153.002 76.6912 153.79 79.5759 153.79 80.4671V87.1733C153.79 87.2789 153.748 87.3801 153.673 87.4547C153.598 87.5294 153.497 87.5713 153.391 87.5713Z" fill="#212121"/>
<path d="M147.809 87.5714C147.705 87.5714 147.605 87.5312 147.531 87.4591C147.457 87.3871 147.413 87.289 147.41 87.1855L147.077 76.3031C147.075 76.2508 147.084 76.1986 147.102 76.1497C147.121 76.1007 147.149 76.0559 147.185 76.0177C147.221 75.9796 147.264 75.9489 147.311 75.9274C147.359 75.9059 147.411 75.894 147.463 75.8924C147.516 75.8895 147.568 75.8974 147.618 75.9154C147.667 75.9335 147.713 75.9614 147.751 75.9975C147.79 76.0335 147.82 76.077 147.841 76.1253C147.862 76.1736 147.873 76.2256 147.874 76.2783L148.207 87.1612C148.209 87.2135 148.2 87.2656 148.181 87.3145C148.163 87.3634 148.135 87.4082 148.099 87.4463C148.063 87.4844 148.02 87.515 147.972 87.5365C147.925 87.558 147.873 87.5698 147.821 87.5714H147.809Z" fill="#212121"/>
<path d="M142.018 86.0445C141.917 86.0443 141.819 86.0055 141.746 85.936C141.672 85.8665 141.627 85.7714 141.621 85.6703C141.602 85.3627 141.163 78.1195 141.298 76.9717C141.424 76.1254 141.653 75.2976 141.979 74.5064C142.022 74.4119 142.1 74.3378 142.197 74.2999C142.294 74.2621 142.401 74.2634 142.497 74.3037C142.593 74.3439 142.669 74.42 142.71 74.5156C142.75 74.6111 142.752 74.7188 142.714 74.8155C142.419 75.5381 142.21 76.293 142.092 77.0645C141.986 77.9616 142.292 83.5476 142.419 85.6241C142.422 85.6763 142.415 85.7287 142.398 85.7782C142.381 85.8277 142.354 85.8734 142.32 85.9126C142.285 85.9518 142.243 85.9838 142.196 86.0067C142.149 86.0297 142.098 86.0432 142.045 86.0464L142.018 86.0445Z" fill="#212121"/>
<path d="M132.788 141.085C132.788 141.085 127.617 143.388 120.898 139.879C120.898 139.879 116.107 136.238 116.374 132.784C116.642 129.331 129.849 134.677 131.26 135.506C132.671 136.335 132.788 141.085 132.788 141.085Z" fill="#F4A386"/>
<path d="M149.653 92.616C147.641 92.6249 145.647 92.2373 143.785 91.4755C141.776 90.676 139.977 89.4266 138.527 87.8235C138.461 87.7417 138.429 87.6367 138.44 87.5316C138.45 87.4265 138.502 87.33 138.584 87.2632C138.666 87.1965 138.771 87.165 138.877 87.1756C138.982 87.1863 139.078 87.2382 139.145 87.3201C139.426 87.6603 146.151 95.6241 158.332 89.6041C158.427 89.5582 158.536 89.5516 158.635 89.5857C158.735 89.6198 158.817 89.6918 158.863 89.786C158.91 89.8802 158.918 89.9891 158.884 90.0888C158.851 90.1885 158.779 90.2711 158.686 90.3184C155.894 91.7744 152.801 92.561 149.653 92.616Z" fill="#212121"/>
<path d="M174.276 157.302C174.276 157.302 171.601 163.792 170.804 165.65C170.124 167.288 169.655 169.006 169.408 170.762C167.743 172.091 165.783 173.001 163.693 173.418C163.693 173.418 161.832 174.879 160.37 175.211C158.908 175.543 155.719 174.148 155.719 174.148C155.719 174.148 154.057 174.016 153.393 173.617C152.729 173.219 152.462 171.16 152.462 171.16C152.462 171.16 151 171.36 151 170.497C151 169.633 151.73 166.845 151.73 166.845C151.73 166.845 150.933 166.048 151.331 164.388C151.729 162.729 153.059 156.82 153.326 155.425C153.592 154.031 162.248 149.408 164.931 148.434C164.93 148.434 172.222 153.115 174.276 157.302Z" fill="#F4A386"/>
<path d="M176.23 162.431L176.074 161.957C176.037 161.843 172.223 150.573 161.992 147.776L161.386 147.611L161.794 147.134C161.891 147.02 171.474 135.773 174.864 130.632C174.955 128.966 176.049 108.632 175.954 102.384C175.954 102.332 175.963 102.28 175.982 102.231C176.002 102.183 176.03 102.138 176.067 102.101C176.103 102.063 176.147 102.033 176.195 102.012C176.243 101.992 176.295 101.98 176.347 101.98H176.353C176.458 101.98 176.558 102.021 176.633 102.094C176.707 102.167 176.75 102.267 176.752 102.371C176.849 108.884 175.666 130.565 175.654 130.783L175.648 130.889L175.59 130.979C172.616 135.523 164.669 144.975 162.799 147.182C171.779 149.975 175.793 159.016 176.652 161.222C179.598 159.076 184.446 151.957 184.497 151.883C184.556 151.795 184.648 151.735 184.752 151.715C184.856 151.695 184.963 151.717 185.051 151.776C185.139 151.835 185.199 151.927 185.219 152.031C185.239 152.135 185.217 152.242 185.158 152.33C184.935 152.657 179.689 160.357 176.658 162.174L176.23 162.431Z" fill="#212121"/>
<path d="M183.032 131.159C182.971 131.159 182.911 131.145 182.857 131.119C177.892 128.689 175.567 131.013 175.544 131.037C175.47 131.11 175.37 131.151 175.266 131.152C175.162 131.152 175.062 131.112 174.987 131.04C174.913 130.968 174.869 130.87 174.865 130.766C174.862 130.663 174.899 130.562 174.969 130.485C175.079 130.37 177.727 127.715 183.208 130.403C183.289 130.443 183.354 130.509 183.392 130.59C183.431 130.671 183.441 130.763 183.421 130.851C183.4 130.939 183.351 131.017 183.28 131.073C183.21 131.129 183.122 131.159 183.032 131.159Z" fill="#212121"/>
<path d="M123.916 97.5971C123.847 97.5973 123.778 97.5791 123.718 97.5445C123.657 97.5098 123.607 97.46 123.572 97.3998C121.649 94.1654 119.328 91.184 116.664 88.5248C116.625 88.4891 116.593 88.4459 116.571 88.3978C116.548 88.3497 116.536 88.2976 116.534 88.2446C116.532 88.1916 116.54 88.1387 116.559 88.0891C116.578 88.0395 116.607 87.9941 116.643 87.9556C116.68 87.9172 116.724 87.8864 116.772 87.8651C116.821 87.8438 116.873 87.8324 116.926 87.8316C116.979 87.8308 117.032 87.8406 117.081 87.8604C117.131 87.8802 117.175 87.9097 117.213 87.947C119.931 90.6584 122.299 93.6988 124.261 96.9974C124.297 97.0579 124.315 97.1267 124.316 97.1968C124.316 97.2669 124.298 97.3359 124.263 97.3967C124.228 97.4575 124.178 97.5081 124.117 97.5433C124.056 97.5785 123.987 97.597 123.917 97.5971H123.916Z" fill="#212121"/>
<path d="M118.5 160.605C118.414 160.605 118.33 160.577 118.26 160.525C118.191 160.473 118.141 160.4 118.117 160.317C118.093 160.234 118.096 160.145 118.127 160.064C118.158 159.984 118.214 159.915 118.288 159.869C118.393 159.803 128.706 153.26 134.843 142.56L132.557 141.823C131.298 142.04 119.195 143.866 116.372 134.661L113.696 133.348C113.291 134.587 112.765 135.784 112.128 136.921C110.529 139.769 108.418 141.795 106.025 142.779C105.976 142.8 105.924 142.811 105.871 142.812C105.818 142.812 105.765 142.802 105.716 142.783C105.667 142.763 105.623 142.733 105.585 142.696C105.548 142.659 105.518 142.614 105.498 142.565C105.478 142.516 105.467 142.464 105.468 142.411C105.468 142.358 105.479 142.306 105.5 142.257C105.52 142.209 105.551 142.165 105.589 142.128C105.627 142.091 105.671 142.062 105.721 142.043C111.117 139.823 113.045 132.753 113.064 132.682L113.188 132.213L117.039 134.097L117.088 134.266C119.747 143.437 132.38 141.045 132.509 141.022L132.611 141.001L136.016 142.099L135.779 142.523C129.572 153.656 118.82 160.475 118.712 160.542C118.648 160.583 118.575 160.604 118.5 160.605Z" fill="#212121"/>
<path d="M134.682 131.358C134.682 131.358 132.591 129.366 130.495 127.673C128.4 125.981 123.617 123.956 118.898 127.275C117.319 128.441 115.653 129.484 113.914 130.395C113.316 130.661 109.86 132.188 111.19 134.18C112.52 136.171 116.175 134.977 116.839 134.711C117.503 134.446 120.029 134.18 121.158 139.226C122.288 144.272 122.288 149.516 124.482 149.516C126.675 149.516 126.941 147.192 126.808 144.736C126.675 142.28 126.21 138.894 126.21 138.894C126.21 138.894 133.919 142.213 136.71 142.612C139.501 143.01 140.299 142.346 140.565 139.558L139.369 139.292C139.369 139.292 140.166 133.317 140.565 131.724C140.991 130.1 141.17 128.421 141.097 126.744C140.964 125.416 138.904 125.35 138.305 126.147C138.303 126.147 135.114 124.287 134.682 131.358Z" fill="#F4A386"/>
<path d="M153.189 167.915C152.529 167.88 151.906 167.598 151.445 167.125C151.375 167.049 151.336 166.949 151.339 166.845C151.341 166.742 151.383 166.644 151.457 166.571C151.53 166.498 151.629 166.457 151.733 166.456C151.836 166.454 151.936 166.494 152.012 166.565C152.118 166.671 153.07 167.574 153.902 166.816C154.413 166.35 155.254 164.395 155.997 162.669C157.013 160.309 157.672 158.84 158.246 158.344C158.286 158.308 158.332 158.28 158.382 158.262C158.432 158.244 158.486 158.236 158.539 158.239C158.593 158.242 158.645 158.256 158.693 158.279C158.741 158.303 158.784 158.336 158.819 158.376C158.854 158.417 158.88 158.464 158.896 158.515C158.913 158.565 158.919 158.619 158.914 158.672C158.909 158.726 158.894 158.777 158.869 158.824C158.844 158.872 158.809 158.913 158.768 158.947C158.29 159.359 157.461 161.284 156.73 162.984C155.88 164.957 155.076 166.823 154.44 167.406C154.104 167.729 153.656 167.912 153.189 167.915Z" fill="#CE8F61"/>
<path d="M153.97 171.815C153.403 171.818 152.84 171.72 152.307 171.526C152.259 171.506 152.215 171.477 152.178 171.44C152.141 171.403 152.112 171.359 152.092 171.31C152.072 171.262 152.062 171.21 152.062 171.158C152.062 171.105 152.073 171.054 152.093 171.005C152.113 170.957 152.143 170.913 152.18 170.877C152.217 170.84 152.261 170.811 152.309 170.791C152.358 170.771 152.41 170.761 152.462 170.761C152.514 170.761 152.566 170.771 152.614 170.792C153.28 171.046 154.005 171.1 154.701 170.945C155.396 170.791 156.03 170.435 156.525 169.922C158.384 167.967 162.194 163.128 162.232 163.079C162.299 162.999 162.394 162.948 162.497 162.937C162.601 162.926 162.704 162.956 162.786 163.02C162.868 163.084 162.921 163.178 162.935 163.281C162.949 163.384 162.922 163.488 162.859 163.571C162.702 163.771 158.988 168.488 157.103 170.472C156.704 170.902 156.219 171.244 155.679 171.475C155.139 171.706 154.557 171.822 153.97 171.815Z" fill="#CE8F61"/>
<path d="M155.733 174.547H155.706C155.653 174.546 155.602 174.534 155.554 174.513C155.506 174.491 155.462 174.461 155.426 174.423C155.39 174.384 155.362 174.34 155.343 174.291C155.324 174.242 155.315 174.189 155.317 174.137C155.322 174.032 155.367 173.933 155.443 173.861C155.519 173.789 155.62 173.748 155.725 173.748C156.521 173.702 157.287 173.427 157.93 172.956C158.472 172.581 159.476 171.706 160.447 170.86C162.131 169.391 163.187 168.483 163.663 168.325C163.713 168.307 163.767 168.298 163.82 168.301C163.873 168.304 163.925 168.317 163.974 168.34C164.022 168.363 164.065 168.396 164.1 168.436C164.135 168.476 164.162 168.522 164.179 168.573C164.196 168.623 164.202 168.677 164.198 168.73C164.194 168.783 164.179 168.835 164.155 168.882C164.13 168.93 164.096 168.971 164.055 169.006C164.014 169.04 163.967 169.065 163.916 169.08C163.567 169.197 162.067 170.505 160.971 171.462C159.938 172.362 158.963 173.211 158.385 173.612C157.61 174.175 156.689 174.5 155.733 174.547Z" fill="#CE8F61"/>
<path d="M163.693 173.817C163.61 173.817 163.529 173.791 163.462 173.743C163.394 173.695 163.343 173.628 163.316 173.549C163.289 173.471 163.286 173.387 163.31 173.307C163.333 173.228 163.38 173.157 163.445 173.106C163.471 173.086 165.975 171.088 166.341 169.178C166.351 169.126 166.371 169.077 166.4 169.034C166.428 168.99 166.466 168.952 166.509 168.923C166.552 168.893 166.601 168.873 166.652 168.862C166.703 168.852 166.756 168.851 166.808 168.861C166.859 168.871 166.908 168.891 166.952 168.919C166.996 168.948 167.033 168.985 167.063 169.028C167.092 169.072 167.113 169.12 167.123 169.171C167.134 169.223 167.134 169.275 167.125 169.327C166.703 171.531 164.052 173.642 163.94 173.731C163.87 173.787 163.783 173.817 163.693 173.817Z" fill="#CE8F61"/>
<path d="M140.565 139.956C140.536 139.956 140.507 139.953 140.479 139.947C140.148 139.874 132.321 138.127 129.25 135.059C129.179 134.984 129.141 134.884 129.143 134.78C129.144 134.677 129.186 134.578 129.259 134.505C129.333 134.432 129.431 134.39 129.535 134.389C129.638 134.387 129.738 134.425 129.814 134.496C132.722 137.401 140.571 139.151 140.651 139.169C140.746 139.19 140.831 139.246 140.888 139.326C140.945 139.405 140.97 139.503 140.96 139.6C140.949 139.698 140.903 139.788 140.83 139.853C140.757 139.919 140.663 139.955 140.565 139.956Z" fill="#CE8F61"/>
<path d="M136.642 138.746C136.577 138.746 136.514 138.73 136.457 138.7C136.4 138.67 136.351 138.627 136.314 138.575C136.278 138.522 136.254 138.461 136.246 138.397C136.238 138.333 136.246 138.269 136.268 138.208C136.289 138.152 138.385 132.527 138.707 130.078C138.77 129.662 138.839 129.311 138.899 129.002C139.161 127.662 139.223 127.344 138.064 126.464C138.017 126.434 137.978 126.395 137.948 126.349C137.918 126.303 137.897 126.252 137.888 126.198C137.878 126.144 137.88 126.088 137.893 126.035C137.906 125.982 137.93 125.932 137.964 125.888C137.997 125.844 138.039 125.808 138.087 125.781C138.135 125.755 138.188 125.738 138.243 125.733C138.297 125.728 138.353 125.734 138.405 125.751C138.457 125.768 138.505 125.796 138.546 125.832C140.103 127.012 139.952 127.776 139.682 129.157C139.623 129.457 139.557 129.797 139.497 130.192C139.163 132.723 137.103 138.255 137.016 138.489C136.987 138.565 136.936 138.63 136.869 138.676C136.802 138.722 136.723 138.746 136.642 138.746Z" fill="#CE8F61"/>
<path d="M132.174 137.013C132.081 137.012 131.991 136.98 131.92 136.921C131.849 136.861 131.8 136.779 131.783 136.688C131.766 136.597 131.781 136.503 131.825 136.422C131.87 136.341 131.942 136.278 132.028 136.244C133.646 135.604 134.207 132.481 134.286 131.331C134.295 131.227 134.344 131.13 134.423 131.062C134.503 130.993 134.606 130.959 134.711 130.966C134.815 130.973 134.913 131.021 134.982 131.1C135.052 131.178 135.087 131.281 135.082 131.385C135.069 131.574 134.738 136.029 132.321 136.984C132.274 137.003 132.224 137.013 132.174 137.013Z" fill="#CE8F61"/>
<path d="M121.349 140.533C121.25 140.533 121.155 140.496 121.082 140.43C121.009 140.364 120.963 140.273 120.953 140.175C120.771 138.884 120.352 137.639 119.715 136.502C118.374 134.337 116.913 135.092 116.851 135.128C116.758 135.174 116.651 135.182 116.553 135.151C116.454 135.12 116.371 135.052 116.322 134.961C116.273 134.87 116.261 134.764 116.289 134.664C116.316 134.565 116.382 134.48 116.471 134.428C116.492 134.415 118.66 133.285 120.401 136.095C121.099 137.331 121.556 138.689 121.747 140.095C121.752 140.147 121.747 140.2 121.732 140.25C121.717 140.301 121.692 140.347 121.659 140.388C121.626 140.429 121.585 140.462 121.539 140.487C121.493 140.512 121.442 140.527 121.39 140.533C121.376 140.533 121.363 140.534 121.349 140.533Z" fill="#CE8F61"/>
<path d="M126.508 141.649C126.411 141.649 126.318 141.614 126.246 141.551C126.173 141.488 126.126 141.4 126.113 141.305L125.78 138.882C125.771 138.811 125.78 138.739 125.808 138.674C125.836 138.608 125.881 138.551 125.938 138.508C125.995 138.466 126.063 138.439 126.134 138.432C126.205 138.424 126.277 138.436 126.342 138.466C126.386 138.486 130.735 140.476 131.94 140.729C132.038 140.755 132.122 140.819 132.175 140.905C132.228 140.992 132.246 141.095 132.225 141.195C132.204 141.294 132.146 141.381 132.062 141.439C131.979 141.497 131.877 141.521 131.776 141.506C130.773 141.296 127.961 140.065 126.668 139.486L126.903 141.195C126.91 141.247 126.907 141.3 126.893 141.35C126.88 141.401 126.857 141.448 126.826 141.49C126.794 141.532 126.754 141.567 126.709 141.593C126.664 141.619 126.614 141.637 126.562 141.644C126.544 141.647 126.526 141.649 126.508 141.649Z" fill="#CE8F61"/>
<path d="M132.323 62.3429C132.323 62.3429 136.976 77.4807 151.464 76.4183C165.952 75.356 166.75 64.2018 167.547 59.4217C167.547 59.4217 171.601 61.4142 172.996 57.4962C174.39 53.5783 172.266 51.4546 169.274 51.388C166.282 51.3214 161.897 49.9937 157.511 45.0144C153.125 40.035 146.943 32.2666 140.895 37.1138C140.895 37.1138 138.171 36.2507 138.038 39.9684C137.904 43.6862 139.831 54.907 132.322 53.9112C132.322 53.9112 128.301 51.8861 127.154 54.6747C126.008 57.4632 126.275 63.6366 132.323 62.3429Z" fill="#F4A386"/>
<path d="M131.061 58.2595C130.98 58.2595 130.901 58.2351 130.834 58.1893C130.768 58.1436 130.717 58.0788 130.688 58.0034C130.664 57.9476 130.222 56.9965 127.964 57.1627C127.858 57.1706 127.754 57.1363 127.674 57.0674C127.594 56.9985 127.544 56.9007 127.537 56.7954C127.529 56.6901 127.563 56.5859 127.632 56.5059C127.701 56.4259 127.799 56.3766 127.904 56.3687C130.832 56.1505 131.41 57.6618 131.433 57.7264C131.455 57.7866 131.462 57.8513 131.454 57.9148C131.446 57.9784 131.422 58.0389 131.385 58.0914C131.348 58.1439 131.299 58.1867 131.242 58.2163C131.185 58.2458 131.122 58.2611 131.058 58.261L131.061 58.2595Z" fill="#212121"/>
<path d="M129.206 58.9901C129.137 58.9905 129.069 58.9727 129.008 58.9386C128.948 58.9045 128.898 58.8553 128.862 58.7958C128.677 58.4584 128.58 58.0798 128.58 57.6951C128.58 57.3103 128.677 56.9318 128.862 56.5944C128.917 56.506 129.004 56.4423 129.104 56.4169C129.205 56.3915 129.312 56.4064 129.402 56.4584C129.492 56.5103 129.558 56.5953 129.586 56.6953C129.614 56.7952 129.602 56.9021 129.553 56.9934C129.437 57.2086 129.377 57.449 129.377 57.6931C129.377 57.9373 129.437 58.1777 129.553 58.3929C129.588 58.4534 129.607 58.5221 129.607 58.5922C129.607 58.6622 129.589 58.7311 129.554 58.792C129.52 58.8528 129.469 58.9033 129.409 58.9386C129.348 58.9738 129.279 58.9924 129.209 58.9926L129.206 58.9901Z" fill="#212121"/>
<path d="M166.949 56.5003C166.873 56.5002 166.798 56.4784 166.734 56.4374C166.67 56.3964 166.619 56.3379 166.587 56.2689C166.555 56.1999 166.544 56.1232 166.554 56.0478C166.564 55.9725 166.596 55.9017 166.645 55.8437C167.868 54.4068 170.463 54.1866 170.573 54.1779C170.676 54.1732 170.778 54.2088 170.855 54.2773C170.933 54.3457 170.981 54.4415 170.989 54.5446C170.997 54.6477 170.965 54.7499 170.899 54.8296C170.833 54.9093 170.739 54.9604 170.636 54.9719C170.612 54.9719 168.26 55.176 167.253 56.3598C167.215 56.4039 167.169 56.4394 167.116 56.4636C167.064 56.4879 167.007 56.5004 166.949 56.5003Z" fill="#212121"/>
<path d="M169.275 57.0646C169.214 57.0647 169.154 57.0509 169.099 57.0241C169.044 56.9973 168.996 56.9583 168.959 56.91C168.922 56.8618 168.896 56.8057 168.884 56.7459C168.872 56.6862 168.873 56.6245 168.889 56.5655C168.969 56.3448 168.979 56.105 168.918 55.8784C168.857 55.6517 168.728 55.4492 168.548 55.2981C168.463 55.2365 168.406 55.1438 168.388 55.0402C168.371 54.9365 168.395 54.8302 168.455 54.7442C168.515 54.6587 168.607 54.6004 168.71 54.5822C168.813 54.564 168.918 54.5873 169.004 54.647C169.319 54.8904 169.55 55.2245 169.668 55.6041C169.786 55.9836 169.784 56.3902 169.663 56.7686C169.64 56.8539 169.59 56.9292 169.52 56.9827C169.449 57.0363 169.363 57.0651 169.275 57.0646Z" fill="#212121"/>
<path d="M129.199 118.843H122.819V122.76H129.199V118.843Z" fill="white"/>
<path d="M122.819 115.393V109.017C122.819 109.017 125.96 108.104 126.508 107.754C127.056 107.403 128.454 106.857 128.203 104.367C127.903 102.127 122.67 102.424 122.271 105.961L118.084 101.529C118.084 101.529 121.823 95.5032 128.452 95.6534C135.081 95.8036 136.327 101.529 136.178 103.769C136.029 106.009 135.978 108.699 132.237 110.84C130.643 111.686 128.998 112.085 128.948 112.832C128.898 113.58 128.948 115.389 128.948 115.389L122.819 115.393Z" fill="white"/>
<path d="M108.065 69.2144L102.821 77.0816L96.2017 73.191L106.369 66.531L108.065 69.2144Z" fill="#212121"/>
<path d="M106.968 63.3555V61.4797L94.6066 60.3513C94.6066 60.3513 94.0087 65.9276 97.0988 67.0235L106.968 63.3555Z" fill="#212121"/>
<path d="M111.967 24.2406C111.877 24.2399 111.787 24.2235 111.703 24.192C111.521 24.1071 111.366 23.9749 111.253 23.8094C111.14 23.6439 111.073 23.4511 111.061 23.2512C110.976 22.9218 110.914 22.587 110.875 22.2492C110.616 22.1607 110.354 22.0587 110.094 21.9425C109.514 21.7258 109.009 21.3469 108.639 20.8511C106.956 20.9254 105.702 20.87 105.584 20.8642C105.48 20.8578 105.382 20.8105 105.312 20.7325C105.242 20.6545 105.205 20.5521 105.21 20.4475C105.215 20.3428 105.261 20.2444 105.338 20.1734C105.415 20.1024 105.518 20.0646 105.622 20.0682C105.65 20.0682 106.81 20.1212 108.401 20.058C108.401 20.0029 108.404 19.9479 108.41 19.8932C108.45 19.5934 108.559 19.3071 108.73 19.0574C108.116 18.849 107.583 18.4525 107.207 17.9242C106.901 17.4978 106.733 16.9878 106.726 16.4631C106.719 15.9383 106.874 15.4241 107.169 14.99C107.419 14.6746 107.766 14.4504 108.157 14.3524C108.548 14.2543 108.96 14.2878 109.329 14.4476C109.546 14.5264 109.758 14.6061 109.966 14.6867C109.803 13.7408 109.837 12.7714 110.067 11.8395C110.318 11.0877 110.742 10.9896 110.977 11.0022C111.246 11.0139 112.065 11.0508 112.879 14.4476C112.968 14.8189 113.049 15.1787 113.122 15.5269C113.814 14.6632 114.61 13.8886 115.492 13.2211C116.105 12.7599 117.608 11.7326 118.327 12.1568C118.446 12.229 118.54 12.3366 118.594 12.4646C118.649 12.5926 118.662 12.7344 118.632 12.8702C118.599 13.1407 118.581 13.4127 118.579 13.6852C118.573 13.9281 118.566 14.1789 118.54 14.4321C119.079 14.3913 119.372 14.4933 119.513 14.7412C119.649 14.9726 119.735 15.2301 119.764 15.4968C119.793 15.7635 119.766 16.0335 119.684 16.2889C119.37 17.2978 118.241 18.2969 116.327 19.261C116.422 19.4808 116.49 19.7116 116.527 19.9482C116.593 20.3326 116.549 20.7277 116.401 21.0885C116.253 21.4494 116.006 21.7614 115.689 21.9892C115.556 22.0906 115.414 22.1799 115.264 22.256C115.351 22.3191 115.439 22.3808 115.529 22.4421C115.572 22.4716 115.609 22.5094 115.638 22.5532C115.666 22.5971 115.686 22.6461 115.696 22.6975C115.705 22.749 115.705 22.8018 115.694 22.853C115.683 22.9043 115.663 22.9529 115.633 22.9961C115.603 23.0393 115.566 23.0762 115.522 23.1048C115.478 23.1334 115.429 23.1531 115.377 23.1628C115.326 23.1725 115.273 23.1719 115.222 23.1611C115.17 23.1504 115.122 23.1296 115.078 23.1001C114.829 22.9297 114.591 22.7531 114.362 22.5704C114.024 22.6408 113.68 22.6764 113.335 22.6768C113.216 23.1633 112.969 23.609 112.618 23.967C112.443 24.1356 112.21 24.2331 111.967 24.2406ZM111.716 22.4878C111.749 22.6802 111.79 22.8746 111.84 23.0709L111.849 23.1146C111.883 23.3513 111.96 23.4368 111.979 23.447C112.071 23.4003 112.148 23.3296 112.203 23.2424C112.337 23.0549 112.442 22.8483 112.515 22.6297C112.247 22.5962 111.98 22.5488 111.716 22.4878ZM113.522 21.8332C113.522 21.8468 113.517 21.8609 113.515 21.8745H113.564L113.522 21.8332ZM111.632 21.6471C111.987 21.7442 112.35 21.8125 112.716 21.8512C112.758 21.6189 112.791 21.3652 112.813 21.0829C112.643 20.8856 112.481 20.6839 112.327 20.4808C112.111 20.5167 111.895 20.5499 111.678 20.5804C111.635 20.9343 111.619 21.2912 111.632 21.6475V21.6471ZM113.63 20.7976C113.918 21.1136 114.224 21.412 114.548 21.6913C114.783 21.6162 115.004 21.5033 115.202 21.3569C115.405 21.2151 115.563 21.0186 115.658 20.7904C115.753 20.5621 115.78 20.3116 115.738 20.0682C115.711 19.9071 115.664 19.7501 115.598 19.6007C114.967 19.8573 114.316 20.0632 113.652 20.2164C113.648 20.4182 113.64 20.612 113.63 20.7976ZM109.674 20.7898C109.906 20.9592 110.156 21.1012 110.42 21.2131C110.559 21.2743 110.696 21.331 110.831 21.3832C110.831 21.1473 110.842 20.9134 110.866 20.6815C110.46 20.7242 110.061 20.7616 109.674 20.7898ZM109.558 19.2571C109.438 19.4025 109.339 19.5652 109.267 19.7397C109.228 19.8273 109.206 19.9212 109.201 20.0167C109.771 19.9822 110.375 19.9321 110.99 19.8607C111.032 19.6553 111.081 19.452 111.136 19.2508C110.613 19.3235 110.082 19.3256 109.558 19.2571ZM112.31 19.0171C112.428 19.2137 112.553 19.4096 112.686 19.6046L112.844 19.574C112.836 19.3504 112.823 19.1173 112.805 18.8747L112.603 18.9349C112.504 18.9641 112.406 18.9915 112.31 19.0171ZM113.584 18.6283C113.607 18.8962 113.623 19.1536 113.633 19.4005C114.162 19.2724 114.681 19.1081 115.186 18.9087C115.011 18.6761 114.817 18.458 114.607 18.2565C114.292 18.379 113.952 18.5029 113.584 18.6264V18.6283ZM115.398 17.9203C115.593 18.1222 115.771 18.3386 115.933 18.5676C118.083 17.4917 118.746 16.6111 118.92 16.0537C119.012 15.7805 118.992 15.4821 118.864 15.2237C118.699 15.2074 118.534 15.2138 118.371 15.2427C118.075 16.1198 117.331 17.0271 115.398 17.9183V17.9203ZM110.939 18.1117C110.733 18.2434 110.54 18.3761 110.363 18.5102C110.608 18.506 110.854 18.4868 111.097 18.4529C111.043 18.3372 110.99 18.2235 110.939 18.1098V18.1117ZM108.555 15.1042C108.409 15.101 108.264 15.1332 108.132 15.198C108.001 15.2628 107.887 15.3583 107.8 15.4764C107.609 15.7772 107.512 16.1289 107.524 16.4853C107.536 16.8417 107.656 17.1862 107.867 17.4737C108.208 17.9478 108.715 18.2772 109.287 18.397C109.7 18.0084 110.152 17.663 110.636 17.3663C110.423 16.7931 110.252 16.2051 110.124 15.6071C109.789 15.4711 109.434 15.3348 109.059 15.1984C108.898 15.138 108.727 15.1055 108.555 15.1022V15.1042ZM112.674 17.6404C112.581 17.8095 112.492 17.9841 112.406 18.1642L112.727 18.067C112.711 17.9256 112.693 17.7837 112.674 17.6384V17.6404ZM113.434 17.3167C113.458 17.4873 113.482 17.654 113.5 17.8177C113.646 17.7691 113.787 17.7205 113.923 17.669C113.772 17.5519 113.61 17.4343 113.434 17.3148V17.3167ZM111.634 17.7001C111.65 17.7371 111.666 17.774 111.682 17.8109C111.712 17.7482 111.742 17.6856 111.773 17.6234C111.726 17.6467 111.679 17.6724 111.633 17.6982L111.634 17.7001ZM113.851 16.6446C114.171 16.8584 114.479 17.0891 114.775 17.3357C116.289 16.6923 117.032 16.0663 117.402 15.4404C116.191 15.7589 115.005 16.1605 113.85 16.6422L113.851 16.6446ZM111.039 16.0007C111.122 16.3113 111.221 16.6301 111.337 16.9532C111.594 16.8108 111.861 16.6719 112.133 16.5377C111.799 16.3595 111.435 16.1799 111.038 15.9988L111.039 16.0007ZM110.823 15.0381C111.369 15.272 111.879 15.513 112.353 15.7612C112.279 15.3986 112.196 15.0232 112.103 14.6347C111.563 12.3799 111.082 11.9027 110.958 11.8162C110.722 12.2629 110.621 12.7685 110.667 13.2716C110.663 13.8634 110.715 14.4542 110.822 15.0361L110.823 15.0381ZM117.828 12.8513C117.359 12.9101 116.026 13.6196 114.626 15.0381C114.45 15.2174 114.24 15.4419 114.015 15.7067C115.188 15.2357 116.396 14.8563 117.628 14.572L117.715 14.5541C117.758 14.259 117.78 13.9614 117.78 13.6633C117.786 13.3989 117.793 13.1268 117.827 12.8518L117.828 12.8513Z" fill="#212121"/>
<path d="M127.273 11.9966C127.134 11.9967 126.999 11.9484 126.892 11.8603C126.785 11.7721 126.712 11.6494 126.685 11.5133C126.659 11.3771 126.68 11.236 126.746 11.1141C126.813 10.9922 126.919 10.897 127.048 10.8449L131.434 9.07313C131.508 9.03839 131.588 9.01903 131.669 9.01622C131.75 9.01342 131.832 9.02724 131.907 9.05683C131.983 9.08642 132.052 9.13117 132.11 9.18832C132.168 9.24547 132.214 9.31382 132.244 9.3892C132.275 9.46457 132.289 9.54538 132.287 9.62667C132.286 9.70795 132.267 9.788 132.233 9.86191C132.199 9.93583 132.151 10.002 132.09 10.0565C132.03 10.111 131.959 10.1526 131.882 10.1787L127.496 11.951C127.425 11.9803 127.349 11.9958 127.273 11.9966Z" fill="#212121"/>
<path d="M118.366 5.31148C118.261 5.3112 118.158 5.28332 118.067 5.23064C117.976 5.17796 117.901 5.10232 117.848 5.01133C117.796 4.92034 117.769 4.81719 117.769 4.71224C117.769 4.6073 117.797 4.50424 117.849 4.41343L120.242 0.297393C120.28 0.22664 120.332 0.164225 120.394 0.113866C120.457 0.0635079 120.529 0.0262362 120.606 0.00427509C120.683 -0.0176861 120.764 -0.0238881 120.844 -0.0139623C120.923 -0.0040365 121 0.0218142 121.07 0.0620497C121.139 0.102285 121.2 0.156082 121.248 0.220234C121.296 0.284385 121.331 0.357581 121.35 0.435455C121.37 0.513329 121.373 0.594288 121.36 0.67351C121.348 0.752732 121.319 0.828595 121.277 0.896576L118.884 5.01261C118.832 5.10346 118.756 5.17891 118.665 5.23137C118.574 5.28383 118.471 5.31146 118.366 5.31148Z" fill="#212121"/>
<path d="M104.41 8.3655C104.29 8.36545 104.172 8.32916 104.073 8.26137C103.973 8.19357 103.897 8.09743 103.853 7.98549L102.656 4.93174C102.627 4.85864 102.613 4.7806 102.615 4.70207C102.616 4.62355 102.633 4.54607 102.665 4.47408C102.696 4.40208 102.741 4.33697 102.798 4.28246C102.855 4.22795 102.921 4.18512 102.995 4.1564C103.068 4.12769 103.146 4.11365 103.224 4.11509C103.303 4.11653 103.381 4.13343 103.453 4.16482C103.525 4.1962 103.59 4.24146 103.645 4.29801C103.699 4.35455 103.742 4.42128 103.771 4.49438L104.967 7.54813C105.002 7.63872 105.015 7.73655 105.004 7.83315C104.993 7.92975 104.959 8.02221 104.904 8.10253C104.849 8.18284 104.775 8.24858 104.689 8.29406C104.603 8.33955 104.507 8.3634 104.41 8.36356V8.3655Z" fill="#212121"/>
<path d="M95.1043 21.0647C94.9573 21.0644 94.8156 21.0101 94.7061 20.9122C94.5967 20.8142 94.5272 20.6794 94.5108 20.5335C94.4944 20.3876 94.5324 20.2408 94.6175 20.1211C94.7025 20.0014 94.8287 19.9171 94.972 19.8843L98.8263 19.0052C98.903 18.9878 98.9823 18.9855 99.0598 18.9987C99.1374 19.0118 99.2115 19.0401 99.2781 19.0819C99.3447 19.1237 99.4024 19.1782 99.4479 19.2422C99.4934 19.3063 99.5259 19.3787 99.5434 19.4552C99.5609 19.5318 99.5631 19.6111 99.5499 19.6885C99.5368 19.766 99.5085 19.8401 99.4666 19.9066C99.4248 19.9731 99.3703 20.0307 99.3061 20.0762C99.242 20.1217 99.1695 20.154 99.0929 20.1715L95.2381 21.0506C95.1941 21.0603 95.1493 21.065 95.1043 21.0647Z" fill="#212121"/>
<path d="M106.968 33.7277C106.902 33.7276 106.836 33.7166 106.774 33.6952C106.624 33.6436 106.5 33.5346 106.431 33.3922C106.361 33.2497 106.351 33.0855 106.403 32.9356L107.499 29.7487C107.552 29.6011 107.662 29.4802 107.804 29.4124C107.945 29.3446 108.108 29.3352 108.257 29.3863C108.405 29.4373 108.528 29.5447 108.598 29.6853C108.668 29.8259 108.68 29.9883 108.631 30.1375L107.534 33.3244C107.494 33.442 107.417 33.5441 107.316 33.6164C107.214 33.6887 107.093 33.7276 106.968 33.7277Z" fill="#212121"/>
<path d="M122.886 29.611C122.799 29.6111 122.713 29.5921 122.634 29.5554C122.554 29.5187 122.484 29.4652 122.428 29.3986L120.302 26.8755C120.248 26.8158 120.208 26.7462 120.182 26.6705C120.156 26.5949 120.146 26.515 120.152 26.4353C120.158 26.3557 120.179 26.278 120.216 26.2069C120.252 26.1357 120.302 26.0726 120.363 26.0211C120.424 25.9697 120.495 25.931 120.572 25.9074C120.648 25.8838 120.728 25.8757 120.808 25.8835C120.887 25.8914 120.965 25.9152 121.035 25.9533C121.105 25.9915 121.167 26.0433 121.217 26.1058L123.343 28.6284C123.417 28.7153 123.464 28.8215 123.479 28.9343C123.494 29.0472 123.477 29.162 123.429 29.2653C123.381 29.3685 123.304 29.4559 123.208 29.5172C123.112 29.5784 123 29.611 122.886 29.611Z" fill="#212121"/>
<path d="M298.873 186.963H0.598364C0.439733 186.963 0.287598 186.9 0.175429 186.788C0.0632597 186.676 0.000244141 186.524 0.000244141 186.365C0.000244141 186.207 0.0632597 186.055 0.175429 185.943C0.287598 185.831 0.439733 185.768 0.598364 185.768H298.873C299.032 185.768 299.184 185.831 299.296 185.943C299.408 186.055 299.471 186.207 299.471 186.365C299.471 186.524 299.408 186.676 299.296 186.788C299.184 186.9 299.032 186.963 298.873 186.963Z" fill="#212121"/>
</svg>
