<svg width="320" height="209" viewBox="0 0 320 209" fill="none" xmlns="http://www.w3.org/2000/svg">
<g clip-path="url(#clip0_7243_60432)">
<path d="M44.009 26.8502C80.9814 -2.67801 128.836 7.6617 130.822 8.12456C161.06 15.1496 159.701 30.9103 192.673 42.7389C240.794 60.0002 266.081 34.4596 293.678 54.0875C315.244 69.4259 324.286 102.438 318.077 127.287C306.601 173.253 240.816 199.944 190.971 193.677C143.379 187.694 130.837 154.246 78.0496 155.091C43.912 155.639 32.2647 169.899 19.0359 160.766C-6.35854 143.231 -2.2941 63.8289 44.009 26.8502Z" fill="#E6F6EC"/>
<path d="M259.879 36.3687H62.885C57.2288 36.3687 52.6434 40.954 52.6434 46.6102V173.117C52.6434 178.774 57.2288 183.359 62.885 183.359H259.879C265.536 183.359 270.121 178.774 270.121 173.117V46.6102C270.121 40.954 265.536 36.3687 259.879 36.3687Z" fill="white"/>
<path d="M261.737 36.8752H62.4254C57.2326 36.6758 52.9432 40.2208 53.0978 46.221V49.4717L269.687 49.2722V45.5672C269.687 40.9642 266.059 36.8752 261.737 36.8752Z" fill="#E6E6E6"/>
<path d="M144.623 115.268H72.9677C71.593 115.268 70.4785 116.383 70.4785 117.758V139.919C70.4785 141.294 71.593 142.409 72.9677 142.409H144.623C145.997 142.409 147.112 141.294 147.112 139.919V117.758C147.112 116.383 145.997 115.268 144.623 115.268Z" fill="#069550"/>
<path d="M93.2195 129.226C93.2195 130.682 92.7875 132.107 91.9781 133.318C91.1686 134.529 90.0182 135.474 88.6721 136.031C87.3261 136.589 85.845 136.735 84.4161 136.45C82.9872 136.166 81.6746 135.465 80.6444 134.434C79.6142 133.404 78.9127 132.092 78.6284 130.663C78.3442 129.234 78.4901 127.753 79.0476 126.407C79.6051 125.061 80.5493 123.91 81.7607 123.101C82.9721 122.291 84.3963 121.859 85.8532 121.859C86.8205 121.859 87.7784 122.05 88.6721 122.42C89.5659 122.79 90.3779 123.333 91.062 124.017C91.746 124.701 92.2886 125.513 92.6588 126.407C93.029 127.3 93.2195 128.258 93.2195 129.226Z" fill="white"/>
<path d="M99.4233 130.001H138.195" stroke="white" stroke-miterlimit="10"/>
<path d="M99.4233 124.984H118.001" stroke="white" stroke-miterlimit="10"/>
<path d="M99.4233 134.653H138.195" stroke="white" stroke-miterlimit="10"/>
<path d="M257.962 65.4596V61.7546C257.962 61.1999 257.852 60.6506 257.64 60.1381C257.428 59.6257 257.117 59.16 256.724 58.7679C256.332 58.3757 255.866 58.0646 255.354 57.8524C254.841 57.6402 254.292 57.5311 253.737 57.5313H173.058C172.503 57.5311 171.954 57.6402 171.441 57.8524C170.929 58.0646 170.463 58.3757 170.071 58.7679C169.678 59.16 169.367 59.6257 169.155 60.1381C168.943 60.6506 168.833 61.1999 168.833 61.7546V97.9089L257.962 65.4596Z" fill="#FFB900"/>
<path d="M200.604 58.2103L185.49 64.2502L198.284 96.2661L213.398 90.2263L200.604 58.2103Z" fill="#FFB900"/>
<path d="M252.382 57.5312H174.413C171.331 57.5312 168.833 60.0295 168.833 63.1112V155.727C168.833 158.809 171.331 161.307 174.413 161.307H252.382C255.463 161.307 257.962 158.809 257.962 155.727V63.1112C257.962 60.0295 255.463 57.5312 252.382 57.5312Z" stroke="#B3B3B3" stroke-miterlimit="10"/>
<path d="M195.068 69.9205L179.955 75.9603L192.749 107.976L207.863 101.936L195.068 69.9205Z" fill="#FFB900"/>
<path d="M189.895 82.0914L174.781 88.1312L180.821 103.245L195.935 97.2051L189.895 82.0914Z" fill="#FFB900"/>
<path d="M247.819 62.1244L232.705 68.1642L241.301 89.6756L256.415 83.6357L247.819 62.1244Z" fill="#FFB900"/>
<path d="M147.112 57.5312H70.7324V68.626H147.112V57.5312Z" fill="#E6E6E6"/>
<path d="M147.112 149.377H70.7324V153.658H147.112V149.377Z" fill="#E6E6E6"/>
<path d="M147.112 157.354H70.7324V161.635H147.112V157.354Z" fill="#E6E6E6"/>
<path d="M144.623 81.1489H72.9677C71.593 81.1489 70.4785 82.2633 70.4785 83.6381V105.8C70.4785 107.175 71.593 108.289 72.9677 108.289H144.623C145.997 108.289 147.112 107.175 147.112 105.8V83.6381C147.112 82.2633 145.997 81.1489 144.623 81.1489Z" stroke="#B3B3B3" stroke-miterlimit="10" stroke-dasharray="7 7"/>
<path d="M250.541 45.5032C251.521 45.5032 252.316 44.7087 252.316 43.7286C252.316 42.7485 251.521 41.9539 250.541 41.9539C249.561 41.9539 248.766 42.7485 248.766 43.7286C248.766 44.7087 249.561 45.5032 250.541 45.5032Z" fill="#FFA320"/>
<path d="M256.464 45.5032C257.444 45.5032 258.239 44.7087 258.239 43.7286C258.239 42.7485 257.444 41.9539 256.464 41.9539C255.484 41.9539 254.69 42.7485 254.69 43.7286C254.69 44.7087 255.484 45.5032 256.464 45.5032Z" fill="#FF7500"/>
<path d="M262.388 45.5032C263.368 45.5032 264.162 44.7087 264.162 43.7286C264.162 42.7485 263.368 41.9539 262.388 41.9539C261.408 41.9539 260.613 42.7485 260.613 43.7286C260.613 44.7087 261.408 45.5032 262.388 45.5032Z" fill="#069550"/>
<path d="M240.872 46.6572H61.8506C60.9256 46.6572 60.0386 46.2897 59.3846 45.6357C58.7305 44.9817 58.3631 44.0946 58.3631 43.1697C58.3631 42.2448 58.7305 41.3577 59.3846 40.7037C60.0386 40.0497 60.9256 39.6823 61.8506 39.6823H240.872C241.797 39.6823 242.684 40.0497 243.338 40.7037C243.992 41.3577 244.36 42.2448 244.36 43.1697C244.36 44.0946 243.992 44.9817 243.338 45.6357C242.684 46.2897 241.797 46.6572 240.872 46.6572Z" fill="white"/>
<path d="M259.879 36.3687H62.885C57.2288 36.3687 52.6434 40.954 52.6434 46.6102V173.117C52.6434 178.774 57.2288 183.359 62.885 183.359H259.879C265.536 183.359 270.121 178.774 270.121 173.117V46.6102C270.121 40.954 265.536 36.3687 259.879 36.3687Z" stroke="#B3B3B3" stroke-miterlimit="10"/>
<path d="M115.932 81.1489H44.2767C42.902 81.1489 41.7875 82.2633 41.7875 83.6381V105.8C41.7875 107.175 42.902 108.289 44.2767 108.289H115.932C117.306 108.289 118.421 107.175 118.421 105.8V83.6381C118.421 82.2633 117.306 81.1489 115.932 81.1489Z" fill="#069550"/>
<path d="M64.5243 95.1072C64.5243 96.5642 64.0922 97.9883 63.2828 99.1997C62.4734 100.411 61.3229 101.355 59.9769 101.913C58.6309 102.47 57.1498 102.616 55.7208 102.332C54.2919 102.048 52.9794 101.346 51.9492 100.316C50.919 99.2858 50.2174 97.9733 49.9332 96.5443C49.6489 95.1154 49.7948 93.6343 50.3524 92.2883C50.9099 90.9422 51.8541 89.7918 53.0654 88.9824C54.2768 88.1729 55.701 87.7409 57.1579 87.7409C59.1116 87.7409 60.9853 88.517 62.3667 89.8985C63.7482 91.2799 64.5243 93.1536 64.5243 95.1072Z" fill="white"/>
<path d="M70.7323 95.8826H109.504" stroke="white" stroke-miterlimit="10"/>
<path d="M70.7323 90.8657H89.3107" stroke="white" stroke-miterlimit="10"/>
<path d="M70.7323 100.535H109.504" stroke="white" stroke-miterlimit="10"/>
<path d="M33.6608 194.413C36.1196 195.102 38.5157 195.997 40.8235 197.09C42.7144 198.142 42.9511 199.016 40.6102 199.022C37.7167 199.082 34.8224 198.953 31.9459 198.634C30.5061 198.409 31.1055 195.024 31.3476 194.446L33.6608 194.413Z" fill="#FFA320"/>
<path d="M33.2385 194.42L33.727 192.55L31.2378 192.844L31.3508 194.444L33.2385 194.42Z" fill="#FFC69A"/>
<path d="M42.2739 198.582C39.1131 198.531 35.9572 198.312 32.8194 197.928C32.155 197.782 31.5393 197.468 31.0309 197.016C31.0799 197.828 31.3188 198.536 31.9502 198.634C34.8267 198.953 37.721 199.082 40.6144 199.022C41.6244 199.019 42.1513 198.854 42.2739 198.582Z" fill="#069550"/>
<path d="M22.2813 129.238C22.2813 129.238 21.6819 126.409 26.719 122.644C29.4446 120.652 32.0357 118.482 34.4757 116.148L39.2482 99.6174L40.9056 100.4C40.9056 100.4 41.0122 113.373 40.2827 117.225C39.5533 121.078 23.5931 137.778 22.2813 129.238Z" fill="#DAA184"/>
<path d="M35.3673 112.069L40.7861 112.857L40.5824 117.385C40.5824 117.385 32.6626 129.743 27.5061 131.692C22.3496 133.642 19.2546 130.632 20.5173 128.48C21.7801 126.328 33.6353 116.275 33.6353 116.275L35.3673 112.069Z" fill="#FFA320"/>
<path d="M40.9052 114.053L41.3279 111.376L34.9145 110.363L34.4918 113.041L40.9052 114.053Z" fill="#FFB900"/>
<path d="M40.9003 104.161C40.9003 104.161 37.7701 96.5001 38.6883 95.6191C38.6883 95.6191 41.6148 100.555 42.5011 102.638" fill="#DAA184"/>
<path d="M3.96628 189.722C5.70145 191.595 7.27449 193.612 8.66847 195.752C9.73497 197.636 9.47368 198.506 7.47933 197.288C4.98262 195.825 2.58459 194.2 0.300713 192.423C-0.809513 191.478 1.47387 188.904 1.98152 188.541L3.96628 189.722Z" fill="#FFB900"/>
<path d="M3.60364 189.506L4.99863 188.169L2.72378 187.117L1.97723 188.542L3.60364 189.506Z" fill="#FFC69A"/>
<path d="M32.0803 148.53L22.2098 143.027C22.2098 143.027 23.8672 163.841 30.1723 173.037C30.1723 173.037 30.2203 189.781 31.322 193.394L33.6299 193.337C33.6299 193.337 37.1579 174.288 36.8294 171.253C36.2236 165.666 35.6381 157.623 32.0803 148.53Z" fill="#069550"/>
<path d="M21.6222 110.198C21.6222 110.198 17.6761 112.136 17.3562 119.406C17.0362 126.677 15.7842 126.947 15.7842 126.947C17.5353 127.847 19.476 128.317 21.4452 128.317C23.4143 128.317 25.355 127.847 27.1061 126.947L21.6222 110.198Z" fill="#411809"/>
<path d="M26.3895 110.88C27.9504 112.494 28.822 114.653 28.82 116.899C28.9064 119.31 25.2046 119.637 23.1057 118.465C22.165 117.944 21.3964 117.16 20.8941 116.21C20.3918 115.259 20.1775 114.182 20.2773 113.112C20.7381 110.538 24.2735 108.943 26.3895 110.88Z" fill="#FFC69A"/>
<path d="M24.2276 113.834L20.337 114.438L21.7981 123.849C21.899 124.497 22.2526 125.077 22.7814 125.464C23.3101 125.85 23.9707 126.011 24.618 125.911C24.9601 125.858 25.2872 125.733 25.5781 125.545C25.8689 125.357 26.117 125.11 26.3063 124.82C26.4955 124.53 26.6217 124.203 26.6766 123.861C26.7315 123.52 26.714 123.17 26.6251 122.835L24.2276 113.834Z" fill="#FFC69A"/>
<path d="M24.6372 110.384C24.6372 110.384 25.5971 115.649 20.3317 116.941C16.6523 117.842 16.7568 108.685 21.9496 108.494C29.2487 108.226 27.6021 112.423 27.6021 112.423C27.6021 112.423 25.8509 109.852 24.6372 110.384Z" fill="#411809"/>
<path d="M25.8381 119.879L22.8807 118.579L25.6333 119.077L25.8381 119.879Z" fill="#DAA184"/>
<path d="M30.2203 144.214L18.2009 147.414C18.2009 147.414 14.8201 152 16.0604 169.858C16.0604 169.858 5.56499 178.685 2.63531 187.274L4.58061 188.545C4.58061 188.545 19.3612 175.341 21.4366 173.103C23.929 170.412 28.7475 161.468 30.2203 144.214Z" fill="#069550"/>
<path d="M28.949 123.758C28.8273 123.229 28.5756 122.738 28.2168 122.331C27.858 121.923 27.4033 121.612 26.8939 121.424C24.6703 120.608 19.2524 120.571 19.2023 127.883C19.1031 142.281 18.2009 147.409 18.2009 147.409C18.2009 147.409 21.0868 149.921 32.0803 148.53L30.632 139.438L31.9118 136.645C32.7382 134.429 32.6558 131.976 31.6825 129.82L28.949 123.758Z" fill="#FFB900"/>
<path d="M24.4815 129.819C24.4815 129.819 23.8821 126.989 28.9192 123.224C31.6447 121.231 34.2359 119.061 36.6759 116.727L41.4484 100.197L43.1058 100.979C43.1058 100.979 43.2124 113.952 42.4829 117.804C41.7535 121.657 25.7922 138.363 24.4815 129.819Z" fill="#FFC69A"/>
<path d="M41.0709 101.739C41.0709 101.739 39.9692 97.0802 40.8875 96.1993C40.8875 96.1993 41.7855 98.1339 42.6717 100.217C42.949 100.868 45.7646 102.901 44.3141 102.686C43.2044 102.478 42.118 102.161 41.0709 101.739Z" fill="#FFC69A"/>
<path d="M27.1072 111.778C27.7086 112.42 28.4412 112.926 29.2551 113.26C29.1164 113.783 28.7884 114.236 28.3347 114.531L27.1072 111.778Z" fill="#FFC69A"/>
<path d="M9.12389 197.782C6.45782 196.084 3.88294 194.246 1.4099 192.277C0.921097 191.804 0.560703 191.214 0.3626 190.563C-0.0202737 191.28 -0.186654 192.008 0.29967 192.423C2.58411 194.2 4.98247 195.825 7.47935 197.289C8.34108 197.814 8.87753 197.95 9.12389 197.782Z" fill="#069550"/>
<path d="M2.16071 188.648C2.16071 188.648 4.78749 193.19 5.95531 192.016L4.01321 189.113L2.16071 188.648Z" fill="#FFC69A"/>
<path d="M31.6281 194.372C31.6281 194.372 36.2343 196.955 36.5639 195.332L33.3441 193.975L31.6281 194.372Z" fill="#FFC69A"/>
<path d="M37.962 112.273L42.9053 113.18L42.6066 118.888C42.6066 118.888 35.2574 129.946 30.0998 131.899C24.9422 133.853 21.8483 130.838 23.1121 128.687C24.3759 126.536 36.23 116.481 36.23 116.481L37.962 112.273Z" fill="#FFB900"/>
<path d="M43.4998 114.258L43.9227 111.579L37.5078 110.566L37.0849 113.245L43.4998 114.258Z" fill="#FFB900"/>
<path d="M32.0803 148.53L33.3686 152.156L25.0659 161.315L25.8455 148.944C27.9313 148.966 30.0157 148.828 32.0803 148.53Z" fill="#069550"/>
<path d="M22.4434 168.497C20.7487 170.242 20.2112 171.032 19.9723 172.057C19.7782 172.894 19.9883 173.004 19.759 173.511C19.1191 174.897 17.3114 174.609 15.1091 175.618C13.4955 176.357 12.4343 177.538 10.3098 179.905C9.25614 181.078 9.35 181.147 7.62227 183.317C5.57246 185.894 4.32785 187.198 3.74341 187.991L4.58167 188.539C4.58167 188.539 19.3623 175.335 21.4377 173.097C23.2779 170.833 24.7139 168.269 25.6824 165.518C25.3976 165.459 24.3972 166.485 22.4434 168.497Z" fill="#006430"/>
<path d="M30.4507 193.498H34.3264V191.969H30.4507V193.498Z" fill="#069550"/>
<path d="M1.56445 187.352L4.92084 189.29L5.68607 187.964L2.32969 186.027L1.56445 187.352Z" fill="#069550"/>
<path d="M17.1888 116.059L26.0588 109.053C25.6041 108.455 25.0349 107.955 24.3845 107.58C23.734 107.205 23.0154 106.963 22.2706 106.869C21.5257 106.775 20.7696 106.83 20.0463 107.031C19.323 107.232 18.647 107.575 18.0578 108.041C17.4687 108.506 16.9781 109.084 16.6148 109.741C16.2515 110.398 16.0227 111.121 15.9418 111.867C15.8609 112.614 15.9295 113.369 16.1436 114.088C16.3577 114.808 16.713 115.478 17.1888 116.059Z" fill="#FFB900"/>
<path d="M20.0256 107.138C19.1386 107.398 18.329 107.872 17.668 108.518C17.007 109.164 16.5148 109.963 16.2346 110.844C15.9545 111.725 15.895 112.661 16.0613 113.57C16.2277 114.479 16.6149 115.334 17.1888 116.059L19.4977 114.235C18.7573 113.171 18.4056 111.885 18.5017 110.593C18.5979 109.301 19.136 108.081 20.0256 107.138Z" fill="#FFA320"/>
<path d="M27.1189 107.416L16.614 115.253L17.5795 116.548L28.0844 108.711L27.1189 107.416Z" fill="#FFA320"/>
<path d="M31.915 136.645C32.61 134.772 32.6603 132.721 32.0579 130.817C29.3754 131.849 26.4258 131.958 23.6742 131.128C21.8611 124.629 24.7044 121.728 25.4499 121.103C24.6813 121.018 23.9037 121.075 23.1558 121.272C22.02 122.899 20.8479 125.827 21.8313 130.404C20.8757 129.957 19.9884 129.376 19.1959 128.68C19.069 142.461 17.8532 148.041 17.8532 148.041C17.8532 148.041 21.0868 149.921 32.0803 148.53L30.632 139.438L31.915 136.645Z" fill="#069550"/>
<path d="M36.8283 171.253C36.2236 165.67 35.6381 157.623 32.0803 148.53L30.632 139.438L31.9118 136.645C32.6068 134.773 32.6571 132.721 32.0547 130.817C31.5077 131.013 30.9497 131.176 30.3835 131.306C30.6725 133.327 30.3872 135.388 29.5601 137.254C28.9972 138.249 28.6043 139.33 28.3976 140.454C28.2029 141.815 28.3022 143.203 28.6888 144.522C29.9291 149.334 31.1588 152.805 31.1588 152.806C32.8737 157.643 33.7301 160.058 33.7749 161.231C33.9402 165.636 31.931 168.11 33.6288 170.387C34.4458 171.48 35.5912 171.823 35.6637 173.002C35.733 174.122 34.7444 174.505 34.064 175.908C33.1372 177.828 33.9573 179.215 34.064 182.012C34.1706 184.852 33.3835 185.19 33.0465 188.261C32.8734 189.953 32.8648 191.658 33.0209 193.352L33.6256 193.337C33.6256 193.337 37.1579 174.288 36.8283 171.253Z" fill="#006430"/>
<path d="M95.793 196.647H76.7891L82.9747 165.331H89.602L95.793 196.647Z" fill="#FF7500"/>
<path d="M99.4116 195.092H72.2948V198.329H99.4116V195.092Z" fill="#FF7500"/>
<path d="M95.793 196.647H76.7891L82.9747 165.331H89.602L95.793 196.647Z" fill="#FF7500"/>
<path d="M80.3575 178.601H92.2277L91.2593 173.695H81.327L80.3575 178.601Z" fill="white"/>
<path d="M78.0901 190.078H94.4929L93.5245 185.172H79.0585L78.0901 190.078Z" fill="white"/>
<path d="M299.633 191.991C299.633 191.991 292.192 196.083 289.744 196.113C287.297 196.143 289.105 197.193 291.771 197.442C294.729 197.466 297.682 197.171 300.577 196.561C300.866 196.385 301.128 196.17 301.358 195.921L301.525 196.5C301.954 196.5 302.382 196.465 302.805 196.394C302.753 194.906 302.578 193.426 302.279 191.968L299.633 191.991Z" fill="#069550"/>
<path d="M299.633 191.991L299.732 190.003L302.372 190.134L302.28 191.973L299.633 191.991Z" fill="#FFB780"/>
<path d="M299.543 132.377L308.352 133.884C308.352 133.884 305.667 157.431 302.886 166.602C302.886 166.602 304.71 182.378 302.758 190.906L299.268 191.073C299.268 191.073 296.297 170.903 295.489 167.503C294.519 163.412 295.723 153.544 299.543 132.377Z" fill="#069550"/>
<path d="M298.498 189.09L298.764 191.373L303.137 191.266L303.374 189.216L298.498 189.09Z" fill="#069550"/>
<path d="M310.033 192.796C310.033 192.796 302.593 196.889 300.144 196.918C297.695 196.948 299.504 197.998 302.17 198.247C305.129 198.27 308.081 197.975 310.976 197.366C311.265 197.19 311.528 196.975 311.757 196.727L311.925 197.307C312.353 197.307 312.781 197.271 313.204 197.2C313.153 195.713 312.977 194.232 312.679 192.774L310.033 192.796Z" fill="#069550"/>
<path d="M310.033 192.796L310.132 190.807L312.771 190.939L312.68 192.777L310.033 192.796Z" fill="#FFB780"/>
<path d="M303.819 133.769L313.159 141.046C313.159 141.046 316.229 145.578 311.535 166.863C313.997 174.894 314.501 183.398 313.003 191.663L309.547 192.186C309.547 192.186 305.376 170.492 304.224 167.188C302.842 163.22 301.732 152.203 303.819 133.769Z" fill="#069550"/>
<path d="M308.677 190.081L309.123 192.336L313.47 191.881L313.543 189.819L308.677 190.081Z" fill="#069550"/>
<path d="M303.137 140.903L298.066 140.768L297.256 145.638L304.598 158.223L303.137 140.903Z" fill="#069550"/>
<path d="M308.539 114.67C308.539 114.67 305.073 111.542 300.854 117.834C298.75 121.084 296.415 124.178 293.866 127.093L277.834 118.253L276.16 121.659C276.16 121.659 290.603 138.18 295.193 137.069C299.783 135.957 318.898 115.722 308.539 114.67Z" fill="#FFB900"/>
<path d="M276.269 121.777C276.269 121.777 268.503 115.797 272.204 116.851C273.883 117.33 275.358 118.602 275.949 118.075C276.54 117.549 275.297 117.086 275.083 115.942C274.891 114.91 278.543 118.789 278.543 118.789L276.269 121.777Z" fill="#FFB780"/>
<path opacity="0.1" d="M281.682 123.416L288.335 129.627L280.812 126.107L281.682 123.416Z" fill="black"/>
<g opacity="0.1">
<path opacity="0.1" d="M293.351 133.154L301.367 125.891V127.81L297.359 134.223L293.351 133.154Z" fill="black"/>
</g>
<path d="M275.275 121.661L276.922 122.904L279.985 119.172L278.338 117.928L275.275 121.661Z" fill="#FFB900"/>
<path d="M305.201 112.141C307.88 111.159 315.473 110.515 316.642 116.999C317.708 122.919 315.454 128.071 314.568 132.273C314.113 134.757 313.79 137.264 313.598 139.783C313.598 139.783 308.626 145.659 299.375 143.026L299.971 132.967L300.605 127.397C300.091 121.071 300.242 120.298 301.367 117.117C301.838 115.787 303.565 112.924 304.83 112.301C304.951 112.242 305.075 112.188 305.201 112.141Z" fill="#FFB900"/>
<path d="M301.119 122.473L300.331 121.88C300.331 117.827 301.991 112.249 308.498 111.748H308.704C300.327 113.372 301.119 122.373 301.119 122.473Z" fill="#069550"/>
<path d="M307.585 101.636L312.399 101.607L311.818 111.643C311.824 111.8 311.795 111.956 311.734 112.101C311.673 112.246 311.581 112.375 311.464 112.479C310.961 112.889 310.365 113.17 309.729 113.296C309.093 113.423 308.435 113.391 307.814 113.205C306.189 112.818 307.371 112.078 307.607 110.249L307.585 101.636Z" fill="#FFB780"/>
<path d="M306.982 99.3679C305.101 101.666 304.194 104.609 304.456 107.567C304.553 110.968 309.079 111.007 311.959 109.218C313.176 108.484 314.132 107.386 314.693 106.08C315.254 104.774 315.391 103.324 315.086 101.936C314.267 98.3409 309.499 96.2015 306.982 99.3679Z" fill="#FFB780"/>
<path opacity="0.1" d="M307.376 111.242L310.115 110.133L307.587 110.391L307.376 111.242Z" fill="black"/>
<path d="M305.433 102.607C304.698 103.225 304.036 103.924 303.458 104.69C303.726 105.221 304.182 105.633 304.737 105.848L305.433 102.607Z" fill="#FFB780"/>
<path d="M315.596 101.41C315.417 96.7731 307.36 96.8243 306.391 97.5709C306.141 97.7349 305.93 97.9518 305.773 98.2063C305.615 98.4608 305.516 98.7467 305.481 99.0438C305.446 99.341 305.477 99.6421 305.571 99.926C305.666 100.21 305.821 100.47 306.027 100.687L306.426 100.392C306.498 100.355 306.573 100.323 306.649 100.295C307.835 100.47 311.982 101.321 310.718 104.587C310.398 105.411 311.105 105.792 311.949 105.835C312.036 106.876 312.005 107.924 311.856 108.958C311.739 109.73 315.889 108.942 315.596 101.41Z" fill="#411809"/>
<path d="M264.92 113.672L265.622 112.878L282.02 127.391L280.877 128.682L264.977 114.611C264.845 114.494 264.765 114.329 264.754 114.153C264.744 113.977 264.803 113.804 264.92 113.672V113.672Z" fill="#069550"/>
<path d="M281.318 122.712C281.549 122.917 281.733 123.168 281.858 123.449C281.983 123.731 282.046 124.036 282.043 124.344L282.014 127.397L265.616 112.885L270.343 113.618C270.897 113.703 271.416 113.946 271.836 114.318L281.318 122.712Z" fill="white"/>
<path d="M309.221 106.475C309.592 107.035 310.545 107.057 311.354 106.523C312.162 105.989 312.512 105.102 312.141 104.543C311.77 103.983 310.815 103.96 310.008 104.494C309.201 105.027 308.849 105.919 309.221 106.475Z" fill="#FFB780"/>
<path d="M313.642 142.374C313.765 138.993 314.074 135.62 314.568 132.273C314.922 130.592 315.494 128.753 315.987 126.784C310.496 126.108 305.185 124.393 300.335 121.731C300.322 123.623 300.412 125.514 300.605 127.397L299.375 132.962L297.669 143.157C302.92 144.777 308.574 144.5 313.642 142.374Z" fill="#069550"/>
<path d="M310.687 148.827L307.57 147.982C311.591 133.158 313.552 119.274 311.852 117.674C310.74 116.677 310.021 116.726 309.575 116.85C307.216 117.506 304.939 122.645 304.206 125.031L301.761 124.082C302.043 123.161 304.021 115.041 308.711 113.737C309.651 113.501 310.636 113.518 311.567 113.787C312.497 114.056 313.34 114.567 314.008 115.268C318.203 119.033 313.083 139.991 310.687 148.827Z" fill="#069550"/>
<path d="M309.848 115.766C309.848 115.766 306.698 115.758 303.286 122.523C299.874 129.287 298.095 131.083 298.095 131.083L282.009 123.989L279.217 127.615C279.217 127.615 296.418 142.289 300.434 139.806C307.924 135.177 320.254 115.534 309.848 115.766Z" fill="#FFB900"/>
<path d="M279.217 127.617C279.217 127.617 275.544 127.92 274.676 125.739C274.122 124.353 272.163 121.254 274.099 122.684C275.315 123.583 276.978 125.255 277.479 124.554C277.964 123.871 275.425 123.607 276.078 122.259L280.395 124.677L279.217 127.617Z" fill="#FFB780"/>
<path d="M277.952 128.537L279.779 129.497L282.837 124.084L281.01 123.124L277.952 128.537Z" fill="#FFB900"/>
<path d="M316.157 102.939L306.081 97.8193C306.779 96.5173 307.96 95.5404 309.369 95.0979C310.779 94.6553 312.305 94.7821 313.623 95.4513C314.94 96.1205 315.943 97.2788 316.416 98.6782C316.89 100.078 316.797 101.607 316.157 102.939Z" fill="#FFB900"/>
<path d="M311.619 94.7521C312.54 94.8326 313.427 95.1379 314.202 95.6412C314.977 96.1446 315.617 96.8305 316.065 97.6388C316.513 98.4471 316.756 99.3531 316.772 100.277C316.788 101.201 316.577 102.115 316.157 102.939L313.535 101.606C314.051 100.418 314.142 99.0875 313.794 97.8393C313.445 96.5911 312.677 95.501 311.619 94.7521Z" fill="#FFA320"/>
<path d="M304.72 96.4222L304.028 97.8812L315.871 103.495L316.563 102.036L304.72 96.4222Z" fill="#FFA320"/>
<path d="M289.252 196.647H270.252L276.438 165.331H283.065L289.252 196.647Z" fill="#FF7500"/>
<path d="M292.869 195.092H265.752V198.329H292.869V195.092Z" fill="#FF7500"/>
<path d="M289.252 196.647H270.252L276.438 165.331H283.065L289.252 196.647Z" fill="#FF7500"/>
<path d="M273.815 178.601H285.686L284.717 173.695H274.785L273.815 178.601Z" fill="white"/>
<path d="M271.548 190.078H287.956L286.987 185.172H272.517L271.548 190.078Z" fill="white"/>
<path d="M147.151 203.006C147.342 203.006 147.526 202.94 147.674 202.82C147.822 202.699 147.923 202.531 147.962 202.345L162.343 132.187C162.364 132.081 162.365 131.971 162.344 131.864C162.324 131.757 162.282 131.656 162.223 131.565C162.163 131.474 162.086 131.396 161.996 131.335C161.905 131.274 161.804 131.232 161.698 131.21C161.591 131.188 161.482 131.187 161.375 131.208C161.268 131.228 161.166 131.27 161.076 131.33C160.985 131.39 160.907 131.467 160.846 131.557C160.785 131.647 160.742 131.748 160.72 131.855L146.34 202.012C146.295 202.226 146.338 202.45 146.458 202.633C146.578 202.816 146.765 202.944 146.98 202.989C147.036 203.001 147.094 203.006 147.151 203.006Z" fill="#069550"/>
<path d="M160.861 138.941H181.612C181.827 138.934 182.03 138.843 182.179 138.689C182.328 138.534 182.411 138.328 182.411 138.113C182.411 137.899 182.328 137.692 182.179 137.538C182.03 137.383 181.827 137.293 181.612 137.285H160.861C160.75 137.281 160.639 137.3 160.535 137.339C160.431 137.379 160.336 137.44 160.256 137.517C160.176 137.594 160.112 137.687 160.069 137.789C160.025 137.892 160.003 138.002 160.003 138.113C160.003 138.225 160.025 138.335 160.069 138.437C160.112 138.54 160.176 138.632 160.256 138.71C160.336 138.787 160.431 138.847 160.535 138.887C160.639 138.927 160.75 138.945 160.861 138.941Z" fill="#006430"/>
<path d="M158.835 147.962H179.586C179.805 147.962 180.016 147.875 180.171 147.719C180.326 147.564 180.413 147.354 180.413 147.134C180.413 146.915 180.326 146.704 180.171 146.549C180.016 146.394 179.805 146.307 179.586 146.307H158.835C158.615 146.307 158.405 146.394 158.25 146.549C158.094 146.704 158.007 146.915 158.007 147.134C158.007 147.354 158.094 147.564 158.25 147.719C158.405 147.875 158.615 147.962 158.835 147.962Z" fill="#006430"/>
<path d="M157.096 156.99H177.847C178.062 156.982 178.265 156.891 178.414 156.737C178.563 156.583 178.646 156.376 178.646 156.162C178.646 155.947 178.563 155.741 178.414 155.586C178.265 155.432 178.062 155.341 177.847 155.334H157.096C156.985 155.33 156.874 155.348 156.77 155.388C156.666 155.428 156.571 155.488 156.491 155.565C156.411 155.643 156.348 155.735 156.304 155.838C156.26 155.94 156.238 156.05 156.238 156.162C156.238 156.273 156.26 156.383 156.304 156.486C156.348 156.588 156.411 156.681 156.491 156.758C156.571 156.835 156.666 156.896 156.77 156.936C156.874 156.975 156.985 156.994 157.096 156.99Z" fill="#006430"/>
<path d="M155.216 166.013H175.973C176.193 166.013 176.403 165.926 176.559 165.771C176.714 165.616 176.801 165.405 176.801 165.186C176.801 164.966 176.714 164.756 176.559 164.601C176.403 164.445 176.193 164.358 175.973 164.358H155.216C154.997 164.358 154.786 164.445 154.631 164.601C154.476 164.756 154.389 164.966 154.389 165.186C154.389 165.405 154.476 165.616 154.631 165.771C154.786 165.926 154.997 166.013 155.216 166.013Z" fill="#006430"/>
<path d="M153.444 175.038H174.194C174.306 175.042 174.417 175.024 174.521 174.984C174.625 174.944 174.719 174.884 174.8 174.806C174.88 174.729 174.943 174.636 174.987 174.534C175.03 174.432 175.053 174.321 175.053 174.21C175.053 174.099 175.03 173.989 174.987 173.886C174.943 173.784 174.88 173.691 174.8 173.614C174.719 173.536 174.625 173.476 174.521 173.436C174.417 173.396 174.306 173.378 174.194 173.382H153.444C153.229 173.39 153.026 173.48 152.877 173.635C152.728 173.789 152.645 173.995 152.645 174.21C152.645 174.425 152.728 174.631 152.877 174.785C153.026 174.94 153.229 175.03 153.444 175.038Z" fill="#006430"/>
<path d="M151.684 184.062H172.436C172.65 184.054 172.854 183.963 173.003 183.809C173.152 183.655 173.235 183.448 173.235 183.234C173.235 183.019 173.152 182.813 173.003 182.658C172.854 182.504 172.65 182.413 172.436 182.406H151.684C151.469 182.413 151.266 182.504 151.117 182.658C150.968 182.813 150.885 183.019 150.885 183.234C150.885 183.448 150.968 183.655 151.117 183.809C151.266 183.963 151.469 184.054 151.684 184.062Z" fill="#006430"/>
<path d="M149.891 193.087H170.641C170.861 193.087 171.071 192.999 171.227 192.844C171.382 192.689 171.469 192.478 171.469 192.258C171.469 192.039 171.382 191.828 171.227 191.673C171.071 191.518 170.861 191.43 170.641 191.43H149.891C149.671 191.43 149.461 191.518 149.306 191.673C149.15 191.828 149.063 192.039 149.063 192.258C149.063 192.478 149.15 192.689 149.306 192.844C149.461 192.999 149.671 193.087 149.891 193.087Z" fill="#006430"/>
<path d="M169.361 203.006C169.551 203.006 169.736 202.94 169.883 202.819C170.031 202.699 170.132 202.531 170.171 202.345L184.551 132.187C184.595 131.972 184.552 131.748 184.431 131.565C184.31 131.382 184.122 131.254 183.907 131.21C183.691 131.166 183.468 131.209 183.284 131.33C183.101 131.451 182.973 131.639 182.929 131.855L168.552 202.012C168.507 202.226 168.55 202.45 168.67 202.633C168.79 202.816 168.977 202.944 169.191 202.989C169.247 203.001 169.304 203.006 169.361 203.006Z" fill="#069550"/>
<path d="M237.743 87.1565L241.992 97.9655" stroke="#069550" stroke-width="2" stroke-miterlimit="10" stroke-linecap="round"/>
<path d="M226.559 84.5638L227.945 86.9901L237.559 86.6563L244.613 80.3746L243.558 76.8338" stroke="#069550" stroke-miterlimit="10" stroke-linecap="round"/>
<path d="M244.36 76.1747L225.637 84.4465" stroke="#069550" stroke-miterlimit="10" stroke-linecap="round"/>
<path d="M241.749 81.0614L230.804 85.6527C230.043 85.9699 229.186 85.9727 228.423 85.6605C227.659 85.3484 227.05 84.7467 226.728 83.9868C226.411 83.225 226.409 82.3687 226.721 81.6049C227.033 80.8411 227.635 80.232 228.395 79.9107L239.34 75.3247C240.101 75.0077 240.957 75.005 241.721 75.3174C242.485 75.6298 243.094 76.2317 243.415 76.9917C243.73 77.7526 243.732 78.6073 243.42 79.3697C243.108 80.132 242.507 80.7401 241.749 81.0614Z" fill="#FFA320"/>
<path d="M230.18 84.4316L241.125 79.8456C241.493 79.7869 241.843 79.6464 242.149 79.4344C242.456 79.2223 242.711 78.9442 242.895 78.6206C243.08 78.2969 243.189 77.9359 243.216 77.5643C243.242 77.1926 243.185 76.8197 243.048 76.4732C242.911 76.1266 242.698 75.8152 242.425 75.5619C242.152 75.3086 241.825 75.1199 241.469 75.0097C241.113 74.8994 240.737 74.8705 240.369 74.9251C240 74.9796 239.648 75.1162 239.34 75.3247L228.395 79.9107C228.027 79.9693 227.677 80.1099 227.371 80.3219C227.064 80.5339 226.809 80.812 226.625 81.1357C226.44 81.4594 226.331 81.8204 226.304 82.192C226.278 82.5637 226.335 82.9365 226.472 83.2831C226.609 83.6297 226.822 83.9411 227.095 84.1944C227.368 84.4477 227.695 84.6364 228.051 84.7466C228.407 84.8568 228.783 84.8857 229.151 84.8312C229.52 84.7767 229.872 84.6401 230.18 84.4316Z" fill="#FFB900"/>
<path d="M227.776 184.773H213.563L210.949 165.332H230.391L227.776 184.773Z" fill="#069550"/>
<path d="M212.222 165.813C212.222 164.704 212.44 163.605 212.865 162.58C213.289 161.555 213.912 160.624 214.696 159.839C215.48 159.055 216.412 158.433 217.437 158.008C218.462 157.584 219.56 157.365 220.669 157.365C221.779 157.365 222.877 157.584 223.902 158.008C224.927 158.433 225.858 159.055 226.643 159.839C227.427 160.624 228.05 161.555 228.474 162.58C228.899 163.605 229.117 164.704 229.117 165.813" stroke="#069550" stroke-miterlimit="10"/>
<path d="M226.426 165.969C226.492 165.877 226.536 165.772 226.554 165.661C226.573 165.55 226.566 165.436 226.533 165.329H214.832C214.608 166.655 215.152 168.102 215.632 168.167C216.221 168.247 216.63 166.193 217.352 166.247C217.958 166.288 218.796 167.678 218.211 170.991C217.695 173.913 219.474 174.531 219.67 174.493C221.491 174.149 220.31 167.473 221.924 167.003C222.535 166.825 223.137 167.724 223.95 167.382C224.622 167.098 224.653 166.299 225.462 166.075C225.96 165.934 226.228 166.157 226.426 165.969Z" fill="#FFB900"/>
<path d="M238.711 147.849L247.858 149.473L254.742 145.909C254.742 145.909 254.055 141.047 254.094 139.689C254.185 136.428 255.757 129.086 253.439 123.849C251.732 119.997 248.556 121.749 244.539 123.02L240.017 123.513C240.017 123.513 232.765 119.131 237.833 139.335C238.301 142.152 238.594 144.995 238.711 147.849Z" fill="#FFB900"/>
<path d="M242.494 109.035C240.738 111.066 239.841 113.7 239.993 116.381C240.05 119.26 244.49 119.407 246.917 117.874C248.005 117.19 248.87 116.203 249.406 115.035C249.943 113.867 250.127 112.568 249.936 111.297C249.215 108.248 244.891 106.582 242.494 109.035Z" fill="#FFC69A"/>
<path d="M241.556 110.352C241.002 111.011 240.314 111.544 239.537 111.914C239.702 112.418 240.047 112.842 240.506 113.105L241.556 110.352Z" fill="#FFC69A"/>
<path d="M236.033 125.217L233.706 134.105L232.249 138.699L223.371 154.321L226.144 156.177L237.358 140.441L239.077 135.55L245.742 122.579C246.275 121.058 243.028 121.116 241.506 120.581C239.984 120.045 237.132 122.041 236.033 125.217Z" fill="#FFB900"/>
<path d="M223.747 153.658C223.747 153.658 220.386 157.375 222.687 157.124C224.301 156.948 223.131 156.714 223.131 156.714C223.131 156.714 220.837 158.725 221.851 158.689C222.865 158.652 224.995 159.55 225.515 158.168C226.143 156.494 226.434 155.514 226.434 155.514L223.747 153.658Z" fill="#FFC69A"/>
<path d="M224.135 151.887L222.929 153.658L226.893 156.356L228.099 154.585L224.135 151.887Z" fill="#FFB900"/>
<path d="M246.398 114.354L240.359 97.4301L243.413 96.0831L251.731 113.524L252.577 118.643L247.031 119.135L246.398 114.354Z" fill="#FFB900"/>
<path d="M251.649 130.927C250.885 131.053 250.102 130.871 249.472 130.42C248.842 129.969 248.417 129.286 248.291 128.522L247.036 119.137L252.582 118.644L254.348 126.856C254.605 128.436 253.24 130.663 251.649 130.927Z" fill="#FFB900"/>
<path d="M241.294 97.7233C241.294 97.7233 237.834 94.046 239.287 93.3198L240.359 95.0763C240.359 95.0763 239.096 90.565 240.086 90.7772C241.076 90.9895 243.24 92.2469 243.017 93.7069C242.75 95.4517 242.605 96.9064 242.605 96.9064L241.294 97.7233Z" fill="#FFC69A"/>
<path d="M244.582 97.7676L243.788 95.7781L239.918 97.3236L240.713 99.313L244.582 97.7676Z" fill="#FFB900"/>
<path d="M241.801 116.471L242.222 125.988L247.431 124.324L244.978 115.635L241.801 116.471Z" fill="#FFC69A"/>
<path d="M243.467 143.606C243.749 135.875 243.078 128.138 241.469 120.57C241.058 120.494 240.636 120.506 240.23 120.605C239.824 120.704 239.444 120.889 239.115 121.147C240.717 128.498 241.366 136.026 241.045 143.543L243.467 143.606Z" fill="#069550"/>
<path d="M256.251 153.966C257.003 149.24 256.293 144.397 254.215 140.086C248.859 143.062 238.31 142.379 238.31 142.379L236.817 156.365L235.991 171.862C236.507 178.731 237.849 185.513 239.988 192.061L244.114 191.397C244.529 184.775 244.311 178.128 243.465 171.547C243.465 171.547 245.537 163.205 246.664 158.907C246.738 158.625 247.962 158.177 248.025 157.933C248.026 157.933 254.179 157.606 256.251 153.966Z" fill="#069550"/>
<path d="M249.287 191.928L252.895 191.395C253.926 184.9 253.93 178.284 252.906 171.788C254.933 166.567 255.986 161.019 256.013 155.418C256.11 154.924 256.185 154.441 256.251 153.964C254.179 157.604 248.026 157.93 248.026 157.93L245.38 172.563C245.38 172.563 246.469 179.593 249.287 191.928Z" fill="#069550"/>
<path d="M250.067 157.64C249.394 157.784 248.712 157.882 248.026 157.933L245.38 172.565C245.38 172.565 246.457 179.515 249.239 191.715C249.645 191.472 249.973 191.117 250.182 190.692C250.546 189.852 249.993 189.311 249.31 186.624C248.884 184.945 249.11 185.198 248.438 181.824C248.19 180.303 247.85 178.799 247.42 177.319C246.732 175.549 246.034 174.799 246.404 173.832C246.753 172.908 247.701 172.75 247.712 171.942C247.72 171.258 247.045 170.982 246.694 170.342C245.864 168.819 247.525 166.437 248.002 165.691C249.421 163.25 250.136 160.463 250.067 157.64Z" fill="#006430"/>
<path d="M239.986 192.061L240.765 194.598L243.645 194.384L243.633 191.519L239.986 192.061Z" fill="#FFC69A"/>
<path d="M235.533 198.386C235.533 198.386 235.566 196.68 238.774 196.146C240.47 195.865 239.6 194.611 239.6 194.611L242.762 193.639L239.749 198.946L235.533 198.386Z" fill="#FFB900"/>
<path d="M243.263 193.608C241.13 193.6 241.286 195.416 240.968 196.567C240.406 197.255 239.68 197.79 238.857 198.124C238.034 198.457 237.14 198.577 236.257 198.473C237.023 198.58 238.25 198.746 239.221 198.881C240.201 199.017 241.198 198.955 242.153 198.697L243.944 198.215C244.981 197.647 246.115 193.72 243.44 193.611C243.376 193.608 243.323 193.608 243.263 193.608Z" fill="#069550"/>
<path d="M235.734 198.414C235.916 198.443 236.088 198.457 236.257 198.47C235.613 198.384 235.295 198.344 235.734 198.414Z" fill="#FFA320"/>
<path d="M249.287 191.928L250.033 194.48L252.913 194.267L252.901 191.401L249.287 191.928Z" fill="#FFC69A"/>
<path d="M244.796 198.269C244.796 198.269 244.83 196.562 248.038 196.029C249.734 195.747 248.863 194.494 248.863 194.494L252.025 193.522L249.013 198.829L244.796 198.269Z" fill="#FFB900"/>
<path d="M252.527 193.488C250.394 193.48 250.55 195.301 250.232 196.446C249.67 197.134 248.944 197.67 248.121 198.003C247.297 198.336 246.403 198.457 245.521 198.353C246.287 198.46 247.513 198.626 248.485 198.76C249.464 198.897 250.462 198.834 251.417 198.577L253.206 198.095C254.245 197.526 255.379 193.6 252.703 193.491C252.645 193.489 252.587 193.488 252.527 193.488Z" fill="#069550"/>
<path d="M244.997 198.301C245.18 198.329 245.351 198.344 245.521 198.357C244.877 198.267 244.559 198.228 244.997 198.301Z" fill="#FFA320"/>
<path d="M244.371 190.096L239.014 190.679L239.26 192.935L244.616 192.351L244.371 190.096Z" fill="#069550"/>
<path d="M253.652 189.564L248.296 190.147L248.542 192.402L253.898 191.819L253.652 189.564Z" fill="#069550"/>
<path d="M241.712 119.988L241.626 121.582C242.721 121.975 243.895 122.093 245.046 121.926C245.441 121.8 245.804 121.59 246.11 121.31C246.415 121.03 246.657 120.688 246.819 120.306L246.379 119.121C246.379 119.121 245.189 120.986 241.712 119.988Z" fill="white"/>
<path d="M242.73 106.781C242.73 106.781 239.644 109.57 243.427 112.427C243.427 112.427 244.829 113.447 242.759 115.923C242.553 116.168 242.44 116.478 242.44 116.798C242.44 117.118 242.553 117.427 242.759 117.672C244.015 119.148 246.765 121.311 249.691 116.749C251.05 114.633 251.231 112.153 250.095 110.685C249.178 109.375 247.86 108.4 246.339 107.905C244.825 107.379 244.025 107.561 242.73 106.781Z" fill="#411809"/>
<path d="M242.745 115.921C241.606 116.941 240.708 118.201 240.116 119.61C239.524 121.02 239.252 122.543 239.321 124.07C239.352 127.546 242.841 130.34 242.92 131.156C243.133 133.396 239.539 138.106 240.053 140.443C240.8 143.821 246.807 145.051 252.703 142.59C259.442 139.776 260.314 130.809 254.296 124.645C251.63 121.92 252.504 116.571 251.996 112.675C251.688 110.322 250.997 112.807 249.863 111.067C248.165 108.464 243.985 107.579 243.337 108.372C242.728 109.119 245.392 111.051 244.804 113.319C244.51 114.455 244.147 114.707 242.745 115.921Z" fill="#411809"/>
<path d="M244.543 113.301C244.702 113.493 244.797 113.731 244.815 113.98C244.834 114.229 244.774 114.477 244.645 114.691C244.517 114.905 244.325 115.074 244.096 115.174C243.867 115.274 243.613 115.301 243.368 115.251C243.124 115.201 242.901 115.076 242.73 114.894C242.559 114.711 242.449 114.481 242.415 114.233C242.381 113.986 242.425 113.734 242.54 113.512C242.655 113.291 242.835 113.11 243.057 112.996C243.296 112.842 243.585 112.788 243.862 112.845C244.14 112.902 244.384 113.066 244.543 113.301Z" fill="#FFC69A"/>
<path d="M251.659 114.354L242.789 107.349C243.728 106.202 245.079 105.471 246.552 105.311C248.025 105.151 249.502 105.576 250.665 106.495C251.827 107.413 252.583 108.751 252.769 110.221C252.955 111.691 252.556 113.175 251.659 114.354Z" fill="#FFB900"/>
<path d="M248.823 105.434C249.71 105.694 250.519 106.169 251.18 106.815C251.84 107.461 252.332 108.26 252.612 109.14C252.892 110.021 252.952 110.957 252.786 111.866C252.619 112.775 252.232 113.63 251.659 114.354L249.35 112.531C250.09 111.467 250.442 110.181 250.346 108.889C250.25 107.597 249.712 106.377 248.823 105.434Z" fill="#FFA320"/>
<path d="M241.729 105.712L240.763 107.006L251.268 114.844L252.234 113.549L241.729 105.712Z" fill="#FFA320"/>
</g>
<defs>
<clipPath id="clip0_7243_60432">
<rect width="320" height="209" fill="white"/>
</clipPath>
</defs>
</svg>
