<svg width="320" height="244" viewBox="0 0 320 244" fill="none" xmlns="http://www.w3.org/2000/svg">
<g clip-path="url(#clip0_6570_59507)">
<path d="M106.526 45.9146C109.262 40.0875 112.72 34.6213 116.818 29.6425C150.176 -10.8445 215.723 -7.43337 254.158 25.2021C296.785 61.3964 292.843 122.312 291.972 132.72C288.941 168.928 269.994 227.867 226.412 239.873C206.165 245.451 186.846 239.179 169.992 227.544C156.682 218.356 139.13 219.213 126.426 229.984C121.62 234.059 116.263 237.503 110.312 239.942C96.843 245.462 84.8532 243.983 79.6599 243.278C39.1764 237.776 -0.369825 192.047 0.00261004 149.289C0.430248 100.223 53.3572 62.5884 106.526 45.9146Z" fill="#FAFAFA"/>
<path d="M256.394 110.653V207.118C256.394 207.235 256.388 207.352 256.383 207.476C256.383 207.532 256.377 207.588 256.372 207.644C256.372 207.694 256.366 207.75 256.36 207.806C256.36 207.828 256.355 207.851 256.355 207.873C256.349 207.912 256.343 207.945 256.338 207.979C256.332 208.063 256.315 208.147 256.304 208.23C256.293 208.309 256.276 208.393 256.258 208.471C256.252 208.51 256.242 208.549 256.23 208.588C256.23 208.618 256.224 208.649 256.213 208.677C256.207 208.717 256.197 208.756 256.185 208.794C256.168 208.867 256.146 208.94 256.129 209.007C256.128 209.02 256.124 209.034 256.118 209.046C256.078 209.169 256.045 209.292 256 209.409C256 209.412 256 209.415 255.999 209.418C255.998 209.421 255.996 209.424 255.994 209.426C255.971 209.487 255.949 209.549 255.926 209.605C255.904 209.661 255.881 209.711 255.864 209.761C255.857 209.775 255.852 209.791 255.848 209.806C255.78 209.957 255.712 210.113 255.633 210.259C255.611 210.304 255.583 210.359 255.555 210.41C255.527 210.46 255.498 210.505 255.47 210.555C255.442 210.6 255.419 210.65 255.386 210.695C255.329 210.79 255.268 210.885 255.205 210.974C255.166 211.035 255.127 211.086 255.093 211.142C254.997 211.265 254.907 211.387 254.806 211.505C254.732 211.594 254.659 211.678 254.586 211.756C254.513 211.84 254.434 211.919 254.355 211.997C254.321 212.036 254.282 212.069 254.242 212.108C254.209 212.143 254.174 212.175 254.135 212.203C254.096 212.242 254.051 212.282 254.006 212.32C253.994 212.331 253.978 212.343 253.966 212.354C253.859 212.449 253.747 212.538 253.634 212.622C253.621 212.63 253.61 212.639 253.6 212.65C253.51 212.711 253.42 212.778 253.324 212.84C253.29 212.862 253.262 212.885 253.234 212.901C253.183 212.935 253.133 212.968 253.082 212.996C253.043 213.024 253.001 213.048 252.958 213.069C252.914 213.097 252.869 213.123 252.823 213.147C252.506 213.326 252.174 213.477 251.831 213.599C251.809 213.605 251.792 213.616 251.77 213.622C251.747 213.628 251.719 213.639 251.696 213.644C251.617 213.672 251.539 213.7 251.454 213.722C251.313 213.767 251.173 213.801 251.032 213.834L250.812 213.885C250.766 213.895 250.719 213.902 250.671 213.907C250.615 213.918 250.553 213.929 250.497 213.94C250.485 213.94 250.48 213.94 250.474 213.946C250.429 213.952 250.384 213.957 250.333 213.963C250.311 213.963 250.288 213.968 250.266 213.968C250.226 213.974 250.181 213.98 250.142 213.985C250.119 213.985 250.096 213.991 250.069 213.991C249.984 213.996 249.894 214.002 249.809 214.007C249.686 214.013 249.562 214.019 249.438 214.019H77.6619C77.538 214.019 77.4141 214.013 77.2901 214.007C77.2057 214.002 77.1154 213.996 77.0311 213.991C76.9347 213.985 76.8388 213.974 76.7437 213.957C76.6889 213.953 76.6343 213.945 76.5803 213.935C76.4452 213.918 76.31 213.89 76.1808 213.862C76.1426 213.856 76.105 213.846 76.0681 213.834C75.9272 213.801 75.7867 213.767 75.6458 213.722C75.5612 213.695 75.4823 213.672 75.4035 213.644C75.0273 213.515 74.6619 213.356 74.3108 213.169L74.0573 213.018C73.9616 212.962 73.8659 212.901 73.7759 212.839C73.2203 212.467 72.7215 212.017 72.2946 211.504C72.1933 211.387 72.0975 211.264 72.0073 211.135C71.6958 210.709 71.4367 210.247 71.2356 209.76C71.1902 209.649 71.1455 209.526 71.1005 209.408C71.0554 209.291 71.0217 209.168 70.9824 209.045C70.9486 208.922 70.9148 208.799 70.8867 208.676C70.8586 208.559 70.836 208.447 70.8134 208.33C70.8078 208.313 70.8078 208.291 70.8022 208.274C70.7852 208.162 70.7683 208.045 70.7568 207.933C70.7516 207.925 70.7496 207.915 70.7511 207.905C70.7399 207.816 70.7342 207.732 70.7287 207.642C70.7118 207.469 70.7061 207.296 70.7061 207.117V110.653C70.7046 109.634 70.9312 108.628 71.3695 107.707C71.8079 106.786 72.447 105.973 73.2407 105.327C73.2548 105.314 73.27 105.303 73.2861 105.293L73.6463 105.02C74.819 104.192 76.2232 103.748 77.6625 103.751H249.438C249.603 103.75 249.769 103.757 249.933 103.774C249.964 103.77 249.994 103.772 250.024 103.779C250.181 103.79 250.345 103.807 250.497 103.829C250.531 103.835 250.57 103.84 250.604 103.846C250.739 103.868 250.874 103.896 251.003 103.93C251.038 103.935 251.072 103.942 251.105 103.952C251.268 103.991 251.426 104.036 251.584 104.086C251.73 104.131 251.882 104.187 252.023 104.243C252.225 104.323 252.423 104.414 252.614 104.517C252.722 104.567 252.828 104.623 252.93 104.684C253.11 104.784 253.283 104.896 253.448 105.02C253.453 105.014 253.453 105.02 253.453 105.02L253.814 105.293C253.83 105.303 253.845 105.314 253.859 105.327C253.955 105.4 254.04 105.478 254.124 105.556C254.192 105.612 254.254 105.673 254.316 105.735C254.509 105.92 254.69 106.118 254.856 106.327C254.935 106.422 255.008 106.517 255.076 106.612C255.371 107.011 255.618 107.443 255.814 107.898C255.87 108.021 255.921 108.149 255.972 108.278C255.972 108.283 255.977 108.289 255.977 108.294C256.054 108.501 256.12 108.712 256.174 108.926C256.202 109.032 256.225 109.133 256.247 109.239C256.264 109.323 256.281 109.401 256.293 109.485C256.31 109.568 256.321 109.652 256.332 109.736C256.349 109.836 256.36 109.937 256.366 110.038C256.377 110.123 256.383 110.209 256.383 110.295C256.388 110.413 256.394 110.535 256.394 110.653Z" fill="#DFE5EA"/>
<path d="M255.977 108.295H71.1221C71.5479 107.135 72.2793 106.111 73.2399 105.327C73.254 105.315 73.2692 105.303 73.2853 105.293L73.6456 105.02L159.288 40.5193C160.514 39.5948 162.01 39.0942 163.549 39.0942C165.089 39.0942 166.585 39.5948 167.811 40.5193L253.448 105.02C253.453 105.014 253.453 105.02 253.453 105.02L253.814 105.293C253.83 105.303 253.845 105.314 253.859 105.327C253.955 105.4 254.04 105.478 254.124 105.556C254.192 105.612 254.254 105.673 254.316 105.735C254.509 105.92 254.69 106.118 254.856 106.327C254.935 106.422 255.008 106.517 255.076 106.612C255.371 107.011 255.618 107.443 255.814 107.898C255.87 108.021 255.921 108.149 255.972 108.278C255.971 108.283 255.977 108.289 255.977 108.295Z" fill="#006430"/>
<path d="M94.1973 51.4224H230.609C233.912 51.4224 237.079 52.724 239.414 55.0409C241.75 57.3578 243.061 60.5001 243.061 63.7767V208.998H81.7451V63.7767C81.7451 60.5001 83.057 57.3578 85.3923 55.0409C87.7275 52.724 90.8948 51.4224 94.1973 51.4224V51.4224Z" fill="white"/>
<path d="M221.671 79.0249H103.136C101.468 79.0249 100.117 80.3661 100.117 82.0205V83.2943C100.117 84.9487 101.468 86.2899 103.136 86.2899H221.671C223.338 86.2899 224.69 84.9487 224.69 83.2943V82.0205C224.69 80.3661 223.338 79.0249 221.671 79.0249Z" fill="#E4ECF9"/>
<path d="M103.136 94.5454H221.671C222.067 94.5454 222.46 94.6229 222.826 94.7734C223.192 94.924 223.525 95.1447 223.806 95.4228C224.086 95.701 224.308 96.0313 224.46 96.3947C224.612 96.7582 224.69 97.1478 224.69 97.5412V98.8146C224.69 99.208 224.612 99.5976 224.46 99.9611C224.308 100.325 224.086 100.655 223.806 100.933C223.525 101.211 223.192 101.432 222.826 101.582C222.46 101.733 222.067 101.81 221.671 101.81H103.136C102.335 101.81 101.567 101.495 101.001 100.933C100.435 100.371 100.117 99.6093 100.117 98.8148V97.541C100.117 96.7465 100.435 95.9846 101.001 95.4228C101.567 94.861 102.335 94.5454 103.136 94.5454V94.5454Z" fill="#E4ECF9"/>
<path d="M103.136 110.065H221.671C222.067 110.065 222.46 110.143 222.826 110.293C223.192 110.444 223.525 110.665 223.806 110.943C224.086 111.221 224.308 111.551 224.46 111.915C224.612 112.278 224.69 112.668 224.69 113.061V114.335C224.69 115.129 224.372 115.891 223.806 116.453C223.24 117.015 222.472 117.33 221.671 117.33H103.136C102.335 117.33 101.567 117.015 101.001 116.453C100.435 115.891 100.117 115.129 100.117 114.335V113.061C100.117 112.267 100.435 111.505 101.001 110.943C101.567 110.381 102.335 110.065 103.136 110.065V110.065Z" fill="#E4ECF9"/>
<path d="M103.136 125.585H221.671C222.471 125.585 223.239 125.901 223.806 126.463C224.372 127.025 224.69 127.787 224.69 128.581V129.855C224.69 130.649 224.372 131.411 223.806 131.973C223.24 132.535 222.472 132.85 221.671 132.85H103.136C102.335 132.85 101.567 132.535 101.001 131.973C100.435 131.411 100.117 130.649 100.117 129.855V128.581C100.117 127.787 100.435 127.025 101.001 126.463C101.567 125.901 102.335 125.585 103.136 125.585V125.585Z" fill="#E4ECF9"/>
<path d="M103.136 141.105H221.671C222.067 141.105 222.46 141.183 222.826 141.334C223.192 141.484 223.525 141.705 223.806 141.983C224.086 142.261 224.308 142.591 224.46 142.955C224.612 143.318 224.69 143.708 224.69 144.101V145.375C224.69 146.169 224.372 146.931 223.806 147.493C223.24 148.055 222.472 148.37 221.671 148.37H103.136C102.335 148.37 101.567 148.055 101.001 147.493C100.435 146.931 100.117 146.169 100.117 145.375V144.101C100.117 143.307 100.435 142.545 101.001 141.983C101.567 141.421 102.335 141.105 103.136 141.105V141.105Z" fill="#E4ECF9"/>
<path d="M163.552 161.473V161.478C163.271 161.781 162.949 162.044 162.595 162.261L78.0447 214.019H77.6618C76.9785 214.022 76.2987 213.922 75.6454 213.723C75.5551 213.696 75.4652 213.667 75.3806 213.64C74.2799 213.262 73.2936 212.614 72.5136 211.756C72.4404 211.678 72.3672 211.594 72.2939 211.505C72.0797 211.25 71.8858 210.979 71.7138 210.694C71.6518 210.599 71.6012 210.504 71.5448 210.409C71.4942 210.308 71.4378 210.208 71.3928 210.107C70.9395 209.175 70.7045 208.153 70.7056 207.118V110.653C70.7041 109.634 70.9307 108.628 71.3691 107.707C71.8074 106.786 72.4465 105.973 73.2402 105.327C73.2543 105.314 73.2695 105.303 73.2856 105.293L73.6458 105.02C74.8185 104.192 76.2227 103.748 77.662 103.751H79.2502L86.6741 108.294L155.11 150.19L157.684 151.766L162.595 154.772C162.949 154.988 163.271 155.252 163.553 155.555V155.56C164.29 156.371 164.698 157.424 164.697 158.516C164.697 159.608 164.289 160.662 163.552 161.473Z" fill="#069550"/>
<path d="M256.394 110.653V207.118C256.394 207.235 256.388 207.352 256.383 207.476C256.383 207.532 256.377 207.588 256.371 207.644C256.371 207.694 256.366 207.75 256.36 207.806C256.36 207.828 256.354 207.851 256.354 207.873C256.349 207.912 256.343 207.945 256.337 207.979C256.332 208.063 256.315 208.147 256.304 208.23C256.293 208.309 256.276 208.393 256.258 208.471C256.258 208.482 256.253 208.499 256.253 208.51C256.247 208.536 256.239 208.563 256.23 208.588C256.23 208.619 256.224 208.649 256.213 208.677C256.206 208.717 256.197 208.756 256.185 208.795C256.168 208.867 256.151 208.934 256.129 209.007C256.128 209.021 256.124 209.034 256.117 209.046C256.084 209.169 256.045 209.292 255.999 209.409C256 209.412 255.999 209.415 255.998 209.418C255.998 209.421 255.996 209.424 255.994 209.426C255.971 209.487 255.954 209.543 255.926 209.605C255.909 209.655 255.887 209.705 255.864 209.761C255.858 209.776 255.852 209.791 255.847 209.806C255.78 209.957 255.712 210.114 255.633 210.259C255.611 210.304 255.583 210.36 255.554 210.41C255.526 210.46 255.498 210.505 255.47 210.555C255.442 210.6 255.419 210.65 255.385 210.695C255.329 210.79 255.267 210.885 255.205 210.974C255.166 211.036 255.126 211.086 255.093 211.142C254.997 211.27 254.901 211.388 254.805 211.505C254.732 211.595 254.659 211.678 254.586 211.757C254.512 211.84 254.434 211.919 254.355 211.997C254.321 212.036 254.282 212.069 254.242 212.109C254.209 212.143 254.173 212.175 254.135 212.203C254.096 212.243 254.051 212.282 254.006 212.321C253.994 212.332 253.977 212.343 253.966 212.354C253.859 212.449 253.746 212.538 253.634 212.622C253.621 212.63 253.61 212.639 253.6 212.65C253.51 212.712 253.42 212.779 253.324 212.84C253.29 212.863 253.262 212.885 253.234 212.902C253.183 212.935 253.132 212.969 253.082 212.997C253.042 213.024 253.001 213.048 252.958 213.069C252.914 213.097 252.869 213.123 252.823 213.147C252.506 213.326 252.174 213.478 251.831 213.6C251.809 213.605 251.786 213.617 251.769 213.622C251.747 213.628 251.719 213.639 251.696 213.645C251.617 213.672 251.538 213.7 251.454 213.723C251.313 213.768 251.173 213.801 251.032 213.834L250.812 213.885C250.765 213.895 250.718 213.902 250.671 213.907C250.615 213.918 250.553 213.929 250.496 213.941H250.479C250.429 213.946 250.378 213.957 250.333 213.963C250.311 213.963 250.288 213.969 250.265 213.969C250.226 213.974 250.187 213.98 250.142 213.985C250.119 213.985 250.096 213.991 250.068 213.991C249.984 213.997 249.894 214.002 249.809 214.008C249.685 214.013 249.561 214.019 249.437 214.019H249.055L164.504 162.261C164.151 162.046 163.831 161.783 163.552 161.478V161.473C162.813 160.663 162.403 159.609 162.403 158.517C162.403 157.424 162.813 156.37 163.552 155.56V155.555C163.831 155.251 164.151 154.987 164.504 154.772L169.41 151.766L171.984 150.19L240.426 108.294L247.85 103.751H249.438C249.603 103.75 249.769 103.757 249.934 103.774C249.964 103.77 249.994 103.772 250.024 103.779C250.181 103.79 250.345 103.807 250.497 103.829C250.531 103.835 250.57 103.84 250.604 103.846C250.739 103.868 250.874 103.896 251.003 103.93C251.038 103.935 251.072 103.942 251.105 103.952C251.268 103.991 251.426 104.036 251.584 104.086C251.73 104.131 251.882 104.187 252.023 104.243C252.225 104.323 252.423 104.414 252.614 104.517C252.722 104.567 252.828 104.623 252.93 104.684C253.11 104.784 253.283 104.896 253.448 105.02C253.454 105.014 253.454 105.02 253.454 105.02L253.814 105.293C253.83 105.303 253.845 105.314 253.859 105.327C253.955 105.4 254.04 105.478 254.124 105.556C254.192 105.612 254.254 105.673 254.316 105.735C254.509 105.92 254.69 106.118 254.856 106.327C254.935 106.422 255.008 106.517 255.076 106.612C255.371 107.011 255.618 107.443 255.814 107.898C255.87 108.021 255.921 108.149 255.972 108.278C255.972 108.283 255.977 108.289 255.977 108.294C256.054 108.501 256.12 108.712 256.174 108.926C256.203 109.032 256.225 109.133 256.248 109.239C256.264 109.323 256.281 109.401 256.293 109.485C256.31 109.568 256.321 109.652 256.332 109.736C256.349 109.836 256.36 109.937 256.366 110.038C256.377 110.123 256.383 110.209 256.383 110.295C256.388 110.413 256.394 110.535 256.394 110.653Z" fill="#069550"/>
<path opacity="0.29" d="M256.394 205.813V206.816C256.394 210.794 253.279 214.02 249.438 214.02H77.6618C73.8204 214.02 70.7056 210.794 70.7056 206.816V205.813L159.058 148.139C160.388 147.264 161.95 146.796 163.547 146.796C165.144 146.796 166.705 147.264 168.036 148.139L256.394 205.813Z" fill="#474747"/>
<path d="M256.394 206.157V207.118C256.394 208.949 255.661 210.704 254.356 211.998C253.052 213.292 251.282 214.019 249.438 214.02H77.6618C75.817 214.019 74.0477 213.292 72.7432 211.998C71.4387 210.704 70.7057 208.949 70.7056 207.118V206.157L159.058 150.905C160.402 150.065 161.958 149.619 163.547 149.619C165.136 149.619 166.692 150.065 168.036 150.905L256.394 206.157Z" fill="#006430"/>
<path d="M154.831 63.5054H103.136C101.468 63.5054 100.117 64.8465 100.117 66.5009V67.7745C100.117 69.4289 101.468 70.7701 103.136 70.7701H154.831C156.499 70.7701 157.85 69.4289 157.85 67.7745V66.5009C157.85 64.8465 156.499 63.5054 154.831 63.5054Z" fill="#069550"/>
<path d="M94.668 200.741C94.6525 200.741 94.6372 200.741 94.6217 200.74C92.5623 200.659 90.4893 200.482 88.4604 200.215C88.1607 200.176 87.8891 200.02 87.7053 199.782C87.5215 199.544 87.4406 199.243 87.4803 198.946C87.52 198.648 87.6772 198.379 87.9172 198.197C88.1571 198.014 88.4603 197.934 88.76 197.973C90.7199 198.231 92.7226 198.402 94.7127 198.48C95.01 198.493 95.2905 198.621 95.4942 198.836C95.6979 199.051 95.8087 199.337 95.8029 199.632C95.7971 199.927 95.6751 200.209 95.4631 200.416C95.2511 200.623 94.9658 200.74 94.6682 200.741L94.668 200.741ZM100.744 200.713C100.447 200.712 100.163 200.595 99.9512 200.389C99.7396 200.183 99.6172 199.903 99.6101 199.609C99.603 199.315 99.7118 199.029 99.9133 198.813C100.115 198.597 100.393 198.468 100.689 198.452C102.655 198.358 104.66 198.176 106.647 197.913C106.796 197.892 106.948 197.9 107.093 197.938C107.239 197.976 107.375 198.041 107.495 198.131C107.615 198.222 107.716 198.334 107.791 198.463C107.867 198.592 107.916 198.735 107.936 198.883C107.956 199.03 107.946 199.181 107.907 199.325C107.869 199.469 107.801 199.604 107.71 199.722C107.618 199.841 107.504 199.94 107.373 200.014C107.243 200.088 107.099 200.136 106.949 200.154C104.898 200.427 102.829 200.614 100.8 200.712C100.781 200.712 100.763 200.713 100.744 200.713ZM82.629 199.152C82.5427 199.152 82.4567 199.142 82.3726 199.123C80.3735 198.667 78.3692 198.11 76.4154 197.467C76.2717 197.422 76.1386 197.349 76.0236 197.252C75.9087 197.155 75.8143 197.036 75.7458 196.903C75.6774 196.77 75.6363 196.624 75.6249 196.475C75.6135 196.326 75.6321 196.176 75.6796 196.034C75.727 195.892 75.8024 195.761 75.9013 195.648C76.0003 195.535 76.1208 195.443 76.256 195.376C76.3911 195.31 76.5382 195.271 76.6887 195.261C76.8392 195.252 76.9901 195.272 77.1327 195.321C79.0186 195.941 80.9535 196.479 82.883 196.919C83.1562 196.981 83.3968 197.14 83.5589 197.367C83.721 197.594 83.7933 197.872 83.7618 198.148C83.7304 198.425 83.5975 198.68 83.3885 198.865C83.1795 199.05 82.909 199.153 82.6288 199.153L82.629 199.152ZM112.788 199.13C112.506 199.129 112.235 199.026 112.026 198.839C111.817 198.652 111.685 198.395 111.655 198.118C111.626 197.84 111.7 197.561 111.865 197.335C112.03 197.109 112.274 196.952 112.549 196.893C114.482 196.481 116.437 195.987 118.36 195.425C118.503 195.383 118.654 195.369 118.803 195.385C118.952 195.401 119.096 195.445 119.227 195.516C119.359 195.587 119.475 195.683 119.569 195.799C119.663 195.915 119.733 196.047 119.776 196.19C119.818 196.332 119.832 196.482 119.816 196.629C119.8 196.777 119.755 196.92 119.683 197.051C119.612 197.181 119.515 197.296 119.398 197.39C119.282 197.483 119.148 197.553 119.004 197.595C117.028 198.173 115.018 198.68 113.029 199.104C112.95 199.121 112.869 199.13 112.788 199.13ZM124.451 195.734C124.184 195.734 123.925 195.641 123.72 195.471C123.515 195.301 123.377 195.064 123.329 194.803C123.282 194.542 123.328 194.273 123.46 194.043C123.593 193.812 123.802 193.635 124.053 193.543C125.915 192.854 127.783 192.09 129.604 191.271C129.74 191.209 129.888 191.174 130.038 191.169C130.188 191.163 130.338 191.187 130.478 191.239C130.619 191.292 130.748 191.371 130.858 191.472C130.967 191.574 131.056 191.696 131.118 191.832C131.18 191.968 131.214 192.115 131.219 192.264C131.224 192.412 131.199 192.561 131.145 192.7C131.092 192.84 131.011 192.967 130.908 193.075C130.805 193.184 130.681 193.271 130.544 193.332C128.676 194.171 126.76 194.955 124.849 195.662C124.722 195.709 124.587 195.733 124.451 195.733V195.734ZM71.0909 195.376C70.9368 195.375 70.7844 195.344 70.6427 195.284C68.7972 194.5 66.9219 193.62 65.0679 192.669C64.9324 192.602 64.8116 192.509 64.7125 192.396C64.6135 192.282 64.5382 192.15 64.4911 192.007C64.444 191.865 64.4259 191.714 64.4381 191.565C64.4502 191.415 64.4922 191.269 64.5617 191.136C64.6312 191.003 64.7268 190.884 64.8428 190.788C64.9589 190.692 65.0931 190.619 65.2377 190.575C65.3822 190.531 65.5342 190.515 65.6848 190.53C65.8354 190.544 65.9816 190.589 66.1148 190.66C67.9201 191.585 69.7455 192.442 71.5404 193.205C71.7815 193.307 71.9795 193.49 72.1009 193.721C72.2224 193.951 72.2598 194.217 72.2069 194.472C72.1541 194.727 72.0142 194.956 71.8108 195.121C71.6074 195.285 71.353 195.375 71.0906 195.376H71.0909ZM135.525 190.752C135.272 190.752 135.025 190.668 134.825 190.514C134.625 190.359 134.482 190.143 134.42 189.899C134.357 189.655 134.379 189.397 134.481 189.167C134.583 188.936 134.759 188.746 134.982 188.626C136.585 187.766 138.111 186.878 139.516 185.987C139.642 185.907 139.783 185.852 139.93 185.826C140.078 185.8 140.229 185.803 140.375 185.835C140.521 185.867 140.66 185.927 140.782 186.012C140.905 186.097 141.01 186.206 141.09 186.331C141.171 186.456 141.226 186.596 141.252 186.742C141.278 186.888 141.275 187.038 141.243 187.183C141.211 187.328 141.15 187.466 141.065 187.587C140.979 187.709 140.87 187.813 140.744 187.893C139.292 188.814 137.718 189.73 136.067 190.616C135.901 190.705 135.714 190.752 135.525 190.752V190.752ZM60.2854 189.842C60.0773 189.842 59.8731 189.786 59.6952 189.678C57.9295 188.615 56.1952 187.488 54.5399 186.33C54.4162 186.245 54.3107 186.136 54.2296 186.011C54.1484 185.885 54.0931 185.744 54.0669 185.597C54.0407 185.45 54.0441 185.3 54.0769 185.154C54.1097 185.008 54.1713 184.87 54.258 184.748C54.3448 184.626 54.4551 184.523 54.5825 184.443C54.7099 184.364 54.8519 184.31 55.0003 184.285C55.1487 184.26 55.3006 184.265 55.4472 184.299C55.5938 184.332 55.7322 184.395 55.8545 184.482C57.4666 185.61 59.1568 186.708 60.8782 187.744C61.0911 187.872 61.256 188.066 61.3475 188.295C61.439 188.525 61.4522 188.778 61.3851 189.016C61.3179 189.254 61.1741 189.464 60.9756 189.613C60.7771 189.762 60.5348 189.843 60.2858 189.843L60.2854 189.842ZM50.3547 182.875C50.0902 182.875 49.834 182.784 49.6302 182.617C48.0848 181.354 46.604 180.042 45.2246 178.717C44.9648 178.559 44.7785 178.305 44.7063 178.011C44.6341 177.717 44.6817 177.407 44.8389 177.148C44.9961 176.889 45.25 176.702 45.5455 176.627C45.841 176.553 46.1541 176.598 46.4167 176.751C48.2572 177.16 50.1189 177.469 51.9935 177.676C52.294 177.709 52.569 177.859 52.758 178.093C52.947 178.327 53.0344 178.626 53.0012 178.924C52.9679 179.223 52.8166 179.495 52.5806 179.683C52.3446 179.87 52.0431 179.957 51.7426 179.924C51.038 179.847 50.3315 179.755 49.6232 179.648C50.1014 180.06 50.587 180.467 51.0801 180.871C51.2614 181.019 51.392 181.219 51.4543 181.444C51.5166 181.669 51.5074 181.907 51.428 182.126C51.3486 182.345 51.2028 182.535 51.0107 182.669C50.8185 182.803 50.5894 182.875 50.3545 182.875L50.3547 182.875ZM57.9359 180.239C57.6351 180.238 57.3468 180.119 57.134 179.908C56.9212 179.697 56.801 179.411 56.7997 179.113C56.7985 178.814 56.9161 178.527 57.1271 178.314C57.3381 178.102 57.6254 177.98 57.9262 177.977C59.514 177.963 61.1177 177.872 62.6935 177.706C63.0164 177.672 63.3975 177.631 63.8694 177.575C64.018 177.558 64.1687 177.569 64.3128 177.609C64.4569 177.65 64.5916 177.717 64.7093 177.809C64.8269 177.901 64.9252 178.015 64.9984 178.145C65.0717 178.274 65.1186 178.417 65.1363 178.564C65.1541 178.711 65.1424 178.861 65.1019 179.004C65.0614 179.147 64.9929 179.281 64.9004 179.397C64.8078 179.514 64.693 179.612 64.5625 179.684C64.432 179.757 64.2883 179.803 64.1397 179.821C63.6565 179.878 63.2662 179.92 62.982 179.95C61.2856 180.129 59.607 180.225 57.9463 180.239H57.9359ZM70.0156 178.842C69.7338 178.841 69.4621 178.737 69.2529 178.55C69.0437 178.363 68.9119 178.105 68.8829 177.827C68.8539 177.549 68.9297 177.27 69.0957 177.044C69.2617 176.818 69.5061 176.661 69.7819 176.603C71.7677 176.189 73.7169 175.69 75.5753 175.121C75.8627 175.038 76.1715 175.07 76.435 175.211C76.6985 175.352 76.8957 175.59 76.9839 175.874C77.0721 176.158 77.0443 176.465 76.9064 176.728C76.7686 176.992 76.5318 177.191 76.2472 177.283C74.3224 177.871 72.305 178.388 70.2514 178.817C70.174 178.833 70.0951 178.841 70.016 178.842H70.0156ZM40.0437 177.241C39.915 177.241 39.7871 177.22 39.6657 177.177C37.7144 176.496 35.8019 175.709 33.9367 174.821C33.6663 174.69 33.4592 174.458 33.3605 174.176C33.2618 173.894 33.2794 173.585 33.4096 173.316C33.5398 173.046 33.772 172.839 34.0555 172.739C34.3391 172.639 34.651 172.654 34.9233 172.781C36.7132 173.634 38.5487 174.389 40.4215 175.043C40.6752 175.132 40.889 175.307 41.0253 175.537C41.1617 175.767 41.2116 176.037 41.1664 176.3C41.1212 176.563 40.9837 176.802 40.7782 176.974C40.5728 177.146 40.3126 177.241 40.0436 177.241L40.0437 177.241ZM81.6265 175.261C81.3638 175.261 81.1091 175.171 80.9054 175.007C80.7018 174.842 80.5615 174.613 80.5085 174.358C80.4555 174.102 80.493 173.837 80.6145 173.606C80.7361 173.375 80.9343 173.192 81.1756 173.09C82.9959 172.318 84.7638 171.43 86.4681 170.431C86.5968 170.355 86.7394 170.305 86.8877 170.283C87.036 170.262 87.1871 170.269 87.3324 170.306C87.4777 170.343 87.6143 170.407 87.7343 170.496C87.8544 170.585 87.9556 170.697 88.0322 170.825C88.1087 170.952 88.1591 171.094 88.1805 171.241C88.2019 171.388 88.1938 171.538 88.1567 171.682C88.1196 171.826 88.0543 171.962 87.9644 172.081C87.8745 172.2 87.7618 172.3 87.6329 172.376C85.8436 173.425 83.9875 174.358 82.0763 175.168C81.9342 175.229 81.7812 175.26 81.6265 175.261ZM41.6882 174.437C41.5217 174.437 41.3572 174.401 41.2063 174.331C41.0553 174.261 40.9217 174.159 40.8147 174.033C39.4791 172.461 38.2383 170.811 37.0988 169.094C37.0141 168.969 36.9551 168.83 36.9253 168.683C36.8955 168.536 36.8955 168.384 36.9251 168.237C36.9548 168.09 37.0137 167.951 37.0983 167.826C37.1829 167.702 37.2916 167.596 37.418 167.514C37.5444 167.431 37.686 167.375 37.8345 167.348C37.9831 167.32 38.1357 167.322 38.2834 167.354C38.4312 167.386 38.5711 167.446 38.695 167.532C38.819 167.618 38.9245 167.727 39.0055 167.854C40.0957 169.496 41.2826 171.074 42.56 172.578C42.6996 172.743 42.7888 172.944 42.8173 173.157C42.8457 173.371 42.8122 173.588 42.7206 173.783C42.629 173.978 42.4832 174.143 42.3003 174.259C42.1173 174.375 41.9049 174.437 41.6879 174.437H41.6882ZM29.0984 172.037C28.8867 172.037 28.6792 171.978 28.4992 171.868C26.7415 170.788 25.0424 169.617 23.4091 168.359C23.2908 168.268 23.1918 168.155 23.1177 168.026C23.0436 167.897 22.9958 167.755 22.977 167.607C22.9583 167.46 22.969 167.311 23.0086 167.167C23.0481 167.024 23.1157 166.89 23.2074 166.773C23.2992 166.655 23.4134 166.557 23.5434 166.484C23.6734 166.41 23.8168 166.363 23.9653 166.344C24.1138 166.326 24.2645 166.336 24.4089 166.375C24.5532 166.415 24.6884 166.482 24.8066 166.573C26.3766 167.781 28.0097 168.906 29.699 169.943C29.91 170.073 30.0726 170.267 30.1622 170.497C30.2518 170.726 30.2635 170.979 30.1955 171.215C30.1276 171.452 29.9837 171.66 29.7856 171.809C29.5876 171.957 29.3463 172.037 29.0982 172.037H29.0984ZM92.0139 169.06C91.7799 169.06 91.5516 168.989 91.3598 168.856C91.1681 168.723 91.0222 168.535 90.9421 168.316C90.862 168.098 90.8514 167.861 90.9119 167.637C90.9724 167.412 91.1009 167.212 91.2801 167.063C92.7789 165.821 94.1519 164.436 95.3795 162.929C95.5697 162.698 95.8445 162.551 96.1438 162.519C96.4432 162.488 96.7428 162.576 96.9774 162.763C97.212 162.95 97.3625 163.221 97.3961 163.518C97.4298 163.815 97.3438 164.113 97.1569 164.347C95.8359 165.968 94.3587 167.458 92.7464 168.795C92.5415 168.967 92.282 169.061 92.0139 169.061V169.06ZM19.5109 164.654C19.216 164.654 18.9324 164.541 18.7204 164.337C17.23 162.915 15.8182 161.413 14.4911 159.84C14.3951 159.726 14.3226 159.594 14.2779 159.453C14.2331 159.311 14.2169 159.162 14.2302 159.014C14.2435 158.866 14.286 158.722 14.3554 158.59C14.4247 158.459 14.5195 158.342 14.6344 158.247C14.7492 158.152 14.8818 158.08 15.0246 158.035C15.1675 157.991 15.3177 157.975 15.4668 157.988C15.6159 158.001 15.761 158.043 15.8936 158.112C16.0263 158.181 16.144 158.275 16.24 158.389C17.5148 159.9 18.8705 161.341 20.3015 162.708C20.4651 162.864 20.5778 163.065 20.6253 163.286C20.6727 163.506 20.6527 163.736 20.5677 163.945C20.4828 164.154 20.3368 164.333 20.1485 164.459C19.9602 164.586 19.7382 164.653 19.5109 164.653V164.654ZM35.0864 164.345C34.8691 164.345 34.6563 164.284 34.473 164.168C34.2898 164.052 34.1437 163.886 34.0521 163.691C33.1654 161.81 32.444 159.857 31.8959 157.854C31.819 157.564 31.8606 157.257 32.0118 156.998C32.163 156.739 32.4114 156.55 32.7026 156.473C32.9938 156.395 33.3041 156.435 33.5656 156.584C33.8271 156.733 34.0185 156.979 34.0979 157.267C34.6119 159.144 35.2882 160.974 36.1193 162.736C36.2002 162.909 36.236 163.098 36.2235 163.288C36.2109 163.478 36.1503 163.661 36.0474 163.821C35.9444 163.982 35.8024 164.114 35.6344 164.205C35.4665 164.297 35.278 164.345 35.0864 164.345V164.345ZM99.533 159.705C99.3392 159.705 99.1487 159.655 98.9793 159.562C98.81 159.468 98.6675 159.333 98.5654 159.17C98.4632 159.007 98.4046 158.82 98.3953 158.628C98.386 158.436 98.4261 158.245 98.512 158.073C99.3219 156.44 99.9621 154.73 100.423 152.969L100.505 152.65C100.541 152.506 100.606 152.37 100.695 152.251C100.784 152.131 100.896 152.031 101.025 151.954C101.153 151.878 101.295 151.827 101.444 151.806C101.592 151.784 101.743 151.791 101.888 151.827C102.033 151.863 102.17 151.927 102.29 152.016C102.41 152.104 102.512 152.215 102.589 152.343C102.666 152.47 102.717 152.611 102.739 152.758C102.761 152.905 102.753 153.055 102.717 153.199L102.629 153.54C102.13 155.45 101.435 157.305 100.556 159.075C100.462 159.264 100.316 159.423 100.135 159.535C99.9543 159.646 99.7458 159.705 99.533 159.705ZM11.7326 155.415C11.5442 155.415 11.3586 155.369 11.1926 155.281C11.0266 155.192 10.8853 155.064 10.7814 154.908C9.63796 153.196 8.5937 151.42 7.65365 149.59C7.51731 149.323 7.49335 149.013 7.58704 148.728C7.68073 148.444 7.88442 148.208 8.15341 148.072C8.4224 147.936 8.73474 147.911 9.02191 148.004C9.30908 148.096 9.54764 148.297 9.68524 148.564C10.586 150.317 11.5866 152.019 12.682 153.659C12.7957 153.83 12.8607 154.028 12.8703 154.232C12.8798 154.436 12.8334 154.639 12.736 154.819C12.6387 154.999 12.494 155.149 12.3173 155.254C12.1406 155.359 11.9386 155.415 11.7326 155.415ZM32.0009 152.761C31.7116 152.761 31.4332 152.651 31.2222 152.455C31.0112 152.258 30.8833 151.989 30.8646 151.703C30.8224 151.059 30.801 150.404 30.801 149.757C30.8016 148.317 30.9053 146.879 31.1112 145.454C31.1312 145.306 31.1807 145.163 31.2567 145.034C31.3326 144.905 31.4336 144.793 31.5537 144.703C31.6738 144.613 31.8107 144.547 31.9566 144.51C32.1024 144.472 32.2542 144.464 32.4032 144.485C32.5523 144.507 32.6956 144.557 32.8249 144.633C32.9543 144.71 33.0671 144.811 33.1568 144.931C33.2465 145.051 33.3114 145.187 33.3477 145.332C33.384 145.477 33.391 145.628 33.3683 145.776C33.1776 147.094 33.0815 148.425 33.0808 149.757C33.0808 150.356 33.1005 150.961 33.1395 151.556C33.1492 151.704 33.1294 151.853 33.0812 151.994C33.033 152.134 32.9573 152.264 32.8584 152.376C32.7596 152.488 32.6396 152.579 32.5052 152.644C32.3709 152.71 32.2248 152.749 32.0754 152.758C32.0504 152.76 32.0254 152.761 32.0008 152.761L32.0009 152.761ZM102.471 148.093C102.454 148.093 102.438 148.092 102.421 148.092C102.119 148.079 101.834 147.947 101.63 147.726C101.426 147.505 101.318 147.213 101.331 146.913C101.35 146.476 101.36 146.039 101.36 145.602C101.358 144.098 101.249 142.596 101.035 141.107C101.014 140.96 101.022 140.81 101.059 140.666C101.096 140.522 101.162 140.387 101.252 140.268C101.342 140.15 101.454 140.049 101.583 139.974C101.712 139.898 101.854 139.849 102.003 139.828C102.151 139.807 102.302 139.815 102.447 139.852C102.592 139.889 102.728 139.954 102.848 140.043C102.967 140.132 103.068 140.244 103.145 140.371C103.221 140.499 103.271 140.641 103.292 140.788C103.522 142.382 103.638 143.991 103.639 145.602C103.64 146.071 103.63 146.541 103.609 147.011C103.596 147.302 103.471 147.577 103.259 147.778C103.047 147.98 102.764 148.093 102.471 148.093L102.471 148.093ZM6.22446 144.688C5.99209 144.688 5.76529 144.618 5.57442 144.486C5.38356 144.355 5.23776 144.169 5.15655 143.953C4.43412 142.028 3.81921 140.066 3.31462 138.075C3.27697 137.931 3.26849 137.78 3.28966 137.633C3.31083 137.485 3.36124 137.343 3.43798 137.215C3.51471 137.086 3.61627 136.974 3.73679 136.885C3.85732 136.796 3.99444 136.731 4.14025 136.695C4.28605 136.659 4.43768 136.651 4.58638 136.673C4.73509 136.695 4.87794 136.746 5.00672 136.823C5.13549 136.9 5.24764 137.002 5.33672 137.122C5.42579 137.242 5.49002 137.378 5.52572 137.523C6.00964 139.434 6.59946 141.316 7.29247 143.162C7.35685 143.333 7.37852 143.517 7.35563 143.698C7.33274 143.879 7.26596 144.052 7.16101 144.202C7.05606 144.352 6.91605 144.475 6.75296 144.559C6.58987 144.644 6.40853 144.688 6.22446 144.688ZM33.6728 140.891C33.4916 140.891 33.3131 140.848 33.152 140.766C32.9908 140.684 32.8518 140.565 32.7463 140.418C32.6408 140.272 32.5719 140.103 32.5454 139.926C32.5188 139.748 32.5353 139.566 32.5935 139.396C33.2692 137.438 34.0933 135.534 35.0587 133.699C35.1983 133.433 35.4388 133.233 35.7273 133.143C36.0157 133.052 36.3284 133.08 36.5967 133.218C36.8649 133.357 37.0667 133.595 37.1576 133.881C37.2485 134.168 37.2211 134.478 37.0815 134.744C36.1693 136.477 35.3906 138.275 34.7521 140.124C34.6755 140.348 34.5303 140.542 34.3368 140.68C34.1433 140.817 33.9113 140.891 33.6733 140.892L33.6728 140.891ZM100.791 136.208C100.55 136.208 100.315 136.132 100.12 135.991C99.9253 135.85 99.7805 135.651 99.7066 135.423C99.1019 133.567 98.3479 131.761 97.4517 130.024C97.3836 129.892 97.3423 129.748 97.3303 129.6C97.3183 129.452 97.3359 129.303 97.3819 129.161C97.4279 129.02 97.5016 128.889 97.5987 128.776C97.6957 128.663 97.8143 128.57 97.9476 128.502C98.0809 128.434 98.2263 128.393 98.3756 128.382C98.5249 128.37 98.675 128.387 98.8175 128.433C98.96 128.478 99.092 128.552 99.206 128.648C99.32 128.744 99.4138 128.862 99.482 128.994C100.434 130.839 101.234 132.757 101.877 134.73C101.932 134.899 101.946 135.079 101.917 135.256C101.889 135.432 101.819 135.599 101.713 135.743C101.607 135.887 101.469 136.004 101.308 136.085C101.148 136.166 100.971 136.208 100.791 136.208ZM3.2527 133.013C2.97844 133.012 2.71353 132.914 2.50653 132.735C2.29952 132.557 2.16428 132.31 2.12559 132.041C1.83739 130.012 1.65188 127.969 1.56975 125.921C1.55771 125.621 1.66619 125.329 1.87133 125.109C2.07646 124.888 2.36144 124.758 2.66359 124.746C2.96573 124.734 3.26028 124.841 3.48244 125.045C3.7046 125.248 3.83617 125.531 3.84821 125.831C3.92717 127.803 4.10577 129.769 4.38335 131.723C4.4059 131.884 4.39354 132.047 4.34709 132.202C4.30065 132.358 4.2212 132.501 4.11411 132.623C4.00701 132.746 3.87475 132.844 3.72624 132.911C3.57773 132.978 3.41641 133.013 3.25315 133.013L3.2527 133.013ZM39.2342 130.204C39.0255 130.204 38.8209 130.147 38.6426 130.039C38.4644 129.932 38.3193 129.778 38.2233 129.594C38.1272 129.41 38.0839 129.204 38.0979 128.997C38.112 128.79 38.1829 128.592 38.303 128.422C39.4992 126.738 40.8014 125.131 42.2018 123.61C42.3027 123.501 42.4245 123.412 42.56 123.349C42.6956 123.286 42.8424 123.25 42.9919 123.243C43.1415 123.237 43.2909 123.259 43.4316 123.31C43.5724 123.36 43.7017 123.438 43.8123 123.538C43.9228 123.638 44.0124 123.759 44.0759 123.893C44.1393 124.028 44.1755 124.174 44.1823 124.322C44.189 124.47 44.1663 124.619 44.1153 124.758C44.0643 124.898 43.9861 125.026 43.8852 125.136C42.5499 126.586 41.3081 128.119 40.1673 129.724C40.0622 129.873 39.9226 129.994 39.7601 130.078C39.5977 130.161 39.4174 130.205 39.2344 130.205L39.2342 130.204ZM95.281 125.509C95.1017 125.509 94.9248 125.467 94.7648 125.387C94.6048 125.306 94.4662 125.189 94.3602 125.046C93.1996 123.471 91.9109 121.994 90.5069 120.629C90.2908 120.419 90.1676 120.132 90.1643 119.832C90.161 119.532 90.278 119.243 90.4894 119.029C90.7009 118.815 90.9895 118.692 91.2919 118.689C91.5942 118.686 91.8854 118.802 92.1015 119.012C93.5947 120.464 94.9654 122.035 96.1999 123.709C96.3242 123.878 96.3991 124.077 96.4163 124.286C96.4334 124.494 96.3921 124.703 96.297 124.889C96.2018 125.075 96.0566 125.232 95.8772 125.341C95.6979 125.451 95.4916 125.509 95.281 125.509ZM47.4192 121.317C47.1857 121.317 46.9578 121.246 46.7663 121.114C46.5748 120.981 46.4289 120.793 46.3484 120.576C46.268 120.358 46.2568 120.122 46.3163 119.898C46.3759 119.673 46.5034 119.473 46.6815 119.323C48.2668 117.988 49.9415 116.761 51.6942 115.651C51.9493 115.49 52.2584 115.436 52.5536 115.501C52.8487 115.566 53.1058 115.745 53.2681 115.998C53.4305 116.251 53.4849 116.558 53.4194 116.85C53.3539 117.143 53.1738 117.398 52.9188 117.559C51.2533 118.614 49.6619 119.78 48.1557 121.049C47.9503 121.222 47.6894 121.317 47.4198 121.317L47.4192 121.317ZM2.76341 120.976C2.74144 120.976 2.71938 120.976 2.69704 120.975C2.39516 120.957 2.11256 120.822 1.91137 120.598C1.71018 120.374 1.6069 120.08 1.62423 119.78C1.74123 117.734 1.96202 115.694 2.28575 113.67C2.30857 113.523 2.36053 113.381 2.43865 113.254C2.51676 113.126 2.61949 113.016 2.74092 112.928C2.86235 112.84 3.00008 112.777 3.14619 112.742C3.29231 112.707 3.44392 112.701 3.5923 112.725C3.74069 112.748 3.88293 112.801 4.01083 112.879C4.13873 112.957 4.24977 113.06 4.33757 113.181C4.42536 113.302 4.48818 113.439 4.5224 113.584C4.55662 113.729 4.56157 113.88 4.53697 114.027C4.22556 115.976 4.01323 117.94 3.90078 119.91C3.88395 120.198 3.75684 120.469 3.54543 120.667C3.33402 120.866 3.05428 120.976 2.76341 120.976ZM86.6058 117.133C86.378 117.133 86.1553 117.065 85.967 116.938C84.3525 115.848 82.6334 114.919 80.8347 114.164C80.6967 114.107 80.5714 114.023 80.4661 113.917C80.3608 113.812 80.2775 113.687 80.2209 113.549C80.1643 113.412 80.1356 113.264 80.1363 113.116C80.1371 112.967 80.1674 112.82 80.2254 112.683C80.2834 112.546 80.368 112.422 80.4744 112.318C80.5809 112.213 80.707 112.13 80.8456 112.074C80.9842 112.018 81.1326 111.99 81.2824 111.99C81.4321 111.991 81.5802 112.021 81.7182 112.079C83.6557 112.891 85.5074 113.892 87.2465 115.066C87.4484 115.201 87.6011 115.398 87.682 115.626C87.763 115.855 87.7679 116.103 87.6962 116.334C87.6245 116.565 87.4799 116.768 87.2836 116.912C87.0874 117.055 86.8498 117.133 86.6058 117.133ZM57.6597 114.891C57.3981 114.891 57.1443 114.801 56.9411 114.638C56.738 114.474 56.5977 114.246 56.5438 113.992C56.49 113.738 56.5258 113.473 56.6454 113.242C56.765 113.011 56.961 112.828 57.2005 112.724C59.1156 111.885 61.101 111.214 63.1339 110.718C63.2803 110.681 63.4328 110.672 63.5824 110.693C63.7321 110.715 63.876 110.765 64.0058 110.842C64.1356 110.919 64.2486 111.021 64.3383 111.142C64.428 111.263 64.4926 111.4 64.5283 111.546C64.5641 111.692 64.5702 111.843 64.5464 111.991C64.5226 112.139 64.4693 112.281 64.3897 112.409C64.3101 112.536 64.2057 112.647 64.0826 112.734C63.9594 112.821 63.8201 112.883 63.6726 112.916C61.7693 113.38 59.9106 114.009 58.1177 114.794C57.9735 114.858 57.8175 114.891 57.6597 114.891ZM75.4644 112.53C75.3952 112.53 75.3262 112.524 75.2582 112.512C73.689 112.229 72.0974 112.086 70.5025 112.087C70.18 112.081 69.8027 112.093 69.4534 112.107C69.1512 112.118 68.8567 112.01 68.6347 111.806C68.4128 111.603 68.2815 111.32 68.2698 111.02C68.2581 110.72 68.367 110.428 68.5724 110.208C68.7778 109.987 69.063 109.857 69.3652 109.846C69.7441 109.831 70.1492 109.838 70.5032 109.824C72.2353 109.824 73.9638 109.979 75.6679 110.286C75.9478 110.337 76.1984 110.49 76.3707 110.714C76.5429 110.939 76.6243 111.219 76.5987 111.5C76.5732 111.781 76.4427 112.043 76.2328 112.234C76.0229 112.424 75.7488 112.53 75.4644 112.53V112.53ZM4.72192 109.091C4.54583 109.091 4.37213 109.051 4.21443 108.973C4.05673 108.895 3.91931 108.782 3.81295 108.643C3.70658 108.504 3.63416 108.342 3.60136 108.171C3.56855 107.999 3.57625 107.822 3.62386 107.654C4.18424 105.68 4.85102 103.738 5.62132 101.835C5.67538 101.694 5.75705 101.566 5.86157 101.458C5.96609 101.349 6.09136 101.262 6.23008 101.202C6.3688 101.142 6.51819 101.11 6.66954 101.108C6.82088 101.105 6.97116 101.133 7.1116 101.189C7.25204 101.245 7.37983 101.328 7.48753 101.434C7.59522 101.539 7.68065 101.665 7.73885 101.804C7.79705 101.942 7.82684 102.091 7.82649 102.241C7.82614 102.391 7.79565 102.54 7.73681 102.678C6.99685 104.506 6.35647 106.371 5.81844 108.266C5.75112 108.504 5.60757 108.712 5.40962 108.861C5.21166 109.01 4.97014 109.091 4.72174 109.091L4.72192 109.091ZM9.23999 97.9233C9.04346 97.923 8.85034 97.8723 8.67936 97.7762C8.50839 97.6801 8.36535 97.5417 8.26414 97.3746C8.16292 97.2074 8.10696 97.0172 8.10167 96.8223C8.09639 96.6274 8.14198 96.4344 8.234 96.2621C9.20306 94.4515 10.2653 92.6915 11.4164 90.9891C11.4998 90.8657 11.6069 90.7599 11.7316 90.6776C11.8562 90.5953 11.996 90.5382 12.1429 90.5095C12.2898 90.4808 12.441 90.4811 12.5878 90.5104C12.7346 90.5396 12.8741 90.5973 12.9984 90.6801C13.1228 90.7628 13.2294 90.8691 13.3124 90.9928C13.3953 91.1164 13.4529 91.2551 13.4818 91.4009C13.5107 91.5466 13.5104 91.6966 13.4809 91.8422C13.4515 91.9879 13.3933 92.1263 13.3099 92.2497C12.2024 93.8873 11.1804 95.5803 10.248 97.322C10.1509 97.5037 10.0058 97.6557 9.82813 97.7616C9.65048 97.8675 9.44707 97.9234 9.23981 97.9231L9.23999 97.9233ZM15.9971 87.9153C15.7809 87.9153 15.5691 87.8542 15.3866 87.7392C15.204 87.6242 15.0582 87.4601 14.9661 87.2659C14.874 87.0718 14.8395 86.8557 14.8666 86.6429C14.8937 86.43 14.9813 86.2292 15.1191 86.0638C16.4229 84.4981 17.8257 82.971 19.2881 81.5252C19.3941 81.4204 19.52 81.3373 19.6584 81.2807C19.7968 81.2241 19.945 81.1951 20.0947 81.1953C20.2444 81.1956 20.3926 81.2251 20.5308 81.2822C20.669 81.3392 20.7945 81.4228 20.9002 81.528C21.0059 81.6332 21.0896 81.758 21.1467 81.8953C21.2037 82.0326 21.2329 82.1797 21.2327 82.3282C21.2324 82.4768 21.2027 82.6238 21.1452 82.7609C21.0876 82.898 21.0035 83.0226 20.8974 83.1274C19.4869 84.5223 18.1341 85.9951 16.8762 87.5053C16.7692 87.6338 16.6349 87.7373 16.4829 87.8082C16.3309 87.8791 16.1649 87.9157 15.9969 87.9153H15.9971ZM24.5971 79.4042C24.3623 79.4042 24.1333 79.3324 23.9412 79.1984C23.7492 79.0645 23.6034 78.875 23.524 78.6559C23.4445 78.4367 23.4352 78.1985 23.4972 77.9739C23.5593 77.7493 23.6897 77.5491 23.8707 77.4008C25.4475 76.1091 27.1109 74.8686 28.8144 73.7135C28.9379 73.6289 29.0771 73.5694 29.2239 73.5384C29.3707 73.5074 29.5223 73.5054 29.6699 73.5326C29.8174 73.5598 29.9581 73.6157 30.0839 73.697C30.2097 73.7783 30.318 73.8835 30.4027 74.0064C30.4874 74.1293 30.5468 74.2677 30.5775 74.4135C30.6082 74.5592 30.6096 74.7096 30.5815 74.8559C30.5535 75.0022 30.4966 75.1416 30.4142 75.266C30.3317 75.3905 30.2253 75.4975 30.1011 75.5811C28.454 76.6981 26.846 77.8967 25.3221 79.145C25.1183 79.3128 24.8617 79.4045 24.5969 79.4042H24.5971ZM34.6277 72.5992C34.3754 72.5994 34.1302 72.5166 33.9305 72.3637C33.7307 72.2108 33.5877 71.9965 33.5239 71.7543C33.46 71.5122 33.4789 71.2559 33.5776 71.0255C33.6763 70.7952 33.8492 70.6038 34.0692 70.4814C35.8525 69.4894 37.7093 68.5594 39.5876 67.7175C39.7241 67.6552 39.8718 67.6204 40.022 67.6149C40.1722 67.6095 40.3221 67.6336 40.4629 67.6858C40.6037 67.7381 40.7327 67.8174 40.8424 67.9193C40.9522 68.0212 41.0406 68.1436 41.1024 68.2795C41.1643 68.4155 41.1985 68.5622 41.203 68.7112C41.2075 68.8603 41.1822 69.0088 41.1287 69.1482C41.0751 69.2875 40.9943 69.415 40.8909 69.5232C40.7875 69.6314 40.6635 69.7183 40.5261 69.7788C38.7079 70.5942 36.9103 71.4943 35.1842 72.4542C35.0143 72.5492 34.8225 72.5992 34.6275 72.5992H34.6277ZM45.7019 67.6304C45.4328 67.6305 45.1724 67.5362 44.9667 67.3642C44.7609 67.1921 44.6232 66.9535 44.5777 66.6904C44.5322 66.4273 44.582 66.1567 44.7182 65.9265C44.8544 65.6963 45.0683 65.5213 45.322 65.4324C47.2495 64.7568 49.2352 64.1526 51.2236 63.6355C51.3684 63.5979 51.5194 63.5889 51.6677 63.6092C51.8161 63.6294 51.9589 63.6784 52.0882 63.7535C52.2174 63.8285 52.3305 63.928 52.421 64.0464C52.5115 64.1648 52.5776 64.2997 52.6155 64.4435C52.6534 64.5872 52.6625 64.7369 52.6421 64.8841C52.6217 65.0313 52.5723 65.173 52.4966 65.3013C52.421 65.4295 52.3207 65.5417 52.2014 65.6315C52.082 65.7213 51.9461 65.7868 51.8012 65.8245C49.874 66.3251 47.9497 66.9113 46.0819 67.566C45.9597 67.6087 45.8311 67.6304 45.7015 67.6304H45.7019Z" fill="#FFB900"/>
<path opacity="0.1" d="M102.558 36.3989L16.543 47.7859L37.3967 63.4789L37.7236 92.3625L55.6939 77.2185L65.7919 84.7726L102.558 36.3989Z" fill="#232323"/>
<path d="M39.6001 90.6111L39.123 48.4201L104.436 34.6475L39.6001 90.6111Z" fill="#FF9500"/>
<path d="M39.4148 61.8337C39.7452 61.6693 104.435 34.6475 104.435 34.6475L18.4199 46.0344L39.4148 61.8337Z" fill="#FFB900"/>
<path d="M46.5449 67.2189L39.6001 90.6109L69.3856 65.5098L46.5449 67.2189Z" fill="#DAA00B"/>
<path d="M46.5449 67.2191L67.6687 83.0215L104.436 34.6475L46.5449 67.2191Z" fill="#FFB900"/>
<path opacity="0.1" d="M272.611 114.159C272.576 113.636 272.334 113.148 271.937 112.802C271.54 112.455 271.022 112.279 270.494 112.31L193.631 117.158C193.104 117.193 192.612 117.433 192.263 117.826C191.914 118.22 191.736 118.734 191.768 119.258L193.753 150.235C193.788 150.758 194.03 151.246 194.426 151.592C194.823 151.939 195.342 152.116 195.869 152.084L272.732 147.236C273.259 147.201 273.751 146.961 274.1 146.568C274.449 146.174 274.627 145.66 274.595 145.136L272.611 114.159Z" fill="#232323"/>
<path d="M274.676 144.388L197.813 149.236C197.285 149.267 196.767 149.091 196.37 148.744C195.974 148.398 195.731 147.91 195.696 147.387L193.712 116.409C193.68 115.886 193.858 115.372 194.207 114.978C194.556 114.585 195.048 114.344 195.575 114.31L272.438 109.462C272.965 109.43 273.484 109.607 273.881 109.953C274.277 110.3 274.519 110.788 274.555 111.311L276.539 142.288C276.571 142.812 276.393 143.326 276.044 143.72C275.695 144.113 275.203 144.353 274.676 144.388Z" fill="white"/>
<path d="M266.543 118.776L233.001 120.891C232.584 120.916 232.174 120.777 231.861 120.503C231.547 120.229 231.355 119.843 231.328 119.429L231.323 119.351C231.297 118.937 231.438 118.53 231.714 118.219C231.99 117.908 232.379 117.718 232.796 117.69L266.338 115.575C266.755 115.55 267.165 115.69 267.478 115.964C267.792 116.238 267.984 116.624 268.011 117.037L268.016 117.115C268.042 117.529 267.901 117.936 267.625 118.247C267.349 118.558 266.96 118.749 266.543 118.776Z" fill="#069550"/>
<path d="M266.99 125.758L233.449 127.874C233.032 127.899 232.622 127.759 232.308 127.485C231.994 127.211 231.803 126.825 231.775 126.411L231.77 126.333C231.745 125.919 231.885 125.512 232.162 125.201C232.438 124.89 232.827 124.7 233.244 124.672L266.785 122.557C267.202 122.532 267.612 122.672 267.926 122.946C268.239 123.22 268.431 123.606 268.459 124.019L268.464 124.097C268.489 124.511 268.348 124.918 268.072 125.229C267.796 125.541 267.407 125.731 266.99 125.758Z" fill="#ECF3FE"/>
<path d="M267.437 132.739L233.896 134.855C233.479 134.88 233.069 134.74 232.755 134.466C232.442 134.192 232.25 133.806 232.222 133.393L232.217 133.314C232.192 132.901 232.333 132.494 232.609 132.183C232.885 131.871 233.274 131.681 233.691 131.654L267.232 129.539C267.649 129.513 268.059 129.653 268.373 129.927C268.687 130.201 268.878 130.587 268.906 131.001L268.911 131.079C268.936 131.493 268.795 131.9 268.519 132.211C268.243 132.522 267.854 132.712 267.437 132.739Z" fill="#ECF3FE"/>
<path d="M267.885 139.721L234.343 141.837C233.926 141.862 233.516 141.722 233.202 141.448C232.889 141.174 232.697 140.788 232.67 140.375L232.665 140.296C232.639 139.882 232.78 139.476 233.056 139.164C233.332 138.853 233.721 138.663 234.138 138.636L267.679 136.52C268.096 136.495 268.507 136.635 268.82 136.909C269.134 137.183 269.325 137.569 269.353 137.983L269.358 138.061C269.383 138.475 269.243 138.881 268.967 139.193C268.691 139.504 268.302 139.694 267.885 139.721Z" fill="#ECF3FE"/>
<path d="M223.335 141.139C229.117 135.403 229.117 126.103 223.335 120.367C217.554 114.631 208.18 114.631 202.399 120.367C196.617 126.103 196.617 135.403 202.399 141.139C208.18 146.875 217.554 146.875 223.335 141.139Z" fill="#ECF3FE"/>
<path d="M220.657 139.797C219.891 140.466 219.039 141.033 218.125 141.482C217.655 141.715 217.17 141.915 216.672 142.081C216.137 142.262 215.589 142.404 215.033 142.504C211.995 143.064 208.856 142.417 206.294 140.703C206.674 139.885 207.216 139.15 207.886 138.543C208.556 137.935 209.341 137.466 210.196 137.163H210.198C210.198 137.162 210.199 137.162 210.2 137.161C210.2 137.161 210.201 137.161 210.202 137.161C210.503 137.054 210.812 136.97 211.127 136.91C211.139 136.906 211.152 136.903 211.165 136.901C211.447 136.846 211.733 136.81 212.02 136.792L214.478 136.637C214.765 136.619 215.053 136.619 215.34 136.638C215.353 136.638 215.366 136.639 215.379 136.641C215.699 136.662 216.016 136.707 216.33 136.775H216.332V136.776C217.22 136.969 218.059 137.335 218.802 137.854C219.544 138.372 220.175 139.033 220.657 139.797Z" fill="#727272"/>
<path d="M219.424 125.287L219.928 133.146C219.954 133.557 219.899 133.97 219.765 134.361C219.63 134.751 219.42 135.111 219.145 135.421C218.871 135.731 218.537 135.984 218.164 136.165C217.791 136.347 217.385 136.454 216.97 136.48L209.525 136.95C208.687 137.002 207.863 136.723 207.233 136.172C206.603 135.621 206.219 134.845 206.166 134.014L205.662 126.155C205.215 119.176 212.116 119.057 212.116 119.057C212.116 119.057 213.902 118.863 215.712 119.599C217.331 120.257 218.969 121.663 219.359 124.623C219.388 124.835 219.409 125.057 219.424 125.287Z" fill="#302F2F"/>
<path d="M215.301 135.424L215.449 137.735C215.512 138.714 214.606 139.577 213.437 139.651C212.267 139.724 211.259 138.982 211.197 138.003L211.049 135.692C211.027 135.291 211.159 134.896 211.417 134.586C211.477 134.511 211.542 134.441 211.613 134.376C211.753 134.246 211.909 134.136 212.079 134.048C212.384 133.89 212.718 133.798 213.061 133.776C213.403 133.755 213.747 133.804 214.069 133.922C214.248 133.988 214.417 134.078 214.572 134.189C214.579 134.193 214.588 134.2 214.595 134.205C214.666 134.256 214.732 134.313 214.794 134.373C215.09 134.648 215.271 135.023 215.301 135.424Z" fill="#F4B698"/>
<path opacity="0.28" d="M218.43 127.136L218.645 130.501C218.715 131.629 218.434 132.751 217.842 133.715C217.249 134.68 216.373 135.441 215.331 135.897L215.388 136.785C214.795 137.045 214.159 137.199 213.511 137.24L213.056 137.268C212.409 137.31 211.758 137.237 211.136 137.053L211.079 136.166C209.988 135.844 209.022 135.199 208.311 134.316C207.6 133.434 207.179 132.357 207.103 131.23L206.888 127.864C206.806 126.411 207.306 124.984 208.278 123.893C209.25 122.803 210.617 122.137 212.081 122.04L212.536 122.011C213.789 121.932 215.031 122.278 216.059 122.994H216.06C216.742 123.465 217.309 124.081 217.719 124.798C218.129 125.515 218.372 126.314 218.43 127.136Z" fill="black"/>
<path d="M218.374 126.274L218.645 130.501C218.717 131.616 218.444 132.725 217.862 133.681L217.858 133.685C217.727 133.899 217.582 134.104 217.424 134.3C216.865 134.99 216.148 135.538 215.331 135.898C214.737 136.158 214.102 136.311 213.454 136.351L212.999 136.38C212.352 136.422 211.702 136.349 211.08 136.166C209.988 135.844 209.022 135.199 208.311 134.316C207.6 133.434 207.178 132.357 207.102 131.229L206.833 127.024C206.829 126.966 206.827 126.907 206.826 126.849C206.799 126.081 206.934 125.315 207.223 124.602C207.513 123.889 207.949 123.244 208.505 122.709C208.677 122.542 208.86 122.386 209.052 122.242C209.913 121.598 210.946 121.219 212.023 121.152L212.477 121.123C213.688 121.046 214.89 121.368 215.897 122.038C216.419 122.382 216.878 122.81 217.256 123.305C217.915 124.163 218.304 125.196 218.374 126.274L218.374 126.274Z" fill="#F4B698"/>
<path d="M220.738 128.361C220.775 128.945 220.577 129.52 220.187 129.96C219.797 130.399 219.247 130.667 218.658 130.704L218.376 126.297C218.674 126.278 218.973 126.319 219.255 126.417C219.256 126.418 219.258 126.418 219.259 126.419C219.67 126.563 220.029 126.824 220.292 127.169C220.555 127.514 220.71 127.929 220.738 128.361Z" fill="#F4B698"/>
<path d="M219.892 128.414C219.915 128.776 219.793 129.133 219.551 129.405C219.31 129.677 218.969 129.843 218.605 129.866L218.43 127.137C218.794 127.114 219.153 127.235 219.428 127.475C219.702 127.715 219.869 128.053 219.892 128.414Z" fill="#E29586"/>
<path d="M216.333 136.774V136.775L215.033 142.504C214.105 142.674 213.159 142.734 212.217 142.682L210.196 137.162V137.161L211.37 137.087L211.414 137.127L213.388 138.91L215.122 136.893L215.161 136.848L216.333 136.774Z" fill="#565656"/>
<path d="M206.833 127.025L207.115 131.432C206.57 131.466 206.031 131.3 205.601 130.965C205.171 130.63 204.881 130.15 204.785 129.617C204.689 129.083 204.794 128.533 205.08 128.071C205.367 127.609 205.815 127.268 206.338 127.113C206.372 127.103 206.406 127.093 206.441 127.086C206.459 127.082 206.477 127.078 206.496 127.074C206.607 127.049 206.719 127.033 206.833 127.025Z" fill="#F4B698"/>
<path d="M205.6 129.316C205.623 129.678 205.79 130.016 206.064 130.255C206.339 130.495 206.698 130.617 207.062 130.594L206.887 127.864C206.523 127.887 206.182 128.053 205.941 128.325C205.699 128.598 205.577 128.954 205.6 129.316Z" fill="#E29586"/>
<path d="M218.125 141.482C217.655 141.715 217.17 141.916 216.673 142.081L216.64 141.576L218.125 141.482Z" fill="#565656"/>
<path opacity="0.2" d="M213.389 138.911L215.113 139.968L216.333 136.773L213.389 138.911Z" fill="#363636"/>
<path d="M216.333 136.773L215.077 139.861L213.389 138.911L215.16 136.847L215.391 136.579L216.333 136.773Z" fill="#EEEEEE"/>
<path opacity="0.2" d="M210.197 137.16L211.799 140.177L213.388 138.91L210.197 137.16Z" fill="#363636"/>
<path d="M213.388 138.911L211.836 140.065L210.197 137.161L211.106 136.85L211.37 137.087L213.388 138.911Z" fill="#EEEEEE"/>
<path d="M219.414 125.14C215.296 125.697 215.452 121.958 215.767 120.116C217.386 120.774 219.024 122.18 219.414 125.14Z" fill="#302F2F"/>
<path d="M217.095 122.046C216.967 122.281 215.704 124.917 213.137 125.079C210.571 125.241 206.593 127.028 206.631 129.572C206.668 132.116 202.92 122.03 210.664 120.737C218.408 119.444 217.095 122.046 217.095 122.046Z" fill="#302F2F"/>
<path opacity="0.1" d="M279.502 108.214L272.125 78.0491C271.999 77.5401 271.675 77.1012 271.224 76.8284C270.773 76.5557 270.231 76.4711 269.717 76.5931L194.871 94.6111C194.358 94.7362 193.916 95.0576 193.641 95.5052C193.366 95.9528 193.281 96.4902 193.404 97L200.781 127.164C200.907 127.674 201.231 128.112 201.682 128.385C202.133 128.658 202.675 128.743 203.189 128.62L278.035 110.603C278.548 110.478 278.99 110.156 279.265 109.708C279.54 109.261 279.625 108.723 279.502 108.214Z" fill="#232323"/>
<path d="M271.4 73.8622L196.554 91.8807C195.484 92.1383 194.827 93.2079 195.086 94.2697L202.464 124.434C202.723 125.496 203.801 126.148 204.872 125.89L279.718 107.872C280.788 107.614 281.445 106.544 281.185 105.483L273.808 75.3183C273.548 74.2565 272.47 73.6046 271.4 73.8622Z" fill="#FFB900"/>
<path d="M226.702 115.416C232.431 109.733 232.431 100.518 226.702 94.8354C220.974 89.1523 211.687 89.1523 205.959 94.8354C200.231 100.518 200.231 109.733 205.959 115.416C211.687 121.099 220.974 121.099 226.702 115.416Z" fill="#FFDCA4"/>
<path d="M219.278 117.951C219.199 117.972 219.119 117.988 219.038 118L219.033 118.001C216.649 118.501 214.17 118.298 211.901 117.419C212.115 116.497 212.519 115.629 213.088 114.87C213.656 114.111 214.377 113.477 215.205 113.008L215.21 113.007C215.489 112.847 215.781 112.71 216.082 112.596C216.364 112.486 216.653 112.395 216.947 112.324L219.362 111.743C219.655 111.673 219.952 111.623 220.252 111.593L220.256 111.591C220.577 111.556 220.899 111.545 221.221 111.559C222.571 111.613 223.875 112.061 224.969 112.848C225.382 113.145 225.761 113.486 226.099 113.864C224.548 115.672 222.509 117.004 220.222 117.702C220.116 117.736 220.009 117.767 219.896 117.794C219.88 117.802 219.862 117.807 219.845 117.811L219.841 117.812C219.819 117.822 219.795 117.827 219.771 117.829C219.752 117.838 219.732 117.843 219.711 117.843C219.627 117.871 219.543 117.894 219.457 117.913L219.396 117.928L219.322 117.946L219.301 117.951L219.278 117.951Z" fill="#FFB900"/>
<path d="M209.531 104.204C209.531 104.204 206.792 96.2834 211.218 95.0489C215.644 93.8145 217.193 92.2525 218.354 92.3695C219.514 92.4865 222.134 99.6508 222.201 101.154C222.268 102.657 209.531 104.204 209.531 104.204Z" fill="#505050"/>
<path d="M219.962 110.399L220.516 112.665C220.751 113.626 220.005 114.639 218.858 114.915C217.711 115.191 216.58 114.63 216.345 113.669L215.791 111.403C215.699 111.008 215.76 110.594 215.962 110.242C216.007 110.157 216.06 110.076 216.119 109.999C216.234 109.846 216.37 109.709 216.523 109.592C216.797 109.384 217.113 109.234 217.449 109.153C217.785 109.072 218.135 109.062 218.475 109.122C218.664 109.157 218.848 109.216 219.021 109.299C219.029 109.303 219.039 109.308 219.047 109.312C219.126 109.351 219.202 109.395 219.274 109.444C219.616 109.666 219.861 110.006 219.962 110.399Z" fill="#F4CB95"/>
<path d="M221.604 101.634L222.411 104.935C222.679 106.042 222.598 107.203 222.18 108.262C221.763 109.322 221.028 110.229 220.075 110.862L220.288 111.733C219.745 112.094 219.141 112.357 218.506 112.51L218.06 112.617C217.425 112.771 216.767 112.811 216.117 112.737L215.904 111.866C214.765 111.737 213.693 111.264 212.832 110.512C211.971 109.76 211.363 108.765 211.089 107.66L210.282 104.36C209.945 102.932 210.189 101.43 210.961 100.179C211.734 98.929 212.972 98.0312 214.407 97.6807L214.853 97.5734C216.082 97.2773 217.376 97.4054 218.522 97.9367H218.522C219.282 98.2851 219.953 98.7982 220.487 99.438C221.02 100.078 221.402 100.828 221.604 101.634Z" fill="#D8A471"/>
<path d="M221.395 100.79L222.41 104.938C222.657 105.939 222.614 106.99 222.288 107.969C222.239 108.118 222.179 108.264 222.118 108.406C222.045 108.58 221.962 108.75 221.87 108.915C221.498 109.592 220.987 110.184 220.371 110.654C219.755 111.123 219.046 111.46 218.291 111.642L217.849 111.749C216.407 112.092 214.886 111.855 213.62 111.09C212.353 110.324 211.444 109.092 211.091 107.662L210.039 103.36C209.878 102.603 209.878 101.821 210.04 101.064C210.201 100.307 210.521 99.5916 210.978 98.9643C211.118 98.7687 211.272 98.5833 211.438 98.4094C212.179 97.6197 213.138 97.0638 214.195 96.811L214.638 96.7043C215.464 96.5029 216.325 96.4965 217.153 96.6856C217.315 96.7176 217.474 96.7586 217.631 96.8084C217.822 96.8671 218.01 96.9366 218.193 97.0165C218.984 97.3577 219.685 97.8759 220.24 98.5306C220.796 99.1853 221.191 99.9587 221.395 100.79Z" fill="#F4CB95"/>
<path d="M224.11 102.448C224.25 103.021 224.155 103.626 223.846 104.13C223.536 104.633 223.038 104.995 222.46 105.134L221.403 100.811C221.696 100.74 222 100.729 222.297 100.778C222.298 100.778 222.299 100.778 222.301 100.779C222.734 100.85 223.136 101.047 223.458 101.344C223.78 101.64 224.007 102.024 224.11 102.448Z" fill="#EDC28E"/>
<path d="M223.281 102.648C223.368 103.003 223.309 103.378 223.117 103.689C222.926 104.001 222.617 104.225 222.259 104.311L221.604 101.634C221.962 101.548 222.34 101.606 222.654 101.796C222.969 101.987 223.194 102.293 223.281 102.648Z" fill="#D8A471"/>
<path d="M210.081 103.537L211.139 107.859C210.604 107.988 210.039 107.916 209.554 107.659C209.068 107.401 208.695 106.975 208.506 106.463C208.317 105.95 208.324 105.386 208.527 104.878C208.73 104.37 209.114 103.954 209.606 103.709C209.637 103.693 209.67 103.678 209.703 103.665C209.72 103.658 209.738 103.651 209.756 103.644C209.861 103.6 209.97 103.564 210.081 103.537Z" fill="#EDC28E"/>
<path d="M209.262 106.023C209.349 106.378 209.574 106.684 209.888 106.874C210.203 107.064 210.58 107.123 210.938 107.037L210.283 104.359C209.926 104.446 209.617 104.669 209.425 104.981C209.234 105.293 209.175 105.668 209.262 106.023Z" fill="#D8A471"/>
<path d="M221.396 100.79L222.41 104.938C222.657 105.939 222.615 106.99 222.289 107.969C222.24 108.118 222.18 108.264 222.118 108.406C221.287 100.325 219.687 99.5103 217.82 99.9758C215.81 100.47 214.751 98.1248 214.751 98.1248L217.631 96.8081C217.822 96.8668 218.01 96.9362 218.193 97.0162C218.984 97.3574 219.685 97.8756 220.241 98.5303C220.796 99.1851 221.192 99.9585 221.396 100.79Z" fill="#E5B67F"/>
<path d="M220.892 114.193L221.641 114.965L220.222 117.701C220.116 117.736 220.008 117.766 219.896 117.793C219.879 117.801 219.862 117.807 219.845 117.81L219.84 117.811C219.819 117.821 219.795 117.827 219.771 117.828L220.438 113.629L220.44 113.619L220.551 112.927L220.554 112.922L220.564 112.851L220.291 111.733L221.923 113.398L220.947 114.153L220.892 114.193Z" fill="#CC8E2B"/>
<path d="M219.396 117.927L219.456 117.913C219.542 117.894 219.627 117.87 219.71 117.843C219.731 117.842 219.752 117.837 219.771 117.828C219.795 117.827 219.818 117.821 219.84 117.811L219.844 117.81L220.008 117.316L220.871 114.653L220.702 113.961L221.087 113.358L220.606 112.481C220.585 112.559 220.559 112.635 220.529 112.71L220.522 112.72L220.525 112.729C220.377 113.138 220.008 113.978 219.335 114.563C219.186 114.693 219.022 114.805 218.848 114.899C218.575 114.889 218.305 114.84 218.046 114.755C217.266 114.51 216.644 113.995 216.362 113.722L216.355 113.714C216.294 113.661 216.236 113.605 216.181 113.547L216.159 114.545L216.78 114.905L216.949 115.597L218.668 117.296L219.317 117.941L219.322 117.945L219.396 117.927Z" fill="white"/>
<path d="M220.947 114.153L221.641 114.965L219.896 117.793C219.88 117.801 219.862 117.807 219.845 117.81L219.84 117.811C219.819 117.821 219.795 117.827 219.771 117.828C219.752 117.837 219.731 117.842 219.71 117.843L220.354 113.813L220.353 113.808L220.525 112.729L220.523 112.72L220.529 112.709L220.256 111.591L221.923 113.398L220.857 114.051L220.947 114.153Z" fill="#505050"/>
<path d="M219.278 117.951C219.199 117.972 219.118 117.988 219.038 118L219.033 118.001L216.409 116.224L216.718 115.198L216.651 115.187L215.435 114.961L216.116 112.738L216.355 113.714L216.39 113.856L216.396 113.864L216.418 113.895L216.424 113.903L216.856 114.486L216.857 114.491L219.396 117.928L219.322 117.946L219.3 117.951L219.278 117.951Z" fill="#CC8E2B"/>
<path d="M219.278 117.951L216.409 116.224L216.651 115.187L216.683 115.056L215.435 114.96L216.082 112.596L216.116 112.738L216.355 113.714L216.362 113.722L217.019 114.611L217.02 114.615L219.456 117.913L219.395 117.927L219.322 117.945L219.3 117.951L219.278 117.951Z" fill="#505050"/>
<path d="M217.827 95.935C217.827 95.935 214.908 95.7752 214.382 95.9019C213.855 96.0286 213.191 96.2545 212.209 96.7553C211.226 97.2562 209.929 98.7585 209.929 98.7585L209.769 99.3868C209.647 99.5951 209.525 99.8282 209.53 99.8856C209.535 99.9396 209.539 100.117 209.543 100.279L209.412 100.798C209.442 100.777 209.518 100.733 209.608 100.672L209.855 101.079C210.124 100.456 210.521 99.8962 211.023 99.4365C212.108 98.7285 213.68 98.2366 215.015 98.7879C217.438 99.7898 221.06 97.993 221.06 97.993L217.827 95.935Z" fill="#505050"/>
<path d="M267.15 83.7436L234.488 91.6063C234.082 91.7029 233.654 91.636 233.297 91.4202C232.94 91.2044 232.684 90.8574 232.584 90.4548L232.566 90.3786C232.469 89.9754 232.536 89.5504 232.754 89.1964C232.971 88.8425 233.321 88.5882 233.727 88.4893L266.388 80.6267C266.794 80.5301 267.222 80.597 267.579 80.8128C267.936 81.0285 268.192 81.3756 268.292 81.7782L268.31 81.8544C268.408 82.2575 268.34 82.6825 268.123 83.0365C267.905 83.3905 267.556 83.6447 267.15 83.7436Z" fill="#E29D2D"/>
<path d="M235.389 95.2878L268.051 87.4249C268.457 87.3272 268.886 87.3936 269.243 87.6096C269.6 87.8257 269.856 88.1736 269.955 88.5769L269.973 88.6531C270.072 89.0564 270.005 89.4821 269.788 89.8365C269.57 90.1908 269.219 90.4449 268.813 90.5427L236.151 98.4056C235.745 98.5034 235.316 98.437 234.959 98.221C234.602 98.005 234.346 97.6571 234.247 97.2538L234.228 97.1775C234.13 96.7742 234.197 96.3485 234.414 95.9941C234.632 95.6397 234.982 95.3857 235.389 95.2878V95.2878Z" fill="#FFDCA4"/>
<path d="M237.051 102.087L269.713 94.2237C270.12 94.1259 270.548 94.1923 270.905 94.4083C271.262 94.6243 271.518 94.9722 271.617 95.3755L271.636 95.4517C271.734 95.8551 271.668 96.2808 271.45 96.6352C271.232 96.9896 270.882 97.2437 270.475 97.3416L237.814 105.204C237.408 105.302 236.979 105.236 236.621 105.02C236.264 104.804 236.008 104.456 235.91 104.053L235.891 103.976C235.792 103.573 235.859 103.147 236.077 102.793C236.294 102.439 236.645 102.185 237.051 102.087Z" fill="#FFDCA4"/>
<path d="M238.714 108.885L271.376 101.022C271.782 100.924 272.211 100.991 272.568 101.207C272.925 101.423 273.181 101.771 273.28 102.174L273.299 102.25C273.397 102.654 273.33 103.079 273.113 103.434C272.895 103.788 272.544 104.042 272.138 104.14L239.477 112.003C239.071 112.101 238.642 112.034 238.285 111.818C237.927 111.602 237.671 111.254 237.573 110.851L237.554 110.775C237.455 110.371 237.522 109.946 237.74 109.591C237.958 109.237 238.308 108.983 238.714 108.885Z" fill="#FFDCA4"/>
<path d="M219.543 203.648C219.002 203.648 218.461 203.637 217.919 203.615C217.617 203.603 217.332 203.472 217.127 203.251C216.922 203.031 216.814 202.739 216.826 202.439C216.838 202.139 216.97 201.857 217.192 201.653C217.414 201.45 217.709 201.343 218.011 201.355C219.978 201.433 221.948 201.36 223.903 201.137C224.202 201.105 224.501 201.193 224.736 201.379C224.97 201.566 225.121 201.837 225.155 202.133C225.189 202.429 225.104 202.727 224.918 202.961C224.733 203.195 224.461 203.347 224.163 203.384C222.629 203.559 221.087 203.647 219.543 203.648ZM211.94 202.87C211.86 202.87 211.781 202.862 211.703 202.845C209.658 202.416 207.653 201.818 205.709 201.056C205.43 200.944 205.207 200.727 205.088 200.452C204.97 200.178 204.965 199.868 205.076 199.591C205.187 199.313 205.403 199.09 205.679 198.97C205.955 198.85 206.267 198.844 206.548 198.951C208.372 199.667 210.254 200.229 212.174 200.632C212.449 200.69 212.694 200.847 212.859 201.073C213.025 201.298 213.101 201.577 213.072 201.855C213.043 202.133 212.911 202.391 212.702 202.578C212.493 202.766 212.221 202.869 211.94 202.87ZM230.002 202.275C229.725 202.275 229.458 202.175 229.25 201.993C229.042 201.811 228.908 201.561 228.873 201.289C228.837 201.016 228.903 200.74 229.058 200.512C229.212 200.285 229.445 200.12 229.713 200.05C231.626 199.551 233.505 198.928 235.337 198.187C235.475 198.131 235.624 198.103 235.773 198.104C235.923 198.105 236.071 198.135 236.209 198.193C236.347 198.25 236.472 198.334 236.577 198.44C236.683 198.546 236.766 198.671 236.822 198.808C236.879 198.946 236.907 199.093 236.906 199.242C236.905 199.39 236.875 199.537 236.817 199.674C236.759 199.811 236.674 199.935 236.567 200.04C236.461 200.144 236.335 200.226 236.196 200.282C234.273 201.06 232.3 201.714 230.291 202.238C230.197 202.263 230.099 202.275 230.002 202.276V202.275ZM200.681 198.473C200.477 198.472 200.276 198.417 200.1 198.313C198.313 197.253 196.604 196.068 194.986 194.766C194.87 194.673 194.773 194.557 194.702 194.427C194.63 194.296 194.586 194.153 194.57 194.005C194.554 193.857 194.568 193.708 194.611 193.566C194.653 193.423 194.724 193.29 194.818 193.175C194.912 193.06 195.028 192.964 195.16 192.893C195.291 192.822 195.436 192.777 195.585 192.762C195.734 192.746 195.884 192.76 196.028 192.802C196.171 192.845 196.305 192.914 196.422 193.008C197.953 194.242 199.572 195.365 201.266 196.369C201.48 196.496 201.647 196.689 201.74 196.919C201.833 197.149 201.848 197.403 201.781 197.642C201.715 197.881 201.572 198.091 201.373 198.241C201.174 198.391 200.931 198.473 200.682 198.473H200.681ZM241.249 197.759C240.996 197.759 240.751 197.676 240.551 197.523C240.351 197.37 240.208 197.155 240.145 196.912C240.081 196.669 240.101 196.412 240.2 196.182C240.3 195.952 240.474 195.761 240.695 195.639C242.43 194.684 244.108 193.631 245.722 192.486C245.844 192.398 245.982 192.335 246.128 192.301C246.275 192.266 246.427 192.26 246.575 192.284C246.724 192.308 246.866 192.361 246.994 192.44C247.122 192.519 247.233 192.622 247.32 192.743C247.408 192.865 247.47 193.002 247.504 193.148C247.538 193.293 247.542 193.444 247.517 193.591C247.492 193.738 247.437 193.879 247.357 194.005C247.276 194.132 247.171 194.241 247.048 194.327C245.363 195.521 243.611 196.62 241.801 197.618C241.632 197.711 241.442 197.76 241.249 197.76V197.759ZM191.235 190.931C191.081 190.931 190.929 190.9 190.787 190.84C190.646 190.78 190.518 190.693 190.412 190.583C188.981 189.098 187.632 187.537 186.371 185.907C186.28 185.79 186.213 185.655 186.174 185.512C186.135 185.368 186.125 185.219 186.144 185.071C186.164 184.924 186.212 184.782 186.287 184.653C186.362 184.525 186.461 184.412 186.58 184.321C186.699 184.231 186.834 184.164 186.979 184.126C187.124 184.087 187.274 184.077 187.423 184.096C187.571 184.116 187.714 184.164 187.844 184.238C187.974 184.312 188.088 184.411 188.179 184.528C189.388 186.093 190.683 187.591 192.057 189.016C192.212 189.176 192.316 189.377 192.356 189.595C192.397 189.814 192.371 190.039 192.284 190.243C192.196 190.447 192.05 190.621 191.863 190.743C191.677 190.865 191.458 190.93 191.235 190.93V190.931ZM251.122 190.762C250.892 190.762 250.666 190.693 250.476 190.563C250.286 190.434 250.14 190.25 250.057 190.037C249.975 189.823 249.959 189.59 250.013 189.368C250.066 189.145 250.187 188.944 250.358 188.791C251.832 187.474 253.227 186.072 254.537 184.594C254.636 184.482 254.756 184.39 254.89 184.324C255.024 184.258 255.171 184.219 255.32 184.209C255.47 184.199 255.62 184.219 255.762 184.267C255.904 184.314 256.035 184.389 256.148 184.488C256.261 184.586 256.353 184.705 256.419 184.839C256.485 184.972 256.524 185.117 256.534 185.266C256.544 185.414 256.523 185.563 256.475 185.704C256.426 185.845 256.35 185.975 256.251 186.087C254.883 187.631 253.425 189.095 251.885 190.471C251.676 190.658 251.404 190.762 251.122 190.762L251.122 190.762ZM255.04 184.042C254.747 184.042 254.466 183.93 254.254 183.729C254.042 183.529 253.916 183.255 253.902 182.965C253.888 182.675 253.987 182.391 254.179 182.171C254.37 181.952 254.639 181.813 254.931 181.785C256.034 181.677 257.13 181.504 258.213 181.267C258.064 181.079 257.98 180.848 257.971 180.609C257.962 180.37 258.03 180.135 258.164 179.936C259.269 178.315 260.254 176.617 261.109 174.854C261.173 174.719 261.264 174.598 261.375 174.497C261.486 174.397 261.616 174.32 261.758 174.27C261.9 174.22 262.05 174.198 262.2 174.206C262.35 174.213 262.497 174.25 262.633 174.315C262.768 174.379 262.89 174.47 262.99 174.581C263.09 174.692 263.167 174.821 263.217 174.962C263.266 175.103 263.287 175.252 263.279 175.401C263.27 175.55 263.231 175.696 263.165 175.83C262.35 177.514 261.422 179.142 260.389 180.703C260.475 180.677 260.561 180.651 260.647 180.624C260.79 180.58 260.94 180.564 261.09 180.577C261.239 180.59 261.384 180.633 261.516 180.701C261.649 180.77 261.767 180.864 261.863 180.979C261.959 181.093 262.031 181.224 262.076 181.366C262.121 181.508 262.137 181.657 262.123 181.805C262.11 181.953 262.067 182.097 261.998 182.229C261.929 182.36 261.834 182.477 261.719 182.572C261.604 182.667 261.471 182.739 261.328 182.784C259.318 183.41 257.249 183.83 255.153 184.037C255.115 184.04 255.077 184.042 255.04 184.042L255.04 184.042ZM248.977 183.955C248.928 183.955 248.879 183.952 248.831 183.946C246.745 183.67 244.692 183.194 242.699 182.524C242.556 182.478 242.424 182.404 242.31 182.307C242.196 182.209 242.103 182.091 242.035 181.957C241.968 181.824 241.927 181.679 241.917 181.53C241.906 181.381 241.925 181.232 241.972 181.09C242.02 180.949 242.096 180.818 242.194 180.706C242.293 180.593 242.414 180.501 242.548 180.435C242.683 180.369 242.83 180.33 242.98 180.32C243.13 180.311 243.28 180.33 243.423 180.379C245.274 181.002 247.183 181.445 249.121 181.702C249.408 181.739 249.671 181.883 249.855 182.104C250.04 182.326 250.132 182.609 250.114 182.896C250.095 183.183 249.968 183.452 249.757 183.648C249.546 183.845 249.267 183.955 248.977 183.955ZM183.811 181.387C183.618 181.388 183.427 181.339 183.257 181.246C183.088 181.153 182.945 181.018 182.843 180.855C181.738 179.097 180.718 177.291 179.815 175.489C179.68 175.22 179.659 174.909 179.755 174.625C179.851 174.341 180.058 174.106 180.328 173.972C180.599 173.839 180.912 173.817 181.199 173.913C181.486 174.008 181.722 174.213 181.857 174.482C182.728 176.219 183.71 177.961 184.777 179.657C184.885 179.829 184.944 180.025 184.949 180.227C184.955 180.428 184.906 180.628 184.807 180.804C184.708 180.981 184.564 181.128 184.389 181.23C184.214 181.333 184.015 181.387 183.811 181.387ZM266.587 180.504C266.332 180.504 266.085 180.42 265.884 180.265C265.684 180.109 265.541 179.892 265.479 179.647C265.418 179.402 265.44 179.144 265.544 178.913C265.647 178.682 265.825 178.492 266.05 178.374C267.783 177.457 269.435 176.397 270.989 175.206C271.108 175.115 271.243 175.048 271.388 175.01C271.532 174.971 271.683 174.961 271.832 174.98C271.98 174.999 272.123 175.047 272.253 175.121C272.383 175.195 272.497 175.293 272.588 175.411C272.68 175.528 272.747 175.663 272.786 175.806C272.825 175.95 272.835 176.099 272.816 176.247C272.797 176.394 272.749 176.536 272.674 176.665C272.599 176.794 272.5 176.907 272.382 176.997C270.726 178.266 268.966 179.394 267.121 180.371C266.957 180.458 266.773 180.504 266.587 180.504V180.504ZM237.487 180.182C237.297 180.182 237.111 180.135 236.945 180.045C235.095 179.055 233.344 177.893 231.716 176.574C231.483 176.384 231.336 176.109 231.307 175.811C231.277 175.513 231.369 175.215 231.56 174.984C231.752 174.752 232.028 174.606 232.329 174.576C232.629 174.547 232.929 174.637 233.163 174.826C234.679 176.054 236.309 177.135 238.031 178.056C238.254 178.176 238.431 178.366 238.533 178.597C238.634 178.828 238.656 179.085 238.593 179.329C238.531 179.573 238.388 179.79 238.187 179.944C237.987 180.099 237.74 180.182 237.486 180.182L237.487 180.182ZM276.191 173.193C275.968 173.192 275.75 173.127 275.564 173.006C275.378 172.884 275.232 172.711 275.144 172.508C275.056 172.304 275.03 172.08 275.069 171.863C275.109 171.645 275.211 171.443 275.365 171.283C276.721 169.863 277.972 168.347 279.109 166.748C279.283 166.502 279.548 166.336 279.846 166.285C280.144 166.234 280.45 166.303 280.697 166.476C280.944 166.649 281.112 166.912 281.164 167.207C281.215 167.503 281.146 167.807 280.972 168.052C279.772 169.741 278.45 171.341 277.017 172.841C276.911 172.952 276.783 173.041 276.641 173.101C276.499 173.162 276.345 173.193 276.191 173.193V173.193ZM228.215 172.513C228.039 172.513 227.865 172.473 227.707 172.395C227.55 172.318 227.412 172.205 227.306 172.066C226.006 170.381 224.958 168.518 224.194 166.536C224.088 166.256 224.098 165.945 224.223 165.673C224.347 165.4 224.576 165.188 224.858 165.082C225.14 164.976 225.453 164.985 225.728 165.108C226.004 165.231 226.219 165.457 226.326 165.736C227.013 167.515 227.954 169.186 229.122 170.697C229.25 170.865 229.329 171.065 229.349 171.275C229.369 171.484 229.33 171.696 229.236 171.884C229.141 172.073 228.996 172.232 228.815 172.343C228.635 172.454 228.427 172.513 228.215 172.513ZM264.278 170.837C264.103 170.837 263.93 170.797 263.773 170.72C263.615 170.643 263.478 170.531 263.372 170.392C263.265 170.254 263.192 170.093 263.159 169.922C263.125 169.751 263.132 169.575 263.178 169.407C263.701 167.549 264.014 165.64 264.113 163.714C264.119 163.565 264.155 163.418 264.218 163.283C264.281 163.147 264.371 163.026 264.481 162.925C264.592 162.824 264.722 162.746 264.864 162.695C265.005 162.644 265.155 162.621 265.305 162.628C265.456 162.635 265.603 162.672 265.739 162.735C265.875 162.799 265.997 162.889 266.098 163C266.199 163.11 266.277 163.24 266.327 163.381C266.377 163.521 266.399 163.67 266.391 163.819C266.284 165.912 265.944 167.987 265.377 170.005C265.311 170.244 265.168 170.455 264.969 170.605C264.771 170.756 264.528 170.837 264.278 170.837ZM283.19 163.377C282.995 163.377 282.803 163.327 282.632 163.231C282.462 163.136 282.319 162.999 282.218 162.834C282.116 162.668 282.059 162.479 282.052 162.285C282.045 162.091 282.089 161.899 282.178 161.727C283.084 159.983 283.875 158.183 284.544 156.337C284.595 156.197 284.673 156.068 284.774 155.959C284.875 155.849 284.996 155.76 285.132 155.696C285.267 155.633 285.414 155.597 285.564 155.59C285.713 155.583 285.863 155.605 286.003 155.656C286.144 155.706 286.274 155.783 286.385 155.883C286.495 155.983 286.585 156.104 286.649 156.238C286.713 156.373 286.749 156.518 286.756 156.667C286.763 156.815 286.741 156.964 286.69 157.103C285.986 159.042 285.156 160.933 284.203 162.765C284.107 162.949 283.962 163.104 283.783 163.212C283.605 163.32 283.399 163.377 283.19 163.377H283.19ZM224.029 161.39C223.736 161.39 223.455 161.278 223.243 161.078C223.031 160.878 222.905 160.604 222.891 160.314C222.874 159.966 222.865 159.617 222.865 159.268C222.87 157.499 223.079 155.738 223.49 154.017C223.559 153.725 223.741 153.472 223.998 153.314C224.255 153.156 224.564 153.105 224.859 153.173C225.153 153.241 225.408 153.423 225.568 153.678C225.727 153.932 225.778 154.239 225.709 154.531C225.34 156.084 225.15 157.673 225.145 159.268C225.145 159.58 225.153 159.892 225.169 160.204C225.183 160.504 225.077 160.797 224.874 161.019C224.671 161.241 224.387 161.374 224.085 161.389C224.066 161.39 224.047 161.39 224.029 161.39H224.029ZM264.769 158.899C264.506 158.899 264.251 158.808 264.047 158.642C263.844 158.476 263.704 158.245 263.652 157.989C263.263 156.087 262.691 154.225 261.946 152.43C261.831 152.152 261.832 151.841 261.949 151.564C262.066 151.287 262.289 151.068 262.569 150.955C262.849 150.841 263.163 150.842 263.442 150.958C263.721 151.074 263.942 151.296 264.056 151.573C264.857 153.502 265.47 155.502 265.889 157.546C265.948 157.84 265.887 158.145 265.719 158.395C265.551 158.644 265.291 158.818 264.994 158.877C264.92 158.892 264.845 158.899 264.769 158.899H264.769ZM226.692 149.756C226.497 149.756 226.305 149.706 226.135 149.611C225.965 149.517 225.823 149.381 225.721 149.216C225.619 149.051 225.561 148.863 225.553 148.67C225.546 148.476 225.588 148.284 225.676 148.112C226.636 146.239 227.81 144.482 229.175 142.875C229.271 142.761 229.389 142.668 229.523 142.6C229.656 142.532 229.801 142.49 229.95 142.478C230.099 142.465 230.25 142.482 230.392 142.527C230.535 142.572 230.667 142.645 230.782 142.741C230.896 142.836 230.99 142.954 231.059 143.086C231.128 143.218 231.17 143.362 231.182 143.51C231.195 143.658 231.178 143.807 231.132 143.949C231.087 144.09 231.014 144.221 230.917 144.335C229.665 145.808 228.589 147.419 227.709 149.137C227.614 149.323 227.468 149.48 227.288 149.589C227.109 149.698 226.902 149.756 226.692 149.756L226.692 149.756ZM260.208 147.781C260.016 147.781 259.828 147.734 259.66 147.642C259.492 147.551 259.349 147.419 259.246 147.259C258.202 145.627 256.989 144.106 255.627 142.723C255.522 142.617 255.439 142.492 255.383 142.355C255.326 142.217 255.298 142.07 255.299 141.921C255.3 141.773 255.331 141.626 255.389 141.489C255.447 141.352 255.532 141.228 255.638 141.124C255.745 141.019 255.871 140.937 256.01 140.881C256.149 140.825 256.297 140.797 256.447 140.798C256.596 140.799 256.744 140.829 256.882 140.887C257.02 140.945 257.145 141.029 257.25 141.135C258.724 142.63 260.037 144.274 261.166 146.04C261.277 146.211 261.338 146.408 261.345 146.61C261.352 146.813 261.304 147.014 261.206 147.192C261.108 147.37 260.964 147.518 260.788 147.622C260.613 147.726 260.412 147.78 260.208 147.781ZM234.501 140.652C234.259 140.653 234.023 140.576 233.827 140.434C233.632 140.293 233.487 140.093 233.413 139.864C233.34 139.635 233.342 139.388 233.419 139.161C233.496 138.933 233.645 138.735 233.843 138.597C235.683 137.309 237.62 136.358 239.598 135.773C239.888 135.687 240.2 135.719 240.466 135.862C240.732 136.004 240.93 136.246 241.016 136.533C241.103 136.82 241.071 137.13 240.927 137.394C240.783 137.658 240.54 137.854 240.25 137.94C238.427 138.496 236.707 139.342 235.157 140.445C234.965 140.58 234.736 140.652 234.501 140.652L234.501 140.652ZM251.649 139.376C251.454 139.376 251.263 139.326 251.093 139.231C249.366 138.271 247.582 137.673 245.79 137.451C245.49 137.414 245.217 137.261 245.031 137.024C244.846 136.787 244.762 136.487 244.799 136.19C244.837 135.892 244.992 135.621 245.23 135.437C245.469 135.253 245.771 135.17 246.071 135.207C248.157 135.464 250.221 136.154 252.207 137.258C252.427 137.38 252.6 137.572 252.699 137.802C252.797 138.032 252.816 138.289 252.753 138.531C252.689 138.773 252.546 138.987 252.346 139.14C252.146 139.293 251.901 139.376 251.649 139.376H251.649Z" fill="#FFB900"/>
<path opacity="0.1" d="M304.293 158.526C312.968 149.919 312.968 135.965 304.293 127.358C295.618 118.751 281.553 118.751 272.878 127.358C264.203 135.965 264.203 149.919 272.878 158.526C281.553 167.133 295.618 167.133 304.293 158.526Z" fill="#232323"/>
<path d="M293.307 162.348C305.576 162.348 315.521 152.481 315.521 140.309C315.521 128.137 305.576 118.27 293.307 118.27C281.039 118.27 271.094 128.137 271.094 140.309C271.094 152.481 281.039 162.348 293.307 162.348Z" fill="#FFB900"/>
<path d="M297.265 133.923L297.791 132.193L302.007 132.49L298.765 143.68C298.564 144.388 298.455 144.858 298.439 145.091C298.411 145.296 298.462 145.504 298.582 145.674C298.63 145.742 298.693 145.799 298.767 145.84C298.84 145.881 298.922 145.905 299.006 145.911C299.581 145.952 300.35 145.632 301.314 144.951C302.278 144.27 303.144 143.312 303.912 142.077C304.612 140.92 305.051 139.626 305.197 138.285C305.343 136.944 305.193 135.587 304.758 134.309C304.359 133.163 303.714 132.118 302.867 131.245C302.01 130.356 300.925 129.632 299.612 129.072C298.298 128.512 296.79 128.172 295.086 128.052C293.35 127.929 291.742 128.041 290.262 128.388C288.854 128.704 287.514 129.268 286.306 130.052C285.136 130.827 284.128 131.818 283.336 132.971C282.59 134.041 282.003 135.212 281.594 136.448C281.159 137.733 280.89 139.068 280.795 140.42C280.664 142.238 280.91 143.924 281.531 145.481C282.151 147.036 283.15 148.415 284.438 149.493C285.754 150.611 287.382 151.453 289.321 152.02C291.26 152.587 293.479 152.831 295.979 152.753C297.965 152.659 299.666 152.333 301.081 151.775C302.482 151.226 303.738 150.367 304.753 149.263L308.154 149.503C307.527 150.585 306.722 151.557 305.773 152.377C304.793 153.218 303.685 153.9 302.49 154.399C301.176 154.943 299.794 155.314 298.382 155.502C296.767 155.718 295.133 155.763 293.508 155.636C290.889 155.451 288.555 154.944 286.507 154.114C284.458 153.285 282.764 152.178 281.423 150.793C280.094 149.425 279.095 147.776 278.503 145.968C277.896 144.137 277.669 142.143 277.824 139.988C277.985 137.738 278.514 135.662 279.41 133.761C280.27 131.909 281.507 130.253 283.042 128.897C284.567 127.556 286.383 126.55 288.491 125.882C290.599 125.213 292.888 124.966 295.358 125.14C297.382 125.283 299.216 125.707 300.861 126.413C302.507 127.118 303.892 128.062 305.016 129.246C306.133 130.417 306.978 131.817 307.491 133.347C308.017 134.897 308.215 136.58 308.084 138.398C307.868 141.272 306.617 143.973 304.561 146.008C303.548 147.012 302.342 147.804 301.015 148.338C299.672 148.877 298.222 149.099 296.779 148.986C295.916 148.925 295.256 148.733 294.798 148.409C294.339 148.084 294.053 147.599 293.939 146.954C292.947 147.798 291.841 148.296 290.621 148.448C289.431 148.606 288.22 148.404 287.147 147.868C286.051 147.329 285.194 146.491 284.575 145.354C283.955 144.216 283.703 142.85 283.817 141.255C283.945 139.566 284.432 137.923 285.246 136.435C286.032 134.934 287.183 133.652 288.596 132.705C289.946 131.788 291.572 131.357 293.202 131.486C295.119 131.621 296.473 132.434 297.265 133.923ZM287.94 141.515C287.849 142.783 288.046 143.773 288.529 144.487C288.748 144.827 289.045 145.11 289.396 145.312C289.748 145.515 290.143 145.63 290.549 145.649C291.55 145.72 292.459 145.386 293.277 144.647C294.096 143.908 294.745 142.948 295.226 141.766C295.688 140.661 295.972 139.491 296.068 138.298C296.112 137.788 296.081 137.273 295.977 136.771C295.886 136.336 295.715 135.922 295.472 135.549C295.247 135.204 294.943 134.918 294.584 134.714C294.205 134.506 293.782 134.387 293.35 134.364C292.412 134.298 291.542 134.6 290.74 135.271C289.938 135.941 289.293 136.841 288.805 137.969C288.318 139.094 288.025 140.293 287.94 141.515Z" fill="white"/>
<path d="M228.016 18.1276L230.417 16.8755C230.54 16.8116 230.678 16.783 230.816 16.7929C230.954 16.8028 231.086 16.8508 231.198 16.9315C231.31 17.0122 231.397 17.1223 231.449 17.2495C231.501 17.3766 231.516 17.5157 231.493 17.651L231.034 20.3034C231.014 20.4209 231.023 20.5416 231.06 20.6551C231.097 20.7685 231.162 20.8713 231.248 20.9545L233.19 22.8329C233.289 22.9288 233.359 23.0502 233.392 23.1834C233.426 23.3167 233.42 23.4565 233.378 23.587C233.335 23.7176 233.256 23.8337 233.15 23.9221C233.045 24.0106 232.916 24.0679 232.779 24.0877L230.095 24.475C229.976 24.4922 229.863 24.5378 229.766 24.6079C229.668 24.678 229.59 24.7705 229.537 24.8775L228.336 27.2907C228.275 27.4138 228.18 27.5174 228.063 27.5899C227.945 27.6623 227.81 27.7007 227.671 27.7007C227.533 27.7007 227.397 27.6623 227.28 27.5899C227.162 27.5174 227.068 27.4138 227.006 27.2907L225.806 24.8775C225.753 24.7705 225.674 24.678 225.577 24.6079C225.48 24.5378 225.367 24.4922 225.248 24.475L222.564 24.0877C222.427 24.0679 222.298 24.0106 222.192 23.9221C222.086 23.8337 222.008 23.7176 221.965 23.587C221.922 23.4565 221.917 23.3167 221.95 23.1834C221.983 23.0502 222.054 22.9288 222.153 22.8329L224.095 20.9545C224.181 20.8713 224.245 20.7685 224.283 20.6551C224.32 20.5416 224.329 20.4209 224.308 20.3034L223.85 17.651C223.826 17.5157 223.842 17.3766 223.894 17.2495C223.946 17.1223 224.033 17.0122 224.145 16.9315C224.257 16.8508 224.389 16.8028 224.527 16.7929C224.665 16.783 224.803 16.8116 224.925 16.8755L227.326 18.1276C227.433 18.1831 227.551 18.2121 227.671 18.2121C227.792 18.2121 227.91 18.1831 228.016 18.1276Z" fill="#069550"/>
<path d="M32.7402 209.7C31.4778 209.7 30.2437 209.329 29.1941 208.633C28.1444 207.937 27.3263 206.948 26.8432 205.791C26.3601 204.633 26.2338 203.36 26.4801 202.132C26.7264 200.903 27.3344 199.775 28.2271 198.889C29.1198 198.004 30.2572 197.401 31.4954 197.156C32.7336 196.912 34.017 197.038 35.1832 197.517C36.3495 197.996 37.3463 198.808 38.0476 199.85C38.7489 200.891 39.1231 202.115 39.123 203.368C39.1212 205.047 38.4482 206.657 37.2515 207.844C36.0549 209.031 34.4324 209.698 32.7402 209.7ZM32.7402 198.777C31.8252 198.777 30.9307 199.047 30.1699 199.551C29.4092 200.055 28.8162 200.772 28.466 201.611C28.1159 202.45 28.0243 203.373 28.2028 204.263C28.3813 205.154 28.822 205.971 29.469 206.613C30.116 207.255 30.9403 207.693 31.8378 207.87C32.7352 208.047 33.6654 207.956 34.5108 207.609C35.3562 207.261 36.0788 206.673 36.5872 205.918C37.0956 205.163 37.367 204.276 37.3671 203.368C37.3657 202.151 36.8778 200.984 36.0104 200.123C35.143 199.263 33.9669 198.779 32.7402 198.777Z" fill="#069550"/>
<path d="M35.0399 205.648C36.3095 204.389 36.3095 202.347 35.0399 201.087C33.7703 199.827 31.7119 199.827 30.4423 201.087C29.1728 202.347 29.1728 204.389 30.4423 205.648C31.7119 206.908 33.7703 206.908 35.0399 205.648Z" fill="#069550"/>
<path d="M164.698 241.199C166.318 241.199 167.631 239.895 167.631 238.288C167.631 236.68 166.318 235.377 164.698 235.377C163.077 235.377 161.764 236.68 161.764 238.288C161.764 239.895 163.077 241.199 164.698 241.199Z" fill="#069550"/>
<path d="M116.003 10.0076C117.623 10.0076 118.937 8.70438 118.937 7.0968C118.937 5.48923 117.623 4.18604 116.003 4.18604C114.383 4.18604 113.069 5.48923 113.069 7.0968C113.069 8.70438 114.383 10.0076 116.003 10.0076Z" fill="#069550"/>
</g>
<defs>
<clipPath id="clip0_6570_59507">
<rect width="320" height="244" fill="white"/>
</clipPath>
</defs>
</svg>
