<svg width="94" height="72" viewBox="0 0 94 72" fill="none" xmlns="http://www.w3.org/2000/svg">
<path d="M88.7372 0.288215L5.2634 0.296367C2.24634 0.306819 0.510738 3.18296 0.520046 6.38263L0.51503 65.8265C0.524337 69.0261 2.24031 71.713 5.25737 71.7026L88.7312 71.6944C91.7482 71.684 93.4838 69.0171 93.4745 65.8174L93.4795 6.37355C93.4702 3.17388 91.7542 0.277763 88.7372 0.288215Z" fill="#F5F5F5"/>
<path d="M46.8648 53.0933C57.2701 53.0933 65.7053 44.1477 65.7053 33.1126C65.7053 22.0775 57.2701 13.1318 46.8648 13.1318C36.4596 13.1318 28.0244 22.0775 28.0244 33.1126C28.0244 44.1477 36.4596 53.0933 46.8648 53.0933Z" fill="#E0E0E0"/>
<path d="M86.9912 68.3448L22.3221 68.5875L64.9212 28.9769C67.6931 26.3994 71.892 26.1173 74.9837 28.3008L90.0133 38.9151L90.0915 64.9518C90.0938 65.8344 89.7709 66.683 89.1918 67.3168C88.6127 67.9506 87.8231 68.3195 86.9912 68.3448Z" fill="#EEEEEE"/>
<path d="M72.3554 68.3971L7.04065 68.6369C6.62301 68.6392 6.20905 68.5543 5.82237 68.3869C5.43569 68.2195 5.08388 67.973 4.78706 67.6614C4.49024 67.3498 4.25421 66.9792 4.09246 66.5709C3.9307 66.1625 3.84641 65.7243 3.84437 65.2814L3.77271 39.725L19.4282 28.4996C22.5045 26.2938 26.7058 26.5461 29.496 29.1042L72.3554 68.3971Z" fill="#BDBDBD"/>
</svg>
