<svg width="100" height="100" viewBox="0 0 100 100" fill="none" xmlns="http://www.w3.org/2000/svg">
<g clip-path="url(#clip0_7486_61385)">
<path d="M49.9998 100C76.4275 100 97.8514 78.5761 97.8514 52.1484C97.8514 25.7207 76.4275 4.29688 49.9998 4.29688C23.5721 4.29688 2.14825 25.7207 2.14825 52.1484C2.14825 78.5761 23.5721 100 49.9998 100Z" fill="#FFB900"/>
<path d="M-0.0531006 97.8247L17.5223 80.2492L19.7317 82.4586L2.15627 100.034L-0.0531006 97.8247Z" fill="#BDBDBD"/>
<path d="M21.9531 86.8853L13.1146 78.0469C12.6791 77.6118 12.3335 77.0951 12.0978 76.5263C11.862 75.9576 11.7407 75.348 11.7407 74.7323C11.7407 74.1167 11.862 73.507 12.0978 72.9383C12.3335 72.3696 12.6791 71.8529 13.1146 71.4178L18.3709 66.1617L33.8387 81.6295L28.5826 86.8857C28.1475 87.3213 27.6307 87.6669 27.062 87.9027C26.4932 88.1384 25.8835 88.2598 25.2678 88.2597C24.6521 88.2597 24.0424 88.1383 23.4737 87.9025C22.9049 87.6666 22.3882 87.321 21.9531 86.8853Z" fill="url(#paint0_linear_7486_61385)"/>
<path d="M80.4453 43.8613L39.3633 84.9434C38.4837 85.8214 37.2916 86.3145 36.0488 86.3145C34.806 86.3145 33.614 85.8214 32.7344 84.9434L15.0566 67.2656C14.1786 66.386 13.6855 65.194 13.6855 63.9512C13.6855 62.7084 14.1786 61.5163 15.0566 60.6367L56.1386 19.5547L80.4453 43.8613Z" fill="#42A5F5"/>
<path d="M53.919 21.7622L63.0299 12.6513L87.3329 36.9543L78.222 46.0652L53.919 21.7622Z" fill="url(#paint1_linear_7486_61385)"/>
<path d="M69.6631 19.288L82.96 5.99115L94.0052 17.0364L80.7084 30.3332L69.6631 19.288Z" fill="url(#paint2_linear_7486_61385)"/>
<path d="M77.4368 2.67679L79.6461 0.467413L99.5298 20.3511L97.3205 22.5605L77.4368 2.67679Z" fill="#1E88E5"/>
<path d="M58.2621 10.0968L60.4715 7.88746L91.3262 38.7422L89.1168 40.9516L58.2621 10.0968Z" fill="#1E88E5"/>
<path d="M74.4863 49.8203L42.3515 81.9551C41.1959 78.676 40.6119 75.2228 40.625 71.7461V53.498C40.625 53.498 58.9726 51.0117 65.1816 45.9043C67.9492 47.4492 71.2246 48.75 74.4863 49.8203Z" fill="#64B5F6"/>
<path d="M65.625 100C65.6055 99.9855 43.75 92.7639 43.75 71.7453V56.25C44.35 56.1734 56.384 57.1289 65.4478 49.6729C79.1252 57.3066 86.9727 56.1404 87.5 56.25V71.7453C87.5 83.8672 78.5729 95.0195 65.625 100Z" fill="#069550"/>
<path d="M19.5902 56.1797L21.7996 53.9703L29.2203 61.391L27.0109 63.6004L19.5902 56.1797Z" fill="#BBDEFB"/>
<path d="M32.0902 43.6824L34.2996 41.473L41.7203 48.8938L39.5109 51.1031L32.0902 43.6824Z" fill="#BBDEFB"/>
<path d="M36.981 61.0658L34.8252 58.91L37.0349 56.7002L39.1908 58.856L36.981 61.0658ZM32.6156 56.7002L25.8482 49.933L28.058 47.7232L34.8252 54.4906L32.6156 56.7002Z" fill="#BBDEFB"/>
<path d="M44.5902 31.1851L46.7996 28.9758L54.2203 36.3965L52.0109 38.6059L44.5902 31.1851Z" fill="#BBDEFB"/>
<path d="M49.3968 48.4814L47.1875 46.2719L49.3968 44.0625L51.6064 46.2723L49.3968 48.4814ZM44.9773 44.0625L38.3482 37.4334L40.558 35.2236L47.1875 41.8523L44.9773 44.0625Z" fill="#BBDEFB"/>
<path d="M73.4688 53.4844L48.3027 78.6504L46.0938 76.4395L70.3613 52.1719C71.4453 52.666 72.4811 53.1035 73.4688 53.4844Z" fill="#008444"/>
<path d="M84.0625 56.1484L54.9316 85.2793L50.5137 80.8594L76.7441 54.6289C79.1241 55.3884 81.5769 55.8977 84.0625 56.1484Z" fill="#008444"/>
<path d="M64.4166 84.8471L55.446 79.4648L57.0539 76.7851L63.7084 80.7779L76.9156 64.6355L79.3343 66.6144L64.4166 84.8471Z" fill="white"/>
</g>
<defs>
<linearGradient id="paint0_linear_7486_61385" x1="22.7896" y1="66.1613" x2="22.7896" y2="88.2594" gradientUnits="userSpaceOnUse">
<stop stop-color="#BCD1FB"/>
<stop offset="0.117" stop-color="#C8D9FC"/>
<stop offset="0.325" stop-color="#D6E3FE"/>
<stop offset="0.579" stop-color="#DEE9FF"/>
<stop offset="1" stop-color="#E1EBFF"/>
</linearGradient>
<linearGradient id="paint1_linear_7486_61385" x1="70.6121" y1="12.6574" x2="70.6121" y2="46.0653" gradientUnits="userSpaceOnUse">
<stop stop-color="#BCD1FB"/>
<stop offset="0.117" stop-color="#C8D9FC"/>
<stop offset="0.325" stop-color="#D6E3FE"/>
<stop offset="0.579" stop-color="#DEE9FF"/>
<stop offset="1" stop-color="#E1EBFF"/>
</linearGradient>
<linearGradient id="paint2_linear_7486_61385" x1="81.8218" y1="5.99016" x2="81.8218" y2="30.3285" gradientUnits="userSpaceOnUse">
<stop stop-color="#BCD1FB"/>
<stop offset="0.117" stop-color="#C8D9FC"/>
<stop offset="0.325" stop-color="#D6E3FE"/>
<stop offset="0.579" stop-color="#DEE9FF"/>
<stop offset="1" stop-color="#E1EBFF"/>
</linearGradient>
<clipPath id="clip0_7486_61385">
<rect width="100" height="100" fill="white"/>
</clipPath>
</defs>
</svg>
