<svg width="320" height="209" viewBox="0 0 320 209" fill="none" xmlns="http://www.w3.org/2000/svg">
<path d="M320 179.916H0V180.077H320V179.916Z" fill="#EBEBEB"/>
<path d="M287.937 190.255H266.739V190.415H287.937V190.255Z" fill="#EBEBEB"/>
<path d="M174.862 188.241H166.615V188.402H174.862V188.241Z" fill="#EBEBEB"/>
<path d="M223.787 188.92H206.417V189.081H223.787V188.92Z" fill="#EBEBEB"/>
<path d="M266.098 184.29H230.187V184.451H266.098V184.29Z" fill="#EBEBEB"/>
<path d="M50.551 191.721H33.5737V191.882H50.551V191.721Z" fill="#EBEBEB"/>
<path d="M70.969 191.721H56.249V191.882H70.969V191.721Z" fill="#EBEBEB"/>
<path d="M122.761 188.161H83.8401V188.322H122.761V188.161Z" fill="#EBEBEB"/>
<path d="M151.689 151.269H28.1055C27.137 151.268 26.2084 150.881 25.5235 150.194C24.8386 149.507 24.4534 148.575 24.4524 147.603V-26.7469C24.4536 -27.7189 24.8388 -28.6508 25.5237 -29.3381C26.2085 -30.0255 27.137 -30.4121 28.1055 -30.4133H151.69C152.658 -30.412 153.586 -30.0252 154.271 -29.3379C154.956 -28.6506 155.341 -27.7188 155.342 -26.7469V147.602C155.341 148.574 154.956 149.506 154.271 150.194C153.586 150.881 152.658 151.268 151.689 151.269ZM28.1055 -30.254C27.1794 -30.253 26.2915 -29.8833 25.6366 -29.2261C24.9818 -28.5688 24.6134 -27.6777 24.6124 -26.7482V147.602C24.6134 148.532 24.9818 149.423 25.6366 150.08C26.2915 150.737 27.1794 151.107 28.1055 151.108H151.69C152.616 151.107 153.503 150.737 154.158 150.08C154.813 149.423 155.181 148.531 155.182 147.602V-26.7469C155.181 -27.6763 154.813 -28.5675 154.158 -29.2247C153.503 -29.882 152.616 -30.2517 151.69 -30.2527L28.1055 -30.254Z" fill="#EBEBEB"/>
<path d="M290.118 151.269H166.534C165.566 151.268 164.637 150.881 163.953 150.194C163.268 149.507 162.883 148.575 162.882 147.603V-26.7469C162.883 -27.7189 163.268 -28.6508 163.953 -29.3381C164.637 -30.0255 165.566 -30.4121 166.534 -30.4133H290.118C291.087 -30.4123 292.016 -30.0257 292.701 -29.3384C293.386 -28.651 293.771 -27.719 293.772 -26.7469V147.602C293.771 148.574 293.386 149.506 292.701 150.194C292.016 150.881 291.087 151.268 290.118 151.269ZM166.536 -30.254C165.61 -30.253 164.722 -29.8833 164.067 -29.226C163.412 -28.5688 163.044 -27.6776 163.043 -26.7482V147.602C163.044 148.531 163.412 149.423 164.067 150.08C164.722 150.737 165.61 151.107 166.536 151.108H290.12C291.046 151.107 291.934 150.737 292.589 150.08C293.244 149.423 293.612 148.532 293.613 147.602V-26.7469C293.613 -27.6769 293.244 -28.5687 292.589 -29.2263C291.934 -29.8839 291.045 -30.2535 290.118 -30.254H166.536Z" fill="#EBEBEB"/>
<path d="M169.536 124.671C168.256 120.977 158.144 126 154.045 132.122C151.313 136.198 149.644 140.549 148.865 146.394C148.958 139.725 149.064 132.559 149.168 125.798C150 124.111 151.892 120.224 153.255 117.144C157.799 106.867 168.609 103.04 172.344 96.5509C177.237 88.0483 177.208 75.2948 173.043 70.6925C169.423 66.6933 157.436 93.7362 156.083 96.7577C152.401 104.843 150.081 113.485 149.219 122.333C149.318 115.982 149.411 110.151 149.491 105.651C149.747 90.9767 150.062 86.2562 150.207 84.8039C150.707 84.0973 151.298 83.2681 151.641 82.8249C154.542 79.0762 160.978 74.6146 164.195 69.1657C168.892 61.2097 168.133 51.6885 164.839 48.1428C161.394 44.4359 155.303 53.1973 152.072 61.8791C148.841 70.5608 150.22 78.8694 149.313 86.0796C149.121 87.4927 148.929 92.8645 148.746 100.315C147.765 92.2986 145.812 86.9281 142.191 81.9237C137.738 75.7682 133.895 68.2728 130.223 69.2415C126.552 70.2101 128.529 80.1284 131.432 87.0906C134.017 93.2917 146.769 99.4761 148.648 104.461C148.426 114.56 148.229 127.354 148.088 139.266C147.083 133.113 147.774 132.597 143.655 123.177C141.205 117.576 131.164 110.67 129.967 114.518C128.792 118.294 130.59 125.638 134.383 130.732C137.441 134.843 144.225 134.836 145.795 137.385C146.161 137.98 147.372 140.26 148.064 141.571C147.9 156.114 147.827 168.951 147.909 173.328L148.567 173.372C148.535 172.242 148.615 164.844 148.744 155.054C150.391 149.845 161.48 146.804 164.908 141.387C168.501 135.716 171.077 129.101 169.536 124.671Z" fill="#E6E6E6"/>
<path d="M159.11 179.917H137.822C137.258 179.917 136.711 179.722 136.274 179.363C135.837 179.005 135.537 178.506 135.425 177.951L133.914 170.475H163.018L161.507 177.953C161.394 178.508 161.094 179.006 160.657 179.364C160.22 179.722 159.674 179.917 159.11 179.917Z" fill="#F0F0F0"/>
<path d="M163.627 173.371H133.306C132.955 173.371 132.616 173.241 132.354 173.006C132.092 172.772 131.926 172.448 131.887 172.098L131.267 166.57C131.245 166.37 131.265 166.167 131.326 165.975C131.387 165.783 131.487 165.606 131.621 165.455C131.755 165.305 131.919 165.185 132.103 165.102C132.286 165.02 132.485 164.977 132.686 164.977H164.246C164.447 164.977 164.646 165.02 164.83 165.102C165.013 165.185 165.177 165.305 165.311 165.455C165.445 165.606 165.546 165.783 165.607 165.975C165.668 166.167 165.688 166.37 165.665 166.57L165.045 172.098C165.006 172.448 164.84 172.771 164.578 173.006C164.316 173.241 163.978 173.371 163.627 173.371Z" fill="#F0F0F0"/>
<path d="M256.488 177.239H276.872V89.9403H256.488V177.239Z" fill="#F0F0F0"/>
<path d="M169.89 179.916H275.5V177.239H169.89V179.916Z" fill="#F0F0F0"/>
<path d="M256.488 89.9417H168.517V177.24H256.488V89.9417Z" fill="#F5F5F5"/>
<path d="M248.474 124.348H176.532V142.833H248.474V124.348Z" fill="#F0F0F0"/>
<path d="M248.474 148.14H176.532V166.625H248.474V148.14Z" fill="#F0F0F0"/>
<path d="M204.426 127.537H220.579C221.677 127.537 222.567 126.643 222.567 125.542V125.541C222.567 124.439 221.677 123.546 220.579 123.546H204.426C203.328 123.546 202.439 124.439 202.439 125.541V125.542C202.439 126.643 203.328 127.537 204.426 127.537Z" fill="#F5F5F5"/>
<path d="M248.474 100.555H176.532V119.04H248.474V100.555Z" fill="#F0F0F0"/>
<path d="M204.426 103.745H220.579C221.106 103.743 221.611 103.532 221.983 103.158C222.356 102.785 222.566 102.278 222.567 101.749C222.566 101.221 222.356 100.714 221.983 100.34C221.611 99.9664 221.106 99.7557 220.579 99.7542H204.426C203.9 99.7558 203.395 99.9666 203.023 100.34C202.65 100.714 202.44 101.221 202.438 101.749C202.44 102.278 202.65 102.785 203.022 103.158C203.395 103.532 203.9 103.743 204.426 103.745Z" fill="#F5F5F5"/>
<path d="M204.426 151.329H220.579C221.106 151.327 221.611 151.117 221.983 150.743C222.356 150.369 222.566 149.862 222.567 149.334C222.565 148.805 222.355 148.299 221.983 147.925C221.611 147.551 221.106 147.34 220.579 147.339H204.426C203.9 147.34 203.395 147.551 203.023 147.925C202.65 148.299 202.44 148.805 202.438 149.334C202.44 149.862 202.65 150.369 203.022 150.743C203.395 151.117 203.9 151.327 204.426 151.329Z" fill="#F5F5F5"/>
<path d="M166.709 89.9402L256.489 89.9402V87.4499L166.709 87.4499V89.9402Z" fill="#F0F0F0"/>
<path d="M278.814 87.45H256.489V89.9403H278.814V87.45Z" fill="#E6E6E6"/>
<path d="M94.3482 179.916H114.487L114.487 49.1842H94.3482L94.3482 179.916Z" fill="#E0E0E0"/>
<path d="M43.0159 179.917H110.453L117.537 19.0044H50.0994L43.0159 179.917Z" fill="#E6E6E6"/>
<path d="M33.1777 179.917H107.776L114.86 19.0044H40.2619L33.1777 179.917Z" fill="#F0F0F0"/>
<path d="M100.471 172.028L106.438 26.8926H47.5635L41.5962 172.028H100.471Z" fill="white"/>
<path d="M75.1738 172.028L95.1853 26.8926H88.9069L68.8948 172.028H75.1738Z" fill="#FAFAFA"/>
<path d="M66.2345 172.028L86.2466 26.8926H75.5407L55.5286 172.028H66.2345Z" fill="#FAFAFA"/>
<path d="M187.817 62.8308L269.438 62.8308V-13.7969L187.817 -13.7969V62.8308Z" fill="#E6E6E6"/>
<path d="M185.284 62.8308L268.254 62.8308V-13.7969L185.284 -13.7969V62.8308Z" fill="#F5F5F5"/>
<path d="M187.817 65.967L269.438 65.967V62.8305L187.817 62.8305V65.967Z" fill="#E6E6E6"/>
<path d="M183.011 65.967L260.437 65.967V62.8305L183.011 62.8305V65.967Z" fill="#F5F5F5"/>
<path d="M264.707 58.0826V-9.04883L188.83 -9.04883V58.0826H264.707Z" fill="#FAFAFA"/>
<path d="M189.336 58.0826V-9.04883H188.83V58.0826H189.336Z" fill="#E6E6E6"/>
<path d="M252.124 58.0826L239.004 -9.04883H221.806L234.926 58.0826H252.124Z" fill="white"/>
<path d="M232.143 58.0826L219.023 -9.04883H211.256L224.376 58.0826H232.143Z" fill="white"/>
<path d="M262.171 54.4398V-16.4339C262.171 -16.6503 261.996 -16.8257 261.781 -16.8257H261.749C261.534 -16.8257 261.359 -16.6503 261.359 -16.4339V54.4398C261.359 54.6562 261.534 54.8316 261.749 54.8316H261.781C261.996 54.8316 262.171 54.6562 262.171 54.4398Z" fill="#EBEBEB"/>
<path d="M160 208.925C228.533 208.925 284.089 205.669 284.089 201.652C284.089 197.635 228.533 194.379 160 194.379C91.4677 194.379 35.9111 197.635 35.9111 201.652C35.9111 205.669 91.4677 208.925 160 208.925Z" fill="#F5F5F5"/>
<path d="M41.5008 109.054L40.855 109.13L42.0074 119.02L42.6533 118.944L41.5008 109.054Z" fill="#FFB900"/>
<path d="M43.0816 122.619L42.4358 122.695L43.0171 127.682L43.6629 127.607L43.0816 122.619Z" fill="#FFB900"/>
<path d="M86.1356 88.8912L85.3676 86.7304C84.8389 85.2427 83.8232 83.9789 82.4864 83.1454C81.1496 82.3119 79.5707 81.958 78.0076 82.1415L47.4239 85.7315C45.5917 85.9467 43.9197 86.8836 42.7757 88.3359C41.6317 89.7883 41.1093 91.6372 41.3234 93.4761L50.0274 168.179C50.1743 169.44 50.8144 170.591 51.8067 171.379C52.7991 172.166 54.0624 172.526 55.3189 172.378L164.752 159.532C166.008 159.384 167.155 158.742 167.94 157.745C168.724 156.749 169.082 155.481 168.936 154.22L161.408 89.644C161.261 88.3829 160.621 87.232 159.628 86.4446C158.636 85.6571 157.372 85.2976 156.116 85.445L92.5695 92.9045C91.2029 93.0641 89.8228 92.7542 88.6543 92.0253C87.4859 91.2964 86.598 90.1916 86.1356 88.8912Z" fill="#FFB900"/>
<path d="M89.1933 56.4024L54.6157 63.3186L64.1095 111.129L98.6871 104.213L89.1933 56.4024Z" fill="#FFB900"/>
<path opacity="0.7" d="M89.1933 56.4024L54.6157 63.3186L64.1095 111.129L98.6871 104.213L89.1933 56.4024Z" fill="white"/>
<g opacity="0.4">
<path opacity="0.4" d="M84.5753 67.9089L63.2755 72.1688C62.7799 72.2673 62.2658 72.1644 61.8458 71.8827C61.4258 71.601 61.1344 71.1636 61.0355 70.6664C60.9375 70.169 61.0402 69.653 61.321 69.2315C61.6018 68.81 62.0377 68.5175 62.5331 68.4183L83.8323 64.1577C84.3283 64.0586 84.8432 64.1613 85.2639 64.4431C85.6845 64.725 85.9764 65.1629 86.0755 65.6607C86.1732 66.1585 86.0701 66.6748 85.7888 67.0963C85.5075 67.5178 85.0711 67.81 84.5753 67.9089Z" fill="#FFB900"/>
<path opacity="0.4" d="M86.1439 75.8143L64.844 80.0749C64.3484 80.1735 63.8341 80.0706 63.414 79.7887C62.994 79.5069 62.7026 79.0692 62.604 78.5718C62.5058 78.0744 62.6083 77.5582 62.8891 77.1366C63.17 76.715 63.6061 76.4226 64.1016 76.3237L85.4008 72.0631C85.8969 71.9638 86.4119 72.0664 86.8326 72.3483C87.2533 72.6302 87.5452 73.0682 87.644 73.5661C87.7421 74.0639 87.6391 74.5804 87.3578 75.002C87.0765 75.4236 86.6398 75.7158 86.1439 75.8143Z" fill="#FFB900"/>
<path opacity="0.4" d="M87.7149 83.72L66.4151 87.9805C65.9195 88.079 65.4052 87.976 64.9852 87.6942C64.5652 87.4124 64.2739 86.9748 64.1751 86.4775C64.1261 86.231 64.1259 85.9772 64.1746 85.7307C64.2233 85.4841 64.3199 85.2496 64.4589 85.0406C64.5979 84.8315 64.7766 84.6519 64.9847 84.5122C65.1929 84.3725 65.4265 84.2752 65.6721 84.2261L86.9719 79.9655C87.468 79.8665 87.9829 79.9692 88.4035 80.251C88.8242 80.5329 89.1161 80.9708 89.2151 81.4686C89.264 81.7153 89.2639 81.9692 89.2149 82.2159C89.166 82.4625 89.069 82.6971 88.9297 82.9062C88.7904 83.1153 88.6114 83.2947 88.403 83.4344C88.1946 83.574 87.9608 83.671 87.7149 83.72Z" fill="#FFB900"/>
<path opacity="0.4" d="M89.2851 91.6252L67.9853 95.8858C67.4897 95.984 66.9755 95.881 66.5556 95.5992C66.1356 95.3174 65.8442 94.8799 65.7453 94.3827C65.6472 93.8853 65.7498 93.3691 66.0306 92.9476C66.3114 92.5261 66.7474 92.2337 67.2429 92.1345L88.5427 87.8739C89.0383 87.7753 89.5527 87.8782 89.9727 88.1601C90.3928 88.4419 90.6841 88.8796 90.7827 89.377C90.881 89.8744 90.7785 90.3907 90.4976 90.8122C90.2168 91.2338 89.7807 91.5262 89.2851 91.6252Z" fill="#FFB900"/>
<path opacity="0.4" d="M85.0334 100.695L69.555 103.791C69.0594 103.889 68.5453 103.786 68.1254 103.505C67.7055 103.223 67.4141 102.785 67.315 102.288C67.2163 101.79 67.3186 101.274 67.5994 100.851C67.8803 100.429 68.3166 100.136 68.8126 100.037L84.291 96.9409C84.7871 96.8418 85.302 96.9445 85.7226 97.2264C86.1433 97.5082 86.4352 97.9462 86.5342 98.4439C86.583 98.6907 86.5829 98.9447 86.5339 99.1914C86.4849 99.4381 86.388 99.6726 86.2486 99.8817C86.1092 100.091 85.9302 100.27 85.7217 100.41C85.5132 100.549 85.2793 100.646 85.0334 100.695Z" fill="#FFB900"/>
</g>
<path d="M138.462 47.1818L103.53 51.98L110.116 100.281L145.048 95.4827L138.462 47.1818Z" fill="#FFB900"/>
<path opacity="0.7" d="M138.462 47.1818L103.53 51.98L110.116 100.281L145.048 95.4827L138.462 47.1818Z" fill="white"/>
<g opacity="0.4">
<path opacity="0.4" d="M133.156 58.3879L111.639 61.3427C111.391 61.3768 111.138 61.3615 110.896 61.2977C110.654 61.234 110.427 61.1229 110.227 60.9709C110.028 60.819 109.86 60.629 109.733 60.412C109.607 60.195 109.525 59.955 109.491 59.706C109.457 59.457 109.472 59.2037 109.535 58.9606C109.599 58.7175 109.71 58.4893 109.861 58.2891C110.012 58.0889 110.202 57.9207 110.418 57.7939C110.634 57.6671 110.873 57.5844 111.121 57.5503L132.639 54.5956C132.887 54.5615 133.14 54.5767 133.382 54.6405C133.624 54.7043 133.852 54.8154 134.051 54.9674C134.251 55.1194 134.418 55.3093 134.545 55.5263C134.671 55.7434 134.753 55.9832 134.787 56.2323C134.821 56.4813 134.806 56.7346 134.742 56.9777C134.679 57.2208 134.568 57.449 134.417 57.6491C134.265 57.8493 134.076 58.0176 133.86 58.1444C133.644 58.2711 133.405 58.3539 133.156 58.3879Z" fill="#FFB900"/>
<path opacity="0.4" d="M134.246 66.3725L112.728 69.3272C112.227 69.3959 111.719 69.2621 111.316 68.9552C110.913 68.6483 110.649 68.1934 110.58 67.6905C110.546 67.4415 110.561 67.1881 110.625 66.945C110.688 66.7018 110.799 66.4736 110.95 66.2734C111.102 66.0732 111.291 65.9048 111.507 65.778C111.723 65.6512 111.962 65.5683 112.211 65.5342L133.729 62.5795C133.977 62.5454 134.229 62.5606 134.471 62.6244C134.714 62.6882 134.941 62.7993 135.14 62.9513C135.34 63.1032 135.508 63.2932 135.634 63.5102C135.76 63.7272 135.843 63.9671 135.877 64.2162C135.911 64.4652 135.895 64.7185 135.832 64.9617C135.768 65.2048 135.658 65.433 135.506 65.6333C135.355 65.8335 135.165 66.0019 134.949 66.1287C134.733 66.2555 134.494 66.3383 134.246 66.3725Z" fill="#FFB900"/>
<path opacity="0.4" d="M119.744 76.5015L113.815 77.316C113.567 77.3501 113.314 77.3348 113.072 77.271C112.83 77.2072 112.603 77.0962 112.403 76.9442C112.204 76.7922 112.036 76.6023 111.91 76.3852C111.783 76.1682 111.701 75.9283 111.667 75.6793C111.633 75.4303 111.648 75.177 111.712 74.9339C111.775 74.6907 111.886 74.4626 112.037 74.2624C112.189 74.0622 112.378 73.8939 112.594 73.7672C112.811 73.6404 113.05 73.5576 113.298 73.5236L119.227 72.7091C119.475 72.675 119.727 72.6903 119.969 72.7541C120.212 72.8178 120.439 72.9289 120.638 73.0809C120.838 73.2329 121.006 73.4228 121.132 73.6399C121.258 73.8569 121.341 74.0968 121.375 74.3458C121.409 74.5948 121.393 74.8481 121.33 75.0912C121.266 75.3343 121.156 75.5625 121.004 75.7627C120.853 75.9629 120.663 76.1311 120.447 76.2579C120.231 76.3847 119.992 76.4674 119.744 76.5015Z" fill="#FFB900"/>
<path opacity="0.4" d="M131.244 74.9215L125.314 75.7359C124.813 75.8047 124.305 75.6709 123.902 75.364C123.5 75.057 123.235 74.6021 123.166 74.0993C123.132 73.8502 123.147 73.5969 123.211 73.3537C123.274 73.1106 123.385 72.8824 123.536 72.6821C123.688 72.4819 123.877 72.3136 124.093 72.1867C124.31 72.0599 124.549 71.9771 124.797 71.9429L130.726 71.1285C131.228 71.0597 131.735 71.1936 132.138 71.5007C132.541 71.8077 132.806 72.2628 132.874 72.7658C132.943 73.2687 132.809 73.7783 132.504 74.1825C132.198 74.5867 131.745 74.8526 131.244 74.9215Z" fill="#FFB900"/>
<path opacity="0.4" d="M136.424 82.3469L114.906 85.3016C114.658 85.3357 114.406 85.3204 114.164 85.2567C113.921 85.1929 113.694 85.0818 113.495 84.9298C113.295 84.7778 113.127 84.5879 113.001 84.3709C112.875 84.1538 112.792 83.9139 112.758 83.6649C112.724 83.4159 112.74 83.1626 112.803 82.9194C112.867 82.6763 112.977 82.4481 113.129 82.2479C113.28 82.0477 113.469 81.8794 113.686 81.7527C113.902 81.6259 114.141 81.5432 114.389 81.5092L135.907 78.5545C136.408 78.4858 136.916 78.6196 137.318 78.9265C137.721 79.2334 137.986 79.6883 138.055 80.1912C138.089 80.4402 138.074 80.6936 138.01 80.9367C137.947 81.1799 137.836 81.4081 137.684 81.6083C137.533 81.8085 137.344 81.9767 137.127 82.1035C136.911 82.2302 136.672 82.3129 136.424 82.3469Z" fill="#FFB900"/>
<path opacity="0.4" d="M131.632 91.1403L115.995 93.2882C115.494 93.357 114.986 93.2232 114.583 92.9163C114.18 92.6093 113.916 92.1544 113.847 91.6516C113.813 91.4026 113.828 91.1493 113.892 90.9061C113.955 90.663 114.066 90.4349 114.217 90.2347C114.369 90.0345 114.558 89.8662 114.774 89.7395C114.991 89.6127 115.23 89.5299 115.478 89.4959L131.115 87.3473C131.363 87.3132 131.615 87.3285 131.858 87.3923C132.1 87.4561 132.327 87.5672 132.527 87.7193C132.726 87.8713 132.894 88.0614 133.02 88.2785C133.146 88.4956 133.229 88.7355 133.263 88.9846C133.297 89.2336 133.281 89.4869 133.218 89.73C133.154 89.9731 133.044 90.2013 132.892 90.4015C132.741 90.6017 132.552 90.77 132.335 90.8967C132.119 91.0235 131.88 91.1062 131.632 91.1403Z" fill="#FFB900"/>
</g>
<path d="M105.5 54.2384L70.3757 57.3108L74.5932 105.878L109.718 102.805L105.5 54.2384Z" fill="#FFB900"/>
<path opacity="0.8" d="M105.5 54.2384L70.3757 57.3108L74.5932 105.878L109.718 102.805L105.5 54.2384Z" fill="white"/>
<g opacity="0.4">
<path opacity="0.4" d="M99.6538 65.1681L78.0161 67.0591C77.5122 67.1031 77.0116 66.9445 76.6243 66.618C76.237 66.2916 75.9947 65.8241 75.9508 65.3184C75.907 64.8128 76.065 64.3105 76.3901 63.9218C76.7152 63.5331 77.1808 63.2899 77.6846 63.2456L99.321 61.3527C99.8249 61.3087 100.326 61.4673 100.713 61.7938C101.1 62.1202 101.342 62.5877 101.386 63.0934C101.408 63.3438 101.381 63.5961 101.306 63.8359C101.231 64.0758 101.109 64.2984 100.948 64.491C100.788 64.6837 100.59 64.8427 100.368 64.9589C100.146 65.075 99.9034 65.1461 99.6538 65.1681Z" fill="#FFB900"/>
<path opacity="0.4" d="M100.352 73.1994L78.7155 75.0917C78.2117 75.1357 77.711 74.977 77.3237 74.6506C76.9364 74.3241 76.6942 73.8567 76.6502 73.351C76.6064 72.8453 76.7645 72.3428 77.0898 71.9541C77.415 71.5654 77.8808 71.3223 78.3846 71.2782L100.021 69.3859C100.525 69.3419 101.026 69.5005 101.413 69.827C101.8 70.1534 102.042 70.6209 102.086 71.1266C102.13 71.6323 101.972 72.1347 101.647 72.5235C101.322 72.9122 100.856 73.1553 100.352 73.1994Z" fill="#FFB900"/>
<path opacity="0.4" d="M101.048 81.2294L79.4119 83.1217C78.9083 83.1657 78.4079 83.0073 78.0207 82.6812C77.6334 82.3552 77.391 81.8882 77.3466 81.3829C77.3248 81.1324 77.3524 80.8801 77.4277 80.6404C77.5031 80.4006 77.6248 80.1781 77.7859 79.9856C77.9469 79.793 78.1442 79.6342 78.3664 79.5182C78.5886 79.4022 78.8314 79.3313 79.081 79.3094L100.717 77.4171C101.221 77.3731 101.722 77.5318 102.109 77.8582C102.497 78.1847 102.739 78.6521 102.783 79.1578C102.826 79.6633 102.668 80.1654 102.343 80.5539C102.018 80.9423 101.552 81.1853 101.048 81.2294Z" fill="#FFB900"/>
<path opacity="0.4" d="M101.746 89.2602L80.1094 91.1525C79.8599 91.1745 79.6086 91.1469 79.3697 91.0713C79.1309 90.9957 78.9093 90.8737 78.7174 90.7121C78.5256 90.5505 78.3675 90.3525 78.2519 90.1295C78.1364 89.9065 78.0658 89.6629 78.0441 89.4125C78.0223 89.1621 78.0499 88.9099 78.1252 88.6702C78.2005 88.4305 78.3222 88.2081 78.4832 88.0156C78.6442 87.8232 78.8414 87.6644 79.0635 87.5484C79.2857 87.4324 79.5284 87.3615 79.7779 87.3397L101.414 85.4467C101.664 85.4248 101.915 85.4525 102.154 85.5282C102.393 85.6038 102.615 85.726 102.806 85.8876C102.998 86.0493 103.156 86.2473 103.272 86.4703C103.387 86.6933 103.458 86.937 103.48 87.1874C103.523 87.693 103.365 88.1954 103.04 88.5841C102.715 88.9728 102.25 89.216 101.746 89.2602Z" fill="#FFB900"/>
<path opacity="0.4" d="M96.5301 97.8083L80.8066 99.1836C80.3027 99.2276 79.8021 99.0689 79.4148 98.7424C79.0275 98.416 78.7852 97.9485 78.7413 97.4428C78.6975 96.9372 78.8556 96.4347 79.1808 96.046C79.5061 95.6573 79.9719 95.4141 80.4757 95.37L96.1986 93.9948C96.7025 93.9506 97.2032 94.1091 97.5906 94.4355C97.978 94.7618 98.2204 95.2292 98.2645 95.7349C98.3083 96.2407 98.1503 96.7432 97.825 97.132C97.4998 97.5208 97.034 97.7641 96.5301 97.8083Z" fill="#FFB900"/>
</g>
<path d="M148.313 51.8774L113.091 53.5759L115.422 102.278L150.644 100.58L148.313 51.8774Z" fill="#FFB900"/>
<path opacity="0.8" d="M148.313 51.8774L113.091 53.5759L115.422 102.278L150.644 100.58L148.313 51.8774Z" fill="white"/>
<g opacity="0.4">
<path opacity="0.4" d="M142.044 62.5633L120.348 63.6142C119.843 63.6386 119.349 63.4606 118.974 63.1194C118.6 62.7781 118.376 62.3015 118.351 61.7945C118.327 61.2875 118.505 60.7917 118.845 60.416C119.185 60.0403 119.659 59.8155 120.164 59.791L141.86 58.7395C142.366 58.7151 142.86 58.8931 143.234 59.2343C143.609 59.5756 143.833 60.0522 143.857 60.5593C143.882 61.0663 143.704 61.5623 143.364 61.9382C143.024 62.314 142.549 62.5389 142.044 62.5633Z" fill="#FFB900"/>
<path opacity="0.4" d="M142.431 70.6161L120.735 71.667C120.23 71.6912 119.736 71.5133 119.362 71.1722C118.987 70.8311 118.763 70.3547 118.739 69.8479C118.714 69.3408 118.892 68.8448 119.232 68.4689C119.572 68.0931 120.046 67.8682 120.552 67.8438L142.248 66.7923C142.753 66.7678 143.247 66.9458 143.622 67.2871C143.996 67.6283 144.22 68.1049 144.244 68.612C144.269 69.1191 144.091 69.6151 143.751 69.9909C143.411 70.3668 142.937 70.5916 142.431 70.6161Z" fill="#FFB900"/>
<path opacity="0.4" d="M127.104 79.4294L121.126 79.7191C120.621 79.7433 120.127 79.5653 119.753 79.224C119.379 78.8828 119.155 78.4063 119.13 77.8993C119.118 77.6483 119.155 77.3974 119.24 77.1608C119.324 76.9243 119.454 76.7068 119.623 76.5207C119.791 76.3347 119.994 76.1837 120.221 76.0765C120.447 75.9693 120.693 75.9079 120.943 75.8959L126.92 75.6062C127.425 75.5818 127.919 75.7597 128.294 76.1008C128.668 76.4419 128.893 76.9184 128.917 77.4253C128.941 77.9324 128.764 78.4284 128.424 78.8042C128.084 79.18 127.609 79.4049 127.104 79.4294Z" fill="#FFB900"/>
<path opacity="0.4" d="M138.694 78.8675L132.716 79.1572C132.211 79.1816 131.717 79.0036 131.342 78.6624C130.968 78.3211 130.744 77.8445 130.719 77.3375C130.695 76.8304 130.872 76.3344 131.212 75.9585C131.552 75.5827 132.027 75.3578 132.532 75.3334L138.51 75.0437C139.015 75.0194 139.509 75.1975 139.883 75.5387C140.258 75.88 140.482 76.3565 140.506 76.8634C140.518 77.1145 140.481 77.3654 140.397 77.602C140.312 77.8386 140.182 78.0562 140.014 78.2423C139.845 78.4284 139.642 78.5794 139.416 78.6867C139.189 78.7939 138.944 78.8554 138.694 78.8675Z" fill="#FFB900"/>
<path opacity="0.4" d="M143.206 86.7198L121.51 87.7706C121.26 87.7828 121.01 87.7454 120.774 87.6606C120.538 87.5758 120.321 87.4452 120.136 87.2763C119.951 87.1073 119.8 86.9034 119.693 86.6761C119.586 86.4488 119.525 86.2026 119.513 85.9516C119.501 85.7005 119.538 85.4495 119.622 85.2129C119.707 84.9762 119.837 84.7586 120.005 84.5725C120.174 84.3864 120.377 84.2354 120.603 84.1282C120.83 84.0209 121.075 83.9595 121.325 83.9475L143.021 82.896C143.527 82.8717 144.021 83.0498 144.395 83.391C144.77 83.7322 144.994 84.2087 145.018 84.7157C145.043 85.2227 144.865 85.7186 144.525 86.0944C144.186 86.4702 143.711 86.6952 143.206 86.7198Z" fill="#FFB900"/>
<path opacity="0.4" d="M137.664 95.0584L121.899 95.8222C121.394 95.8466 120.9 95.6687 120.526 95.3276C120.151 94.9865 119.927 94.51 119.903 94.0031C119.89 93.7521 119.928 93.5011 120.012 93.2645C120.097 93.0279 120.227 92.8103 120.395 92.6242C120.564 92.4381 120.767 92.2871 120.993 92.1798C121.22 92.0726 121.465 92.0111 121.715 91.999L137.48 91.2346C137.985 91.2102 138.479 91.3882 138.854 91.7295C139.228 92.0707 139.452 92.5473 139.476 93.0544C139.501 93.5613 139.324 94.0572 138.984 94.4331C138.644 94.8089 138.169 95.0338 137.664 95.0584Z" fill="#FFB900"/>
</g>
<path d="M95.9032 90.2736L95.3426 88.1597C94.9429 86.701 94.0242 85.44 92.7605 84.6153C91.4967 83.7906 89.9756 83.4595 88.485 83.6846L57.8994 87.2746C56.0465 87.5009 54.3393 88.3972 53.0973 89.7956C51.8554 91.194 51.1637 92.9988 51.1519 94.8721L52.8875 167.998C52.8983 168.601 53.0375 169.194 53.2956 169.738C53.5537 170.282 53.9249 170.765 54.3841 171.153C54.8433 171.541 55.3799 171.826 55.958 171.989C56.5361 172.151 57.1421 172.188 57.7355 172.097L167.168 159.25C168.439 159.095 169.61 158.48 170.462 157.521C171.314 156.562 171.788 155.324 171.796 154.039L170.296 90.8254C170.285 90.2229 170.146 89.6296 169.887 89.0855C169.629 88.5414 169.258 88.0591 168.799 87.6709C168.34 87.2827 167.803 86.9977 167.225 86.8349C166.646 86.6722 166.04 86.6355 165.447 86.7273L101.901 94.1874C100.597 94.3841 99.2668 94.0944 98.1617 93.3732C97.0565 92.652 96.253 91.5493 95.9032 90.2736Z" fill="#FFB900"/>
<path opacity="0.5" d="M95.9032 90.2736L95.3426 88.1597C94.9429 86.701 94.0242 85.44 92.7605 84.6153C91.4967 83.7906 89.9756 83.4595 88.485 83.6846L57.8994 87.2746C56.0465 87.5009 54.3393 88.3972 53.0973 89.7956C51.8554 91.194 51.1637 92.9988 51.1519 94.8721L52.8875 167.998C52.8983 168.601 53.0375 169.194 53.2956 169.738C53.5537 170.282 53.9249 170.765 54.3841 171.153C54.8433 171.541 55.3799 171.826 55.958 171.989C56.5361 172.151 57.1421 172.188 57.7355 172.097L167.168 159.25C168.439 159.095 169.61 158.48 170.462 157.521C171.314 156.562 171.788 155.324 171.796 154.039L170.296 90.8254C170.285 90.2229 170.146 89.6296 169.887 89.0855C169.629 88.5414 169.258 88.0591 168.799 87.6709C168.34 87.2827 167.803 86.9977 167.225 86.8349C166.646 86.6722 166.04 86.6355 165.447 86.7273L101.901 94.1874C100.597 94.3841 99.2668 94.0944 98.1617 93.3732C97.0565 92.652 96.253 91.5493 95.9032 90.2736Z" fill="white"/>
<g clip-path="url(#clip0_5852_57430)">
<path d="M113.277 140.128C112.997 140.453 112.597 140.652 112.169 140.683C111.741 140.714 111.316 140.574 110.992 140.292L101.212 131.819C100.197 130.94 100.087 129.404 100.966 128.391L102.027 127.166C102.906 126.151 104.44 126.041 105.455 126.92L111.561 132.209L125.852 115.71C126.731 114.695 128.266 114.585 129.28 115.464L130.505 116.525C131.519 117.405 131.63 118.94 130.75 119.953L113.277 140.128Z" fill="#FF9500"/>
</g>
<path d="M202.898 55.1174C202.425 57.5043 201.918 59.8507 201.351 62.1978C200.794 64.5436 200.224 66.8868 199.603 69.2159L198.658 72.707L198.534 73.1567C198.476 73.3494 198.414 73.5421 198.339 73.7412C198.179 74.1778 197.969 74.5941 197.712 74.9815C197.397 75.4623 196.991 75.8768 196.518 76.202C195.996 76.554 195.396 76.7715 194.77 76.8353C193.816 76.8993 192.864 76.688 192.026 76.2264C191.389 75.8829 190.792 75.4688 190.247 74.9918C189.261 74.1211 188.386 73.1313 187.642 72.0448L189.422 70.439C190.292 71.1187 191.212 71.7313 192.174 72.2715C192.591 72.5102 193.033 72.7023 193.492 72.8445C193.886 72.9729 194.228 72.9556 194.232 72.8901C194.241 72.8663 194.168 72.8657 194.136 72.8695C194.104 72.8734 194.106 72.8535 194.136 72.7623C194.165 72.671 194.211 72.5381 194.252 72.3672L194.399 71.6607L195.146 68.151L196.649 61.1367C197.137 58.7999 197.659 56.456 198.167 54.1423L202.898 55.1174Z" fill="#F4A386"/>
<path d="M200.758 47.7778C195.299 51.9728 195.518 59.8774 195.518 59.8774L205.283 62.22C205.283 62.22 208.279 54.2724 207.064 51.3646C205.795 48.3257 203.831 45.4166 200.758 47.7778Z" fill="#424242"/>
<path d="M189.924 70.5594L186.333 66.9565L184.397 72.5936C184.397 72.5936 187.428 74.2361 190.329 72.6881L189.924 70.5594Z" fill="#F4A386"/>
<path d="M181.365 66.4001L180.705 70.8547L184.397 72.5935L186.333 66.9564L181.365 66.4001Z" fill="#F4A386"/>
<path d="M232.398 196.912L226.906 197.451L221.192 184.332L226.684 183.793L232.398 196.912Z" fill="#F4A386"/>
<path d="M267.776 177.517L263.651 181.404L254.746 171.582L258.871 167.696L267.776 177.517Z" fill="#F4A386"/>
<path d="M261.747 179.539L264.846 173.934C264.898 173.836 264.983 173.761 265.086 173.723C265.189 173.684 265.303 173.685 265.406 173.725L270.177 175.548C270.296 175.598 270.402 175.673 270.49 175.767C270.578 175.861 270.644 175.973 270.686 176.095C270.728 176.217 270.743 176.346 270.732 176.475C270.72 176.603 270.682 176.727 270.619 176.84C269.505 178.776 268.87 179.653 267.507 182.119C266.668 183.635 265.035 187.113 263.877 189.207C262.744 191.255 260.594 190.263 260.89 189.287C262.214 184.911 261.965 182.474 261.59 180.544C261.524 180.201 261.579 179.845 261.747 179.539Z" fill="#424242"/>
<path d="M226.176 195.747H232.922C233.043 195.748 233.16 195.789 233.256 195.864C233.352 195.938 233.422 196.042 233.454 196.159L234.921 201.514C234.957 201.641 234.962 201.774 234.938 201.903C234.913 202.032 234.858 202.154 234.778 202.258C234.698 202.362 234.595 202.446 234.477 202.503C234.359 202.56 234.229 202.588 234.098 202.586C231.721 202.607 230.595 202.597 227.629 202.597H218.563C216.099 202.597 215.583 200.096 216.603 199.87C221.175 198.854 223.811 197.454 225.222 196.118C225.481 195.877 225.822 195.744 226.176 195.747Z" fill="#424242"/>
<path opacity="0.2" d="M221.194 184.335L224.138 191.097H229.867L226.688 183.796L221.194 184.335Z" fill="#212121"/>
<path opacity="0.2" d="M258.874 167.697L254.748 171.585L259.34 176.646L263.466 172.757L258.874 167.697Z" fill="#212121"/>
<path d="M202.407 46.9651C202.407 46.9651 199.939 48.057 208.218 80.9445L231.223 78.9481C230.027 69.5848 229.516 63.789 232.33 44.1189C229.051 43.731 225.749 43.5826 222.449 43.675C218.951 43.7274 215.46 44.0305 212.004 44.582C208.767 45.2125 205.564 46.0079 202.407 46.9651Z" fill="#424242"/>
<path d="M222.449 43.5115C222.449 43.5115 223.754 43.5346 225.296 43.5346C226.222 44.9696 223.211 51.2426 218.231 55.349C217.477 53.0674 216.09 51.0492 214.232 49.5321L222.449 43.5115Z" fill="white"/>
<path d="M212.007 44.4961C212.007 44.4961 211.425 44.579 210.033 44.8982C209.108 46.3332 207.537 52.4508 210.269 55.5744C210.958 53.2075 212.338 51.1026 214.232 49.532L212.007 44.4961Z" fill="white"/>
<path d="M220.398 31.9578C220.029 35.3878 219.904 41.6255 222.449 43.6726C222.449 43.6726 219.731 46.4578 214.232 49.532C210.232 46.7577 212.004 44.5796 212.004 44.5796C215.674 43.3592 215.337 40.5734 214.458 38.0092L220.398 31.9578Z" fill="#F4A386"/>
<path d="M214.14 49.549C214.14 49.549 217.513 45.8627 219.254 46.5712C220.995 47.2797 219.651 48.5425 219.496 49.7276C219.341 50.9127 220.172 54.0781 217.837 53.2559C215.502 52.4337 214.14 49.549 214.14 49.549Z" fill="#069550"/>
<path d="M214.003 49.4739C214.003 49.4739 212.412 46.6477 210.69 47.0234C208.968 47.3992 209.994 48.3942 210.146 49.4566C210.338 50.8235 208.907 53.439 210.983 52.701C213.003 51.9822 214.003 49.4739 214.003 49.4739Z" fill="#069550"/>
<g opacity="0.2">
<path opacity="0.2" d="M213.128 48.8609C213.101 49.4323 213.211 50.0017 213.448 50.522C213.659 50.1882 213.843 49.8384 213.999 49.4756C213.763 49.0728 213.491 48.6924 213.186 48.3394C213.135 48.5082 213.115 48.685 213.128 48.8609Z" fill="#212121"/>
<path opacity="0.2" d="M215.367 48.3567C214.645 48.9945 214.141 49.5469 214.141 49.5469C214.335 49.9326 214.555 50.3043 214.799 50.6595C215.179 50.2665 215.401 49.747 215.423 49.2001C215.487 48.9194 215.467 48.6262 215.367 48.3567Z" fill="#212121"/>
</g>
<path d="M214.097 50.7078C213.621 50.7078 213.329 50.1849 213.292 48.9433C213.255 47.7017 214.208 48.3916 214.208 48.3916C214.208 48.3916 215.472 47.728 215.258 49.2375C215.092 50.411 214.592 50.7059 214.097 50.7078Z" fill="#069550"/>
<path opacity="0.2" d="M217.976 34.4285L214.461 38.0076C214.675 38.6033 214.836 39.2167 214.943 39.8408C216.357 39.5087 218.404 38.0339 218.426 36.5161C218.401 35.7989 218.248 35.0921 217.976 34.4285Z" fill="#212121"/>
<path d="M214.965 20.3695C214.965 20.3695 211.137 25.7079 210.504 28.1038C207.892 29.6287 207.368 22.1083 208.75 17.47C213.04 20.153 214.965 20.3695 214.965 20.3695Z" fill="#424242"/>
<path d="M223.404 26.5972C221.978 32.0769 221.491 34.4265 218.143 36.7222C213.106 40.1761 206.712 37.2201 206.478 31.4243C206.267 26.2066 208.634 18.1229 214.478 16.9827C215.765 16.7256 217.095 16.8028 218.344 17.207C219.592 17.6113 220.717 18.3291 221.612 19.2924C222.506 20.2557 223.14 21.4325 223.454 22.711C223.768 23.9895 223.75 25.3272 223.404 26.5972Z" fill="#F4A386"/>
<path d="M226.372 24.4085C226.372 24.4085 223.629 28.8682 223.26 30.8081C221.269 32.1673 220.428 26.2199 221.269 22.4545C222.184 19.1356 226.372 24.4085 226.372 24.4085Z" fill="#424242"/>
<path d="M225.28 21.3045C224.489 21.9077 223.647 19.6781 224.44 17.9715C222.921 18.0652 221.096 17.1621 221.485 15.6937C218.5 16.6984 217.389 13.6473 217.735 11.5359C218.151 8.98394 220.381 8.42062 221.691 9.09507C221.717 7.94786 224.583 5.54811 225.682 7.425C227.725 6.70174 231.014 6.92463 230.948 9.44128C232.297 9.48368 236.281 11.0169 234.813 14.6127C236.57 14.7174 237.522 16.9611 236.545 18.6536C236.93 18.8592 237.26 19.1546 237.508 19.5149C237.755 19.8752 237.913 20.2899 237.968 20.7241C238.023 21.1584 237.973 21.5995 237.823 22.0105C237.673 22.4214 237.426 22.7902 237.105 23.0857C237.915 24.7815 235.449 27.3026 234.142 26.9994C233.142 28.541 231.611 29.6934 230.61 28.3817C228.665 29.8032 226.488 28.0002 226.98 26.6115C224.776 26.2479 222.552 22.6008 225.28 21.3045Z" fill="#424242"/>
<path d="M228.532 15.9121C229.965 18.3138 229.846 21.0309 228.266 21.9815C226.685 22.9322 224.242 21.7554 222.808 19.3544C221.375 16.9533 221.494 14.2356 223.074 13.2856C224.654 12.3356 227.098 13.5111 228.532 15.9121Z" fill="#069550"/>
<path d="M215.221 19.6979C215.134 20.3871 213.246 20.2086 212.702 18.9958C211.924 19.8161 210.087 20.2426 209.459 19.3485C208.398 21.35 206.27 20.8259 205.711 19.8624C205.153 18.8989 204.796 17.128 205.9 16.7792C205.26 16.2223 205.452 13.6221 207.129 13.949C207.833 12.5635 209.763 10.9885 211.17 12.2148C211.934 11.5454 214.995 10.2364 216.252 12.6882C216.524 12.5014 216.835 12.379 217.16 12.3302C217.486 12.2814 217.819 12.3074 218.133 12.4064C218.447 12.5053 218.735 12.6746 218.975 12.9014C219.214 13.1283 219.399 13.4068 219.516 13.7159C221.51 13.1924 222.373 14.7089 222.364 15.5285C223.781 15.9172 223.874 18.3702 222.984 18.895C223.319 20.1341 223.142 21.4643 221.841 21.3532C221.591 23.0194 219.364 23.2802 218.838 22.3694C217.424 23.322 214.47 21.7039 215.221 19.6979Z" fill="#424242"/>
<path d="M211.854 14.9803C213.475 12.7289 219.377 11.7956 224.491 15.1679C229.099 18.2067 228.801 25.2602 225.137 24.8851C221.474 24.5099 217.848 20.196 217.848 20.196L211.854 14.9803Z" fill="#424242"/>
<path d="M223.855 31.5437C223.344 32.5118 222.473 33.2375 221.43 33.5619C220.046 33.98 219.325 32.7442 219.686 31.4171C220.011 30.223 221.122 28.5671 222.523 28.7296C222.829 28.7708 223.119 28.888 223.368 29.0704C223.617 29.2528 223.817 29.4948 223.949 29.7743C224.082 30.0538 224.142 30.3621 224.126 30.6711C224.109 30.98 224.016 31.28 223.855 31.5437Z" fill="#F4A386"/>
<path d="M208.218 80.9422C208.218 80.9422 200.435 115.5 205.631 139.86C209.11 156.175 221.66 189.137 221.66 189.137L231.472 188.884C231.472 188.884 221.973 154.294 220.008 140.691C216.648 117.422 225.064 79.4802 225.064 79.4802L208.218 80.9422Z" fill="#069550"/>
<path opacity="0.2" d="M217.193 87.9194L222.099 95.6852C220.62 104.894 219.683 114.183 219.292 123.503C212.392 111.106 215.659 94.4828 217.193 87.9194Z" fill="#212121"/>
<path d="M220.277 189.647L232.398 189.337L231.694 185.599L219.327 186.187L220.277 189.647Z" fill="#424242"/>
<path d="M213.248 80.5747C213.248 80.5747 217.814 117.221 227.712 137.228C235.706 153.388 257.039 176.392 257.039 176.392L262.493 170.753C262.493 170.753 248.084 145.752 242.141 135.017C227.572 108.696 239.478 88.6096 231.221 78.9451L213.248 80.5747Z" fill="#069550"/>
<path d="M256.486 177.147L263.526 170.26L261.191 167.072L253.727 174.549L256.486 177.147Z" fill="#424242"/>
<path d="M231.45 77.5606L232.666 79.5371C232.76 79.6899 232.586 79.8704 232.319 79.8936L208.195 81.9876C207.987 82.0055 207.807 81.9182 207.782 81.7884L207.398 79.74C207.371 79.5981 207.541 79.4613 207.767 79.4414L231.063 77.4193C231.134 77.4074 231.207 77.4141 231.275 77.4389C231.343 77.4637 231.403 77.5056 231.45 77.5606Z" fill="#069550"/>
<path opacity="0.5" d="M231.45 77.5606L232.666 79.5371C232.76 79.6899 232.586 79.8704 232.319 79.8936L208.195 81.9876C207.987 82.0055 207.807 81.9182 207.782 81.7884L207.398 79.74C207.371 79.5981 207.541 79.4613 207.767 79.4414L231.063 77.4193C231.134 77.4074 231.207 77.4141 231.275 77.4389C231.343 77.4637 231.403 77.5056 231.45 77.5606Z" fill="white"/>
<path d="M228.544 80.4461L229.168 80.3922C229.292 80.3812 229.381 80.3086 229.367 80.2309L228.842 77.5717C228.827 77.4933 228.714 77.4387 228.586 77.4496L227.962 77.5036C227.838 77.5145 227.749 77.5871 227.765 77.6648L228.289 80.3247C228.309 80.4024 228.423 80.457 228.544 80.4461Z" fill="#069550"/>
<path d="M209.967 82.0587L210.59 82.0047C210.718 81.9938 210.804 81.9212 210.788 81.8435L210.264 79.1842C210.249 79.1059 210.136 79.0513 210.008 79.0622L209.384 79.1161C209.26 79.1271 209.17 79.1996 209.186 79.2774L209.71 81.9366C209.728 82.015 209.842 82.0696 209.967 82.0587Z" fill="#069550"/>
<path d="M219.256 81.2546L219.88 81.2C220.005 81.1897 220.094 81.1171 220.079 81.0394L219.555 78.3795C219.539 78.3018 219.427 78.2466 219.299 78.2575L218.675 78.3121C218.547 78.3224 218.462 78.3949 218.477 78.4727L219.001 81.1325C219.018 81.2083 219.132 81.2636 219.256 81.2546Z" fill="#069550"/>
<path d="M233.307 49.3708C233.74 49.7961 234.041 50.1256 234.383 50.5059C234.709 50.8784 235.023 51.2548 235.328 51.637C235.939 52.3992 236.518 53.1825 237.064 53.9867C238.144 55.6054 239.101 57.3034 239.927 59.0662C240.752 60.8384 241.419 62.6803 241.92 64.5704C242.165 65.5184 242.39 66.473 242.55 67.4416C242.87 68.8054 242.716 70.2379 242.113 71.5018C241.762 72.167 241.275 72.7498 240.682 73.2117C240.172 73.609 239.609 73.9332 239.01 74.1752C237.99 74.5729 236.92 74.8286 235.83 74.935C233.886 75.1239 231.928 75.0983 229.989 74.8586C226.276 74.4262 222.612 73.6447 219.045 72.5244L219.63 70.1946C221.371 70.4824 223.164 70.7541 224.935 70.9372C226.707 71.1427 228.479 71.2898 230.227 71.3283C231.918 71.3926 233.61 71.2997 235.283 71.0509C236.004 70.938 236.706 70.7278 237.37 70.4259C237.777 70.2732 238.113 69.9743 238.313 69.587C238.367 69.438 238.393 69.2804 238.391 69.1219C238.389 69.0066 238.381 68.8914 238.367 68.777C238.34 68.6447 238.326 68.5278 238.266 68.2927C238.087 67.466 237.85 66.6509 237.598 65.8428C236.524 62.6062 234.989 59.5429 233.039 56.7487C232.559 56.0421 232.055 55.3561 231.526 54.6932C231.263 54.3624 230.993 54.0374 230.719 53.7233C230.463 53.4175 230.149 53.0707 229.937 52.8516L233.307 49.3708Z" fill="#F4A386"/>
<path d="M221.087 70.5475L216.6 68.1619L216.399 74.1214C216.399 74.1214 219.568 74.3225 221.428 72.8586L221.087 70.5475Z" fill="#F4A386"/>
<path d="M213.227 102.58L216.93 62.2345L209.024 56.16L184.896 53.9292L180.707 99.5733L213.227 102.58Z" fill="#069550"/>
<path opacity="0.8" d="M213.227 102.58L216.93 62.2345L209.024 56.16L184.896 53.9292L180.707 99.5733L213.227 102.58Z" fill="white"/>
<path d="M216.93 62.2345L209.024 56.1599L211.096 63.4311L216.93 62.2345Z" fill="#069550"/>
<path d="M183.533 106.626C188.976 106.626 193.388 102.198 193.388 96.7354C193.388 91.2729 188.976 86.8447 183.533 86.8447C178.09 86.8447 173.678 91.2729 173.678 96.7354C173.678 102.198 178.09 106.626 183.533 106.626Z" fill="#1E88E5"/>
<path d="M188.405 102.925C191.811 100.224 192.391 95.264 189.7 91.8456C187.009 88.4273 182.067 87.8453 178.661 90.5457C175.255 93.2462 174.675 98.2064 177.366 101.625C180.057 105.043 184.999 105.625 188.405 102.925Z" fill="white"/>
<path d="M188.389 96.0422L184.922 95.6337L185.329 92.1535L182.843 91.8606L182.436 95.3408L178.968 94.9322L178.677 97.427L182.144 97.8356L181.737 101.316L184.223 101.609L184.63 98.1285L188.097 98.537L188.389 96.0422Z" fill="#1E88E5"/>
<path opacity="0.4" d="M211.028 70.5963C210.996 70.9495 210.895 71.2928 210.73 71.6067C210.566 71.9205 210.341 72.1988 210.069 72.4255C209.798 72.6522 209.484 72.8229 209.147 72.9279C208.809 73.0328 208.454 73.07 208.103 73.0372L190.503 71.4121C190.151 71.3798 189.809 71.2783 189.496 71.1132C189.183 70.9482 188.906 70.7229 188.68 70.4503C188.454 70.1777 188.284 69.863 188.18 69.5244C188.075 69.1857 188.038 68.8297 188.071 68.4766C188.103 68.1234 188.204 67.7801 188.368 67.4662C188.533 67.1524 188.757 66.8741 189.029 66.6474C189.301 66.4207 189.614 66.25 189.952 66.145C190.289 66.0401 190.644 66.0029 190.996 66.0357L208.596 67.6608C208.948 67.6931 209.29 67.7946 209.602 67.9597C209.915 68.1247 210.192 68.35 210.418 68.6226C210.644 68.8952 210.814 69.2099 210.919 69.5485C211.023 69.8872 211.061 70.2432 211.028 70.5963Z" fill="#069550"/>
<path opacity="0.4" d="M205.032 77.8865C205 78.2396 204.899 78.583 204.735 78.8968C204.57 79.2107 204.346 79.4889 204.074 79.7157C203.802 79.9424 203.489 80.1131 203.151 80.218C202.814 80.323 202.459 80.3601 202.107 80.3273L189.807 79.1917C189.455 79.1594 189.113 79.0579 188.8 78.8928C188.487 78.7277 188.21 78.5024 187.984 78.2297C187.758 77.957 187.588 77.6423 187.484 77.3035C187.379 76.9648 187.342 76.6087 187.375 76.2556C187.407 75.9025 187.508 75.5592 187.673 75.2454C187.837 74.9316 188.061 74.6534 188.333 74.4267C188.605 74.2 188.918 74.0292 189.256 73.9242C189.593 73.8192 189.948 73.782 190.3 73.8147L202.6 74.9504C202.952 74.9825 203.294 75.0841 203.607 75.2491C203.919 75.4141 204.197 75.6394 204.423 75.9121C204.649 76.1849 204.819 76.4996 204.923 76.8384C205.028 77.1772 205.065 77.5333 205.032 77.8865Z" fill="#069550"/>
<path d="M213.865 68.5177L214.539 72.9704L216.4 74.1214L216.601 68.1619L213.865 68.5177Z" fill="#F4A386"/>
<path d="M232.33 44.1161C235.146 44.6165 239.102 52.7343 239.102 52.7343L231.993 59.1871C231.993 59.1871 226.338 52.9976 226.64 49.31C226.896 46.1786 228.736 43.4782 232.33 44.1161Z" fill="#424242"/>
<path d="M260.659 182.55C260.733 182.55 260.807 182.538 260.878 182.514C261.553 182.285 261.995 181.032 262.199 180.306C262.205 180.285 262.204 180.263 262.197 180.242C262.19 180.221 262.178 180.203 262.161 180.189C262.144 180.176 262.123 180.167 262.102 180.165C262.08 180.163 262.058 180.167 262.039 180.178C261.834 180.285 260.032 181.253 259.973 181.966C259.967 182.044 259.981 182.122 260.015 182.192C260.049 182.262 260.101 182.322 260.165 182.366C260.305 182.48 260.478 182.545 260.659 182.55ZM261.907 180.505C261.594 181.507 261.19 182.171 260.806 182.304C260.719 182.33 260.627 182.333 260.538 182.313C260.449 182.292 260.367 182.249 260.299 182.188C260.265 182.167 260.237 182.138 260.219 182.102C260.201 182.066 260.193 182.026 260.196 181.986C260.232 181.547 261.288 180.859 261.907 180.507V180.505Z" fill="#069550"/>
<path d="M260.38 180.79C260.994 180.787 261.599 180.645 262.15 180.374C262.166 180.363 262.18 180.349 262.189 180.332C262.198 180.315 262.203 180.296 262.202 180.276C262.202 180.257 262.196 180.238 262.186 180.221C262.176 180.204 262.162 180.191 262.145 180.181C262.085 180.147 260.658 179.36 259.89 179.634C259.795 179.665 259.708 179.717 259.635 179.786C259.562 179.855 259.506 179.94 259.47 180.033C259.421 180.124 259.404 180.228 259.423 180.329C259.441 180.43 259.494 180.521 259.571 180.588C259.812 180.743 260.096 180.814 260.38 180.79ZM261.845 180.276C261.234 180.538 260.053 180.698 259.717 180.415C259.661 180.367 259.606 180.291 259.677 180.116C259.702 180.052 259.74 179.994 259.79 179.947C259.84 179.9 259.899 179.865 259.964 179.844C260.488 179.657 261.44 180.076 261.845 180.277V180.276Z" fill="#069550"/>
<path d="M223.185 196.843C223.805 196.828 224.422 196.75 225.026 196.608C225.049 196.603 225.069 196.591 225.085 196.573C225.1 196.556 225.11 196.534 225.113 196.511C225.116 196.487 225.111 196.464 225.099 196.443C225.088 196.423 225.07 196.407 225.049 196.397C224.772 196.268 222.325 195.131 221.709 195.55C221.653 195.587 221.609 195.64 221.581 195.701C221.553 195.762 221.542 195.83 221.55 195.897C221.553 196.021 221.585 196.143 221.643 196.252C221.701 196.362 221.783 196.457 221.882 196.53C222.274 196.767 222.729 196.876 223.185 196.843ZM224.641 196.457C223.914 196.594 222.571 196.771 222.017 196.351C221.943 196.297 221.883 196.227 221.84 196.146C221.798 196.065 221.775 195.976 221.772 195.884C221.767 195.856 221.771 195.827 221.782 195.8C221.793 195.774 221.812 195.751 221.836 195.735C222.179 195.501 223.625 196.009 224.64 196.457H224.641Z" fill="#069550"/>
<path d="M225.002 196.611C225.028 196.611 225.054 196.601 225.073 196.584C225.089 196.571 225.101 196.553 225.107 196.534C225.114 196.514 225.115 196.493 225.11 196.473C225.087 196.37 224.535 193.948 223.204 194.103C222.872 194.142 222.78 194.308 222.763 194.44C222.68 195.056 224.222 196.3 224.959 196.602C224.973 196.608 224.987 196.611 225.002 196.611ZM223.324 194.32C224.172 194.32 224.668 195.73 224.831 196.294C224.034 195.875 222.931 194.865 222.984 194.471C222.988 194.442 223 194.353 223.231 194.325C223.262 194.322 223.293 194.32 223.324 194.32Z" fill="#069550"/>
<defs>
<clipPath id="clip0_5852_57430">
<rect width="31.7355" height="31.7355" fill="white" transform="translate(99.1733 113.344) rotate(-4.10195)"/>
</clipPath>
</defs>
</svg>
