<svg width="292" height="42" viewBox="0 0 292 42" fill="none" xmlns="http://www.w3.org/2000/svg">
<path d="M21 42C32.598 42 42 32.598 42 21C42 9.40202 32.598 0 21 0C9.40202 0 0 9.40202 0 21C0 32.598 9.40202 42 21 42Z" fill="white"/>
<path d="M10.7708 19.5142C10.4764 19.8078 10.2758 20.1822 10.1945 20.59C10.1131 20.9978 10.1546 21.4205 10.3137 21.8046C10.4728 22.1888 10.7424 22.517 11.0883 22.7478C11.4342 22.9786 11.8408 23.1015 12.2566 23.101H14.5183V27.4814H12.2566C10.5375 27.4814 8.88888 26.7985 7.67333 25.5829C6.45779 24.3674 5.7749 22.7188 5.7749 20.9997C5.7749 19.2807 6.45779 17.632 7.67333 16.4165C8.88888 15.201 10.5375 14.5181 12.2566 14.5181H14.5183V18.8985H12.2566C11.9805 18.8979 11.7071 18.952 11.4521 19.0577C11.1971 19.1634 10.9655 19.3185 10.7708 19.5142Z" fill="#00AFEF"/>
<path d="M36.2253 20.9997C36.2233 22.7182 35.5398 24.3657 34.3247 25.5808C33.1096 26.7959 31.4621 27.4794 29.7436 27.4814H27.4819V23.101H29.7436C30.3009 23.101 30.8354 22.8796 31.2294 22.4855C31.6235 22.0915 31.8449 21.557 31.8449 20.9997C31.8449 20.4424 31.6235 19.908 31.2294 19.5139C30.8354 19.1198 30.3009 18.8985 29.7436 18.8985H27.4819V14.5181H29.7436C31.4621 14.52 33.1096 15.2035 34.3247 16.4186C35.5398 17.6338 36.2233 19.2813 36.2253 20.9997Z" fill="#FEC32B"/>
<path d="M27.4814 12.2565V14.5184H23.101V12.2565C23.101 11.6992 22.8796 11.1647 22.4855 10.7706C22.0915 10.3766 21.557 10.1552 20.9997 10.1552C20.4424 10.1552 19.908 10.3766 19.5139 10.7706C19.1198 11.1647 18.8985 11.6992 18.8985 12.2565V14.5184H14.5181V12.2565C14.5181 10.5374 15.201 8.88879 16.4165 7.67324C17.632 6.4577 19.2807 5.77481 20.9997 5.77481C22.7188 5.77481 24.3674 6.4577 25.5829 7.67324C26.7985 8.88879 27.4814 10.5374 27.4814 12.2565Z" fill="#FEC32B"/>
<path d="M27.4814 27.4819V29.7438C27.4814 31.4629 26.7985 33.1115 25.5829 34.3271C24.3674 35.5426 22.7188 36.2255 20.9997 36.2255C19.2807 36.2255 17.632 35.5426 16.4165 34.3271C15.201 33.1115 14.5181 31.4629 14.5181 29.7438V27.4819H18.8985V29.7438C18.8985 30.3011 19.1198 30.8356 19.5139 31.2297C19.908 31.6237 20.4424 31.8451 20.9997 31.8451C21.557 31.8451 22.0915 31.6237 22.4855 31.2297C22.8796 30.8356 23.101 30.3011 23.101 29.7438V27.4819H27.4814Z" fill="#00AFEF"/>
<path d="M27.4802 23.0999V27.4802H23.0999V24.4287C23.0999 24.0763 23.2399 23.7383 23.4891 23.4891C23.7383 23.2399 24.0763 23.0999 24.4287 23.0999H27.4802Z" fill="#008C50"/>
<path d="M18.8985 24.4287V27.4802H14.5181V23.0999H17.5696C17.922 23.0999 18.26 23.2399 18.5092 23.4891C18.7585 23.7383 18.8985 24.0763 18.8985 24.4287Z" fill="#0087CB"/>
<path d="M18.8985 14.5181V17.5696C18.8985 17.922 18.7585 18.26 18.5092 18.5092C18.26 18.7584 17.922 18.8985 17.5696 18.8985H14.5181V14.5181H18.8985Z" fill="#008C50"/>
<path d="M27.4802 14.5181V18.8985H24.4287C24.0763 18.8985 23.7383 18.7584 23.4891 18.5092C23.2399 18.26 23.0999 17.922 23.0999 17.5696V14.5181H27.4802Z" fill="#F4A60B"/>
<path d="M32.2577 23.7397C33.771 23.7397 34.9977 22.513 34.9977 20.9997C34.9977 19.4864 33.771 18.2596 32.2577 18.2596C30.7444 18.2596 29.5176 19.4864 29.5176 20.9997C29.5176 22.513 30.7444 23.7397 32.2577 23.7397Z" fill="#00A859"/>
<path d="M9.68503 23.7397C11.1983 23.7397 12.4251 22.513 12.4251 20.9997C12.4251 19.4864 11.1983 18.2596 9.68503 18.2596C8.17172 18.2596 6.94495 19.4864 6.94495 20.9997C6.94495 22.513 8.17172 23.7397 9.68503 23.7397Z" fill="#0087CB"/>
<path d="M20.9721 35.0269C22.4854 35.0269 23.7122 33.8001 23.7122 32.2868C23.7122 30.7735 22.4854 29.5468 20.9721 29.5468C19.4588 29.5468 18.2321 30.7735 18.2321 32.2868C18.2321 33.8001 19.4588 35.0269 20.9721 35.0269Z" fill="#0087CB"/>
<path d="M20.9721 12.4538C22.4854 12.4538 23.7122 11.227 23.7122 9.71371C23.7122 8.20041 22.4854 6.97363 20.9721 6.97363C19.4588 6.97363 18.2321 8.20041 18.2321 9.71371C18.2321 11.227 19.4588 12.4538 20.9721 12.4538Z" fill="#00A859"/>
<path d="M64.426 19.6815C64.993 19.6815 65.49 19.608 65.917 19.461C66.351 19.314 66.7115 19.1075 66.9985 18.8415C67.2925 18.5685 67.513 18.2465 67.66 17.8755C67.807 17.4975 67.8805 17.081 67.8805 16.626C67.8805 15.709 67.5935 14.988 67.0195 14.463C66.4525 13.938 65.588 13.6755 64.426 13.6755H62.095V19.6815H64.426ZM64.426 11.922C65.392 11.922 66.232 12.034 66.946 12.258C67.66 12.482 68.2515 12.8005 68.7205 13.2135C69.1895 13.6195 69.536 14.113 69.76 14.694C69.991 15.275 70.1065 15.919 70.1065 16.626C70.1065 17.333 69.984 17.984 69.739 18.579C69.494 19.167 69.1335 19.6745 68.6575 20.1015C68.1815 20.5285 67.5865 20.861 66.8725 21.099C66.1655 21.33 65.35 21.4455 64.426 21.4455H62.095V27H59.8585V11.922H64.426ZM78.6866 20.4795C78.6866 20.0735 78.6271 19.699 78.5081 19.356C78.3961 19.013 78.2281 18.7155 78.0041 18.4635C77.7801 18.2115 77.5071 18.0155 77.1851 17.8755C76.8631 17.7355 76.4921 17.6655 76.0721 17.6655C75.2111 17.6655 74.5321 17.914 74.0351 18.411C73.5451 18.908 73.2336 19.5975 73.1006 20.4795H78.6866ZM80.3771 25.4775C80.1251 25.7715 79.8346 26.027 79.5056 26.244C79.1766 26.454 78.8266 26.6255 78.4556 26.7585C78.0846 26.8915 77.6996 26.9895 77.3006 27.0525C76.9086 27.1155 76.5201 27.147 76.1351 27.147C75.4001 27.147 74.7176 27.0245 74.0876 26.7795C73.4646 26.5275 72.9221 26.1635 72.4601 25.6875C72.0051 25.2045 71.6481 24.6095 71.3891 23.9025C71.1371 23.1885 71.0111 22.3695 71.0111 21.4455C71.0111 20.7035 71.1266 20.014 71.3576 19.377C71.5886 18.733 71.9176 18.173 72.3446 17.697C72.7786 17.221 73.3071 16.8465 73.9301 16.5735C74.5531 16.3005 75.2531 16.164 76.0301 16.164C76.6811 16.164 77.2796 16.2725 77.8256 16.4895C78.3786 16.6995 78.8546 17.0075 79.2536 17.4135C79.6526 17.8195 79.9641 18.32 80.1881 18.915C80.4191 19.51 80.5346 20.189 80.5346 20.952C80.5346 21.267 80.4996 21.4805 80.4296 21.5925C80.3596 21.6975 80.2301 21.75 80.0411 21.75H73.0481C73.0691 22.387 73.1601 22.9435 73.3211 23.4195C73.4821 23.8885 73.7026 24.2805 73.9826 24.5955C74.2696 24.9105 74.6091 25.145 75.0011 25.299C75.3931 25.453 75.8306 25.53 76.3136 25.53C76.7686 25.53 77.1606 25.4775 77.4896 25.3725C77.8256 25.2675 78.1126 25.1555 78.3506 25.0365C78.5956 24.9105 78.7986 24.795 78.9596 24.69C79.1276 24.585 79.2746 24.5325 79.4006 24.5325C79.5686 24.5325 79.6981 24.5955 79.7891 24.7215L80.3771 25.4775ZM84.6674 18.3795C85.0104 17.6795 85.4234 17.13 85.9064 16.731C86.3894 16.332 86.9704 16.1325 87.6494 16.1325C87.8804 16.1325 88.0974 16.1605 88.3004 16.2165C88.5104 16.2655 88.6924 16.3425 88.8464 16.4475L88.7099 17.991C88.6609 18.18 88.5454 18.2745 88.3634 18.2745C88.2654 18.2745 88.1184 18.257 87.9224 18.222C87.7264 18.18 87.5164 18.159 87.2924 18.159C86.9634 18.159 86.6729 18.208 86.4209 18.306C86.1689 18.397 85.9414 18.537 85.7384 18.726C85.5424 18.908 85.3674 19.1355 85.2134 19.4085C85.0594 19.6745 84.9159 19.979 84.7829 20.322V27H82.7354V16.332H83.9114C84.1354 16.332 84.2859 16.374 84.3629 16.458C84.4469 16.535 84.5064 16.675 84.5414 16.878L84.6674 18.3795ZM90.4258 27V16.332H91.6543C91.9413 16.332 92.1198 16.4685 92.1898 16.7415L92.3368 17.76C92.7288 17.291 93.1628 16.9095 93.6388 16.6155C94.1218 16.3145 94.6853 16.164 95.3293 16.164C96.0363 16.164 96.6103 16.36 97.0513 16.752C97.4923 17.137 97.8143 17.662 98.0173 18.327C98.1713 17.949 98.3708 17.6235 98.6158 17.3505C98.8608 17.0775 99.1338 16.8535 99.4348 16.6785C99.7358 16.5035 100.054 16.374 100.39 16.29C100.733 16.206 101.08 16.164 101.43 16.164C101.997 16.164 102.501 16.255 102.942 16.437C103.39 16.612 103.768 16.871 104.076 17.214C104.384 17.557 104.618 17.9805 104.779 18.4845C104.94 18.9885 105.021 19.5625 105.021 20.2065V27H102.963V20.2065C102.963 19.4085 102.788 18.8065 102.438 18.4005C102.095 17.9945 101.591 17.7915 100.926 17.7915C100.632 17.7915 100.352 17.844 100.086 17.949C99.8198 18.047 99.5853 18.1975 99.3823 18.4005C99.1863 18.6035 99.0288 18.8555 98.9098 19.1565C98.7978 19.4575 98.7418 19.8075 98.7418 20.2065V27H96.6838V20.2065C96.6838 19.3805 96.5193 18.7715 96.1903 18.3795C95.8613 17.9875 95.3783 17.7915 94.7413 17.7915C94.3003 17.7915 93.8908 17.907 93.5128 18.138C93.1348 18.369 92.7883 18.684 92.4733 19.083V27H90.4258ZM112.322 16.164C113.106 16.164 113.813 16.2935 114.443 16.5525C115.08 16.8045 115.619 17.172 116.06 17.655C116.508 18.131 116.851 18.7085 117.089 19.3875C117.327 20.0595 117.446 20.8155 117.446 21.6555C117.446 22.4955 117.327 23.255 117.089 23.934C116.851 24.613 116.508 25.1905 116.06 25.6665C115.619 26.1425 115.08 26.51 114.443 26.769C113.813 27.021 113.106 27.147 112.322 27.147C111.531 27.147 110.817 27.021 110.18 26.769C109.55 26.51 109.011 26.1425 108.563 25.6665C108.115 25.1905 107.768 24.613 107.523 23.934C107.285 23.255 107.166 22.4955 107.166 21.6555C107.166 20.8155 107.285 20.0595 107.523 19.3875C107.768 18.7085 108.115 18.131 108.563 17.655C109.011 17.172 109.55 16.8045 110.18 16.5525C110.817 16.2935 111.531 16.164 112.322 16.164ZM112.322 25.551C113.33 25.551 114.082 25.2115 114.579 24.5325C115.076 23.8535 115.325 22.898 115.325 21.666C115.325 20.434 115.076 19.4785 114.579 18.7995C114.082 18.1135 113.33 17.7705 112.322 17.7705C111.3 17.7705 110.537 18.1135 110.033 18.7995C109.536 19.4785 109.287 20.434 109.287 21.666C109.287 22.898 109.536 23.8535 110.033 24.5325C110.537 25.2115 111.3 25.551 112.322 25.551ZM121.779 17.6865C122.227 17.2315 122.72 16.864 123.259 16.584C123.805 16.304 124.432 16.164 125.139 16.164C125.727 16.164 126.241 16.262 126.682 16.458C127.13 16.654 127.505 16.9305 127.806 17.2875C128.107 17.6375 128.334 18.061 128.488 18.558C128.642 19.055 128.719 19.6045 128.719 20.2065V27H126.661V20.2065C126.661 19.4435 126.486 18.852 126.136 18.432C125.786 18.005 125.251 17.7915 124.53 17.7915C124.005 17.7915 123.511 17.9175 123.049 18.1695C122.594 18.4145 122.171 18.7505 121.779 19.1775V27H119.731V11.502H121.779V17.6865ZM136.029 16.164C136.813 16.164 137.52 16.2935 138.15 16.5525C138.787 16.8045 139.326 17.172 139.767 17.655C140.215 18.131 140.558 18.7085 140.796 19.3875C141.034 20.0595 141.153 20.8155 141.153 21.6555C141.153 22.4955 141.034 23.255 140.796 23.934C140.558 24.613 140.215 25.1905 139.767 25.6665C139.326 26.1425 138.787 26.51 138.15 26.769C137.52 27.021 136.813 27.147 136.029 27.147C135.238 27.147 134.524 27.021 133.887 26.769C133.257 26.51 132.718 26.1425 132.27 25.6665C131.822 25.1905 131.475 24.613 131.23 23.934C130.992 23.255 130.873 22.4955 130.873 21.6555C130.873 20.8155 130.992 20.0595 131.23 19.3875C131.475 18.7085 131.822 18.131 132.27 17.655C132.718 17.172 133.257 16.8045 133.887 16.5525C134.524 16.2935 135.238 16.164 136.029 16.164ZM136.029 25.551C137.037 25.551 137.789 25.2115 138.286 24.5325C138.783 23.8535 139.032 22.898 139.032 21.666C139.032 20.434 138.783 19.4785 138.286 18.7995C137.789 18.1135 137.037 17.7705 136.029 17.7705C135.007 17.7705 134.244 18.1135 133.74 18.7995C133.243 19.4785 132.994 20.434 132.994 21.666C132.994 22.898 133.243 23.8535 133.74 24.5325C134.244 25.2115 135.007 25.551 136.029 25.551ZM145.36 17.8125C145.591 17.5675 145.833 17.3435 146.085 17.1405C146.337 16.9375 146.603 16.766 146.883 16.626C147.17 16.479 147.474 16.367 147.796 16.29C148.125 16.206 148.475 16.164 148.846 16.164C149.434 16.164 149.949 16.262 150.39 16.458C150.838 16.654 151.212 16.9305 151.513 17.2875C151.814 17.6375 152.042 18.061 152.196 18.558C152.35 19.055 152.427 19.6045 152.427 20.2065V27H150.369V20.2065C150.369 19.4435 150.194 18.852 149.844 18.432C149.494 18.005 148.958 17.7915 148.237 17.7915C147.712 17.7915 147.219 17.9175 146.757 18.1695C146.302 18.4145 145.878 18.7505 145.486 19.1775V27H143.439V16.332H144.667C144.954 16.332 145.133 16.4685 145.203 16.7415L145.36 17.8125ZM160.922 22.2645C160.089 22.2925 159.382 22.359 158.801 22.464C158.22 22.562 157.748 22.695 157.384 22.863C157.02 23.031 156.757 23.2305 156.596 23.4615C156.435 23.6855 156.355 23.9375 156.355 24.2175C156.355 24.4835 156.397 24.7145 156.481 24.9105C156.572 25.0995 156.691 25.257 156.838 25.383C156.992 25.502 157.17 25.5895 157.373 25.6455C157.576 25.7015 157.797 25.7295 158.035 25.7295C158.35 25.7295 158.637 25.698 158.896 25.635C159.162 25.572 159.41 25.4845 159.641 25.3725C159.872 25.2535 160.093 25.11 160.303 24.942C160.513 24.774 160.719 24.5815 160.922 24.3645V22.2645ZM154.916 17.823C155.511 17.256 156.155 16.8325 156.848 16.5525C157.548 16.2725 158.315 16.1325 159.148 16.1325C159.757 16.1325 160.296 16.234 160.765 16.437C161.234 16.633 161.629 16.9095 161.951 17.2665C162.273 17.6235 162.515 18.0505 162.676 18.5475C162.844 19.0445 162.928 19.594 162.928 20.196V27H162.014C161.811 27 161.657 26.9685 161.552 26.9055C161.447 26.8355 161.363 26.7095 161.3 26.5275L161.08 25.593C160.807 25.845 160.537 26.069 160.271 26.265C160.005 26.454 159.725 26.6185 159.431 26.7585C159.144 26.8915 158.836 26.993 158.507 27.063C158.178 27.133 157.814 27.168 157.415 27.168C156.995 27.168 156.6 27.112 156.229 27C155.865 26.881 155.546 26.7025 155.273 26.4645C155 26.2265 154.783 25.929 154.622 25.572C154.468 25.215 154.391 24.7985 154.391 24.3225C154.391 23.9025 154.503 23.5 154.727 23.115C154.958 22.723 155.329 22.373 155.84 22.065C156.358 21.757 157.03 21.505 157.856 21.309C158.689 21.113 159.711 21.001 160.922 20.973V20.196C160.922 19.391 160.751 18.789 160.408 18.39C160.065 17.991 159.561 17.7915 158.896 17.7915C158.448 17.7915 158.07 17.8475 157.762 17.9595C157.461 18.0715 157.198 18.1975 156.974 18.3375C156.757 18.4705 156.565 18.593 156.397 18.705C156.236 18.817 156.068 18.873 155.893 18.873C155.753 18.873 155.63 18.8345 155.525 18.7575C155.427 18.6805 155.347 18.5895 155.284 18.4845L154.916 17.823ZM167.59 17.8125C167.821 17.5675 168.063 17.3435 168.315 17.1405C168.567 16.9375 168.833 16.766 169.113 16.626C169.4 16.479 169.704 16.367 170.026 16.29C170.355 16.206 170.705 16.164 171.076 16.164C171.664 16.164 172.179 16.262 172.62 16.458C173.068 16.654 173.442 16.9305 173.743 17.2875C174.044 17.6375 174.272 18.061 174.426 18.558C174.58 19.055 174.657 19.6045 174.657 20.2065V27H172.599V20.2065C172.599 19.4435 172.424 18.852 172.074 18.432C171.724 18.005 171.188 17.7915 170.467 17.7915C169.942 17.7915 169.449 17.9175 168.987 18.1695C168.532 18.4145 168.108 18.7505 167.716 19.1775V27H165.669V16.332H166.897C167.184 16.332 167.363 16.4685 167.433 16.7415L167.59 17.8125ZM191.782 25.1205V27H183.151V11.922H185.388V25.1205H191.782ZM197.388 16.164C198.172 16.164 198.879 16.2935 199.509 16.5525C200.146 16.8045 200.685 17.172 201.126 17.655C201.574 18.131 201.917 18.7085 202.155 19.3875C202.393 20.0595 202.512 20.8155 202.512 21.6555C202.512 22.4955 202.393 23.255 202.155 23.934C201.917 24.613 201.574 25.1905 201.126 25.6665C200.685 26.1425 200.146 26.51 199.509 26.769C198.879 27.021 198.172 27.147 197.388 27.147C196.597 27.147 195.883 27.021 195.246 26.769C194.616 26.51 194.077 26.1425 193.629 25.6665C193.181 25.1905 192.835 24.613 192.59 23.934C192.352 23.255 192.233 22.4955 192.233 21.6555C192.233 20.8155 192.352 20.0595 192.59 19.3875C192.835 18.7085 193.181 18.131 193.629 17.655C194.077 17.172 194.616 16.8045 195.246 16.5525C195.883 16.2935 196.597 16.164 197.388 16.164ZM197.388 25.551C198.396 25.551 199.149 25.2115 199.646 24.5325C200.143 23.8535 200.391 22.898 200.391 21.666C200.391 20.434 200.143 19.4785 199.646 18.7995C199.149 18.1135 198.396 17.7705 197.388 17.7705C196.366 17.7705 195.603 18.1135 195.099 18.7995C194.602 19.4785 194.354 20.434 194.354 21.666C194.354 22.898 194.602 23.8535 195.099 24.5325C195.603 25.2115 196.366 25.551 197.388 25.551ZM208.485 21.6765C208.849 21.6765 209.167 21.6275 209.44 21.5295C209.72 21.4315 209.951 21.295 210.133 21.12C210.322 20.938 210.462 20.721 210.553 20.469C210.651 20.217 210.7 19.9405 210.7 19.6395C210.7 19.0235 210.511 18.5335 210.133 18.1695C209.762 17.7985 209.213 17.613 208.485 17.613C207.764 17.613 207.214 17.7985 206.836 18.1695C206.465 18.5335 206.28 19.0235 206.28 19.6395C206.28 19.9405 206.325 20.217 206.416 20.469C206.514 20.714 206.654 20.9275 206.836 21.1095C207.025 21.2845 207.256 21.4245 207.529 21.5295C207.809 21.6275 208.128 21.6765 208.485 21.6765ZM211.75 27.5565C211.75 27.3045 211.68 27.105 211.54 26.958C211.4 26.804 211.208 26.685 210.963 26.601C210.725 26.51 210.445 26.447 210.123 26.412C209.801 26.37 209.461 26.3385 209.104 26.3175C208.754 26.2965 208.394 26.279 208.023 26.265C207.652 26.244 207.295 26.209 206.952 26.16C206.588 26.342 206.287 26.5625 206.049 26.8215C205.818 27.0805 205.702 27.385 205.702 27.735C205.702 27.959 205.758 28.169 205.87 28.365C205.989 28.561 206.168 28.729 206.406 28.869C206.651 29.016 206.955 29.128 207.319 29.205C207.69 29.289 208.131 29.331 208.642 29.331C209.146 29.331 209.591 29.2855 209.976 29.1945C210.361 29.1105 210.683 28.988 210.942 28.827C211.208 28.673 211.407 28.4875 211.54 28.2705C211.68 28.0535 211.75 27.8155 211.75 27.5565ZM213.829 16.731V17.4975C213.829 17.7495 213.672 17.907 213.357 17.97L212.212 18.138C212.31 18.355 212.387 18.586 212.443 18.831C212.499 19.069 212.527 19.321 212.527 19.587C212.527 20.112 212.426 20.588 212.223 21.015C212.02 21.435 211.74 21.7955 211.383 22.0965C211.026 22.3975 210.599 22.6285 210.102 22.7895C209.612 22.9505 209.073 23.031 208.485 23.031C208.002 23.031 207.55 22.9785 207.13 22.8735C206.92 22.9995 206.759 23.1395 206.647 23.2935C206.542 23.4405 206.49 23.5875 206.49 23.7345C206.49 23.9795 206.591 24.1615 206.794 24.2805C207.004 24.3995 207.274 24.487 207.603 24.543C207.939 24.592 208.32 24.6235 208.747 24.6375C209.181 24.6515 209.619 24.676 210.06 24.711C210.508 24.739 210.945 24.795 211.372 24.879C211.806 24.956 212.188 25.0855 212.517 25.2675C212.853 25.4425 213.122 25.6875 213.325 26.0025C213.535 26.3105 213.64 26.713 213.64 27.21C213.64 27.672 213.525 28.12 213.294 28.554C213.07 28.988 212.741 29.373 212.307 29.709C211.873 30.045 211.344 30.3145 210.721 30.5175C210.098 30.7205 209.391 30.822 208.6 30.822C207.809 30.822 207.12 30.745 206.532 30.591C205.951 30.437 205.464 30.2305 205.072 29.9715C204.687 29.7125 204.397 29.4115 204.201 29.0685C204.012 28.7255 203.917 28.3685 203.917 27.9975C203.917 27.4795 204.078 27.042 204.4 26.685C204.722 26.321 205.167 26.0375 205.734 25.8345C205.426 25.6945 205.181 25.5055 204.999 25.2675C204.817 25.0225 204.726 24.7005 204.726 24.3015C204.726 24.1475 204.754 23.99 204.81 23.829C204.866 23.661 204.95 23.4965 205.062 23.3355C205.181 23.1675 205.324 23.01 205.492 22.863C205.667 22.716 205.867 22.583 206.091 22.464C205.566 22.17 205.153 21.7815 204.852 21.2985C204.551 20.8085 204.4 20.238 204.4 19.587C204.4 19.062 204.502 18.5895 204.705 18.1695C204.908 17.7495 205.188 17.389 205.545 17.088C205.909 16.787 206.339 16.556 206.836 16.395C207.34 16.234 207.89 16.1535 208.485 16.1535C209.409 16.1535 210.203 16.346 210.868 16.731H213.829ZM217.85 16.332V27H215.803V16.332H217.85ZM218.239 13.035C218.239 13.224 218.2 13.406 218.123 13.581C218.046 13.749 217.941 13.8995 217.808 14.0325C217.682 14.1585 217.532 14.26 217.357 14.337C217.182 14.407 217 14.442 216.811 14.442C216.622 14.442 216.443 14.407 216.275 14.337C216.107 14.26 215.957 14.1585 215.824 14.0325C215.698 13.8995 215.596 13.749 215.519 13.581C215.449 13.406 215.414 13.224 215.414 13.035C215.414 12.839 215.449 12.657 215.519 12.489C215.596 12.314 215.698 12.1635 215.824 12.0375C215.957 11.9045 216.107 11.803 216.275 11.733C216.443 11.656 216.622 11.6175 216.811 11.6175C217 11.6175 217.182 11.656 217.357 11.733C217.532 11.803 217.682 11.9045 217.808 12.0375C217.941 12.1635 218.046 12.314 218.123 12.489C218.2 12.657 218.239 12.839 218.239 13.035ZM227.104 18.1695C227.048 18.2605 226.988 18.327 226.925 18.369C226.862 18.404 226.782 18.4215 226.684 18.4215C226.572 18.4215 226.446 18.383 226.306 18.306C226.173 18.229 226.008 18.145 225.812 18.054C225.623 17.963 225.399 17.879 225.14 17.802C224.881 17.725 224.573 17.6865 224.216 17.6865C223.922 17.6865 223.653 17.725 223.408 17.802C223.17 17.872 222.967 17.9735 222.799 18.1065C222.631 18.2325 222.501 18.3865 222.41 18.5685C222.319 18.7435 222.274 18.9325 222.274 19.1355C222.274 19.4015 222.351 19.622 222.505 19.797C222.666 19.972 222.872 20.1225 223.124 20.2485C223.383 20.3745 223.674 20.49 223.996 20.595C224.325 20.693 224.657 20.798 224.993 20.91C225.336 21.022 225.669 21.1515 225.991 21.2985C226.32 21.4385 226.61 21.617 226.862 21.834C227.121 22.044 227.328 22.2995 227.482 22.6005C227.643 22.9015 227.723 23.269 227.723 23.703C227.723 24.2 227.632 24.662 227.45 25.089C227.275 25.509 227.013 25.873 226.663 26.181C226.32 26.489 225.893 26.7305 225.382 26.9055C224.871 27.0805 224.286 27.168 223.628 27.168C222.893 27.168 222.214 27.0455 221.591 26.8005C220.968 26.5555 220.447 26.244 220.027 25.866L220.51 25.0785C220.566 24.9805 220.636 24.907 220.72 24.858C220.804 24.802 220.916 24.774 221.056 24.774C221.189 24.774 221.325 24.823 221.465 24.921C221.605 25.019 221.773 25.1275 221.969 25.2465C222.165 25.3585 222.403 25.4635 222.683 25.5615C222.963 25.6525 223.313 25.698 223.733 25.698C224.083 25.698 224.388 25.656 224.647 25.572C224.906 25.481 225.119 25.362 225.287 25.215C225.462 25.061 225.592 24.886 225.676 24.69C225.76 24.494 225.802 24.2875 225.802 24.0705C225.802 23.7905 225.721 23.5595 225.56 23.3775C225.406 23.1885 225.2 23.0275 224.941 22.8945C224.689 22.7615 224.398 22.646 224.069 22.548C223.74 22.45 223.404 22.345 223.061 22.233C222.718 22.121 222.382 21.9915 222.053 21.8445C221.724 21.6975 221.43 21.512 221.171 21.288C220.919 21.064 220.713 20.791 220.552 20.469C220.398 20.147 220.321 19.755 220.321 19.293C220.321 18.88 220.405 18.4845 220.573 18.1065C220.748 17.7285 220.996 17.396 221.318 17.109C221.647 16.822 222.05 16.5945 222.526 16.4265C223.009 16.2515 223.558 16.164 224.174 16.164C224.881 16.164 225.518 16.276 226.085 16.5C226.659 16.724 227.149 17.032 227.555 17.424L227.104 18.1695ZM233.279 27.168C232.418 27.168 231.753 26.9265 231.284 26.4435C230.822 25.9605 230.591 25.271 230.591 24.375V17.991H229.352C229.233 17.991 229.132 17.956 229.048 17.886C228.971 17.809 228.932 17.697 228.932 17.55V16.7205L230.665 16.479L231.127 13.2975C231.155 13.1785 231.207 13.0875 231.284 13.0245C231.368 12.9545 231.473 12.9195 231.599 12.9195H232.639V16.5H235.663V17.991H232.639V24.2385C232.639 24.6585 232.74 24.9735 232.943 25.1835C233.153 25.3865 233.419 25.488 233.741 25.488C233.93 25.488 234.091 25.4635 234.224 25.4145C234.364 25.3655 234.483 25.313 234.581 25.257C234.679 25.194 234.763 25.138 234.833 25.089C234.903 25.04 234.966 25.0155 235.022 25.0155C235.092 25.0155 235.145 25.033 235.18 25.068C235.222 25.096 235.264 25.145 235.306 25.215L235.915 26.202C235.579 26.51 235.18 26.748 234.718 26.916C234.256 27.084 233.776 27.168 233.279 27.168ZM239.691 16.332V27H237.643V16.332H239.691ZM240.079 13.035C240.079 13.224 240.041 13.406 239.964 13.581C239.887 13.749 239.782 13.8995 239.649 14.0325C239.523 14.1585 239.372 14.26 239.197 14.337C239.022 14.407 238.84 14.442 238.651 14.442C238.462 14.442 238.284 14.407 238.116 14.337C237.948 14.26 237.797 14.1585 237.664 14.0325C237.538 13.8995 237.437 13.749 237.36 13.581C237.29 13.406 237.255 13.224 237.255 13.035C237.255 12.839 237.29 12.657 237.36 12.489C237.437 12.314 237.538 12.1635 237.664 12.0375C237.797 11.9045 237.948 11.803 238.116 11.733C238.284 11.656 238.462 11.6175 238.651 11.6175C238.84 11.6175 239.022 11.656 239.197 11.733C239.372 11.803 239.523 11.9045 239.649 12.0375C239.782 12.1635 239.887 12.314 239.964 12.489C240.041 12.657 240.079 12.839 240.079 13.035ZM244.703 11.502V20.5635H245.186C245.333 20.5635 245.455 20.5425 245.553 20.5005C245.651 20.4585 245.753 20.3745 245.858 20.2485L249.05 16.731C249.148 16.598 249.256 16.5 249.375 16.437C249.494 16.367 249.645 16.332 249.827 16.332H251.696L247.926 20.4585C247.723 20.7175 247.506 20.917 247.275 21.057C247.408 21.148 247.524 21.253 247.622 21.372C247.727 21.491 247.828 21.6205 247.926 21.7605L251.937 27H250.1C249.932 27 249.785 26.972 249.659 26.916C249.54 26.86 249.431 26.7585 249.333 26.6115L246.036 22.3275C245.931 22.1665 245.826 22.065 245.721 22.023C245.616 21.974 245.459 21.9495 245.249 21.9495H244.703V27H242.655V11.502H244.703Z" fill="white"/>
</svg>
